<svg width="17" height="20" viewBox="0 0 17 20" fill="none" xmlns="http://www.w3.org/2000/svg">
<path d="M15.8333 3.33332H13.25C12.8513 1.39465 11.1459 0.0025 9.16664 0H7.49996C5.5207 0.0025 3.81531 1.39465 3.41664 3.33332H0.83332C0.373086 3.33332 0 3.70641 0 4.16664C0 4.62687 0.373086 5 0.83332 5H1.66664V15.8333C1.66941 18.1334 3.53328 19.9973 5.83332 20H10.8333C13.1334 19.9973 14.9972 18.1334 15 15.8333V5H15.8333C16.2936 5 16.6666 4.62691 16.6666 4.16668C16.6666 3.70645 16.2936 3.33332 15.8333 3.33332ZM7.5 14.1667C7.5 14.6269 7.12691 15 6.66668 15C6.20641 15 5.83332 14.6269 5.83332 14.1667V9.16668C5.83332 8.70645 6.20641 8.33336 6.66664 8.33336C7.12687 8.33336 7.49996 8.70645 7.49996 9.16668V14.1667H7.5ZM10.8333 14.1667C10.8333 14.6269 10.4602 15 10 15C9.53977 15 9.16668 14.6269 9.16668 14.1667V9.16668C9.16668 8.70645 9.53977 8.33336 10 8.33336C10.4602 8.33336 10.8333 8.70645 10.8333 9.16668V14.1667ZM5.1425 3.33332C5.49695 2.33523 6.44086 1.66793 7.5 1.66664H9.16668C10.2258 1.66793 11.1697 2.33523 11.5242 3.33332H5.1425Z" fill="#19B890"/>
</svg>
