<svg width="24" height="24" viewBox="0 0 24 24" fill="none" xmlns="http://www.w3.org/2000/svg">
<path d="M12.0001 14.985C10.3432 14.985 9.00008 16.3282 9.00008 17.985V23.985H15.0001V17.985C15.0001 16.3282 13.6569 14.985 12.0001 14.985Z" fill="#19B890"/>
<path d="M17 17.9851V23.9851H21C22.6569 23.9851 24 22.6419 24 20.9851V11.8641C24.0003 11.3446 23.7984 10.8453 23.437 10.4721L14.939 1.28504C13.4396 -0.337304 10.9089 -0.436913 9.28656 1.06253C9.2095 1.13375 9.13527 1.20798 9.06404 1.28504L0.581016 10.4691C0.208733 10.8439 -0.000139454 11.3508 6.98554e-08 11.8791V20.9851C6.98554e-08 22.6419 1.34316 23.9851 3 23.9851H6.99999V17.9851C7.01869 15.2583 9.22028 13.0315 11.8784 12.9674C14.6255 12.9011 16.9791 15.1658 17 17.9851Z" fill="#19B890"/>
<path d="M12.0001 14.985C10.3432 14.985 9.00008 16.3282 9.00008 17.985V23.985H15.0001V17.985C15.0001 16.3282 13.6569 14.985 12.0001 14.985Z" fill="#19B890"/>
</svg>
