<svg width="22" height="22" viewBox="0 0 22 22" fill="none" xmlns="http://www.w3.org/2000/svg">
<path d="M21.1707 9.08735H12.1965C11.8007 9.08735 11.4804 9.40769 11.4804 9.80341V12.6723C11.4804 13.0681 11.8007 13.3884 12.1965 13.3884H17.2513C16.7001 14.8252 15.6637 16.0265 14.3493 16.7897L16.5022 20.5207C19.9553 18.5233 21.9998 15.0137 21.9998 11.0895C21.9998 10.5289 21.9574 10.1285 21.8773 9.68092C21.8114 9.33703 21.5146 9.08735 21.1707 9.08735Z" fill="#167EE6"/>
<path d="M11 17.6941C8.52674 17.6941 6.36915 16.3421 5.21027 14.3446L1.47924 16.4928C3.37773 19.7857 6.93446 21.9999 11 21.9999C12.9974 21.9999 14.877 21.4628 16.5023 20.5253V20.5206L14.3494 16.7896C13.3601 17.3643 12.2201 17.6941 11 17.6941Z" fill="#12B347"/>
<path d="M16.4976 20.5254V20.5207L14.3447 16.7897C13.3601 17.3597 12.2201 17.6942 10.9999 17.6942V22C12.9974 22 14.877 21.4629 16.4976 20.5254Z" fill="#0F993E"/>
<path d="M4.30576 11C4.30576 9.77983 4.64023 8.63979 5.21025 7.65522L1.47922 5.50705C0.537042 7.12289 0 8.99782 0 11C0 13.0021 0.537042 14.877 1.47922 16.4929L5.21025 14.3447C4.63552 13.3601 4.30576 12.2201 4.30576 11Z" fill="#FFD500"/>
<path d="M11 4.30576C12.6111 4.30576 14.095 4.88049 15.2492 5.83209C15.5365 6.06763 15.9511 6.04879 16.2102 5.78969L18.2406 3.75929C18.5374 3.46251 18.5138 2.97729 18.1982 2.70405C16.262 1.01755 13.7417 0 11 0C6.93446 0 3.37773 2.21412 1.47924 5.50704L5.21027 7.6552C6.36915 5.65778 8.52674 4.30576 11 4.30576Z" fill="#FF4B26"/>
<path d="M15.2492 5.83209C15.5365 6.06763 15.9511 6.04879 16.2102 5.78969L18.2406 3.75929C18.5374 3.46251 18.5138 2.97729 18.1982 2.70405C16.262 1.01755 13.7417 0 10.9999 0V4.30576C12.6111 4.30576 14.095 4.87578 15.2492 5.83209Z" fill="#D93F21"/>
</svg>
