<svg width="17" height="12" viewBox="0 0 17 12" fill="none" xmlns="http://www.w3.org/2000/svg">
<path d="M16.2247 5.63563L11.3157 0.18109C11.2109 0.0654543 11.0647 0 10.9098 0H7.63712C7.53175 0.000114178 7.42866 0.0306451 7.34022 0.0879258C7.25179 0.145207 7.18177 0.226801 7.13858 0.322908C7.0513 0.520363 7.0873 0.750544 7.2313 0.909816L11.812 5.99999L7.2313 11.0891C7.0873 11.2494 7.05021 11.4796 7.13858 11.676C7.22694 11.8734 7.42221 12 7.63712 12H10.9098C11.0647 12 11.2109 11.9334 11.3157 11.82L16.2247 6.36544C16.4113 6.15817 16.4113 5.84181 16.2247 5.63563Z" fill="white" fill-opacity="0.4"/>
<path d="M9.13369 5.63563L4.2246 0.18109C4.11988 0.0654543 3.9737 0 3.81879 0H0.546067C0.4407 0.000114178 0.337607 0.0306451 0.24917 0.0879258C0.160733 0.145207 0.090714 0.226801 0.0475224 0.322908C-0.0397502 0.520363 -0.00375024 0.750544 0.140249 0.909816L4.72097 5.99999L0.140249 11.0891C-0.00375024 11.2494 -0.0408411 11.4796 0.0475224 11.676C0.135886 11.8734 0.331158 12 0.546067 12H3.81879C3.9737 12 4.11988 11.9334 4.2246 11.82L9.13369 6.36544C9.32023 6.15817 9.32023 5.84181 9.13369 5.63563Z" fill="white" fill-opacity="0.4"/>
</svg>
