<svg width="55" height="54" viewBox="0 0 55 54" fill="none" xmlns="http://www.w3.org/2000/svg">
<path d="M53.5683 26.4764C54.456 31.005 56.2548 40.1834 51.9506 46.3234C44.1382 57.4671 17.5688 56.6818 6.34605 42.6321C5.37563 41.4173 0.508493 35.0813 1.0395 26.4051C1.9612 11.3569 18.5875 -1.98268 31.9129 0.637013C39.711 2.17042 44.8942 8.87795 47.0282 11.6393C47.9076 12.7773 51.935 18.1425 53.5683 26.4764Z" fill="#F4F7FA"/>
<path d="M31.4534 30.0194C32.8344 28.7203 34.656 26.6113 35.4788 23.6312C36.5568 19.7228 34.9682 17.7502 35.1402 11.1352C35.2483 6.95261 35.3659 4.03477 37.4726 2.47164C39.1236 1.24672 41.799 1.00049 43.4234 2.13306C44.7744 3.07357 45.5576 5.07779 45.7977 6.5085C45.9933 7.67473 45.8381 8.52119 46.5111 9.13496C47.199 9.76191 47.9407 9.40564 48.5831 9.86988C49.887 10.8115 49.1363 13.9361 49.0157 14.4408C47.6648 20.058 42.495 23.8517 40.2189 25.4793C38.3379 26.825 35.4274 28.6188 31.4534 30.0194Z" fill="url(#paint0_linear_1_642)"/>
<mask id="mask0_1_642" style="mask-type:luminance" maskUnits="userSpaceOnUse" x="31" y="1" width="19" height="30">
<path d="M31.4534 30.0194C32.8344 28.7203 34.656 26.6113 35.4788 23.6312C36.5568 19.7228 34.9682 17.7502 35.1402 11.1352C35.2483 6.95261 35.3659 4.03477 37.4726 2.47164C39.1236 1.24672 41.799 1.00049 43.4234 2.13306C44.7744 3.07357 45.5576 5.07779 45.7977 6.5085C45.9933 7.67473 45.8381 8.52119 46.5111 9.13496C47.199 9.76191 47.9407 9.40564 48.5831 9.86988C49.887 10.8115 49.1363 13.9361 49.0157 14.4408C47.6648 20.058 42.495 23.8517 40.2189 25.4793C38.3379 26.825 35.4274 28.6188 31.4534 30.0194Z" fill="white"/>
</mask>
<g mask="url(#mask0_1_642)">
<g style="mix-blend-mode:soft-light" opacity="0.5">
<path d="M29.8785 31.0668L29.8313 30.9431C32.2302 30.0283 34.2938 28.9387 35.9647 27.7043C38.4278 25.8848 39.9598 23.7993 40.5187 21.5056C40.9562 19.7092 40.7982 17.8478 40.5793 15.2715C40.4045 13.2143 40.0951 11.7728 39.822 10.5C39.4646 8.8362 39.1824 7.52193 39.3763 5.6142C39.5722 3.67825 40.2081 1.75322 41.2664 -0.1073L41.3815 -0.0418401C40.3325 1.8025 39.7021 3.71004 39.508 5.62737C39.3171 7.51459 39.597 8.81983 39.9516 10.4721C40.2254 11.7484 40.5356 13.1947 40.7111 15.2599C40.9229 17.7517 41.0901 19.7196 40.6474 21.537C40.081 23.8616 38.532 25.9725 36.0434 27.8108C34.3629 29.0523 32.2887 30.1474 29.8785 31.0668Z" fill="white"/>
<path d="M40.5215 13.8306L40.4528 13.8007C40.4391 13.7947 39.0675 13.189 37.6962 11.781C36.4306 10.4814 34.904 8.21255 34.8182 4.78363L34.9499 4.78025C35.0338 8.16439 36.5382 10.403 37.7857 11.6851C38.9661 12.8985 40.1453 13.5082 40.4363 13.6481C41.557 9.92691 43.5518 7.59124 45.0327 6.28525C46.6504 4.85906 48.0236 4.31601 48.0367 4.31018L48.0847 4.43358C48.0713 4.43884 46.7155 4.97587 45.1157 6.38833C43.6397 7.6915 41.648 10.0281 40.5412 13.7589L40.5215 13.8306Z" fill="white"/>
<path d="M40.828 19.4006L40.8009 19.361C40.7873 19.3421 39.4317 17.3714 37.6863 15.6627C35.9512 13.9643 31.8907 13.378 31.8499 13.3724L31.8687 13.2407C31.91 13.2463 36.0137 13.8388 37.7794 15.5675C39.3971 17.1506 40.6807 18.9562 40.8831 19.2457C45.1391 17.9301 49.672 7.95953 49.7175 7.85852L49.8382 7.91288C49.8268 7.93828 48.6735 10.4869 47.0035 13.1589C44.7559 16.755 42.6939 18.8503 40.875 19.3864L40.828 19.4006Z" fill="white"/>
<path d="M36.6877 27.3082L36.7534 27.1938C37.8387 25.303 37.6783 23.3189 36.2764 21.2964C35.2262 19.7813 33.8342 18.8135 33.8203 18.8039L33.8956 18.6948C33.9095 18.7046 35.3189 19.6838 36.3832 21.218C37.7697 23.2166 37.9587 25.2622 36.9336 27.1432C37.4227 27.0719 39.2392 26.7729 41.5109 25.977C43.9596 25.1198 47.4549 23.494 50.198 20.6161L55.5286 15.0259L55.6245 15.118L50.2941 20.7083C47.5314 23.605 44.0149 25.2415 41.5515 26.1034C38.8831 27.0373 36.8393 27.2901 36.8188 27.2926L36.6877 27.3082Z" fill="white"/>
</g>
</g>
<path d="M28.6886 42.3958C32.628 43.0905 37.7457 43.4131 42.9302 42.0505C44.2533 41.7027 52.4267 39.5544 52.1156 35.9449C52.0061 34.6733 50.9362 34.2943 50.7599 32.5967C50.5511 30.5853 51.9196 29.8301 53.1609 27.5777C53.9016 26.2337 56.0691 22.3003 53.9567 19.5616C52.6942 17.9251 49.9605 16.789 47.7097 16.9281C44.4083 17.1307 42.7929 20.038 40.144 25.0028C37.7965 29.4044 38.0028 30.6169 36.2571 33.7567C34.9622 36.0869 32.7352 39.2201 28.6886 42.3958Z" fill="url(#paint1_linear_1_642)"/>
<mask id="mask1_1_642" style="mask-type:luminance" maskUnits="userSpaceOnUse" x="28" y="16" width="27" height="27">
<path d="M28.6886 42.3958C32.628 43.0905 37.7457 43.4131 42.9302 42.0505C44.2533 41.7027 52.4267 39.5544 52.1156 35.9449C52.0061 34.6733 50.9362 34.2943 50.7599 32.5967C50.5511 30.5853 51.9196 29.8301 53.1609 27.5777C53.9016 26.2337 56.0691 22.3003 53.9567 19.5616C52.6942 17.9251 49.9605 16.789 47.7097 16.9281C44.4083 17.1307 42.7929 20.038 40.144 25.0028C37.7965 29.4044 38.0028 30.6169 36.2571 33.7567C34.9622 36.0869 32.7352 39.2201 28.6886 42.3958Z" fill="white"/>
</mask>
<g mask="url(#mask1_1_642)">
<g style="mix-blend-mode:soft-light" opacity="0.5">
<path d="M22.4749 43.1874C18.8517 43.1874 15.1995 42.3579 11.5951 40.7137L11.65 40.5933C15.7757 42.4753 19.9641 43.2847 24.0969 42.9991C29.6036 42.6186 34.729 40.2267 39.3309 35.8898C44.123 31.3739 47.1469 25.8803 48.84 22.0671C50.013 19.4254 50.3947 16.3456 49.9745 12.913L50.1062 12.897C50.5294 16.3535 50.1438 19.457 48.9616 22.1209C47.2636 25.9452 44.23 31.4551 39.4222 35.9863C34.7973 40.3446 29.6444 42.7486 24.1065 43.1312C23.5634 43.1685 23.0195 43.1873 22.4749 43.1874Z" fill="white"/>
<path d="M44.8125 29.5266L44.7834 29.4747C44.7745 29.4591 43.9025 27.8946 43.3653 25.6397C42.8691 23.5568 42.5647 20.4407 43.932 17.4239L44.0528 17.4787C42.7015 20.4599 43.0026 23.5435 43.4932 25.6047C43.9711 27.613 44.7158 29.0686 44.8705 29.3569C54.1779 25.3295 55.1491 19.0817 55.2251 17.2597C55.2254 17.2302 55.2272 17.2008 55.2307 17.1715L55.3611 17.1945C55.3596 17.2044 55.3588 17.2283 55.3573 17.2654C55.2806 19.1103 54.2968 25.4454 44.8673 29.5027L44.8125 29.5266Z" fill="white"/>
<path d="M45.5533 36.9689C43.8335 36.9689 41.7941 36.6903 39.436 35.9253L39.4024 35.9144L39.3928 35.8801C39.3781 35.8282 37.9453 30.612 39.5528 24.1207L41.1747 17.5714L41.3031 17.6034L39.6813 24.1525C38.1505 30.3343 39.3903 35.3504 39.5111 35.8103C42.2687 36.7003 46.3366 37.4621 50.1229 36.0737C52.3957 35.24 53.5027 34.0072 53.5136 33.9948L53.6129 34.0824C53.6018 34.095 52.4779 35.3489 50.1767 36.195C49.0494 36.609 47.5079 36.9689 45.5533 36.9689Z" fill="white"/>
</g>
</g>
<path d="M17.7079 24.4989C16.3632 23.6757 14.5219 22.2682 13.3466 19.9814C11.8055 16.9827 12.7635 15.1069 11.5013 9.75055C10.703 6.36472 10.1116 4.00836 8.13111 3.09343C6.57908 2.37658 4.35966 2.63033 3.22898 3.82703C2.28847 4.82247 1.99127 6.58686 2.03886 7.79222C2.07761 8.77468 2.34772 9.43793 1.90399 10.0517C1.45048 10.679 0.786478 10.5148 0.342746 11.002C-0.559015 11.9899 0.582764 14.4066 0.767292 14.7968C2.82005 19.1419 7.67327 21.3516 9.80202 22.2904C11.5613 23.067 14.2354 24.0341 17.7079 24.4989Z" fill="url(#paint2_linear_1_642)"/>
<mask id="mask2_1_642" style="mask-type:luminance" maskUnits="userSpaceOnUse" x="0" y="2" width="18" height="23">
<path d="M17.7079 24.4989C16.3632 23.6757 14.5219 22.2682 13.3466 19.9814C11.8055 16.9827 12.7635 15.1069 11.5013 9.75055C10.703 6.36472 10.1116 4.00836 8.13111 3.09343C6.57908 2.37658 4.35966 2.63033 3.22898 3.82703C2.28847 4.82247 1.99127 6.58686 2.03886 7.79222C2.07761 8.77468 2.34772 9.43793 1.90399 10.0517C1.45048 10.679 0.786478 10.5148 0.342746 11.002C-0.559015 11.9899 0.582764 14.4066 0.767292 14.7968C2.82005 19.1419 7.67327 21.3516 9.80202 22.2904C11.5613 23.067 14.2354 24.0341 17.7079 24.4989Z" fill="white"/>
</mask>
<g mask="url(#mask2_1_642)">
<g style="mix-blend-mode:soft-light" opacity="0.5">
<path d="M19.1662 25.0953C17.0471 24.7567 15.1715 24.2163 13.5916 23.4904C11.2509 22.4152 9.62963 20.958 8.77283 19.1592C8.103 17.7531 7.90474 16.1217 7.654 14.0566C7.44709 12.3448 7.4531 11.1139 7.45931 10.028C7.4674 8.62361 7.4738 7.51418 6.99827 6.012C6.51523 4.48536 5.67893 3.04093 4.5127 1.71857L4.61201 1.6311C5.79047 2.96663 6.6358 4.42762 7.12468 5.97193C7.60641 7.49406 7.60001 8.6127 7.59174 10.0287C7.58553 11.1107 7.57857 12.3369 7.78548 14.0404C8.0445 16.1742 8.23185 17.7157 8.89227 19.1022C9.73553 20.8722 11.3352 22.3082 13.6469 23.3701C15.2159 24.0909 17.0798 24.6273 19.1873 24.9646L19.1662 25.0953Z" fill="white"/>
<path d="M7.57317 12.8753L7.53762 12.8094C6.00308 9.96005 3.98475 8.39692 2.56176 7.58733C1.02195 6.71134 -0.166662 6.50593 -0.179077 6.50405L-0.157446 6.37332C-0.145219 6.37539 1.0671 6.58475 2.62646 7.47221C4.05322 8.28387 6.07212 9.84474 7.61681 12.6789C7.84535 12.5024 8.68636 11.8097 9.42899 10.6408C10.2254 9.38709 11.0687 7.31138 10.5632 4.54628L10.6936 4.52258C11.2079 7.33302 10.3494 9.44201 9.5394 10.7166C8.66097 12.0975 7.64521 12.8248 7.63506 12.832L7.57317 12.8753Z" fill="white"/>
<path d="M8.28022 17.4575L8.23225 17.4535C6.65746 17.3258 4.62069 15.9688 2.17819 13.4208C0.364508 11.5285 -1.0077 9.64881 -1.02124 9.63019L-0.91421 9.55212C-0.860037 9.62736 4.51291 16.9594 8.19538 17.3174C8.32103 17.0247 9.05632 15.3519 10.0952 13.8017C10.6954 12.906 11.8671 12.1641 12.7443 11.6997C13.318 11.3958 13.9103 11.1285 14.5177 10.8993L14.5624 11.024C14.5301 11.0357 11.3271 12.2015 10.2051 13.8755C9.07476 15.5624 8.30636 17.3943 8.29865 17.4131L8.28022 17.4575Z" fill="white"/>
<path d="M11.8008 23.2348C10.8044 23.2335 9.80904 23.1675 8.82111 23.0373C6.66791 22.7535 3.52566 22.0184 0.78276 20.1276L-4.5061 16.4809L-4.43086 16.3718L0.858001 20.0177C3.57796 21.8929 6.69725 22.6235 8.83503 22.9057C10.7847 23.163 12.2946 23.1049 12.7357 23.0789C11.5915 21.7214 11.4024 20.0262 12.1902 18.1672C12.7968 16.7357 13.7795 15.6976 13.7891 15.6873L13.8848 15.7787C13.8752 15.7888 12.9067 16.8121 12.3104 18.2221C11.5147 20.1031 11.7203 21.7408 12.9217 23.0921L13.0094 23.1906L12.8777 23.2021C12.8702 23.2017 12.4716 23.2348 11.8008 23.2348Z" fill="white"/>
</g>
</g>
<path d="M26.5696 43.9326C22.63 44.6273 17.5125 44.9501 12.328 43.5873C11.0049 43.2393 2.83134 41.0914 3.14246 37.4817C3.25212 36.2101 4.32186 35.8311 4.49811 34.1335C4.7069 32.1221 3.33846 31.3669 2.09718 29.1145C1.35718 27.7707 -0.811067 23.8373 1.30075 21.0986C2.56311 19.4621 5.29679 18.3259 7.54762 18.4651C10.849 18.6689 12.4642 21.5752 15.1125 26.5402C17.4598 30.9418 17.2537 32.1543 18.9993 35.2939C20.2957 37.6239 22.5228 40.7564 26.5696 43.9326Z" fill="url(#paint3_linear_1_642)"/>
<mask id="mask3_1_642" style="mask-type:luminance" maskUnits="userSpaceOnUse" x="0" y="18" width="27" height="27">
<path d="M26.5696 43.9326C22.63 44.6273 17.5125 44.9501 12.328 43.5873C11.0049 43.2393 2.83134 41.0914 3.14246 37.4817C3.25212 36.2101 4.32186 35.8311 4.49811 34.1335C4.7069 32.1221 3.33846 31.3669 2.09718 29.1145C1.35718 27.7707 -0.811067 23.8373 1.30075 21.0986C2.56311 19.4621 5.29679 18.3259 7.54762 18.4651C10.849 18.6689 12.4642 21.5752 15.1125 26.5402C17.4598 30.9418 17.2537 32.1543 18.9993 35.2939C20.2957 37.6239 22.5228 40.7564 26.5696 43.9326Z" fill="white"/>
</mask>
<g mask="url(#mask3_1_642)">
<g style="mix-blend-mode:soft-light" opacity="0.5">
<path d="M32.7831 44.7243C32.2386 44.7243 31.6949 44.7055 31.152 44.6679C25.6139 44.2853 20.4611 41.8814 15.8364 37.523C11.0283 32.992 7.99481 27.4822 6.29681 23.658C5.11421 20.9941 4.72898 17.8908 5.15221 14.4341L5.28388 14.4501C4.86366 17.8827 5.24626 20.9627 6.41814 23.6042C8.11105 27.4174 11.1354 32.911 15.9273 37.4269C20.5292 41.7638 25.6548 44.1557 31.1613 44.5362C35.2946 44.8216 39.4825 44.0124 43.6082 42.1304L43.6633 42.2508C40.0589 43.8948 36.4063 44.7243 32.7831 44.7243Z" fill="white"/>
<path d="M10.4455 31.064L10.3908 31.0404C0.962383 26.9831 -0.0223314 20.6484 -0.0992651 18.8031C-0.10077 18.7655 -0.101523 18.7421 -0.103027 18.7322L0.0275155 18.7092C0.0297727 18.7228 0.0307136 18.7425 0.0331589 18.7976C0.1084 20.6194 1.08032 26.8672 10.3876 30.8949C10.5419 30.6063 11.2869 29.1508 11.7649 27.1426C12.2555 25.0808 12.5568 21.9973 11.2055 19.0166L11.3261 18.962C12.6934 21.9786 12.389 25.0942 11.8928 27.1776C11.3558 29.4327 10.4835 30.9964 10.4747 31.0128L10.4455 31.064Z" fill="white"/>
<path d="M9.70511 38.5059C7.75036 38.5059 6.20905 38.146 5.08175 37.7316C2.78052 36.8852 1.65661 35.6315 1.64551 35.6189L1.74483 35.5312C1.75574 35.5436 2.86272 36.7765 5.13555 37.6103C8.92186 38.9993 12.9898 38.2374 15.7473 37.347C15.8681 36.8872 17.1081 31.8709 15.578 25.6892L13.9562 19.14L14.0849 19.108L15.7067 25.6574C17.3142 32.1486 15.8813 37.365 15.8666 37.4169L15.857 37.451L15.8233 37.4619C13.4647 38.2271 11.4247 38.5059 9.70511 38.5059Z" fill="white"/>
</g>
</g>
<path d="M37.6405 0.985575L13.3336 0.000861044C12.7727 -0.0217112 12.3179 0.402271 12.3179 0.948143V44.7731C12.3179 45.3186 12.7736 45.7315 13.3336 45.6948L37.6405 44.0985C38.1386 44.0658 38.5415 43.6238 38.5415 43.111V1.95091C38.5415 1.43777 38.1386 1.00589 37.6405 0.985575Z" fill="url(#paint4_linear_1_642)"/>
<path d="M37.3808 2.50431L13.3336 0.000861044C12.7727 -0.0217112 12.3179 0.402271 12.3179 0.948143V44.7731C12.3179 45.3186 12.7736 45.7315 13.3336 45.6948L37.6405 44.0985C38.1386 44.0658 38.5415 43.6238 38.5415 43.111V1.95091C38.5415 1.43777 37.8789 2.52444 37.3808 2.50431Z" fill="url(#paint5_linear_1_642)"/>
<path d="M38.2093 0.985575L13.9023 0.000861044C13.3414 -0.0217112 12.8866 0.402271 12.8866 0.948143V44.7731C12.8866 45.3186 13.3424 45.7315 13.9023 45.6948L38.2093 44.0985C38.7074 44.0658 39.1103 43.6238 39.1103 43.111V1.95091C39.1103 1.43777 38.7074 1.00589 38.2093 0.985575Z" fill="#D8DEE8"/>
<g style="mix-blend-mode:multiply" opacity="0.3">
<path d="M28.2895 33.0929C27.8757 28.112 30.9703 26.0475 29.7915 21.5389C28.3328 15.9604 22.708 15.7134 20.7871 10.2238C20.0503 8.1184 19.7591 4.93816 21.8675 0.323644L13.9023 0.000861044C13.3414 -0.0217112 12.8866 0.402271 12.8866 0.948143V44.7731C12.8866 45.3186 13.3424 45.7315 13.9023 45.6948L35.5971 44.2701C30.1107 40.1102 28.5431 36.1537 28.2895 33.0929Z" fill="#D8DEE8"/>
</g>
<path d="M38.2091 1.53367L13.9022 0.581878C13.6723 0.572849 13.485 0.747408 13.485 0.971061V44.7351C13.485 44.9585 13.6731 45.1284 13.9022 45.1137L38.2091 43.5502C38.4136 43.537 38.5797 43.355 38.5797 43.1445V1.93019C38.5797 1.71952 38.4132 1.54176 38.2091 1.53367Z" fill="url(#paint6_linear_1_642)"/>
<g style="mix-blend-mode:soft-light" opacity="0.35">
<path d="M28.2894 33.0929C27.8755 28.1119 30.9702 26.0475 29.7914 21.5389C28.3326 15.9603 22.7078 15.7134 20.7869 10.2238C20.0806 8.20528 19.7838 5.1979 21.6198 0.884158L13.9022 0.581878C13.6723 0.572849 13.485 0.747408 13.485 0.971061V44.7351C13.485 44.9585 13.6731 45.1284 13.9022 45.1137L34.9431 43.7594C29.9836 39.7852 28.5324 36.0269 28.2894 33.0929Z" fill="white"/>
</g>
<path d="M26.4088 20.8024C21.8552 20.84 18.0768 17.1272 18.0768 12.5272C18.0768 7.92716 21.8552 4.30244 26.4097 4.44408C30.866 4.58252 34.4228 8.29189 34.4228 12.7155C34.4228 17.1391 30.8651 20.7664 26.4088 20.8024Z" fill="#D8DEE8"/>
<path d="M33.8789 12.709C33.8789 16.8396 30.5683 20.2103 26.4091 20.2382C22.1659 20.2668 18.6624 16.8175 18.6624 12.5339C18.6624 8.25025 22.1659 4.88191 26.4091 5.00794C30.5677 5.13171 33.8789 8.57868 33.8789 12.709Z" fill="white"/>
<path d="M35.5025 23.7143L16.9017 24.0002C16.3803 24.0081 15.9567 24.4289 15.9567 24.9408C15.9567 25.4516 16.3803 25.8576 16.9017 25.8472L35.5025 25.481C35.9784 25.4718 36.3633 25.0696 36.3633 24.583C36.3631 24.0958 35.9784 23.7072 35.5025 23.7143Z" fill="#D8DEE8"/>
<path d="M35.5024 27.1908L20.2727 27.5544C19.7594 27.5666 19.3425 27.987 19.3425 28.4949C19.3425 29.0028 19.7594 29.401 20.2727 29.3865L35.5024 28.9573C35.9783 28.9437 36.3631 28.5385 36.3631 28.0519C36.3629 27.5647 35.9783 27.1795 35.5024 27.1908Z" fill="#D8DEE8"/>
<path d="M16.9103 29.4808H16.893C16.3765 29.4953 15.9567 29.1112 15.9567 28.6227V28.5414C15.9567 28.0523 16.3765 27.647 16.893 27.6346H16.9103C17.4257 27.6222 17.8426 28.0066 17.8426 28.4929V28.5738C17.8426 29.0602 17.4257 29.4663 16.9103 29.4808Z" fill="#B19AF3"/>
<path d="M16.9016 29.6542C16.2834 29.6719 15.7791 29.1932 15.7791 28.5873C15.7791 27.9814 16.2834 27.4764 16.9016 27.4619C17.5199 27.4474 18.0184 27.9261 18.0184 28.529C18.0184 29.1318 17.5182 29.6365 16.9016 29.6542ZM16.9016 27.808C16.4788 27.8183 16.1342 28.1637 16.1342 28.5779C16.1342 28.9921 16.4788 29.3198 16.9016 29.3079C17.3245 29.2961 17.6665 28.9505 17.6665 28.538C17.6665 28.1255 17.3237 27.7978 16.9016 27.808Z" fill="#D8DEE8"/>
<path d="M35.5024 30.3355L20.2727 30.8163C19.7594 30.8324 19.3425 31.2566 19.3425 31.7635C19.3425 32.2703 19.7594 32.6664 20.2727 32.6476L35.5024 32.1012C35.9783 32.0841 36.3631 31.6759 36.3631 31.1893C36.3629 30.7034 35.9783 30.3212 35.5024 30.3355Z" fill="#D8DEE8"/>
<path d="M16.9103 32.7691H16.893C16.3765 32.788 15.9567 32.4069 15.9567 31.9182V31.8371C15.9567 31.348 16.3765 30.9393 16.893 30.9231H16.9103C17.4257 30.9068 17.8426 31.2878 17.8426 31.7743V31.855C17.8426 32.3414 17.4257 32.7507 16.9103 32.7691Z" fill="#B19AF3"/>
<path d="M16.9016 32.9426C16.2834 32.965 15.7791 32.4912 15.7791 31.8844C15.7791 31.2776 16.2834 30.7695 16.9016 30.7503C17.5199 30.7311 18.0184 31.2059 18.0184 31.8088C18.0184 32.4116 17.5182 32.9203 16.9016 32.9426ZM16.9016 31.0964C16.4788 31.11 16.1342 31.4581 16.1342 31.8723C16.1342 32.2865 16.4788 32.6114 16.9016 32.5963C17.3245 32.5813 17.6657 32.2335 17.6657 31.8216C17.6657 31.4096 17.3237 31.0829 16.9016 31.0964Z" fill="#D8DEE8"/>
<path d="M35.5024 33.4815L20.2727 34.0787C19.7594 34.0989 19.3425 34.526 19.3425 35.033C19.3425 35.5399 19.7594 35.9327 20.2727 35.9103L35.5024 35.2465C35.9783 35.2258 36.3631 34.8138 36.3631 34.328C36.3629 33.8421 35.9783 33.4627 35.5024 33.4815Z" fill="#D8DEE8"/>
<path d="M16.9103 36.0576H16.893C16.3765 36.08 15.9567 35.7022 15.9567 35.2137V35.1327C15.9567 34.6436 16.3765 34.2317 16.893 34.211H16.9103C17.4257 34.1908 17.8426 34.5684 17.8426 35.0552V35.1359C17.8426 35.6227 17.4257 36.035 16.9103 36.0576Z" fill="#B19AF3"/>
<path d="M16.9016 36.2311C16.2834 36.2581 15.7791 35.7873 15.7791 35.1814C15.7791 34.5756 16.2834 34.0628 16.9016 34.0387C17.5199 34.0146 18.0184 34.4858 18.0184 35.0887C18.0184 35.6916 17.5182 36.2043 16.9016 36.2311ZM16.9016 34.3848C16.4788 34.4016 16.1342 34.7524 16.1342 35.1666C16.1342 35.5808 16.4788 35.9032 16.9016 35.8849C17.3245 35.8667 17.6665 35.5161 17.6665 35.1032C17.6665 34.6903 17.3237 34.3681 16.9016 34.3848Z" fill="#D8DEE8"/>
<path d="M35.5024 36.6268L20.2727 37.3416C19.7594 37.3657 19.3425 37.7962 19.3425 38.303C19.3425 38.8099 19.7594 39.1995 20.2727 39.1731L35.5024 38.3921C35.9783 38.3677 36.3631 37.9535 36.3631 37.4671C36.3629 36.9808 35.9783 36.6044 35.5024 36.6268Z" fill="#D8DEE8"/>
<path d="M16.9103 39.3456H16.893C16.3765 39.3721 15.9567 38.9976 15.9567 38.5091V38.428C15.9567 37.939 16.3765 37.5237 16.893 37.4994H16.9103C17.4257 37.4753 17.8426 37.85 17.8426 38.3363V38.4171C17.8426 38.9038 17.4257 39.3195 16.9103 39.3456Z" fill="#B19AF3"/>
<path d="M16.9016 39.5194C16.2834 39.5514 15.7791 39.0843 15.7791 38.4784C15.7791 37.8726 16.2834 37.3558 16.9016 37.3271C17.5199 37.2983 18.0184 37.7655 18.0184 38.3684C18.0184 38.9713 17.5182 39.4876 16.9016 39.5194ZM16.9016 37.6732C16.4788 37.6933 16.1342 38.0467 16.1342 38.4609C16.1342 38.8751 16.4788 39.1945 16.9016 39.1733C17.3245 39.152 17.6657 38.7984 17.6657 38.3863C17.6657 37.9741 17.3237 37.6527 16.9016 37.6732Z" fill="#D8DEE8"/>
<mask id="mask4_1_642" style="mask-type:luminance" maskUnits="userSpaceOnUse" x="19" y="5" width="15" height="15">
<path d="M33.3346 12.7029C33.3346 16.5324 30.2625 19.6536 26.409 19.6741C22.4832 19.6952 19.2457 16.5016 19.2457 12.5411C19.2457 8.5806 22.483 5.46111 26.4088 5.57247C30.2625 5.68157 33.3346 8.8731 33.3346 12.7029Z" fill="white"/>
</mask>
<g mask="url(#mask4_1_642)">
<path d="M18.663 17.7873C18.663 17.7873 25.4691 13.8242 33.8795 17.7747C33.8795 17.7747 32.8084 21.1638 26.4098 21.391C19.8085 21.6263 18.663 17.7873 18.663 17.7873Z" fill="url(#paint7_linear_1_642)"/>
<path d="M25.2035 12.609L24.9484 14.5013C24.8745 15.7052 23.6793 16.1555 23.6793 16.1555C25.0826 17.8196 27.7641 17.7583 28.7016 16.1854C28.0538 15.9427 27.3274 14.9439 27.2992 14.2479L27.2335 12.6327L25.2035 12.609Z" fill="url(#paint8_linear_1_642)"/>
<path d="M28.2971 10.9748C28.2971 12.5719 27.3325 14.2805 26.1365 14.2715C24.9327 14.2624 23.9532 12.5221 23.9532 10.9072C23.9532 9.29239 24.9334 8.43182 26.1365 8.45759C27.3325 8.48336 28.2971 9.3776 28.2971 10.9748Z" fill="url(#paint9_linear_1_642)"/>
<path d="M23.8884 11.3135L24.2495 11.2618C24.1942 11.1288 23.9674 10.5402 24.2495 10.0333C24.5211 9.54668 25.1607 9.31851 25.649 9.36083C26.2033 9.40823 26.5361 9.66951 26.8143 9.47727C26.9706 9.3693 27.0212 9.16878 27.04 9.01228C27.0574 9.15539 27.0954 9.29522 27.1529 9.42742C27.3598 9.90275 27.7095 10.0073 27.9 10.3224C28.0283 10.5344 28.1116 10.8867 27.9 11.5028L28.2168 11.4885C28.3677 11.0197 28.4775 10.5386 28.5448 10.0508C28.6682 9.15749 28.7531 8.54278 28.4028 8.23504C28.333 8.17372 28.0244 7.92975 27.2853 8.13648C27.1122 7.95289 26.7471 7.61543 26.1855 7.43655C25.9912 7.37466 25.0271 7.06749 24.1728 7.66227C23.5912 8.06726 23.135 8.83716 23.2817 9.48536C23.3592 9.82808 23.5712 9.98533 23.7576 10.6486C23.8181 10.8666 23.8618 11.0889 23.8884 11.3135Z" fill="url(#paint10_linear_1_642)"/>
<path d="M27.9968 11.5598C27.9968 11.5598 28.1355 10.8621 28.5566 10.939C28.9778 11.016 28.3747 12.1523 27.9968 12.2855V11.5598Z" fill="url(#paint11_linear_1_642)"/>
<path d="M24.2238 11.5063C24.2238 11.5063 24.0825 10.7979 23.6521 10.8613C23.2217 10.9247 23.8383 12.0936 24.2238 12.2375V11.5063Z" fill="url(#paint12_linear_1_642)"/>
</g>
<path d="M43.7222 47.3939C46.0813 47.3939 47.9936 46.6134 47.9936 45.6506C47.9936 44.6877 46.0813 43.9072 43.7222 43.9072C41.3632 43.9072 39.4508 44.6877 39.4508 45.6506C39.4508 46.6134 41.3632 47.3939 43.7222 47.3939Z" fill="#B7C0CE"/>
<path d="M47.9936 45.4461C47.9936 46.355 46.0812 47.0918 43.7222 47.0918C41.3632 47.0918 39.4508 46.355 39.4508 45.4461C39.4508 44.5372 41.3632 43.0511 43.7222 43.0511C46.0812 43.0511 47.9936 44.5372 47.9936 45.4461Z" fill="url(#paint13_linear_1_642)"/>
<path d="M47.9935 45.4462C47.9935 44.5374 46.081 43.0503 43.722 43.0503C42.7278 43.0522 41.7508 43.3098 40.8849 43.7984C40.832 43.909 40.8074 44.019 40.8174 44.1234C40.8665 44.6349 41.7003 44.9492 42.179 45.0528C43.3846 45.3139 43.9733 44.5931 44.9673 44.6202C45.5818 44.6371 46.4333 44.946 47.4433 46.2533C47.7929 46.0152 47.9935 45.7398 47.9935 45.4462Z" fill="#B7C0CE"/>
<path d="M43.9563 43.8756C43.7991 43.9168 43.6341 43.9178 43.4764 43.8784C43.4103 43.8608 43.3519 43.8217 43.3104 43.7672C43.2689 43.7127 43.2467 43.646 43.2473 43.5775V38.7625H44.1972V43.5732C44.1965 43.6432 44.1724 43.711 44.1288 43.7658C44.0851 43.8206 44.0244 43.8593 43.9563 43.8756Z" fill="white"/>
<path d="M43.9563 43.8756C43.7991 43.9168 43.6341 43.9178 43.4764 43.8784C43.4103 43.8608 43.3519 43.8217 43.3104 43.7672C43.2689 43.7127 43.2467 43.646 43.2473 43.5775V38.7625H44.1972V43.5732C44.1965 43.6432 44.1724 43.711 44.1288 43.7658C44.0851 43.8206 44.0244 43.8593 43.9563 43.8756Z" fill="url(#paint14_linear_1_642)"/>
<path d="M38.7033 36.7348L40.1543 35.8174C40.2147 35.4749 40.8986 31.8904 43.6754 30.7648C44.804 30.307 46.0197 30.3613 46.6865 30.3911C48.0179 30.4505 48.9674 30.493 49.4241 31.128C50.0106 31.9435 49.0271 32.6829 49.2306 35.0154C49.3137 35.9664 49.525 36.3885 49.2618 37.019C48.9467 37.7739 48.2158 38.1922 47.6475 38.4277C46.9683 38.8227 45.7853 39.3844 44.2241 39.5212C41.5927 39.7518 39.6284 38.6232 38.9529 38.1913C38.8054 38.1447 38.6729 38.0597 38.5692 37.9449C38.4655 37.8302 38.3943 37.6898 38.3628 37.5384C38.3311 37.3857 38.3467 37.227 38.4076 37.0834C38.4684 36.9398 38.5715 36.8182 38.7033 36.7348Z" fill="url(#paint15_linear_1_642)"/>
<path d="M46.9793 30.5827C47.9638 30.6119 48.5757 30.6004 48.9141 31.04C49.2693 31.5016 48.9104 31.8947 48.8438 33.5378C48.7832 35.0356 49.0473 35.628 48.5631 36.4579C48.5631 36.4579 48.3173 36.8798 47.9289 37.1966C46.5557 38.3163 43.0166 38.3026 41.5264 35.9652C40.3376 34.1004 40.8333 31.3515 42.2301 30.442C42.9144 29.997 43.0713 30.4672 46.9793 30.5827Z" fill="url(#paint16_linear_1_642)"/>
<path d="M38.598 35.911L40.049 34.9936C40.049 34.9936 43.9355 33.7159 47.5315 35.5175C47.7287 35.6176 47.8942 35.7706 48.0096 35.9593C48.1249 36.1481 48.1856 36.3651 48.1848 36.5863C48.1846 36.7552 48.1345 36.9204 48.0408 37.0609C47.9471 37.2015 47.814 37.3112 47.6581 37.3763C47.0308 37.8046 45.806 38.5117 44.118 38.6968C41.434 38.991 39.4371 37.7621 38.8466 37.3667C38.6991 37.3202 38.5667 37.2352 38.463 37.1204C38.3593 37.0056 38.2881 36.8653 38.2567 36.7138C38.2253 36.5612 38.2411 36.4026 38.3021 36.2592C38.363 36.1157 38.4662 35.9943 38.598 35.911Z" fill="url(#paint17_linear_1_642)"/>
<path d="M36.0451 46.6C36.0451 46.6 36.1688 47.1016 36.1728 47.2834C36.1767 47.4651 34.1764 47.7186 34.1452 47.5843C34.114 47.45 34.449 47.2066 34.6907 47.1107C34.9324 47.0147 35.6416 46.7533 35.6416 46.7533L36.0451 46.6Z" fill="url(#paint18_linear_1_642)"/>
<path d="M35.5165 46.1322L35.6314 46.7599C35.6314 46.7599 35.8773 46.8954 36.0733 46.7599L36.1211 46.0631L35.5165 46.1322Z" fill="url(#paint19_linear_1_642)"/>
<path d="M39.6924 47.137C39.6924 47.137 39.8164 47.6386 39.8203 47.8203C39.8243 48.002 37.8238 48.2556 37.7928 48.1213C37.7617 47.987 38.0966 47.7436 38.3383 47.6477C38.58 47.5517 39.2891 47.2903 39.2891 47.2903L39.6924 47.137Z" fill="url(#paint20_linear_1_642)"/>
<path d="M39.1658 46.6692L39.2806 47.2968C39.2806 47.2968 39.5254 47.4324 39.7226 47.2968L39.7703 46.6001L39.1658 46.6692Z" fill="url(#paint21_linear_1_642)"/>
<path d="M34.5588 29.6008L33.9757 31.068C34.0043 33.768 34.145 36.695 34.4552 39.8126C34.6856 42.1321 34.9862 44.3228 35.33 46.3742L36.2706 46.2551C36.6532 45.3158 37.0807 43.9039 36.9947 42.2119C36.9052 40.4462 36.3524 40.2556 36.251 38.5657C36.1193 36.376 36.9899 35.7194 37.2667 33.0506C37.3728 32.0299 37.3933 30.7064 37.1163 29.1249L34.5588 29.6008Z" fill="url(#paint22_linear_1_642)"/>
<path style="mix-blend-mode:multiply" opacity="0.3" d="M37.117 29.1249L35.7354 29.382C35.0161 30.9036 34.904 32.4364 35.1043 33.0944C35.3878 34.0255 35.9611 34.2851 36.0072 35.2388C36.0527 36.1827 35.5181 36.471 35.2548 37.6088C35.0727 38.3966 35.1937 39.0977 35.4429 40.468C35.9449 43.228 36.6844 44.025 36.1953 44.9824C36.0561 45.2544 35.7928 45.5862 35.2471 45.8665C35.2746 46.0358 35.302 46.2051 35.33 46.3744L36.2706 46.2553C36.6532 45.3158 37.0807 43.904 36.9947 42.2121C36.9052 40.4462 36.3524 40.2558 36.251 38.5657C36.1193 36.3762 36.9899 35.7195 37.2667 33.0508C37.3736 32.0301 37.3941 30.7064 37.117 29.1249Z" fill="url(#paint23_linear_1_642)"/>
<path d="M35.8754 30.3478C36.5014 32.6883 37.0899 35.1999 37.6059 37.8719C38.2293 41.0984 38.6687 44.152 38.973 46.9948L40.0115 46.941C41.1567 44.1398 41.0935 42.3079 40.8016 41.1352C40.6887 40.6838 40.4118 39.8018 40.2574 38.4642C40.1498 37.5312 40.1524 36.8145 40.1584 35.9528C40.1714 34.0633 40.337 33.6377 40.2504 32.2002C40.1694 30.8511 40.1203 30.1687 39.7038 29.8021C38.6077 28.8358 36.068 30.239 35.8754 30.3478Z" fill="url(#paint24_linear_1_642)"/>
<path d="M25.8254 24.9101C25.8254 24.9101 25.0649 24.845 24.9549 24.722C24.8449 24.599 24.6778 24.4022 24.6613 24.2883C24.6447 24.1743 24.4978 24.3447 24.6312 24.5892C24.7645 24.8338 24.3866 24.7824 24.3274 24.7773C24.1918 24.7636 23.6745 24.7485 23.6895 24.7805C23.7046 24.8125 23.628 24.9539 23.9954 25.1204C24.317 25.2662 24.6998 25.1714 24.9088 25.1814L25.118 25.1913L25.6723 25.2337L25.8254 24.9101Z" fill="url(#paint25_linear_1_642)"/>
<path d="M25.3797 24.5547L25.2793 25.3152C25.7828 25.7354 26.897 26.5407 28.4458 26.6615C31.1769 26.8746 33.8853 24.8532 34.3898 22.5796C34.6396 21.4537 34.4355 19.874 33.7358 19.6199C33.5417 19.5493 33.2497 19.5593 32.6482 19.9635C31.0427 21.0419 30.9062 22.4583 30.0193 23.4163C29.3807 24.1061 28.1257 24.8053 25.3797 24.5547Z" fill="url(#paint26_linear_1_642)"/>
<path d="M33.75 31.571C33.3751 31.0484 33.7483 30.4856 33.7596 29.4377C33.7722 28.2502 33.3023 28.0903 32.6967 26.1724C32.2939 24.8969 31.9066 23.6724 32.1324 22.1847C32.2403 21.4716 32.4233 20.2623 33.3599 19.6103C33.8431 19.2738 34.5376 19.248 35.907 19.21C37.5999 19.163 38.4464 19.1397 39.1023 19.4203C39.1982 19.4615 41.1945 20.3486 41.462 22.0349C41.7344 23.7504 39.8731 24.133 39.8067 26.4553C39.777 27.4978 40.1051 29.0711 40.3178 30.0915C40.5221 31.0714 40.6284 31.3178 40.457 31.634C40.0432 32.3939 38.5863 32.3036 35.6706 32.123C34.5269 32.0506 34.0305 31.9609 33.75 31.571Z" fill="url(#paint27_linear_1_642)"/>
<path style="mix-blend-mode:multiply" opacity="0.3" d="M37.7377 26.2477C37.8955 26.6865 38.3607 26.9866 38.7535 28.0535C38.8383 28.2837 39.4421 29.9242 38.8663 30.3859C38.5337 30.6527 38.1818 30.2261 37.3239 30.2355C35.8369 30.2518 35.2322 31.5509 34.239 31.2888C34.0667 31.2433 33.8353 31.1355 33.5914 30.8647C33.5682 31.128 33.5938 31.3537 33.7499 31.571C34.0296 31.9609 34.5268 32.0507 35.6705 32.1214C38.586 32.3021 40.044 32.3924 40.4569 31.6323C40.6283 31.3169 40.522 31.0705 40.3177 30.0899C40.105 29.0694 39.7769 27.4961 39.8066 26.4537C39.873 24.1316 41.7343 23.749 41.4619 22.0333C41.3891 21.5747 41.1866 21.1772 40.9309 20.8379C38.6233 21.9951 37.2415 24.8685 37.7377 26.2477Z" fill="url(#paint28_linear_1_642)"/>
<path d="M41.0222 29.402L40.5694 29.7449C40.4754 29.6527 40.2615 29.4691 39.9462 29.4251C39.5913 29.3764 39.1995 29.5192 39.1991 29.6305C39.1991 29.7204 39.4498 29.7908 39.4888 29.8017C39.8021 29.8897 40.0205 29.7784 40.1533 29.8909C40.2004 29.9305 40.2611 30.0067 40.3918 30.0712C40.4205 30.0859 40.4502 30.0985 40.4806 30.1089C40.69 30.1715 41.0103 29.7891 41.0378 29.7565L41.0222 29.402Z" fill="url(#paint29_linear_1_642)"/>
<path d="M39.1109 23.2569C38.6994 22.458 38.3585 21.2115 38.7535 19.288C42.4591 20.4154 44.5602 23.6243 44.058 26.3418C43.6442 28.5819 41.5843 29.8217 41.1236 30.085L40.7286 29.3514C41.2338 28.6893 41.7855 27.726 41.6136 26.6911C41.3753 25.2568 39.9438 24.8746 39.1109 23.2569Z" fill="url(#paint30_linear_1_642)"/>
<path d="M35.8591 17.5024C35.8591 17.5024 35.9377 18.1286 36.1706 18.5837C36.3809 18.9948 37.3295 19.1878 37.5249 19.2678C37.7204 19.3477 37.2027 19.6682 36.6647 19.7662C36.1268 19.8642 34.5682 19.8652 34.2725 19.682C33.9768 19.4988 34.4816 19.4739 34.8573 19.3009C35.2329 19.1278 35.3962 18.3534 35.3002 18.0148C35.2043 17.6762 35.8591 17.5024 35.8591 17.5024Z" fill="url(#paint31_linear_1_642)"/>
<path d="M34.983 17.3435C34.6795 17.0896 34.6376 17.0614 34.5992 16.9673C34.4455 16.5936 34.701 16.0443 35.0808 15.8839C35.1005 15.8754 35.3556 15.771 35.4645 15.8763C35.557 15.9659 35.4431 16.109 35.5172 16.2902C35.5868 16.4595 35.7386 16.4606 36.0363 16.6664C36.2809 16.8357 36.4342 16.941 36.4802 17.1028C36.5754 17.4361 36.2049 17.9598 35.8407 17.9756C35.7098 17.9812 35.669 17.9172 34.983 17.3435Z" fill="url(#paint32_linear_1_642)"/>
<path d="M35.8093 18.0307C35.8093 18.0307 35.5374 18.3933 35.0727 18.3179C34.6567 18.2504 34.6856 17.3055 34.9723 17.1329C35.0679 17.0749 35.2492 17.0646 35.3906 17.1193C35.4742 17.1515 35.4997 17.1901 35.637 17.2401C35.7638 17.2864 35.802 17.2755 35.8381 17.3123C35.8833 17.3584 35.9094 17.4628 35.8005 17.7297C35.8882 17.6565 35.9869 17.6357 36.0518 17.6733C36.0738 17.6881 36.0913 17.7088 36.1024 17.7329C36.1511 17.8456 36.04 17.9727 35.8093 18.0307Z" fill="url(#paint33_linear_1_642)"/>
<path d="M27.1226 46.5581C27.1148 46.5582 27.1072 46.5556 27.1012 46.5506C27.0951 46.5457 27.091 46.5387 27.0895 46.531L24.6472 33.4C24.6463 33.3957 24.6462 33.3912 24.6471 33.3869C24.6479 33.3825 24.6496 33.3784 24.6521 33.3747C24.6545 33.3711 24.6577 33.3679 24.6614 33.3655C24.6651 33.363 24.6692 33.3614 24.6736 33.3606C24.6779 33.3598 24.6824 33.3598 24.6867 33.3608C24.691 33.3617 24.6951 33.3635 24.6987 33.3661C24.7023 33.3687 24.7054 33.3719 24.7077 33.3757C24.7101 33.3794 24.7116 33.3836 24.7123 33.388L27.0895 46.1659V32.5255C27.0895 32.5168 27.093 32.5083 27.0992 32.5021C27.1054 32.4959 27.1139 32.4924 27.1226 32.4924C27.1314 32.4924 27.1398 32.4959 27.146 32.5021C27.1523 32.5083 27.1557 32.5168 27.1557 32.5255V46.525C27.1558 46.5333 27.1527 46.5412 27.1472 46.5473C27.1416 46.5534 27.134 46.5572 27.1258 46.5579L27.1226 46.5581Z" fill="#C47EB7"/>
<path d="M14.3738 46.9511H14.3712C14.3629 46.9504 14.3551 46.9467 14.3494 46.9405C14.3438 46.9344 14.3407 46.9263 14.3407 46.918V34.0599C14.3407 34.0511 14.3442 34.0427 14.3504 34.0365C14.3566 34.0303 14.365 34.0268 14.3738 34.0268C14.3826 34.0268 14.391 34.0303 14.3972 34.0365C14.4034 34.0427 14.4069 34.0511 14.4069 34.0599V46.5162L16.4837 34.0074C16.4854 33.999 16.4903 33.9916 16.4974 33.9867C16.5045 33.9818 16.5132 33.9799 16.5217 33.9813C16.5301 33.9827 16.5377 33.9874 16.5428 33.9943C16.5479 34.0012 16.5502 34.0098 16.549 34.0183L14.4065 46.9221C14.4055 46.9301 14.4017 46.9375 14.3956 46.9428C14.3896 46.9481 14.3818 46.9511 14.3738 46.9511Z" fill="#C47EB7"/>
<path d="M45.7682 51.2059C45.7606 51.206 45.7532 51.2034 45.7473 51.1986C45.7414 51.1939 45.7374 51.1872 45.7358 51.1798L42.7467 37.0236C42.7449 37.015 42.7465 37.006 42.7513 36.9987C42.7561 36.9913 42.7637 36.9861 42.7723 36.9843C42.7809 36.9825 42.7899 36.9842 42.7972 36.989C42.8046 36.9938 42.8098 37.0013 42.8116 37.0099L45.7351 50.8559V37.0016C45.7351 36.9928 45.7386 36.9844 45.7448 36.9782C45.751 36.972 45.7594 36.9685 45.7682 36.9685C45.777 36.9685 45.7854 36.972 45.7916 36.9782C45.7978 36.9844 45.8013 36.9928 45.8013 37.0016V51.1728C45.8013 51.181 45.7982 51.1889 45.7927 51.195C45.7873 51.2011 45.7797 51.2049 45.7716 51.2058L45.7682 51.2059Z" fill="#C47EB7"/>
<path d="M30.8994 53.6813H30.8961C30.8879 53.6804 30.8804 53.6766 30.8749 53.6705C30.8694 53.6644 30.8663 53.6565 30.8663 53.6483V39.4209C30.8663 39.4121 30.8698 39.4037 30.876 39.3975C30.8822 39.3912 30.8907 39.3878 30.8994 39.3878C30.9082 39.3878 30.9166 39.3912 30.9228 39.3975C30.9291 39.4037 30.9325 39.4121 30.9325 39.4209V53.3186L34.1434 37.521C34.1443 37.5168 34.146 37.5127 34.1484 37.5091C34.1509 37.5055 34.154 37.5024 34.1576 37.5C34.1612 37.4976 34.1653 37.4959 34.1696 37.4951C34.1738 37.4943 34.1782 37.4943 34.1825 37.4952C34.1867 37.496 34.1908 37.4977 34.1944 37.5002C34.198 37.5026 34.2011 37.5057 34.2035 37.5093C34.2059 37.513 34.2076 37.517 34.2084 37.5213C34.2092 37.5255 34.2092 37.5299 34.2083 37.5342L30.9314 53.6545C30.93 53.662 30.926 53.6687 30.9202 53.6736C30.9144 53.6785 30.907 53.6812 30.8994 53.6813Z" fill="#C47EB7"/>
<path d="M45.9014 36.8284V37.0729L30.865 39.5258L14.2385 34.1146V33.8701C16.8424 33.1023 45.9014 36.8284 45.9014 36.8284Z" fill="#B7C0CE"/>
<path d="M28.0469 32.6051L45.9014 36.8284L30.865 39.281L14.2385 33.8701L28.0469 32.6051Z" fill="white"/>
<path d="M16.2306 51.0617C16.0882 51.3523 16.1281 51.4772 16.1636 51.532C16.2677 51.6932 16.5178 51.541 17.1713 51.6183C17.3061 51.6387 17.4436 51.6339 17.5767 51.6042C17.733 51.5666 17.9173 51.484 17.9096 51.4422C17.9066 51.427 17.879 51.4208 17.8684 51.4185C17.6871 51.38 16.5517 51.0316 16.5517 51.0316L16.2306 51.0617Z" fill="url(#paint34_linear_1_642)"/>
<path d="M16.1434 50.4229L16.2449 51.0733C16.2449 51.0733 16.5242 51.2707 16.5976 51.031C16.6504 50.8587 16.6489 50.3939 16.6489 50.3939L16.1434 50.4229Z" fill="url(#paint35_linear_1_642)"/>
<path d="M19.4389 50.7445L19.1647 51.4933L18.7662 51.4298L18.8585 50.7365L19.4389 50.7445Z" fill="url(#paint36_linear_1_642)"/>
<path d="M19.0399 51.9044C18.8473 51.6758 18.6752 51.6975 18.6406 51.5395C18.6133 51.4159 18.6889 51.2645 18.8029 51.2071C18.9632 51.1262 19.1573 51.2524 19.2013 51.2808C19.4993 51.4746 19.418 51.7776 19.699 51.9089C19.7555 51.9354 19.8452 51.9634 19.9396 52.0519C19.9797 52.0895 20.0792 52.1826 20.0559 52.2467C20.029 52.3208 19.8518 52.3184 19.6834 52.316C19.4812 52.3129 19.3802 52.3116 19.283 52.2509C19.1483 52.1668 19.1891 52.0801 19.0399 51.9044Z" fill="url(#paint37_linear_1_642)"/>
<path d="M14.0137 34.8859C14.0753 36.1834 14.2547 37.4727 14.5498 38.7378C14.8144 39.8689 14.9587 40.0622 15.0505 40.8463C15.2503 42.5525 14.7046 42.8091 14.6448 44.7437C14.5789 46.8798 15.1827 48.5637 15.4195 49.2057C15.5869 49.6594 15.7811 50.1028 16.001 50.5335C16.2002 50.6998 16.4979 50.6276 16.8119 50.557C16.8871 48.6196 16.9925 46.795 17.0671 44.8566L18.0039 36.098L14.0137 34.8859Z" fill="url(#paint38_linear_1_642)"/>
<path style="mix-blend-mode:multiply" opacity="0.3" d="M16.8119 50.5565C16.8871 48.6191 16.9925 46.7945 17.0671 44.8561L18.0039 36.0975L14.0137 34.8854C14.0186 34.9854 14.0257 35.0819 14.0325 35.1799C15.9201 36.7495 16.31 38.0165 16.3106 38.8856C16.3106 39.9406 15.7463 40.4756 15.8913 42.0024C15.9953 43.0934 16.3281 43.2794 16.3491 44.266C16.3762 45.5365 15.8464 46.2624 15.5967 47.0022C15.3552 47.7169 15.2854 48.724 15.8119 50.1435C15.8802 50.2896 15.9436 50.4203 16.0019 50.5326C16.2002 50.6999 16.4979 50.628 16.8119 50.5565Z" fill="url(#paint39_linear_1_642)"/>
<path d="M16.3834 36.2919C17.3898 37.9107 17.9567 39.1896 18.2665 39.9802C18.4546 40.4625 18.6282 40.9655 18.6803 41.6287C18.7289 42.2751 18.656 42.9248 18.4653 43.5444C18.2479 44.1679 18.0927 44.8115 18.002 45.4656C17.677 47.8169 18.2678 49.766 18.7213 50.8843L19.4311 51.1301C20.1081 49.097 20.6157 47.0114 20.9487 44.8946C21.1744 43.468 21.3448 42.3493 21.3162 40.9335C21.2861 39.4402 21.0231 37.0829 19.7409 34.2871C18.6216 34.9556 17.5025 35.6239 16.3834 36.2919Z" fill="url(#paint40_linear_1_642)"/>
<path d="M16.6486 23.3545C18.1469 23.5789 19.289 23.8214 19.8133 24.5922C20.3669 25.4065 19.5281 26.0464 19.3353 27.8633C19.0402 30.6446 20.6571 31.6466 20.2581 34.4495C20.1517 35.1842 19.9325 35.898 19.6084 36.5658C19.1344 36.9695 18.3794 37.5229 17.3469 37.9091C15.8447 38.4709 15.0913 38.1792 13.0582 38.3393C9.7312 38.6011 9.25323 39.5779 7.73487 39.0164C6.20108 38.4485 5.06532 36.8499 5.37306 36.1496C5.5574 35.7303 6.1723 35.9765 7.0355 35.4479C8.14775 34.767 7.93839 33.8743 8.83677 33.0856C10.1258 31.9526 11.4126 33.0414 12.5147 32.0565C13.6296 31.0595 13.7144 28.6941 13.2017 27.2975C12.8665 26.3854 12.8392 25.3862 12.5851 24.4483C12.5537 24.3351 12.5559 24.2151 12.5915 24.1031C12.766 23.5576 13.7554 23.432 14.5035 23.3443C15.6444 23.2104 16.5254 23.3361 16.6486 23.3545Z" fill="url(#paint41_linear_1_642)"/>
<path style="mix-blend-mode:multiply" opacity="0.3" d="M7.88678 37.9604C8.34142 37.643 8.07281 36.7772 8.74603 36.3C9.37072 35.8572 9.87728 36.408 10.8056 36.1015C11.9959 35.7084 11.9086 34.5561 13.0491 34.1632C13.8692 33.881 14.1297 34.4024 15.3213 34.3996C16.513 34.3968 18.0591 33.8729 19.0192 32.591C19.4272 32.0464 19.6492 31.4701 19.7654 30.9391C20.1055 31.9594 20.4721 32.945 20.2579 34.4494C20.1514 35.1841 19.9323 35.8979 19.6082 36.5658C19.1342 36.9694 18.3791 37.5228 17.3466 37.909C15.8444 38.4709 15.0911 38.1791 13.0579 38.3392C9.73093 38.601 9.25297 39.5779 7.73461 39.0164C6.75422 38.6535 5.9388 37.8699 5.55676 37.1685C6.89379 38.0975 7.55685 38.1906 7.88678 37.9604Z" fill="url(#paint42_linear_1_642)"/>
<path d="M17.4555 20.7527C17.4555 20.7527 17.8834 21.516 17.921 22.0574C17.9586 22.5987 17.3462 22.5724 17.3462 22.5724L17.3766 22.9136C17.3892 23.0562 17.4429 23.1922 17.5311 23.3049C17.6194 23.4177 17.7384 23.5025 17.8738 23.549L18.1172 23.6325C18.1172 23.6325 16.5496 24.0037 15.6764 23.4143L15.9237 23.3848C16.0937 23.3645 16.2515 23.2859 16.3701 23.1625C16.4887 23.039 16.5609 22.8783 16.5744 22.7076L16.5862 22.5609C16.5862 22.5609 16.2768 20.8787 17.4555 20.7527Z" fill="url(#paint43_linear_1_642)"/>
<path d="M19.9604 29.3123L21.9081 24.9654C21.9198 24.9393 21.9396 24.9176 21.9646 24.9036C21.9896 24.8896 22.0184 24.8839 22.0469 24.8875L25.4515 25.317C25.4726 25.3196 25.4928 25.3273 25.5103 25.3393C25.5279 25.3513 25.5423 25.3673 25.5524 25.386C25.5625 25.4048 25.568 25.4256 25.5684 25.4469C25.5688 25.4681 25.5642 25.4892 25.5548 25.5083L23.2586 30.205C23.2452 30.2325 23.2228 30.2545 23.1951 30.2674C23.1674 30.2803 23.1361 30.2833 23.1065 30.2759L20.0744 29.5267L19.9604 29.3123Z" fill="url(#paint44_linear_1_642)"/>
<path d="M20.4955 28.7859L22.0725 25.2664C22.082 25.2451 22.0981 25.2274 22.1185 25.2161C22.1388 25.2047 22.1623 25.2003 22.1854 25.2033L24.9428 25.551C24.9599 25.5531 24.9762 25.5593 24.9904 25.569C25.0046 25.5787 25.0163 25.5917 25.0245 25.6068C25.0326 25.622 25.0371 25.6388 25.0374 25.656C25.0378 25.6733 25.034 25.6903 25.0265 25.7058L23.1671 29.5088C23.1562 29.531 23.1381 29.5489 23.1156 29.5593C23.0932 29.5698 23.0679 29.5723 23.0439 29.5664L20.589 28.9592L20.4955 28.7859Z" fill="url(#paint45_linear_1_642)"/>
<path d="M22.6444 25.2451L22.7695 24.963C22.7779 24.9439 22.7923 24.928 22.8104 24.9177C22.8286 24.9074 22.8496 24.9031 22.8703 24.9056L24.2873 25.0723C24.3025 25.074 24.3172 25.0794 24.33 25.0879C24.3428 25.0965 24.3534 25.1079 24.361 25.1213C24.3686 25.1347 24.3729 25.1497 24.3736 25.1651C24.3743 25.1804 24.3713 25.1957 24.365 25.2098L24.2252 25.5169C24.2165 25.5361 24.2019 25.5519 24.1835 25.562C24.1651 25.5722 24.1439 25.5762 24.1231 25.5734L22.7206 25.3817C22.7055 25.3796 22.6912 25.3741 22.6787 25.3656C22.6661 25.357 22.6558 25.3457 22.6484 25.3324C22.641 25.3192 22.6368 25.3044 22.6361 25.2892C22.6354 25.2741 22.6382 25.259 22.6444 25.2451Z" fill="url(#paint46_linear_1_642)"/>
<path d="M24.577 26.1972C24.5749 26.1974 24.5728 26.1974 24.5706 26.1972L22.073 25.8775C22.0582 25.8756 22.0447 25.8679 22.0355 25.8561C22.0264 25.8443 22.0223 25.8293 22.0241 25.8144C22.026 25.7996 22.0338 25.7861 22.0456 25.777C22.0575 25.7679 22.0725 25.7638 22.0873 25.7657L24.5849 26.0855C24.5924 26.086 24.5996 26.088 24.6062 26.0913C24.6129 26.0946 24.6188 26.0992 24.6237 26.1048C24.6286 26.1104 24.6323 26.1169 24.6346 26.124C24.637 26.131 24.6379 26.1385 24.6374 26.1459C24.6369 26.1533 24.6349 26.1605 24.6316 26.1672C24.6283 26.1738 24.6237 26.1798 24.6181 26.1846C24.6125 26.1895 24.606 26.1932 24.5989 26.1956C24.5919 26.1979 24.5845 26.1989 24.577 26.1984V26.1972Z" fill="url(#paint47_linear_1_642)"/>
<path d="M24.4493 26.449C24.4469 26.4492 24.4446 26.4492 24.4423 26.449L21.9573 26.1032C21.9429 26.1007 21.93 26.0927 21.9214 26.0809C21.9128 26.0691 21.9091 26.0544 21.9111 26.0399C21.9131 26.0254 21.9206 26.0123 21.9321 26.0033C21.9436 25.9942 21.9582 25.99 21.9727 25.9915L24.4575 26.3363C24.4725 26.3374 24.4864 26.3444 24.4962 26.3557C24.506 26.3671 24.5109 26.3819 24.5098 26.3969C24.5087 26.4118 24.5017 26.4257 24.4904 26.4356C24.479 26.4454 24.4642 26.4503 24.4493 26.4492V26.449Z" fill="url(#paint48_linear_1_642)"/>
<path d="M23.1989 26.8454C23.196 26.8456 23.1931 26.8456 23.1902 26.8454L21.8359 26.6197C21.8211 26.6172 21.8079 26.609 21.7993 26.5968C21.7906 26.5845 21.7871 26.5694 21.7896 26.5546C21.7921 26.5399 21.8004 26.5267 21.8126 26.518C21.8248 26.5093 21.8399 26.5059 21.8547 26.5084L23.209 26.7341C23.2164 26.7347 23.2236 26.7368 23.2302 26.7403C23.2368 26.7437 23.2427 26.7484 23.2475 26.7541C23.2522 26.7598 23.2559 26.7664 23.2581 26.7735C23.2603 26.7806 23.2611 26.7881 23.2605 26.7955C23.2598 26.8029 23.2577 26.8101 23.2543 26.8167C23.2508 26.8233 23.2461 26.8292 23.2404 26.8339C23.2347 26.8387 23.2281 26.8423 23.221 26.8446C23.2139 26.8468 23.2065 26.8476 23.1991 26.8469L23.1989 26.8454Z" fill="url(#paint49_linear_1_642)"/>
<path d="M23.8205 29.0564C23.8205 29.0564 24.3756 28.6789 24.4413 28.4129C24.5069 28.147 24.4896 27.6462 24.4896 27.6462L24.1663 28.3514C24.1663 28.3514 24.0099 28.3067 23.9426 28.0742C23.8753 27.8417 23.7615 28.0554 23.8074 28.2303C23.8533 28.4052 23.8205 29.0564 23.8205 29.0564Z" fill="url(#paint50_linear_1_642)"/>
<path d="M19.5477 24.33C19.9807 24.5906 20.3623 24.9285 20.6733 25.3269C21.7848 26.7655 21.3505 28.2989 22.2709 28.8403C22.5342 28.9955 22.9952 29.1213 23.8285 28.8265L24.1483 28.9958C24.1483 28.9958 24.5384 30.9797 22.1292 31.0538C19.72 31.128 18.5192 28.1347 18.5192 28.1347L19.5477 24.33Z" fill="url(#paint51_linear_1_642)"/>
<path d="M17.2258 21.5257C17.1442 21.5208 17.0753 21.4189 17.0189 21.4505C16.9625 21.4821 16.9709 21.6343 17.024 21.7389C17.0582 21.804 17.1104 21.8579 17.1745 21.894C17.0896 22.0143 17.0324 22.1519 17.0069 22.297C16.9414 22.6901 17.1573 23.0005 17.2469 23.1827C17.6547 24.0049 17.0761 25.331 16.4241 26.0084C15.8944 26.559 15.6373 26.347 15.3235 26.7947C14.713 27.665 15.6014 28.5882 15.3008 29.7479C14.8437 31.5119 12.0861 32.0929 11.9714 32.1155C11.9264 32.1245 11.8961 32.1302 11.8491 32.1386C10.6114 32.3627 8.73527 32.7029 7.38752 31.7111C6.37929 30.9696 5.89587 29.6517 5.9459 28.481C5.95907 28.1729 6.02716 27.0035 6.95808 26.03C7.10574 25.8756 7.98079 24.9629 9.18878 24.9262C9.82833 24.9074 9.96244 25.1294 10.4491 24.9795C11.1151 24.7743 11.5147 24.1562 11.7628 23.7728C12.2187 23.0676 12.0242 22.9233 12.3557 22.5742C13.0052 21.8903 13.7954 22.3995 14.4919 21.7932C15.1785 21.1956 14.7397 20.4142 15.4037 19.8955C16.0886 19.3603 17.4241 19.5134 17.7211 20.1266C17.9778 20.6546 17.4758 21.541 17.2258 21.5257Z" fill="url(#paint52_linear_1_642)"/>
<path d="M10.819 53.9999C13.1145 53.9999 14.9755 53.2404 14.9755 52.3036C14.9755 51.3668 13.1145 50.6073 10.819 50.6073C8.5234 50.6073 6.66248 51.3668 6.66248 52.3036C6.66248 53.2404 8.5234 53.9999 10.819 53.9999Z" fill="#B7C0CE"/>
<path d="M6.6615 52.1047C6.6615 52.9888 8.52239 53.706 10.8186 53.706C13.1147 53.706 14.9756 52.9892 14.9756 52.1047C14.9756 51.2203 13.1147 49.7732 10.8186 49.7732C8.52239 49.7732 6.6615 51.2203 6.6615 52.1047Z" fill="url(#paint53_linear_1_642)"/>
<path d="M6.6615 52.1047C6.6615 51.2206 8.52239 49.7732 10.8186 49.7732C11.786 49.775 12.7368 50.0258 13.5793 50.5013C13.6309 50.6089 13.6546 50.716 13.645 50.8175C13.5974 51.3152 12.7857 51.6211 12.32 51.7219C11.147 51.9761 10.574 51.2746 9.6068 51.3013C9.00882 51.3179 8.18023 51.6183 7.1974 52.8904C6.85731 52.6583 6.6615 52.3904 6.6615 52.1047Z" fill="#B7C0CE"/>
<path d="M10.5915 50.5766C10.7444 50.6167 10.9049 50.6176 11.0582 50.5792C11.1224 50.562 11.1792 50.524 11.2196 50.4711C11.2599 50.4182 11.2816 50.3534 11.2813 50.2869V45.6H10.3569V50.2813C10.3574 50.3496 10.3808 50.4158 10.4233 50.4694C10.4658 50.5229 10.525 50.5606 10.5915 50.5766Z" fill="white"/>
<path d="M10.5915 50.5766C10.7444 50.6167 10.9049 50.6176 11.0582 50.5792C11.1224 50.562 11.1792 50.524 11.2196 50.4711C11.2599 50.4182 11.2816 50.3534 11.2813 50.2869V45.6H10.3569V50.2813C10.3574 50.3496 10.3808 50.4158 10.4233 50.4694C10.4658 50.5229 10.525 50.5606 10.5915 50.5766Z" fill="url(#paint54_linear_1_642)"/>
<path d="M15.7025 43.6276L14.2904 42.735C14.2317 42.4015 13.5662 38.9135 10.8641 37.8182C9.76542 37.3728 8.58282 37.4255 7.93387 37.4546C6.63841 37.5124 5.71426 37.5538 5.26997 38.1717C4.69927 38.9651 5.65652 39.6848 5.45807 41.9544C5.37719 42.88 5.17178 43.291 5.42778 43.9043C5.73439 44.6388 6.4456 45.0459 6.99862 45.275C7.65961 45.6589 8.81042 46.2059 10.3307 46.3391C12.8911 46.5635 14.8026 45.4651 15.46 45.0449C15.6036 44.9996 15.7324 44.9168 15.8333 44.8052C15.9342 44.6935 16.0036 44.5569 16.0341 44.4095C16.0649 44.2609 16.0496 44.1065 15.9904 43.9667C15.9311 43.827 15.8307 43.7087 15.7025 43.6276Z" fill="url(#paint55_linear_1_642)"/>
<path d="M20.596 34.7583L32.7081 34.6682V34.9348C32.7081 34.9698 32.6955 35.0037 32.6727 35.0303C32.6499 35.0569 32.6183 35.0744 32.5837 35.0798L29.1586 35.6048C29.1179 35.6112 29.0767 35.6127 28.9784 35.6768L20.6701 35.0781C20.6532 35.0057 20.5948 34.944 20.5948 34.8697L20.596 34.7583Z" fill="url(#paint56_linear_1_642)"/>
<path d="M24.9912 34.3174L32.5828 34.8054C32.7186 34.814 32.829 34.7213 32.829 34.5984V29.663C32.829 29.5398 32.7186 29.4399 32.5828 29.4399H24.9912C24.9647 29.4399 24.9384 29.4451 24.9139 29.4552C24.8893 29.4653 24.8671 29.4801 24.8483 29.4988C24.8295 29.5176 24.8145 29.5398 24.8043 29.5643C24.7941 29.5888 24.7889 29.6151 24.7888 29.6416V34.1028C24.7896 34.1574 24.8108 34.2097 24.8483 34.2495C24.8858 34.2892 24.9368 34.3134 24.9912 34.3174Z" fill="url(#paint57_linear_1_642)"/>
<path d="M32.4619 29.4399H24.7456C24.7354 29.4399 24.7253 29.4419 24.7159 29.4458C24.7065 29.4497 24.6979 29.4554 24.6907 29.4626C24.6835 29.4698 24.6778 29.4783 24.6739 29.4878C24.6701 29.4972 24.6681 29.5073 24.6681 29.5174V34.2181C24.6685 34.2414 24.6776 34.2637 24.6935 34.2807C24.7094 34.2977 24.731 34.3081 24.7542 34.3101L32.4619 34.8054C32.5977 34.814 32.7081 34.7213 32.7081 34.5984V29.663C32.7081 29.5398 32.5977 29.4399 32.4619 29.4399Z" fill="url(#paint58_linear_1_642)"/>
<path d="M25.1069 34.0035L32.1776 34.4273C32.288 34.4339 32.3779 34.3579 32.3779 34.258V29.9373C32.3779 29.8367 32.288 29.7549 32.1776 29.7545L25.1069 29.7278C25.085 29.7276 25.0634 29.7318 25.0431 29.74C25.0229 29.7482 25.0045 29.7604 24.989 29.7757C24.9734 29.7911 24.9611 29.8094 24.9527 29.8295C24.9442 29.8497 24.9399 29.8713 24.9398 29.8931V33.8284C24.9407 33.8732 24.9583 33.9161 24.9892 33.9485C25.0202 33.9809 25.0621 34.0006 25.1069 34.0035Z" fill="#F4F7FA"/>
<g style="mix-blend-mode:soft-light" opacity="0.95">
<path d="M26.6688 32.9662C27.257 32.6798 27.7195 33.0428 28.1659 32.6841C28.4365 32.4668 28.3036 32.3049 28.6361 31.9804C29.0048 31.6209 29.245 31.7417 29.6156 31.4182C30.0843 31.009 29.8499 30.6908 30.2536 30.3971C30.7427 30.0409 31.2714 30.3706 31.7377 30.0288C31.9388 29.8816 32.049 29.6673 32.1066 29.4393H32.5633C32.6433 29.4393 32.7082 29.498 32.7082 29.571V34.6904C32.7082 34.7626 32.6433 34.8172 32.5633 34.8121L24.7868 34.3123C24.7683 34.311 24.7503 34.3057 24.7341 34.2967C24.7178 34.2877 24.7037 34.2754 24.6927 34.2604C25.2619 34.2416 25.6118 34.0689 25.8353 33.8902C26.273 33.5405 26.1972 33.1961 26.6688 32.9662Z" fill="white"/>
</g>
<path d="M28.3981 29.5751C28.3972 29.5926 28.4015 29.61 28.4106 29.625C28.4197 29.64 28.433 29.6519 28.4489 29.6592C28.4648 29.6665 28.4826 29.6689 28.4998 29.666C28.5171 29.6632 28.5331 29.6552 28.5458 29.6431C28.5585 29.6311 28.5673 29.6155 28.5711 29.5983C28.5748 29.5812 28.5733 29.5634 28.5668 29.5471C28.5603 29.5309 28.5491 29.5169 28.5346 29.5071C28.5201 29.4973 28.503 29.4921 28.4854 29.4921C28.4629 29.4916 28.441 29.5 28.4246 29.5156C28.4083 29.5311 28.3987 29.5526 28.3981 29.5751Z" fill="white"/>
<path d="M26.8616 33.8023L26.8747 33.803V29.9558L26.8616 29.9556V33.8023Z" fill="#D8DEE8"/>
<path d="M27.0291 32.8352L32.1795 33.0592V33.0455L27.0291 32.8224V32.8352Z" fill="#D8DEE8"/>
<path d="M26.6522 33.8579L25.1927 33.7659V29.9556H26.6522V33.8579Z" fill="#D8DEE8"/>
<path d="M32.066 31.5556L27.0291 31.4352V29.9556H32.066V31.5556Z" fill="#D8DEE8"/>
<path d="M32.066 32.9407L27.0291 32.7162V31.672L32.066 31.8116V32.9407Z" fill="#D8DEE8"/>
<path d="M24.568 34.3044L32.7083 34.8179L29.1588 35.3616C29.1182 35.3678 29.077 35.3694 29.036 35.3664L20.5961 34.7583L24.4384 34.3069C24.4815 34.3022 24.5248 34.3014 24.568 34.3044Z" fill="url(#paint59_linear_1_642)"/>
<path opacity="0.47" d="M31.5205 34.8217L24.7433 34.3879L22.646 34.6321L29.3646 35.0958L31.5205 34.8217Z" fill="#D8DEE8"/>
<path d="M31.4249 36.8775L37.6887 35.9342C37.7567 35.924 37.826 35.9261 37.8932 35.9404L40.3319 36.4609C40.5012 36.4972 40.4967 36.7417 40.3254 36.7707L34.4393 37.7656C34.419 37.7689 34.3984 37.7684 34.3783 37.764L31.417 37.0985C31.3918 37.0924 31.3694 37.0778 31.3536 37.0571C31.3379 37.0363 31.3298 37.0108 31.3308 36.9848C31.3317 36.9588 31.3416 36.9339 31.3587 36.9144C31.3759 36.8948 31.3993 36.8818 31.4249 36.8775Z" fill="url(#paint60_linear_1_642)"/>
<path d="M31.4249 36.6965L37.6887 35.7532C37.7567 35.7428 37.826 35.7449 37.8932 35.7594L40.3319 36.2795C40.5012 36.3158 40.4967 36.5603 40.3254 36.5893L34.4389 37.5836C34.4187 37.587 34.398 37.5864 34.3779 37.5819L31.4167 36.9166C31.2959 36.8897 31.303 36.7149 31.4249 36.6965Z" fill="url(#paint61_linear_1_642)"/>
<path d="M31.4249 36.5452L37.6887 35.6019C37.7567 35.5916 37.826 35.5937 37.8932 35.6081L40.3319 36.1291C40.5012 36.1654 40.4967 36.4099 40.3253 36.4389L34.4389 37.4332C34.4186 37.4366 34.3979 37.436 34.3779 37.4315L31.4166 36.7662C31.3914 36.7601 31.369 36.7454 31.3533 36.7246C31.3376 36.7039 31.3295 36.6783 31.3305 36.6523C31.3315 36.6263 31.3414 36.6015 31.3586 36.5819C31.3758 36.5624 31.3992 36.5494 31.4249 36.5452Z" fill="url(#paint62_linear_1_642)"/>
<path d="M31.4249 36.3641L37.6887 35.4206C37.7567 35.4104 37.826 35.4126 37.8932 35.427L40.3319 35.9473C40.5012 35.9836 40.4967 36.2282 40.3254 36.2571L34.4389 37.2516C34.4187 37.255 34.398 37.2544 34.3779 37.2499L31.4167 36.5846C31.2959 36.5573 31.303 36.3826 31.4249 36.3641Z" fill="url(#paint63_linear_1_642)"/>
<path d="M31.4249 36.2127L37.6887 35.2694C37.7567 35.259 37.826 35.2611 37.8932 35.2756L40.3319 35.7961C40.5012 35.8324 40.4967 36.0769 40.3254 36.1059L34.4389 37.1002C34.4187 37.1036 34.398 37.103 34.3779 37.0985L31.4167 36.4332C31.2959 36.4059 31.303 36.2312 31.4249 36.2127Z" fill="url(#paint64_linear_1_642)"/>
<path d="M31.4249 36.0318L37.6887 35.0882C37.7567 35.0781 37.8259 35.0802 37.8931 35.0944L40.3319 35.6149C40.5012 35.6512 40.4967 35.8958 40.3253 35.9247L34.4392 36.919C34.419 36.9224 34.3983 36.9219 34.3783 36.9173L31.417 36.2518C31.2958 36.2249 31.303 36.0502 31.4249 36.0318Z" fill="url(#paint65_linear_1_642)"/>
<defs>
<linearGradient id="paint0_linear_1_642" x1="31.4541" y1="15.712" x2="49.3392" y2="15.712" gradientUnits="userSpaceOnUse">
<stop stop-color="#FF9085"/>
<stop offset="1" stop-color="#FB6FBB"/>
</linearGradient>
<linearGradient id="paint1_linear_1_642" x1="62.2046" y1="22.4608" x2="40.8144" y2="31.4009" gradientUnits="userSpaceOnUse">
<stop stop-color="#F36F56"/>
<stop offset="1" stop-color="#FFC444"/>
</linearGradient>
<linearGradient id="paint2_linear_1_642" x1="11.6245" y1="26.6914" x2="8.39577" y2="17.3047" gradientUnits="userSpaceOnUse">
<stop stop-color="#6165D7"/>
<stop offset="1" stop-color="#AA80F9"/>
</linearGradient>
<linearGradient id="paint3_linear_1_642" x1="6.05955" y1="19.276" x2="16.6553" y2="45.5007" gradientUnits="userSpaceOnUse">
<stop stop-color="#E38DDD"/>
<stop offset="1" stop-color="#9571F6"/>
</linearGradient>
<linearGradient id="paint4_linear_1_642" x1="12.3169" y1="22.8485" x2="38.5416" y2="22.8485" gradientUnits="userSpaceOnUse">
<stop stop-color="#444B8C"/>
<stop offset="1" stop-color="#26264F"/>
</linearGradient>
<linearGradient id="paint5_linear_1_642" x1="12.3169" y1="22.8485" x2="38.5416" y2="22.8485" gradientUnits="userSpaceOnUse">
<stop stop-color="#444B8C"/>
<stop offset="1" stop-color="#26264F"/>
</linearGradient>
<linearGradient id="paint6_linear_1_642" x1="37.8391" y1="2.74035" x2="20.0514" y2="31.8474" gradientUnits="userSpaceOnUse">
<stop stop-color="white"/>
<stop offset="1" stop-color="#EBEFF2"/>
</linearGradient>
<linearGradient id="paint7_linear_1_642" x1="18.6626" y1="18.7117" x2="33.8791" y2="18.7117" gradientUnits="userSpaceOnUse">
<stop stop-color="#AB316D"/>
<stop offset="1" stop-color="#792D3D"/>
</linearGradient>
<linearGradient id="paint8_linear_1_642" x1="26.1754" y1="13.2457" x2="26.2038" y2="18.7776" gradientUnits="userSpaceOnUse">
<stop stop-color="#F36F56"/>
<stop offset="1" stop-color="#FFC444"/>
</linearGradient>
<linearGradient id="paint9_linear_1_642" x1="26.9847" y1="5.65205" x2="25.5946" y2="14.2372" gradientUnits="userSpaceOnUse">
<stop stop-color="#F36F56"/>
<stop offset="1" stop-color="#FFC444"/>
</linearGradient>
<linearGradient id="paint10_linear_1_642" x1="26.2506" y1="7.41435" x2="25.5749" y2="11.5866" gradientUnits="userSpaceOnUse">
<stop stop-color="#444B8C"/>
<stop offset="1" stop-color="#26264F"/>
</linearGradient>
<linearGradient id="paint11_linear_1_642" x1="29.2037" y1="6.09371" x2="27.8264" y2="14.5991" gradientUnits="userSpaceOnUse">
<stop stop-color="#F36F56"/>
<stop offset="1" stop-color="#FFC444"/>
</linearGradient>
<linearGradient id="paint12_linear_1_642" x1="24.9053" y1="5.21092" x2="23.4992" y2="13.8945" gradientUnits="userSpaceOnUse">
<stop stop-color="#F36F56"/>
<stop offset="1" stop-color="#FFC444"/>
</linearGradient>
<linearGradient id="paint13_linear_1_642" x1="39.4508" y1="45.071" x2="47.9936" y2="45.071" gradientUnits="userSpaceOnUse">
<stop stop-color="#D0D1D3"/>
<stop offset="1" stop-color="#EBEFF2"/>
</linearGradient>
<linearGradient id="paint14_linear_1_642" x1="43.2473" y1="41.3346" x2="44.1972" y2="41.3346" gradientUnits="userSpaceOnUse">
<stop stop-color="#D0D1D3"/>
<stop offset="1" stop-color="#EBEFF2"/>
</linearGradient>
<linearGradient id="paint15_linear_1_642" x1="48.437" y1="40.3245" x2="46.6955" y2="38.0555" gradientUnits="userSpaceOnUse">
<stop stop-color="#311944"/>
<stop offset="1" stop-color="#893976"/>
</linearGradient>
<linearGradient id="paint16_linear_1_642" x1="44.4672" y1="35.2559" x2="46.7047" y2="29.3247" gradientUnits="userSpaceOnUse">
<stop stop-color="#311944"/>
<stop offset="1" stop-color="#893976"/>
</linearGradient>
<linearGradient id="paint17_linear_1_642" x1="43.2159" y1="36.3139" x2="43.1818" y2="39.2165" gradientUnits="userSpaceOnUse">
<stop stop-color="#311944"/>
<stop offset="1" stop-color="#893976"/>
</linearGradient>
<linearGradient id="paint18_linear_1_642" x1="33.4872" y1="41.2898" x2="36.0829" y2="50.657" gradientUnits="userSpaceOnUse">
<stop stop-color="#311944"/>
<stop offset="1" stop-color="#893976"/>
</linearGradient>
<linearGradient id="paint19_linear_1_642" x1="35.7976" y1="47.9146" x2="35.8353" y2="44.7511" gradientUnits="userSpaceOnUse">
<stop stop-color="#FFC444"/>
<stop offset="1" stop-color="#F36F56"/>
</linearGradient>
<linearGradient id="paint20_linear_1_642" x1="36.737" y1="40.3892" x2="39.3326" y2="49.7565" gradientUnits="userSpaceOnUse">
<stop stop-color="#311944"/>
<stop offset="1" stop-color="#893976"/>
</linearGradient>
<linearGradient id="paint21_linear_1_642" x1="39.4516" y1="47.9574" x2="39.4893" y2="44.794" gradientUnits="userSpaceOnUse">
<stop stop-color="#FFC444"/>
<stop offset="1" stop-color="#F36F56"/>
</linearGradient>
<linearGradient id="paint22_linear_1_642" x1="33.9757" y1="37.7495" x2="37.3403" y2="37.7495" gradientUnits="userSpaceOnUse">
<stop stop-color="#444B8C"/>
<stop offset="1" stop-color="#26264F"/>
</linearGradient>
<linearGradient id="paint23_linear_1_642" x1="33.9757" y1="37.7495" x2="37.3403" y2="37.7495" gradientUnits="userSpaceOnUse">
<stop stop-color="#444B8C"/>
<stop offset="1" stop-color="#26264F"/>
</linearGradient>
<linearGradient id="paint24_linear_1_642" x1="35.8754" y1="38.2302" x2="40.9827" y2="38.2302" gradientUnits="userSpaceOnUse">
<stop stop-color="#444B8C"/>
<stop offset="1" stop-color="#26264F"/>
</linearGradient>
<linearGradient id="paint25_linear_1_642" x1="23.9561" y1="24.0877" x2="27.1162" y2="27.3041" gradientUnits="userSpaceOnUse">
<stop stop-color="#FFC444"/>
<stop offset="1" stop-color="#F36F56"/>
</linearGradient>
<linearGradient id="paint26_linear_1_642" x1="39.0913" y1="14.6226" x2="23.9682" y2="30.0843" gradientUnits="userSpaceOnUse">
<stop stop-color="#6165D7"/>
<stop offset="1" stop-color="#AA80F9"/>
</linearGradient>
<linearGradient id="paint27_linear_1_642" x1="46.1413" y1="38.8355" x2="34.7426" y2="22.471" gradientUnits="userSpaceOnUse">
<stop stop-color="#6165D7"/>
<stop offset="1" stop-color="#AA80F9"/>
</linearGradient>
<linearGradient id="paint28_linear_1_642" x1="46.14" y1="38.8362" x2="34.7414" y2="22.4717" gradientUnits="userSpaceOnUse">
<stop stop-color="#AA80F9"/>
<stop offset="1" stop-color="#6165D7"/>
</linearGradient>
<linearGradient id="paint29_linear_1_642" x1="39.1991" y1="29.759" x2="41.0378" y2="29.759" gradientUnits="userSpaceOnUse">
<stop stop-color="#FFC444"/>
<stop offset="1" stop-color="#F36F56"/>
</linearGradient>
<linearGradient id="paint30_linear_1_642" x1="49.338" y1="36.609" x2="37.9392" y2="20.2443" gradientUnits="userSpaceOnUse">
<stop stop-color="#6165D7"/>
<stop offset="1" stop-color="#AA80F9"/>
</linearGradient>
<linearGradient id="paint31_linear_1_642" x1="35.0619" y1="20.6155" x2="36.894" y2="17.9206" gradientUnits="userSpaceOnUse">
<stop stop-color="#FFC444"/>
<stop offset="1" stop-color="#F36F56"/>
</linearGradient>
<linearGradient id="paint32_linear_1_642" x1="36.5357" y1="19.5622" x2="35.1728" y2="16.1004" gradientUnits="userSpaceOnUse">
<stop stop-color="#444B8C"/>
<stop offset="1" stop-color="#3E4177"/>
</linearGradient>
<linearGradient id="paint33_linear_1_642" x1="33.6849" y1="18.5437" x2="36.6105" y2="16.9505" gradientUnits="userSpaceOnUse">
<stop stop-color="#FFC444"/>
<stop offset="1" stop-color="#F36F56"/>
</linearGradient>
<linearGradient id="paint34_linear_1_642" x1="17.5572" y1="53.3046" x2="16.2287" y2="48.6962" gradientUnits="userSpaceOnUse">
<stop stop-color="#444B8C"/>
<stop offset="1" stop-color="#26264F"/>
</linearGradient>
<linearGradient id="paint35_linear_1_642" x1="16.3699" y1="52.3967" x2="16.4717" y2="45.0156" gradientUnits="userSpaceOnUse">
<stop stop-color="#FFC444"/>
<stop offset="1" stop-color="#F36F56"/>
</linearGradient>
<linearGradient id="paint36_linear_1_642" x1="19.0849" y1="52.4338" x2="19.1867" y2="45.0527" gradientUnits="userSpaceOnUse">
<stop stop-color="#FFC444"/>
<stop offset="1" stop-color="#F36F56"/>
</linearGradient>
<linearGradient id="paint37_linear_1_642" x1="19.5929" y1="52.7177" x2="18.2644" y2="48.1093" gradientUnits="userSpaceOnUse">
<stop stop-color="#444B8C"/>
<stop offset="1" stop-color="#26264F"/>
</linearGradient>
<linearGradient id="paint38_linear_1_642" x1="15.9521" y1="36.4766" x2="15.065" y2="51.7019" gradientUnits="userSpaceOnUse">
<stop stop-color="#311944"/>
<stop offset="1" stop-color="#893976"/>
</linearGradient>
<linearGradient id="paint39_linear_1_642" x1="15.9521" y1="36.4767" x2="15.065" y2="51.702" gradientUnits="userSpaceOnUse">
<stop stop-color="#311944"/>
<stop offset="1" stop-color="#893976"/>
</linearGradient>
<linearGradient id="paint40_linear_1_642" x1="26.1843" y1="43.0999" x2="13.7791" y2="42.3645" gradientUnits="userSpaceOnUse">
<stop stop-color="#311944"/>
<stop offset="1" stop-color="#893976"/>
</linearGradient>
<linearGradient id="paint41_linear_1_642" x1="7.76739" y1="46.0988" x2="16.8291" y2="27.4121" gradientUnits="userSpaceOnUse">
<stop stop-color="#FF9085"/>
<stop offset="1" stop-color="#FB6FBB"/>
</linearGradient>
<linearGradient id="paint42_linear_1_642" x1="21.2544" y1="25.0748" x2="11.829" y2="37.6257" gradientUnits="userSpaceOnUse">
<stop stop-color="#FF9085"/>
<stop offset="1" stop-color="#FB6FBB"/>
</linearGradient>
<linearGradient id="paint43_linear_1_642" x1="17.8039" y1="21.833" x2="16.1807" y2="24.3798" gradientUnits="userSpaceOnUse">
<stop stop-color="#FFC444"/>
<stop offset="1" stop-color="#F36F56"/>
</linearGradient>
<linearGradient id="paint44_linear_1_642" x1="23.6627" y1="25.8916" x2="20.3907" y2="31.0248" gradientUnits="userSpaceOnUse">
<stop stop-color="#444B8C"/>
<stop offset="1" stop-color="#26264F"/>
</linearGradient>
<linearGradient id="paint45_linear_1_642" x1="23.346" y1="26.0233" x2="20.5811" y2="31.2147" gradientUnits="userSpaceOnUse">
<stop stop-color="#FFC444"/>
<stop offset="1" stop-color="#F36F56"/>
</linearGradient>
<linearGradient id="paint46_linear_1_642" x1="23.3405" y1="25.5549" x2="24.124" y2="23.9857" gradientUnits="userSpaceOnUse">
<stop stop-color="#AA80F9"/>
<stop offset="1" stop-color="#6165D7"/>
</linearGradient>
<linearGradient id="paint47_linear_1_642" x1="22.0237" y1="25.9802" x2="24.6342" y2="25.9802" gradientUnits="userSpaceOnUse">
<stop stop-color="#444B8C"/>
<stop offset="1" stop-color="#26264F"/>
</linearGradient>
<linearGradient id="paint48_linear_1_642" x1="21.9086" y1="26.2202" x2="24.5063" y2="26.2202" gradientUnits="userSpaceOnUse">
<stop stop-color="#444B8C"/>
<stop offset="1" stop-color="#26264F"/>
</linearGradient>
<linearGradient id="paint49_linear_1_642" x1="21.7879" y1="26.6761" x2="23.2559" y2="26.6761" gradientUnits="userSpaceOnUse">
<stop stop-color="#444B8C"/>
<stop offset="1" stop-color="#26264F"/>
</linearGradient>
<linearGradient id="paint50_linear_1_642" x1="24.3116" y1="27.9471" x2="23.5265" y2="29.1788" gradientUnits="userSpaceOnUse">
<stop stop-color="#FFC444"/>
<stop offset="1" stop-color="#F36F56"/>
</linearGradient>
<linearGradient id="paint51_linear_1_642" x1="11.6923" y1="48.0027" x2="20.7539" y2="29.3156" gradientUnits="userSpaceOnUse">
<stop stop-color="#FF9085"/>
<stop offset="1" stop-color="#FB6FBB"/>
</linearGradient>
<linearGradient id="paint52_linear_1_642" x1="8.83673" y1="32.4703" x2="15.4454" y2="18.8421" gradientUnits="userSpaceOnUse">
<stop stop-color="#444B8C"/>
<stop offset="1" stop-color="#26264F"/>
</linearGradient>
<linearGradient id="paint53_linear_1_642" x1="6.66225" y1="51.7396" x2="14.9752" y2="51.7396" gradientUnits="userSpaceOnUse">
<stop stop-color="#D0D1D3"/>
<stop offset="1" stop-color="#EBEFF2"/>
</linearGradient>
<linearGradient id="paint54_linear_1_642" x1="11.2813" y1="48.1036" x2="10.3571" y2="48.1036" gradientUnits="userSpaceOnUse">
<stop stop-color="#D0D1D3"/>
<stop offset="1" stop-color="#EBEFF2"/>
</linearGradient>
<linearGradient id="paint55_linear_1_642" x1="6.2306" y1="47.1208" x2="7.92521" y2="44.9129" gradientUnits="userSpaceOnUse">
<stop stop-color="#311944"/>
<stop offset="1" stop-color="#893976"/>
</linearGradient>
<linearGradient id="paint56_linear_1_642" x1="27.634" y1="32.0088" x2="26.7776" y2="34.4942" gradientUnits="userSpaceOnUse">
<stop stop-color="#444B8C"/>
<stop offset="1" stop-color="#26264F"/>
</linearGradient>
<linearGradient id="paint57_linear_1_642" x1="24.7888" y1="32.1228" x2="32.829" y2="32.1228" gradientUnits="userSpaceOnUse">
<stop stop-color="#311944"/>
<stop offset="1" stop-color="#893976"/>
</linearGradient>
<linearGradient id="paint58_linear_1_642" x1="24.6681" y1="32.1228" x2="32.7081" y2="32.1228" gradientUnits="userSpaceOnUse">
<stop stop-color="#444B8C"/>
<stop offset="1" stop-color="#26264F"/>
</linearGradient>
<linearGradient id="paint59_linear_1_642" x1="20.5963" y1="34.8352" x2="32.7083" y2="34.8352" gradientUnits="userSpaceOnUse">
<stop stop-color="#444B8C"/>
<stop offset="1" stop-color="#26264F"/>
</linearGradient>
<linearGradient id="paint60_linear_1_642" x1="35.6151" y1="36.2116" x2="38.2267" y2="41.6999" gradientUnits="userSpaceOnUse">
<stop stop-color="#FFC444"/>
<stop offset="1" stop-color="#F36F56"/>
</linearGradient>
<linearGradient id="paint61_linear_1_642" x1="36.5359" y1="34.9543" x2="35.6309" y2="37.3075" gradientUnits="userSpaceOnUse">
<stop stop-color="#FFC444"/>
<stop offset="1" stop-color="#F36F56"/>
</linearGradient>
<linearGradient id="paint62_linear_1_642" x1="35.6151" y1="35.8793" x2="38.2267" y2="41.3676" gradientUnits="userSpaceOnUse">
<stop stop-color="#FFC444"/>
<stop offset="1" stop-color="#F36F56"/>
</linearGradient>
<linearGradient id="paint63_linear_1_642" x1="36.5359" y1="34.6219" x2="35.6309" y2="36.9751" gradientUnits="userSpaceOnUse">
<stop stop-color="#FFC444"/>
<stop offset="1" stop-color="#F36F56"/>
</linearGradient>
<linearGradient id="paint64_linear_1_642" x1="35.6151" y1="35.5469" x2="38.2267" y2="41.0351" gradientUnits="userSpaceOnUse">
<stop stop-color="#FFC444"/>
<stop offset="1" stop-color="#F36F56"/>
</linearGradient>
<linearGradient id="paint65_linear_1_642" x1="36.5358" y1="34.2896" x2="35.6308" y2="36.6427" gradientUnits="userSpaceOnUse">
<stop stop-color="#FFC444"/>
<stop offset="1" stop-color="#F36F56"/>
</linearGradient>
</defs>
</svg>
