<svg width="29" height="29" viewBox="0 0 29 29" fill="none" xmlns="http://www.w3.org/2000/svg">
<path d="M23.7467 3.336C22.2159 2.06217 20.4379 1.1192 18.5247 0.566505C16.6115 0.0138112 14.6045 -0.136624 12.6303 0.124677C8.97807 0.599148 5.6433 2.44578 3.30312 5.28962C0.96293 8.13346 -0.20725 11.7613 0.0301809 15.4366C0.267612 19.1118 1.89485 22.559 4.5815 25.0781C7.26815 27.5972 10.8128 28.9994 14.4957 29H22.9312C24.5327 28.9981 26.0681 28.361 27.2006 27.2285C28.3331 26.0961 28.9701 24.5607 28.972 22.9591V13.591C28.8442 11.6161 28.3148 9.68815 27.4164 7.92489C26.5179 6.16164 25.2692 4.60018 23.7467 3.336ZM9.64128 8.46107H14.474C14.7944 8.46107 15.1017 8.58835 15.3283 8.81493C15.5549 9.04151 15.6821 9.34881 15.6821 9.66924C15.6821 9.98966 15.5549 10.297 15.3283 10.5235C15.1017 10.7501 14.7944 10.8774 14.474 10.8774H9.64128C9.32085 10.8774 9.01355 10.7501 8.78697 10.5235C8.5604 10.297 8.43311 9.98966 8.43311 9.66924C8.43311 9.34881 8.5604 9.04151 8.78697 8.81493C9.01355 8.58835 9.32085 8.46107 9.64128 8.46107ZM19.3067 20.5428H9.64128C9.32085 20.5428 9.01355 20.4155 8.78697 20.1889C8.5604 19.9623 8.43311 19.655 8.43311 19.3346C8.43311 19.0142 8.5604 18.7069 8.78697 18.4803C9.01355 18.2537 9.32085 18.1264 9.64128 18.1264H19.3067C19.6271 18.1264 19.9344 18.2537 20.161 18.4803C20.3875 18.7069 20.5148 19.0142 20.5148 19.3346C20.5148 19.655 20.3875 19.9623 20.161 20.1889C19.9344 20.4155 19.6271 20.5428 19.3067 20.5428ZM19.3067 15.7101H9.64128C9.32085 15.7101 9.01355 15.5828 8.78697 15.3562C8.5604 15.1297 8.43311 14.8224 8.43311 14.5019C8.43311 14.1815 8.5604 13.8742 8.78697 13.6476C9.01355 13.421 9.32085 13.2938 9.64128 13.2938H19.3067C19.6271 13.2938 19.9344 13.421 20.161 13.6476C20.3875 13.8742 20.5148 14.1815 20.5148 14.5019C20.5148 14.8224 20.3875 15.1297 20.161 15.3562C19.9344 15.5828 19.6271 15.7101 19.3067 15.7101Z" fill="white"/>
</svg>
