<svg width="18" height="18" viewBox="0 0 18 18" fill="none" xmlns="http://www.w3.org/2000/svg">
<path d="M17.49 3.07501C17.0625 2.55001 16.425 2.25001 15.75 2.25001H5.43001L5.40001 1.98751C5.33506 1.44018 5.07174 0.935657 4.65987 0.569399C4.24801 0.203141 3.71617 0.000563101 3.16501 0L2.25001 0C1.8375 0 1.5 0.337501 1.5 0.750002C1.5 1.1625 1.8375 1.5 2.25001 1.5H3.16501C3.54751 1.5 3.86251 1.785 3.90751 2.16001L4.94251 10.935C5.16751 12.825 6.76502 14.25 8.67002 14.25H15C15.4125 14.25 15.75 13.9125 15.75 13.5C15.75 13.0875 15.4125 12.75 15 12.75H8.67002C7.70252 12.75 6.87002 12.1275 6.55502 11.25H13.62C15.405 11.25 16.95 9.98253 17.295 8.23502L17.955 4.94251C18.021 4.61623 18.0135 4.27936 17.9331 3.95634C17.8526 3.63332 17.7013 3.33226 17.49 3.07501ZM8.25002 16.5C8.25002 17.325 7.57502 18 6.75002 18C5.92502 18 5.25001 17.325 5.25001 16.5C5.25001 15.675 5.92502 15 6.75002 15C7.57502 15 8.25002 15.675 8.25002 16.5ZM15 16.5C15 17.325 14.325 18 13.5 18C12.675 18 12 17.325 12 16.5C12 15.675 12.675 15 13.5 15C14.325 15 15 15.675 15 16.5ZM0 4.50001C0 4.08751 0.337501 3.75001 0.750002 3.75001H1.90501C2.31751 3.75001 2.65501 4.08751 2.65501 4.50001C2.65501 4.91251 2.31751 5.25001 1.90501 5.25001H0.750002C0.337501 5.25001 0 4.91251 0 4.50001ZM0 7.50002C0 7.08752 0.337501 6.75002 0.750002 6.75002H2.25001C2.66251 6.75002 3.00001 7.08752 3.00001 7.50002C3.00001 7.91252 2.66251 8.25002 2.25001 8.25002H0.750002C0.337501 8.25002 0 7.91252 0 7.50002ZM3.75001 10.5C3.75001 10.9125 3.41251 11.25 3.00001 11.25H0.750002C0.337501 11.25 0 10.9125 0 10.5C0 10.0875 0.337501 9.75003 0.750002 9.75003H3.00001C3.41251 9.75003 3.75001 10.0875 3.75001 10.5Z" fill="#19B890"/>
</svg>
