<svg width="56" height="55" viewBox="0 0 56 55" fill="none" xmlns="http://www.w3.org/2000/svg">
<path opacity="0.3" d="M48.3387 47.2036C47.2161 48.3855 46.1539 49.1482 45.3137 49.7499C35.4481 56.8288 23.7744 54.7653 21.2933 54.2614C17.6297 53.5174 10.5487 52.0789 5.42796 46.058C-2.31663 36.9482 -1.11056 22.5972 4.89799 13.1236C5.99701 11.3907 11.8025 1.77302 23.6019 0.230464C30.7427 -0.702964 39.0667 1.1798 45.0947 6.22998C57.7477 16.831 56.8474 38.2468 48.3387 47.2036Z" fill="url(#paint0_linear_1_507)"/>
<path opacity="0.74" d="M54.7402 13.506C54.71 13.2418 54.2557 13.1625 54.1282 13.3994C52.8958 15.6909 49.419 21.6071 45.0467 24.3711C37.9266 28.8722 32.3869 37.0737 35.7091 42.2394C35.7083 42.2394 58.0442 42.3068 54.7402 13.506Z" fill="url(#paint1_linear_1_507)"/>
<path opacity="0.43" d="M53.5811 16.865C53.5599 16.9456 53.534 17.0098 53.5102 17.0811L53.4342 17.2881C53.3821 17.4256 53.3305 17.5631 53.277 17.6995C53.1698 17.9729 53.0582 18.2446 52.9457 18.5156C52.7206 19.0582 52.4833 19.596 52.2436 20.1313C51.7579 21.2006 51.2443 22.2568 50.7029 23.2998C49.6282 25.3892 48.4294 27.4144 47.1347 29.376C46.4847 30.3552 45.7961 31.3086 45.0844 32.2438L44.5411 32.9382C44.4515 33.0547 44.358 33.168 44.2643 33.2813L43.984 33.6216L43.7029 33.9626C43.6084 34.0751 43.5106 34.1849 43.4146 34.2965C43.2211 34.5177 43.0308 34.7418 42.8333 34.9594C42.0429 35.8301 41.2154 36.665 40.3509 37.4639C39.9081 37.8509 39.4728 38.2461 39.0099 38.6087C38.5602 38.9874 38.0796 39.3268 37.6085 39.6773C37.6015 39.6814 37.5931 39.6828 37.5851 39.6811C37.5771 39.6795 37.57 39.6749 37.5651 39.6684C37.5602 39.6618 37.558 39.6536 37.5587 39.6455C37.5595 39.6373 37.5632 39.6298 37.5693 39.6242H37.5702C38.504 38.9168 39.4011 38.1622 40.2582 37.3635C41.1078 36.5575 41.922 35.7167 42.7009 34.8412C43.4727 33.9608 44.2207 33.0594 44.9294 32.1269C45.6381 31.1945 46.3133 30.2373 46.9674 29.2656C47.6165 28.2908 48.24 27.2992 48.838 26.2909L49.2815 25.5322L49.7136 24.7662C49.9983 24.2541 50.2813 23.7412 50.5547 23.2228C51.104 22.1874 51.6278 21.1389 52.1262 20.0774C52.3741 19.5471 52.6198 19.0142 52.853 18.4765C52.9698 18.2078 53.0845 17.9383 53.1973 17.6678C53.2541 17.5327 53.3087 17.3968 53.3637 17.261L53.4438 17.0568C53.4686 16.9894 53.497 16.9173 53.5157 16.8564L53.5185 16.8476C53.521 16.8394 53.5266 16.8325 53.5342 16.8284C53.5417 16.8243 53.5506 16.8234 53.5588 16.8257C53.5671 16.8281 53.5741 16.8336 53.5783 16.8411C53.5825 16.8485 53.5837 16.8573 53.5815 16.8656L53.5811 16.865Z" fill="white"/>
<path d="M50.4179 2.21975C50.3633 1.91764 49.939 1.88955 49.8463 2.18243C48.9507 5.01237 46.3695 12.3592 42.6458 16.1803C36.5816 22.402 32.3435 32.6895 35.9146 38.208C35.9146 38.2072 56.3852 35.1343 50.4179 2.21975Z" fill="url(#paint2_linear_1_507)"/>
<path opacity="0.43" d="M49.7016 6.27551C49.691 6.3643 49.6745 6.44189 49.6604 6.5236L49.6134 6.76541L49.5152 7.24764C49.4472 7.5686 49.3761 7.88878 49.304 8.20896C49.1579 8.84853 49.0045 9.48647 48.8438 10.1228C48.5221 11.395 48.1673 12.6588 47.7927 13.9168C47.4181 15.1747 47.0135 16.4236 46.5819 17.6633L46.4209 18.1286L46.2539 18.5916C46.1412 18.8998 46.0339 19.2101 45.916 19.5164L45.5686 20.4378L45.2073 21.3538C44.2311 23.7912 43.1268 26.18 41.857 28.4804C41.7799 28.6251 41.6977 28.7676 41.6149 28.9092L41.3676 29.3354L41.1204 29.7615C41.0362 29.9023 40.9484 30.0412 40.8625 30.1813C40.6883 30.4596 40.5207 30.7421 40.3412 31.0171L39.7981 31.8391C39.0534 32.9212 38.261 33.9711 37.3989 34.9623C37.3932 34.969 37.3851 34.9732 37.3763 34.9739C37.3675 34.9747 37.3588 34.9719 37.3521 34.9661C37.3453 34.9604 37.3412 34.9523 37.3404 34.9435C37.3397 34.9347 37.3425 34.926 37.3482 34.9193C38.1814 33.9088 38.9607 32.855 39.683 31.7625L40.2157 30.9375C40.3925 30.6625 40.5559 30.3783 40.7264 30.0991C40.8105 29.9587 40.8965 29.8196 40.979 29.6782L41.2208 29.251L41.4628 28.8237C41.5439 28.6817 41.6243 28.5391 41.6999 28.3939L42.1633 27.5283C42.3161 27.2389 42.4609 26.9453 42.61 26.654C42.6834 26.5076 42.7591 26.3625 42.8309 26.2156L43.0437 25.773L43.2562 25.3305C43.3277 25.1831 43.398 25.0358 43.4648 24.8859C44.0187 23.6993 44.5255 22.4911 45.0199 21.2787C46.0001 18.8493 46.8554 16.3704 47.6324 13.8679C48.0187 12.6158 48.3808 11.3565 48.7185 10.0898C48.8887 9.45713 49.052 8.8226 49.2082 8.18617C49.2854 7.86757 49.3616 7.54896 49.4345 7.22957L49.5409 6.75009L49.5914 6.50985C49.6067 6.43128 49.6246 6.34741 49.6352 6.27414L49.6364 6.26687C49.6377 6.25837 49.6424 6.25073 49.6493 6.24557C49.6561 6.24042 49.6648 6.23817 49.6733 6.2393C49.6819 6.24043 49.6896 6.24484 49.6949 6.25161C49.7003 6.25838 49.7027 6.26695 49.7018 6.27551H49.7016Z" fill="white"/>
<path d="M2.50651 0.144653H44.1403C45.2755 0.144653 46.1898 1.44619 46.1692 3.03215L45.5835 48.1812C45.556 50.306 44.3057 52.0008 41.7468 51.9743L1.42301 51.2679C1.35033 51.2483 0.457175 49.9831 0.457764 48.4297L0.477407 2.9799C0.4778 1.41437 1.38628 0.144653 2.50651 0.144653Z" fill="url(#paint3_linear_1_507)"/>
<path opacity="0.6" d="M3.42444 1.36719H43.4025C44.4927 1.36719 45.3707 2.60469 45.3509 4.11129L44.7885 47.0095C44.762 49.0284 43.5616 50.6387 42.1018 50.6134L3.38142 49.9412C2.31442 49.9227 1.45642 48.7206 1.45642 47.2446L1.47606 4.06081C1.47646 2.57326 2.3488 1.36719 3.42444 1.36719Z" fill="white"/>
<path d="M1.96634 1.23279H44.8103C44.9377 1.23279 45.0599 1.28339 45.1499 1.37346C45.24 1.46352 45.2906 1.58568 45.2906 1.71306V7.7935H1.4574V1.74173C1.4574 1.60675 1.51102 1.4773 1.60646 1.38186C1.70191 1.28641 1.83136 1.23279 1.96634 1.23279Z" fill="url(#paint4_linear_1_507)"/>
<path opacity="0.61" d="M40.4072 4.99676L17.6667 4.78069C17.1307 4.77558 16.6993 4.42142 16.6991 3.98653V3.22831C16.6991 2.89262 17.0342 2.61938 17.4479 2.61938H40.5703C40.978 2.61938 41.2998 2.90067 41.2699 3.23067L41.1607 4.43379C41.1317 4.75456 40.8017 5.00049 40.4072 4.99676Z" fill="white"/>
<path opacity="0.6" d="M43.2764 11.7145H3.46956C3.343 11.7147 3.22154 11.6646 3.13188 11.5753C3.04223 11.486 2.99172 11.3647 2.99146 11.2382V9.96392C2.99158 9.90083 3.00421 9.83838 3.02863 9.78019C3.05304 9.72201 3.08875 9.66924 3.13368 9.62494C3.17862 9.58065 3.23189 9.5457 3.29042 9.52212C3.34895 9.49854 3.41157 9.48681 3.47467 9.48759L43.2815 9.83821C43.4073 9.83909 43.5277 9.88963 43.6165 9.97884C43.7053 10.068 43.7552 10.1887 43.7555 10.3145V11.2378C43.7554 11.3005 43.7429 11.3627 43.7188 11.4207C43.6947 11.4786 43.6593 11.5312 43.6148 11.5755C43.5703 11.6198 43.5175 11.6549 43.4594 11.6787C43.4014 11.7026 43.3392 11.7147 43.2764 11.7145Z" fill="white"/>
<path d="M12.9826 4.80091C12.7521 4.80095 12.5268 4.73263 12.3351 4.60459C12.1434 4.47655 11.994 4.29454 11.9058 4.08158C11.8175 3.86862 11.7944 3.63428 11.8394 3.40819C11.8844 3.18211 11.9954 2.97443 12.1584 2.81143C12.3214 2.64844 12.529 2.53744 12.7551 2.49248C12.9812 2.44752 13.2155 2.47061 13.4285 2.55884C13.6415 2.64707 13.8235 2.79648 13.9515 2.98816C14.0796 3.17984 14.1479 3.40519 14.1478 3.6357C14.1475 3.94462 14.0246 4.24079 13.8062 4.45923C13.5877 4.67767 13.2915 4.80055 12.9826 4.80091ZM12.9826 2.60327C12.7784 2.60327 12.5788 2.66382 12.409 2.77727C12.2393 2.89071 12.1069 3.05195 12.0288 3.24061C11.9506 3.42926 11.9302 3.63684 11.97 3.83712C12.0099 4.03739 12.1082 4.22135 12.2526 4.36574C12.397 4.51012 12.5809 4.60845 12.7812 4.64829C12.9815 4.68813 13.1891 4.66768 13.3777 4.58954C13.5664 4.5114 13.7276 4.37907 13.8411 4.20929C13.9545 4.0395 14.0151 3.8399 14.0151 3.6357C14.0147 3.36198 13.9059 3.09956 13.7123 2.90601C13.5188 2.71246 13.2563 2.60358 12.9826 2.60327Z" fill="white"/>
<path d="M9.17952 4.89112C8.94902 4.89116 8.72368 4.82285 8.532 4.69481C8.34033 4.56678 8.19092 4.38478 8.10268 4.17183C8.01445 3.95888 7.99134 3.72455 8.03629 3.49847C8.08123 3.27239 8.19221 3.06472 8.35519 2.90171C8.51817 2.73871 8.72582 2.62769 8.95189 2.58271C9.17797 2.53773 9.4123 2.5608 9.62527 2.649C9.83823 2.7372 10.0203 2.88657 10.1483 3.07823C10.2764 3.26988 10.3447 3.49521 10.3447 3.72571C10.3444 4.03465 10.2215 4.33084 10.0031 4.54931C9.78463 4.76778 9.48846 4.89071 9.17952 4.89112ZM9.17952 2.69348C8.97529 2.69352 8.77565 2.75413 8.60587 2.86766C8.43609 2.98118 8.30379 3.1425 8.22571 3.33123C8.14764 3.51995 8.12729 3.72759 8.16724 3.92788C8.20719 4.12817 8.30566 4.31211 8.45017 4.45643C8.59468 4.60075 8.77876 4.69897 8.9791 4.73866C9.17944 4.77834 9.38706 4.75772 9.57568 4.67939C9.7643 4.60106 9.92545 4.46855 10.0387 4.29862C10.152 4.12868 10.2124 3.92897 10.2121 3.72473C10.2118 3.45099 10.1029 3.18856 9.90933 2.99504C9.71573 2.80152 9.45326 2.69271 9.17952 2.6925V2.69348Z" fill="white"/>
<path d="M5.52466 4.89112C5.29417 4.89112 5.06885 4.82277 4.8772 4.69472C4.68555 4.56666 4.53617 4.38465 4.44797 4.1717C4.35976 3.95875 4.33668 3.72442 4.38165 3.49835C4.42661 3.27229 4.53761 3.06463 4.70059 2.90164C4.86358 2.73866 5.07124 2.62766 5.2973 2.5827C5.52337 2.53773 5.7577 2.56081 5.97065 2.64901C6.1836 2.73722 6.36561 2.8866 6.49367 3.07825C6.62172 3.2699 6.69007 3.49522 6.69007 3.72571C6.68976 4.0347 6.56688 4.33095 6.34839 4.54944C6.1299 4.76793 5.83365 4.89081 5.52466 4.89112ZM5.52466 2.69348C5.32046 2.69348 5.12084 2.75404 4.95106 2.86749C4.78127 2.98094 4.64894 3.1422 4.57081 3.33086C4.49267 3.51953 4.47224 3.72712 4.51209 3.9274C4.55194 4.12768 4.65029 4.31164 4.7947 4.45602C4.9391 4.6004 5.12308 4.69871 5.32337 4.73852C5.52365 4.77834 5.73125 4.75787 5.91989 4.67969C6.10854 4.60152 6.26977 4.46916 6.38319 4.29935C6.49661 4.12955 6.55713 3.92992 6.55709 3.72571C6.55704 3.45184 6.44827 3.18919 6.25469 2.99546C6.06111 2.80172 5.79854 2.69276 5.52466 2.6925V2.69348Z" fill="white"/>
<path opacity="0.6" d="M27.5406 15.5572L20.0959 15.4953C20.0405 15.4948 19.9856 15.4834 19.9346 15.4618C19.8835 15.4401 19.8372 15.4086 19.7983 15.3691C19.7594 15.3296 19.7287 15.2827 19.7079 15.2313C19.6871 15.1799 19.6767 15.1249 19.6771 15.0694L19.6787 14.8618C19.6796 14.7521 19.7232 14.6471 19.8002 14.5689C19.8772 14.4908 19.9815 14.4456 20.0912 14.443L27.5382 14.2588C27.5948 14.2575 27.651 14.2676 27.7036 14.2884C27.7562 14.3093 27.804 14.3405 27.8443 14.3802C27.8846 14.4199 27.9166 14.4673 27.9382 14.5195C27.9599 14.5718 27.9708 14.6279 27.9703 14.6844L27.9666 15.1382C27.9662 15.1937 27.9548 15.2485 27.9331 15.2996C27.9114 15.3507 27.8799 15.397 27.8404 15.4359C27.8008 15.4748 27.754 15.5056 27.7025 15.5264C27.6511 15.5472 27.596 15.5576 27.5406 15.5572Z" fill="white"/>
<path opacity="0.6" d="M29.1449 29.0846L18.1842 28.9935C18.0962 28.9928 18.0091 28.9747 17.928 28.9403C17.847 28.906 17.7735 28.856 17.7117 28.7932C17.65 28.7304 17.6012 28.656 17.5682 28.5744C17.5352 28.4928 17.5186 28.4054 17.5193 28.3174L17.6105 17.3392C17.612 17.1643 17.6817 16.9969 17.8048 16.8727C17.9279 16.7485 18.0946 16.6772 18.2695 16.6741L29.0927 16.8795C29.3129 16.8837 29.5226 16.9746 29.6762 17.1325C29.8298 17.2904 29.9149 17.5025 29.913 17.7228L29.8208 28.4195C29.8194 28.5973 29.7474 28.7673 29.6206 28.892C29.4939 29.0168 29.3228 29.086 29.1449 29.0846Z" fill="white"/>
<path opacity="0.6" d="M13.6905 15.5572L6.24583 15.4953C6.19037 15.4948 6.13554 15.4835 6.08448 15.4618C6.03342 15.4402 5.98712 15.4087 5.94823 15.3691C5.90934 15.3296 5.87863 15.2827 5.85783 15.2313C5.83704 15.1799 5.82658 15.1249 5.82704 15.0694L5.82881 14.8618C5.8297 14.7521 5.87325 14.647 5.95024 14.5689C6.02723 14.4907 6.13162 14.4456 6.24131 14.443L13.6885 14.2588C13.7451 14.2575 13.8013 14.2675 13.8539 14.2884C13.9065 14.3092 13.9544 14.3404 13.9947 14.3801C14.035 14.4198 14.0669 14.4672 14.0886 14.5195C14.1102 14.5718 14.1211 14.6279 14.1206 14.6844L14.1169 15.1382C14.1164 15.1937 14.105 15.2486 14.0834 15.2997C14.0617 15.3508 14.0301 15.3972 13.9905 15.4361C13.9509 15.475 13.904 15.5057 13.8525 15.5265C13.8011 15.5473 13.746 15.5577 13.6905 15.5572Z" fill="white"/>
<path opacity="0.6" d="M15.295 29.0846L4.33432 28.9935C4.24625 28.9928 4.15917 28.9747 4.07807 28.9404C3.99698 28.906 3.92344 28.856 3.86168 28.7932C3.79991 28.7304 3.75112 28.6561 3.7181 28.5745C3.68507 28.4928 3.66846 28.4054 3.66921 28.3174L3.76036 17.3392C3.76187 17.1643 3.83159 16.9969 3.95469 16.8727C4.07778 16.7485 4.24451 16.6772 4.41937 16.6741L15.2426 16.8795C15.4628 16.8837 15.6725 16.9746 15.8261 17.1325C15.9797 17.2904 16.0648 17.5025 16.0629 17.7228L15.9707 28.4195C15.9693 28.5973 15.8973 28.7672 15.7706 28.892C15.6439 29.0167 15.4728 29.086 15.295 29.0846Z" fill="white"/>
<path opacity="0.6" d="M41.4317 15.8159L33.9871 15.754C33.9317 15.7536 33.8768 15.7422 33.8257 15.7206C33.7747 15.699 33.7284 15.6675 33.6895 15.628C33.6506 15.5884 33.6198 15.5416 33.599 15.4902C33.5782 15.4388 33.5677 15.3838 33.5681 15.3283L33.5699 15.1207C33.5708 15.011 33.6144 14.906 33.6914 14.8278C33.7684 14.7497 33.8727 14.7045 33.9824 14.7019L41.4294 14.5177C41.4859 14.5164 41.5422 14.5265 41.5948 14.5473C41.6474 14.5682 41.6952 14.5994 41.7355 14.6391C41.7758 14.6788 41.8077 14.7262 41.8294 14.7784C41.851 14.8307 41.862 14.8868 41.8615 14.9433L41.8576 15.3971C41.8572 15.4526 41.8458 15.5074 41.8242 15.5585C41.8025 15.6096 41.771 15.6559 41.7315 15.6948C41.6919 15.7336 41.6451 15.7644 41.5937 15.7851C41.5422 15.8059 41.4872 15.8164 41.4317 15.8159Z" fill="white"/>
<path opacity="0.6" d="M43.0361 29.3443L32.0754 29.2531C31.8975 29.2516 31.7276 29.1795 31.6029 29.0526C31.4782 28.9258 31.4089 28.7547 31.4103 28.5768L31.5016 17.5988C31.503 17.4239 31.5727 17.2565 31.6958 17.1323C31.8189 17.008 31.9856 16.9368 32.1605 16.9337L42.9837 17.1392C43.2039 17.1433 43.4137 17.2342 43.5673 17.3921C43.7209 17.55 43.806 17.7621 43.8041 17.9824L43.7124 28.6786C43.7117 28.7667 43.6937 28.8538 43.6594 28.935C43.625 29.0161 43.575 29.0897 43.5122 29.1515C43.4494 29.2134 43.375 29.2622 43.2933 29.2953C43.2116 29.3283 43.1242 29.345 43.0361 29.3443Z" fill="white"/>
<path opacity="0.6" d="M43.4384 31.0193H4.31709C4.21957 31.0193 4.1405 31.0983 4.1405 31.1959V32.7809C4.1405 32.8784 4.21957 32.9574 4.31709 32.9574H43.4384C43.5359 32.9574 43.615 32.8784 43.615 32.7809V31.1959C43.615 31.0983 43.5359 31.0193 43.4384 31.0193Z" fill="white"/>
<path opacity="0.6" d="M43.5245 34.078H4.40327C4.30575 34.078 4.22668 34.1571 4.22668 34.2546V35.8396C4.22668 35.9371 4.30575 36.0162 4.40327 36.0162H43.5245C43.6221 36.0162 43.7011 35.9371 43.7011 35.8396V34.2546C43.7011 34.1571 43.6221 34.078 43.5245 34.078Z" fill="white"/>
<path opacity="0.6" d="M43.2339 37.52H4.11262C4.0151 37.52 3.93604 37.5991 3.93604 37.6966V39.2816C3.93604 39.3791 4.0151 39.4582 4.11262 39.4582H43.2339C43.3314 39.4582 43.4105 39.3791 43.4105 39.2816V37.6966C43.4105 37.5991 43.3314 37.52 43.2339 37.52Z" fill="white"/>
<path opacity="0.6" d="M43.3197 40.5789H4.19844C4.10091 40.5789 4.02185 40.6579 4.02185 40.7554V42.3404C4.02185 42.438 4.10091 42.517 4.19844 42.517H43.3197C43.4172 42.517 43.4963 42.438 43.4963 42.3404V40.7554C43.4963 40.6579 43.4172 40.5789 43.3197 40.5789Z" fill="white"/>
<path opacity="0.6" d="M43.2339 43.8074H4.11262C4.0151 43.8074 3.93604 43.8864 3.93604 43.984V45.5689C3.93604 45.6665 4.0151 45.7455 4.11262 45.7455H43.2339C43.3314 45.7455 43.4105 45.6665 43.4105 45.5689V43.984C43.4105 43.8864 43.3314 43.8074 43.2339 43.8074Z" fill="white"/>
<path d="M37.4467 28.0371C37.4243 28.0795 36.7456 28.5578 36.7456 28.5578C36.7456 28.5578 36.2742 31.1556 37.1385 32.4345C38.0028 33.7135 40.9529 31.4363 40.9529 31.4363C40.9529 31.4363 42.6112 31.177 43.4442 27.9163C43.6354 27.1683 42.4403 27.7367 41.1089 27.8744C39.3915 28.0522 37.4467 28.0371 37.4467 28.0371Z" fill="url(#paint5_linear_1_507)"/>
<path d="M34.5035 36.1806C35.0677 35.7914 35.6936 35.5003 36.3548 35.3195C36.6035 35.2517 37.9459 35.642 38.7762 35.6229C39.9155 35.5966 41.0754 35.0782 42.0145 35.3122C42.9473 35.5448 43.7109 35.8482 44.1518 36.1619C45.4714 37.1005 46.2462 38.8505 46.7184 40.5839C45.8242 41.5018 44.6993 41.9096 44.6993 41.9096L44.4913 50.3364L39.5089 52.8857L33.8226 50.0304L34.0263 41.7959C34.0263 41.7959 32.2204 40.955 32.0878 40.649C31.9552 40.3429 32.9102 37.2761 34.5035 36.1806Z" fill="url(#paint6_linear_1_507)"/>
<path d="M32.1713 40.6118C32.1713 40.6118 29.7513 47.321 35.2697 50.0785C36.4155 49.9263 35.9749 48.0233 35.9749 48.0233C35.9749 48.0233 33.5771 47.4929 34.2972 41.8959C33.6341 41.3504 32.1713 40.6118 32.1713 40.6118Z" fill="url(#paint7_linear_1_507)"/>
<path d="M46.6018 40.6118C46.6018 40.6118 48.2671 47.6153 43.5033 50.0785C42.3575 49.9263 42.7981 48.0233 42.7981 48.0233C42.7981 48.0233 44.7308 47.0716 44.4758 41.8959C45.139 41.3504 46.6018 40.6118 46.6018 40.6118Z" fill="url(#paint8_linear_1_507)"/>
<path d="M44.583 43.1709H33.8553C33.8005 43.1709 33.7561 43.2153 33.7561 43.2701V50.4505C33.7561 50.5053 33.8005 50.5497 33.8553 50.5497H44.583C44.6378 50.5497 44.6822 50.5053 44.6822 50.4505V43.2701C44.6822 43.2153 44.6378 43.1709 44.583 43.1709Z" fill="url(#paint9_linear_1_507)"/>
<path d="M39.8636 45.1692C39.9214 45.5607 39.7118 45.9156 39.3203 45.9746C39.1323 46.0023 38.941 45.9543 38.7883 45.8411C38.6357 45.7278 38.5344 45.5585 38.5065 45.3705C38.4486 44.9791 38.6279 44.5903 39.0192 44.5324C39.4105 44.4744 39.8057 44.7777 39.8636 45.1692Z" fill="url(#paint10_linear_1_507)"/>
<path d="M49.4746 52.7373C48.2241 52.4502 45.3342 52.6046 45.3342 52.6046L45.2164 52.923L45.0217 54.5052C45.0217 54.5052 47.7739 55.0012 49.1306 55C49.2597 55.0004 49.388 54.9812 49.5113 54.943C49.5525 54.9059 49.593 54.8674 49.6313 54.8252C50.207 54.1972 50.0409 53.2738 49.4746 52.7373Z" fill="url(#paint11_linear_1_507)"/>
<path d="M49.5984 52.7687C49.5591 52.7577 49.5177 52.7472 49.4745 52.7374C50.0408 53.2739 50.207 54.1973 49.6316 54.8259C49.5923 54.8675 49.5531 54.906 49.5116 54.9437C50.5291 54.6269 50.6495 53.0645 49.5984 52.7687Z" fill="url(#paint12_linear_1_507)"/>
<path d="M44.5036 52.5154L44.9931 52.5364C45.2559 52.5476 45.5038 52.6757 45.6806 52.8917C45.8599 53.1159 45.9499 53.3985 45.933 53.6851C45.923 53.9123 45.8285 54.1276 45.6681 54.2887C45.5936 54.3637 45.504 54.4219 45.4053 54.4594C45.3065 54.4969 45.2009 54.5129 45.0955 54.5062L44.3467 54.4529L44.5036 52.5154Z" fill="url(#paint13_linear_1_507)"/>
<path d="M28.0489 52.585C29.306 52.3364 32.191 52.5793 32.191 52.5793L32.3006 52.9011L32.4556 54.4888C32.4556 54.4888 29.692 54.9001 28.3361 54.8573C28.207 54.8538 28.0791 54.8307 27.957 54.7888C27.9157 54.7505 27.8763 54.7101 27.8391 54.6678C27.2803 54.0219 27.4694 53.104 28.0489 52.585Z" fill="url(#paint14_linear_1_507)"/>
<path d="M27.9242 52.6126C27.9635 52.6028 28.0053 52.5929 28.0489 52.5851C27.4694 53.104 27.2803 54.022 27.8399 54.6672C27.8771 54.7095 27.9165 54.7499 27.9578 54.7882C26.9477 54.4411 26.866 52.876 27.9242 52.6126Z" fill="url(#paint15_linear_1_507)"/>
<path d="M33.0231 52.5157L32.5334 52.5216C32.2704 52.5248 32.0194 52.6454 31.8373 52.8556C31.6522 53.0746 31.5553 53.3547 31.5654 53.6413C31.5698 53.8693 31.6588 54.0875 31.8151 54.2535C31.8874 54.3308 31.9754 54.3918 32.0731 54.4325C32.1709 54.4731 32.2762 54.4925 32.382 54.4893L33.1317 54.459L33.0231 52.5157Z" fill="url(#paint16_linear_1_507)"/>
<path d="M49.8242 47.777C49.2571 46.4719 47.8703 46.2602 46.6898 46.8703C46.6702 46.8974 39.1935 50.7287 32.6006 52.408C32.7894 53.0132 32.8864 53.6569 32.9076 54.2898C32.9113 54.4308 32.909 54.5699 32.9007 54.707C37.9564 54.4473 43.4434 52.7612 48.1585 51.2795C49.6205 50.8081 50.4528 49.2235 49.8242 47.777Z" fill="url(#paint17_linear_1_507)"/>
<path d="M44.54 54.3889C44.5204 53.6594 44.6622 52.9803 44.9655 52.3517C44.9741 52.3229 44.9851 52.2954 44.9938 52.2669C44.6172 52.1502 44.1308 51.9919 43.4919 51.7758C38.8104 50.1738 35.2389 48.556 31.8303 46.6938C30.5062 45.9704 29.0006 46.4552 28.5767 48.0221C28.1981 49.4208 29.0569 50.5391 30.2903 51.0347C34.53 52.7373 40.759 54.2929 44.5479 54.5482C44.5451 54.4948 44.5418 54.4417 44.54 54.3889Z" fill="url(#paint18_linear_1_507)"/>
<path d="M36.3549 35.3195C36.3549 35.3195 36.8583 37.5012 39.3029 37.456C41.7926 37.4107 42.0146 35.3122 42.0146 35.3122L40.3881 34.9642L40.2522 33.1521L37.8059 33.334L37.7605 35.0557L36.3549 35.3195Z" fill="url(#paint19_linear_1_507)"/>
<path d="M38.0407 27.8105C38.0407 27.8105 35.4357 32.8566 38.5257 34.0803C40.7061 34.9446 42.072 30.7295 41.6644 29.588C41.0341 27.8231 40.619 28.0325 40.619 28.0325L38.0407 27.8105Z" fill="url(#paint20_linear_1_507)"/>
<path d="M41.6643 29.5885C41.6568 29.5688 41.6505 29.5492 41.6447 29.5325C41.6547 29.6256 41.66 29.7226 41.6612 29.8226C41.6651 29.7515 41.6684 29.6802 41.6708 29.6089C41.6686 29.6018 41.6667 29.5949 41.6643 29.5885Z" fill="white"/>
<path d="M41.6448 29.5325C41.6411 29.4981 41.6372 29.4639 41.6321 29.4303C41.7662 29.6537 41.5083 29.1333 41.6448 29.5325Z" fill="white"/>
<path d="M42.8704 26.4558C44.2662 26.1384 43.2975 30.4561 41.2194 29.7481C39.1414 29.0402 38.1732 28.6055 37.8495 29.1761C37.5258 29.7468 36.9852 32.0807 36.8067 30.8705C36.6391 29.7395 36.4769 27.6666 37.5688 27.2142C38.1887 26.9573 38.7338 27.514 39.1613 27.3747C39.8191 27.16 40.4528 27.1529 40.8437 27.3782C41.583 27.8045 41.9833 26.6577 42.8704 26.4558Z" fill="url(#paint21_linear_1_507)"/>
<path d="M37.617 30.0158C37.617 30.0158 37.1664 29.3353 36.9609 30.0317C36.7555 30.728 36.8861 31.6899 37.299 31.2427C37.7119 30.7954 37.617 30.0158 37.617 30.0158Z" fill="url(#paint22_linear_1_507)"/>
<path d="M37.7585 24.5031H18.2304C17.8162 24.5031 17.4189 24.3386 17.126 24.0457C16.8331 23.7528 16.6686 23.3555 16.6686 22.9413V14.4397C16.6686 14.2305 16.7106 14.0234 16.7922 13.8308C16.8738 13.6381 16.9932 13.4638 17.1435 13.3182C17.2937 13.1726 17.4717 13.0587 17.6668 12.9832C17.8619 12.9077 18.0702 12.8721 18.2793 12.8787L37.8074 13.5033C38.2129 13.5161 38.5975 13.6862 38.8798 13.9776C39.1621 14.2689 39.3199 14.6587 39.3199 15.0644V22.9411C39.32 23.3553 39.1555 23.7526 38.8627 24.0455C38.5699 24.3384 38.1727 24.503 37.7585 24.5031Z" fill="url(#paint23_linear_1_507)"/>
<path d="M31.0513 24.4388L33.6463 27.5744L34.6489 24.4388H31.0513Z" fill="url(#paint24_linear_1_507)"/>
<path d="M25.5995 21.2719L21.2317 19.01V18.2929L25.5987 16.0165V17.1876L22.6163 18.6412L25.5987 20.1051L25.5995 21.2719Z" fill="white"/>
<path d="M29.873 15.3588L27.6337 22.2801L26.4701 22.2701L28.7432 15.2969L29.873 15.3588Z" fill="white"/>
<path d="M30.6797 20.2195L33.3729 18.9761L30.6797 17.3952V16.2618L34.5588 18.7321V19.3904L30.6797 21.3482V20.2195Z" fill="white"/>
<path d="M9.23823 35.614C8.89821 34.9056 8.65523 34.1643 8.59846 33.3572C8.45546 31.3232 9.63776 29.4502 10.5064 27.7001C11.3047 26.0905 11.8981 23.6929 9.20444 23.9058C7.05846 24.075 4.53514 26.2137 4.24757 28.4429C3.90696 31.0824 5.192 34.4106 3.6685 36.8082C1.53725 40.1623 0 39.3936 0 45.0535C0 47.4719 1.33964 48.8053 2.87394 49.5409C4.05638 50.1076 5.38395 50.2987 6.6782 50.0885C7.97244 49.8783 9.17133 49.277 10.1137 48.3653C11.8183 46.7153 12.8319 44.344 12.4891 41.9631C12.1424 39.5584 10.2563 37.734 9.23823 35.614Z" fill="url(#paint25_linear_1_507)"/>
<path d="M7.43774 53.8358C7.41553 53.8358 7.39395 53.8284 7.37644 53.8148C7.35893 53.8011 7.34649 53.782 7.3411 53.7604C6.00539 48.4297 5.2786 43.5974 5.18039 39.3976C5.10181 36.0333 5.42396 33.0643 6.13817 30.5728C7.35917 26.3129 9.27749 24.9426 9.35842 24.8862C9.38016 24.8723 9.40645 24.8674 9.43177 24.8724C9.45708 24.8775 9.47945 24.8922 9.49417 24.9134C9.50889 24.9346 9.51482 24.9607 9.51072 24.9861C9.50661 25.0116 9.49279 25.0345 9.47215 25.05C9.45251 25.0636 7.52083 26.4502 6.32222 30.6541C5.21378 34.5415 4.52431 41.6973 7.53438 53.7119C7.5408 53.7376 7.53678 53.7647 7.52318 53.7874C7.50959 53.8101 7.48755 53.8265 7.4619 53.8329C7.45399 53.8348 7.44588 53.8358 7.43774 53.8358Z" fill="url(#paint26_linear_1_507)"/>
<path d="M11.3767 29.647C11.2661 29.6179 11.151 29.6101 11.0375 29.624C10.3663 29.7012 10.0905 30.4097 9.8933 30.9627C9.72437 31.4369 9.52539 32.0122 9.62518 32.5257C9.73302 33.081 10.3227 33.5337 10.7505 32.97C11.2367 32.3292 11.9664 31.3455 11.9709 30.4964C11.9731 30.0744 11.7362 29.7446 11.3767 29.647Z" fill="url(#paint27_linear_1_507)"/>
<path d="M18.7881 44.6661C19.0922 42.6643 18.3636 40.3661 18.0012 38.2482C17.8093 37.1285 17.7203 36.0177 17.9003 34.8893C18.079 33.768 18.6058 32.5553 18.1201 31.438C17.1413 29.1873 14.8142 30.2117 13.4812 31.9059C11.9345 33.8729 11.5116 37.0857 10.9241 39.5607C10.5705 41.052 10.0365 42.582 9.84965 44.1017C9.54008 46.6196 10.1093 48.3674 11.3138 49.5479C11.8759 50.0989 12.6012 50.4531 13.3812 50.5576C14.1613 50.6622 14.9542 50.5115 15.6415 50.128C16.9181 49.4161 18.2978 47.896 18.7881 44.6661Z" fill="url(#paint28_linear_1_507)"/>
<path d="M13.465 53.9786C13.4415 53.9785 13.4187 53.9701 13.4007 53.9549C13.3828 53.9396 13.3708 53.9185 13.3668 53.8953C13.3617 53.8651 12.8561 50.8102 12.8422 46.5951C12.83 42.703 13.2474 36.996 15.305 31.9083C15.3099 31.8962 15.3171 31.8851 15.3263 31.8758C15.3355 31.8664 15.3464 31.859 15.3585 31.8539C15.3705 31.8488 15.3834 31.8461 15.3965 31.846C15.4096 31.8458 15.4226 31.8483 15.4347 31.8532C15.4469 31.8581 15.4579 31.8653 15.4673 31.8745C15.4766 31.8837 15.484 31.8946 15.4892 31.9067C15.4943 31.9187 15.497 31.9316 15.4971 31.9447C15.4972 31.9578 15.4947 31.9708 15.4898 31.9829C13.4448 37.0394 13.0298 42.7176 13.0415 46.5905C13.0545 50.7904 13.5584 53.8321 13.5635 53.8623C13.5678 53.8884 13.5616 53.9151 13.5463 53.9366C13.531 53.9582 13.5078 53.9728 13.4817 53.9772C13.4762 53.9781 13.4706 53.9785 13.465 53.9786Z" fill="url(#paint29_linear_1_507)"/>
<defs>
<linearGradient id="paint0_linear_1_507" x1="61.786" y1="71.1427" x2="12.9086" y2="10.4398" gradientUnits="userSpaceOnUse">
<stop stop-color="#B37CFF"/>
<stop offset="1" stop-color="#F895E7"/>
</linearGradient>
<linearGradient id="paint1_linear_1_507" x1="51.8819" y1="16.0973" x2="39.3458" y2="53.4201" gradientUnits="userSpaceOnUse">
<stop stop-color="#B37CFF"/>
<stop offset="1" stop-color="#F895E7"/>
</linearGradient>
<linearGradient id="paint2_linear_1_507" x1="29.579" y1="34.4089" x2="54.1027" y2="11.2806" gradientUnits="userSpaceOnUse">
<stop stop-color="#A737D5"/>
<stop offset="1" stop-color="#EF497A"/>
</linearGradient>
<linearGradient id="paint3_linear_1_507" x1="1.09596" y1="50.8591" x2="81.0023" y2="-40.7667" gradientUnits="userSpaceOnUse">
<stop stop-color="#53D8FF"/>
<stop offset="1" stop-color="#3840F7"/>
</linearGradient>
<linearGradient id="paint4_linear_1_507" x1="31.4958" y1="-20.1539" x2="18.7178" y2="18.9913" gradientUnits="userSpaceOnUse">
<stop stop-color="#53D8FF"/>
<stop offset="1" stop-color="#3840F7"/>
</linearGradient>
<linearGradient id="paint5_linear_1_507" x1="41.1721" y1="26.8607" x2="36.8553" y2="33.844" gradientUnits="userSpaceOnUse">
<stop stop-color="#2B3582"/>
<stop offset="1" stop-color="#150E42"/>
</linearGradient>
<linearGradient id="paint6_linear_1_507" x1="39.205" y1="34.7783" x2="40.634" y2="78.0069" gradientUnits="userSpaceOnUse">
<stop stop-color="#FDF53F"/>
<stop offset="1" stop-color="#D93C65"/>
</linearGradient>
<linearGradient id="paint7_linear_1_507" x1="30.9348" y1="38.8078" x2="40.403" y2="61.6792" gradientUnits="userSpaceOnUse">
<stop stop-color="#F9B776"/>
<stop offset="1" stop-color="#F47960"/>
</linearGradient>
<linearGradient id="paint8_linear_1_507" x1="47.7196" y1="38.7587" x2="38.2514" y2="61.6301" gradientUnits="userSpaceOnUse">
<stop stop-color="#F9B776"/>
<stop offset="1" stop-color="#F47960"/>
</linearGradient>
<linearGradient id="paint9_linear_1_507" x1="39.3451" y1="41.7568" x2="38.8522" y2="61.7175" gradientUnits="userSpaceOnUse">
<stop stop-color="#2B3582"/>
<stop offset="1" stop-color="#150E42"/>
</linearGradient>
<linearGradient id="paint10_linear_1_507" x1="40.3329" y1="37.6148" x2="36.9027" y2="60.4431" gradientUnits="userSpaceOnUse">
<stop stop-color="#53D8FF"/>
<stop offset="1" stop-color="#3840F7"/>
</linearGradient>
<linearGradient id="paint11_linear_1_507" x1="45.0272" y1="53.7547" x2="50.2012" y2="53.7945" gradientUnits="userSpaceOnUse">
<stop stop-color="#2B3582"/>
<stop offset="1" stop-color="#150E42"/>
</linearGradient>
<linearGradient id="paint12_linear_1_507" x1="57.638" y1="46.9591" x2="45.5465" y2="57.2631" gradientUnits="userSpaceOnUse">
<stop stop-color="#53D8FF"/>
<stop offset="1" stop-color="#3840F7"/>
</linearGradient>
<linearGradient id="paint13_linear_1_507" x1="48.4426" y1="44.4286" x2="42.9811" y2="59.2218" gradientUnits="userSpaceOnUse">
<stop stop-color="#F9B776"/>
<stop offset="1" stop-color="#F47960"/>
</linearGradient>
<linearGradient id="paint14_linear_1_507" x1="32.4981" y1="53.7442" x2="27.3218" y2="53.6407" gradientUnits="userSpaceOnUse">
<stop stop-color="#2B3582"/>
<stop offset="1" stop-color="#150E42"/>
</linearGradient>
<linearGradient id="paint15_linear_1_507" x1="20.5603" y1="36.144" x2="30.4439" y2="60.1171" gradientUnits="userSpaceOnUse">
<stop stop-color="#53D8FF"/>
<stop offset="1" stop-color="#3840F7"/>
</linearGradient>
<linearGradient id="paint16_linear_1_507" x1="37.5005" y1="39.9707" x2="32.0361" y2="54.7717" gradientUnits="userSpaceOnUse">
<stop stop-color="#F9B776"/>
<stop offset="1" stop-color="#F47960"/>
</linearGradient>
<linearGradient id="paint17_linear_1_507" x1="50.7576" y1="44.1433" x2="36.5596" y2="54.8087" gradientUnits="userSpaceOnUse">
<stop stop-color="#7C27DD"/>
<stop offset="1" stop-color="#2B41D9"/>
</linearGradient>
<linearGradient id="paint18_linear_1_507" x1="37.9255" y1="53.7063" x2="34.2043" y2="44.2175" gradientUnits="userSpaceOnUse">
<stop stop-color="#7C27DD"/>
<stop offset="1" stop-color="#2B41D9"/>
</linearGradient>
<linearGradient id="paint19_linear_1_507" x1="39.2465" y1="40.6963" x2="39.1206" y2="29.7352" gradientUnits="userSpaceOnUse">
<stop stop-color="#F9B776"/>
<stop offset="1" stop-color="#F47960"/>
</linearGradient>
<linearGradient id="paint20_linear_1_507" x1="38.7222" y1="33.9347" x2="40.5066" y2="25.2463" gradientUnits="userSpaceOnUse">
<stop stop-color="#F9B776"/>
<stop offset="1" stop-color="#F47960"/>
</linearGradient>
<linearGradient id="paint21_linear_1_507" x1="40.996" y1="26.7462" x2="36.7173" y2="33.6683" gradientUnits="userSpaceOnUse">
<stop stop-color="#2B3582"/>
<stop offset="1" stop-color="#150E42"/>
</linearGradient>
<linearGradient id="paint22_linear_1_507" x1="36.9302" y1="34.9072" x2="37.9257" y2="21.0429" gradientUnits="userSpaceOnUse">
<stop stop-color="#F9B776"/>
<stop offset="1" stop-color="#F47960"/>
</linearGradient>
<linearGradient id="paint23_linear_1_507" x1="24.9023" y1="8.43568" x2="33.9727" y2="39.4346" gradientUnits="userSpaceOnUse">
<stop stop-color="#2B3582"/>
<stop offset="1" stop-color="#150E42"/>
</linearGradient>
<linearGradient id="paint24_linear_1_507" x1="27.91" y1="7.55562" x2="36.9805" y2="38.5546" gradientUnits="userSpaceOnUse">
<stop stop-color="#2B3582"/>
<stop offset="1" stop-color="#150E42"/>
</linearGradient>
<linearGradient id="paint25_linear_1_507" x1="-0.911231" y1="71.4152" x2="9.22054" y2="31.8309" gradientUnits="userSpaceOnUse">
<stop stop-color="#7A2DDB"/>
<stop offset="1" stop-color="#7077FF"/>
</linearGradient>
<linearGradient id="paint26_linear_1_507" x1="5.16899" y1="39.3522" x2="9.51517" y2="39.3522" gradientUnits="userSpaceOnUse">
<stop stop-color="#2B3582"/>
<stop offset="1" stop-color="#150E42"/>
</linearGradient>
<linearGradient id="paint27_linear_1_507" x1="49.4784" y1="-5.5453" x2="20.2616" y2="22.2578" gradientUnits="userSpaceOnUse">
<stop stop-color="#7A2DDB"/>
<stop offset="1" stop-color="#7077FF"/>
</linearGradient>
<linearGradient id="paint28_linear_1_507" x1="9.8102" y1="54.3206" x2="16.0534" y2="37.8599" gradientUnits="userSpaceOnUse">
<stop stop-color="#A737D5"/>
<stop offset="1" stop-color="#EF497A"/>
</linearGradient>
<linearGradient id="paint29_linear_1_507" x1="12.324" y1="42.3123" x2="15.8855" y2="43.1568" gradientUnits="userSpaceOnUse">
<stop stop-color="#2B3582"/>
<stop offset="1" stop-color="#150E42"/>
</linearGradient>
</defs>
</svg>
