<svg width="18" height="18" viewBox="0 0 18 18" fill="none" xmlns="http://www.w3.org/2000/svg">
<path d="M4.87648 4.81641H4.65077L4.229 6.92578H5.29825L4.87648 4.81641ZM13.4076 9.03516C13.6353 9.64684 13.9382 10.142 14.2734 10.5633C14.6086 10.142 14.9466 9.6468 15.1743 9.03516H13.4076Z" fill="#19B890"/>
<path d="M16.4179 3.19922H9.86884L11.2344 14.1567C11.2585 14.6049 11.136 15.0268 10.8435 15.3571L8.53101 18H16.4179C17.2902 18 17.9999 17.2903 17.9999 16.418V4.81641C17.9999 3.94404 17.2902 3.19922 16.4179 3.19922ZM16.4179 9.03516H16.277C15.977 9.99784 15.5011 10.7511 15.0066 11.345C15.394 11.6992 15.8082 11.9897 16.2201 12.3151C16.4472 12.4969 16.4843 12.8285 16.302 13.0562C16.1205 13.2834 15.7876 13.3203 15.5609 13.138C15.1134 12.7848 14.6934 12.4892 14.2733 12.1037C13.8533 12.4892 13.4684 12.7848 13.0209 13.138C12.7942 13.3203 12.4613 13.2834 12.2798 13.0562C12.0975 12.8285 12.1346 12.4969 12.3617 12.3151C12.7736 11.9897 13.1526 11.6992 13.54 11.345C13.0455 10.7512 12.6048 9.99788 12.3048 9.03516H12.1639C11.8725 9.03516 11.6366 8.79929 11.6366 8.50781C11.6366 8.21633 11.8725 7.98047 12.1639 7.98047H13.746V7.45312C13.746 7.16164 13.9818 6.92578 14.2733 6.92578C14.5648 6.92578 14.8007 7.16164 14.8007 7.45312V7.98047H16.4179C16.7093 7.98047 16.9452 8.21633 16.9452 8.50781C16.9452 8.79929 16.7093 9.03516 16.4179 9.03516Z" fill="#19B890"/>
<path d="M8.58389 1.38582C8.48552 0.595828 7.81038 0 7.01423 0H1.58203C0.709664 0 0 0.709664 0 1.58203V13.2539C0 14.1263 0.709664 14.8359 1.58203 14.8359H9.89828C10.0521 14.6601 10.1811 14.55 10.1865 14.3204C10.1879 14.2629 8.59103 1.44292 8.58389 1.38582ZM6.46678 10.0795C6.18715 10.1371 5.90389 9.95555 5.84624 9.666L5.5092 7.98047H4.01818L3.68114 9.666C3.6245 9.95129 3.34948 10.1387 3.0606 10.0795C2.7753 10.0224 2.58989 9.74482 2.64705 9.459L3.70171 4.18556C3.75114 3.9394 3.96745 3.76172 4.21875 3.76172H5.30859C5.55989 3.76172 5.77621 3.9394 5.82564 4.18556L6.88032 9.459C6.93749 9.74482 6.75211 10.0224 6.46678 10.0795ZM6.16152 15.8906L6.25201 16.6142C6.31234 17.0987 6.6343 17.5929 7.16389 17.8396L8.93433 15.8906H6.16152Z" fill="#19B890"/>
</svg>
