<svg width="314" height="293" viewBox="0 0 314 293" fill="none" xmlns="http://www.w3.org/2000/svg">
<path fill-rule="evenodd" clip-rule="evenodd" d="M162.7 74.2696C163.273 74.4523 163.831 74.6838 164.365 74.9616L167.592 73.2353L167.777 73.4204L170.367 76.0107L170.552 76.1865L168.824 79.4134C169.104 79.9468 169.336 80.5041 169.518 81.0786L173.017 82.1369V86.3074L169.518 87.3676C169.335 87.9418 169.103 88.499 168.824 89.0329L170.552 92.2579L170.367 92.4429L167.777 95.0333L167.592 95.2072L164.369 93.4827C163.834 93.7598 163.277 93.9907 162.703 94.1729L161.641 97.6736H157.474L156.412 94.1729C155.838 93.9918 155.281 93.7602 154.747 93.4809L151.52 95.2072L151.335 95.0333L148.745 92.4429L148.571 92.2579L150.297 89.0329C150.019 88.4989 149.787 87.9417 149.605 87.3676L146.105 86.3074V82.1369L149.605 81.0786C149.786 80.5041 150.018 79.9469 150.297 79.4134L148.571 76.1865L148.745 76.0107L151.335 73.4204L151.52 73.2353L154.747 74.9616C155.281 74.6838 155.839 74.4523 156.412 74.2696L157.474 70.7708H161.641L162.7 74.2696ZM159.554 77.4724C160.889 77.4728 162.194 77.869 163.304 78.6109C164.413 79.3528 165.278 80.4071 165.789 81.6404C166.299 82.8738 166.433 84.2309 166.172 85.5401C165.911 86.8493 165.268 88.0518 164.324 88.9956C163.38 89.9394 162.178 90.5821 160.868 90.8424C159.559 91.1027 158.202 90.9689 156.969 90.458C155.736 89.947 154.682 89.0819 153.94 87.9719C153.198 86.862 152.803 85.5571 152.803 84.2222C152.803 82.4324 153.513 80.7158 154.779 79.45C156.044 78.1843 157.761 77.4729 159.55 77.4724H159.554Z" fill="#B5D3F7"/>
<path d="M158.724 287.956C158.724 287.956 154.779 272.007 163.024 267.165C171.268 262.323 168.221 254.807 176.11 249.423C184 244.038 173.96 237.605 187.397 229.358C200.834 221.112 210.879 218.608 210.879 218.608C210.879 218.608 205.852 225.601 207.121 239.213C208.39 252.825 196.724 252.115 195.834 263.407C194.944 274.699 183.476 270.027 178.092 280.777C172.708 291.527 159.823 291.716 159.823 291.716L158.724 287.956Z" fill="#0B4844"/>
<path d="M190.999 242.101C198.721 232.067 204.745 225.145 204.815 225.066C204.841 225.037 204.86 225.003 204.872 224.967C204.885 224.931 204.89 224.892 204.887 224.854C204.884 224.815 204.874 224.778 204.857 224.744C204.84 224.709 204.817 224.678 204.788 224.653C204.759 224.628 204.725 224.609 204.689 224.596C204.652 224.584 204.614 224.579 204.576 224.582C204.537 224.584 204.5 224.594 204.465 224.611C204.431 224.628 204.4 224.652 204.375 224.681C204.307 224.759 198.556 231.366 191.09 241.026C191.645 234.436 194.256 229.91 194.284 229.864C194.323 229.797 194.334 229.717 194.314 229.642C194.295 229.566 194.246 229.502 194.179 229.463C194.112 229.424 194.032 229.413 193.957 229.432C193.882 229.452 193.818 229.501 193.779 229.567C193.749 229.617 190.84 234.656 190.448 241.862C189.12 243.591 187.741 245.409 186.335 247.3C184.416 249.891 182.357 252.72 180.249 255.728C180.947 246.847 182.912 241.435 182.932 241.38C182.959 241.306 182.955 241.225 182.922 241.154C182.889 241.083 182.829 241.028 182.756 241.001C182.682 240.974 182.601 240.978 182.53 241.011C182.459 241.044 182.404 241.104 182.377 241.178C182.355 241.235 180.218 247.117 179.589 256.666C178.433 258.332 177.265 260.039 176.099 261.786C176.014 261.899 175.931 262.014 175.855 262.13C175.84 262.154 175.828 262.179 175.82 262.206C173.935 265.044 172.057 267.975 170.251 270.943C169.104 265.092 172.321 257.693 172.354 257.621C172.382 257.551 172.381 257.473 172.352 257.404C172.323 257.334 172.268 257.278 172.199 257.248C172.13 257.218 172.053 257.215 171.982 257.241C171.911 257.267 171.853 257.319 171.82 257.386C171.674 257.717 168.267 265.548 169.812 271.672C168.652 273.593 167.525 275.528 166.445 277.461L166.43 277.478C166.402 277.512 166.381 277.552 166.371 277.595C163.721 282.346 161.362 287.092 159.541 291.61C159.527 291.646 159.52 291.684 159.52 291.723C159.52 291.761 159.528 291.799 159.543 291.834C159.558 291.87 159.58 291.902 159.607 291.929C159.634 291.956 159.667 291.977 159.702 291.992C159.738 292.006 159.776 292.013 159.814 292.013C159.853 292.013 159.891 292.005 159.926 291.99C159.962 291.975 159.994 291.953 160.021 291.926C160.048 291.899 160.069 291.866 160.083 291.831C161.906 287.31 164.269 282.561 166.929 277.804C170.865 273.3 179.224 274.174 179.308 274.183C179.385 274.192 179.462 274.169 179.523 274.121C179.584 274.073 179.623 274.003 179.631 273.926C179.64 273.849 179.618 273.771 179.57 273.71C179.522 273.65 179.451 273.611 179.374 273.602C179.052 273.567 172.247 272.862 167.869 276.142C170.591 271.382 173.577 266.637 176.582 262.136C180.059 257.61 192.222 256.637 192.348 256.628C192.387 256.625 192.424 256.614 192.459 256.597C192.493 256.579 192.523 256.555 192.549 256.526C192.574 256.497 192.593 256.463 192.605 256.427C192.617 256.39 192.621 256.351 192.618 256.313C192.616 256.275 192.605 256.237 192.588 256.203C192.57 256.168 192.546 256.138 192.517 256.113C192.488 256.088 192.454 256.069 192.417 256.057C192.381 256.045 192.342 256.04 192.304 256.043C191.851 256.078 182.74 256.807 177.957 260.089C178.676 259.029 179.393 257.985 180.109 256.959C180.117 256.949 180.125 256.939 180.131 256.927C182.444 253.597 184.707 250.481 186.805 247.659C187.308 246.98 187.808 246.311 188.306 245.654C193.891 240.726 203.2 239.705 203.293 239.696C203.37 239.688 203.441 239.649 203.49 239.589C203.539 239.528 203.562 239.451 203.553 239.374C203.545 239.297 203.507 239.226 203.447 239.177C203.386 239.128 203.309 239.105 203.232 239.113C203.146 239.113 195.374 239.973 189.652 243.872C190.076 243.316 190.496 242.767 190.913 242.225C190.952 242.192 190.982 242.149 190.999 242.101Z" fill="white"/>
<path d="M149.102 291.575C116.094 291.532 84.2791 279.231 59.8278 257.058C35.3764 234.885 20.0321 204.421 16.7712 171.574C13.5103 138.728 22.5653 105.841 42.1798 79.2935C61.7942 52.7457 90.5699 34.4292 122.925 27.8972C155.28 21.3652 188.908 27.0832 217.285 43.942C245.663 60.8009 266.768 87.5989 276.505 119.138C286.243 150.676 283.919 184.708 269.985 214.63C256.051 244.553 231.5 268.234 201.094 281.079C184.646 288.04 166.963 291.61 149.102 291.575ZM149.102 25.9483C76.2796 25.9483 17.0343 85.1937 17.0343 158.016C17.0343 230.839 76.2704 290.084 149.102 290.084C221.934 290.084 281.17 230.839 281.17 158.016C281.17 85.1937 221.915 25.9483 149.102 25.9483Z" fill="#F3F7FF"/>
<path d="M193.074 291.749C163.163 291.71 134.333 280.563 112.176 260.471C90.0196 240.379 76.115 212.773 73.16 183.009C70.205 153.245 78.4103 123.444 96.184 99.3874C113.958 75.3307 140.033 58.733 169.352 52.8137C198.671 46.8944 229.143 52.0756 254.858 67.3523C280.573 82.6289 299.697 106.912 308.521 135.491C317.345 164.07 315.24 194.908 302.614 222.023C289.988 249.138 267.741 270.597 240.189 282.237C225.283 288.545 209.259 291.78 193.074 291.749ZM193.074 51.0174C127.077 51.0174 73.384 104.71 73.384 170.707C73.384 236.704 127.084 290.398 193.074 290.398C259.063 290.398 312.765 236.704 312.765 170.707C312.765 104.71 259.072 51.0174 193.074 51.0174Z" fill="#E6F0FF"/>
<path d="M72.0387 291.768C72.0387 291.768 69.0598 258.772 41.1542 229.175C25.1587 212.173 13.9109 208.169 8.15664 211.289C3.89179 213.622 2.66322 219.88 4.75586 227.686C9.6461 246.003 54.3724 285.39 72.0387 291.768Z" fill="#0B4844"/>
<path d="M71.4745 291.557C71.6595 291.631 71.8446 291.701 72.0296 291.768C72.0296 291.768 71.9796 291.213 71.8316 290.189C66.6638 283.118 60.9576 275.611 55.1922 268.192L57.8899 251.695C57.6037 251.201 57.3126 250.704 57.0166 250.203L54.2782 267.009C50.2502 261.829 46.2074 256.724 42.3107 251.837L43.1174 231.299C42.7696 230.913 42.4162 230.524 42.0609 230.139L41.2598 250.512C37.0042 245.184 32.9336 240.162 29.2775 235.686L30.4154 219.047C30.062 218.762 29.7123 218.492 29.3663 218.212L28.2561 234.436C24.5649 229.91 21.1493 225.76 18.1796 222.174L18.1038 211.502C17.7337 211.363 17.3637 211.233 16.9936 211.12L17.0732 220.838C13.4596 216.479 10.5973 213.067 8.83766 210.967C8.6072 211.063 8.38179 211.17 8.16232 211.289C8.04945 211.35 7.94028 211.416 7.83112 211.483C9.59997 213.589 12.5844 217.15 16.3867 221.739L3.76055 220.753C3.76055 221.116 3.77042 221.486 3.79015 221.863L17.3618 222.927C20.3315 226.515 23.7489 230.665 27.4402 235.19L6.95225 233.024C7.15824 233.411 7.37349 233.803 7.59799 234.201L28.4301 236.404C32.1306 240.934 36.2419 246.026 40.5585 251.417L19.954 250.468C20.3006 250.852 20.651 251.235 21.005 251.619L41.4818 252.557C45.3784 257.438 49.4213 262.548 53.4493 267.729L36.5934 266.915C37.0301 267.307 37.468 267.696 37.9071 268.083L54.3411 268.876C60.2897 276.533 66.1772 284.289 71.4745 291.557Z" fill="#F4F4F4"/>
<path d="M294.329 287.786H17.9907V293H294.329V287.786Z" fill="#2D464F"/>
<path d="M65.8699 240.652L65.2649 241.413C64.9855 241.193 37.3518 219.025 30.134 194.131L31.0591 193.859C38.1993 218.462 65.5924 240.432 65.8699 240.652Z" fill="white"/>
<path d="M31.4255 196.424C31.4255 196.424 20.6404 185.418 25.6897 182.663C30.7391 179.908 31.4255 196.424 31.4255 196.424Z" fill="white"/>
<path d="M35.4499 206.663C35.4499 206.663 33.2888 191.273 40.5917 191.818C47.8947 192.364 35.4499 206.663 35.4499 206.663Z" fill="white"/>
<path d="M44.1535 218.993C44.1535 218.993 38.1106 201.107 45.8483 199.814C53.5861 198.52 44.1535 218.993 44.1535 218.993Z" fill="white"/>
<path d="M34.7986 204.435C34.7986 204.435 28.2561 197.342 25.0699 197.565C21.8838 197.789 21.3176 201.518 23.3843 202.261C25.4511 203.005 34.7986 204.435 34.7986 204.435Z" fill="white"/>
<path d="M47.5062 223.134C47.5062 223.134 36.1863 217.768 31.9104 221.328C27.6344 224.888 33.6737 227.238 37.1818 226.413C40.6899 225.588 47.5062 223.134 47.5062 223.134Z" fill="white"/>
<path d="M40.8471 214.36C40.8471 214.36 31.7567 207.263 27.2014 209.598C22.6461 211.933 27.5937 215.261 30.9112 215.226C34.2287 215.191 40.8471 214.36 40.8471 214.36Z" fill="white"/>
<path d="M53.0404 229.321C53.0404 229.321 47.4803 211.705 53.1051 210.216C58.7299 208.726 53.0404 229.321 53.0404 229.321Z" fill="white"/>
<path d="M55.3346 231.682C55.3346 231.682 41.8758 226.078 39.3724 232.389C36.869 238.7 55.3346 231.682 55.3346 231.682Z" fill="white"/>
<path d="M156.72 248.248L157.506 249.049C157.798 248.762 186.831 220 192.106 190.56L190.996 190.362C185.789 219.458 157.01 247.963 156.72 248.248Z" fill="white"/>
<path d="M190.918 193.345C190.918 193.345 201.964 179.418 195.834 176.867C189.704 174.315 190.918 193.345 190.918 193.345Z" fill="white"/>
<path d="M187.521 205.581C187.521 205.581 188.142 187.663 179.831 189.169C171.505 190.703 187.521 205.581 187.521 205.581Z" fill="white"/>
<path d="M179.023 220.777C179.023 220.777 183.796 199.527 174.767 198.975C165.738 198.424 179.023 220.777 179.023 220.777Z" fill="white"/>
<path d="M187.998 202.948C187.998 202.948 194.659 194.017 198.334 193.882C202.008 193.747 203.115 197.963 200.834 199.062C198.552 200.161 187.998 202.935 187.998 202.935V202.948Z" fill="white"/>
<path d="M175.674 225.934C175.674 225.934 188.017 218.414 193.351 221.981C198.685 225.549 192.043 228.972 187.917 228.457C183.791 227.943 175.674 225.941 175.674 225.941V225.934Z" fill="white"/>
<path d="M182.257 215.063C182.257 215.063 191.83 205.823 197.34 207.953C202.85 210.082 197.571 214.497 193.762 214.858C189.952 215.219 182.257 215.063 182.257 215.063Z" fill="white"/>
<path d="M170.073 233.705C170.073 233.705 174.329 212.821 167.694 211.792C161.058 210.763 170.073 233.705 170.073 233.705Z" fill="white"/>
<path d="M167.725 236.685C167.725 236.685 182.49 228.633 186.124 235.575C189.758 242.517 167.725 236.685 167.725 236.685Z" fill="white"/>
<path fill-rule="evenodd" clip-rule="evenodd" d="M268.057 206.112C270.367 204.295 273.257 203.377 276.192 203.528C279.127 203.679 281.908 204.889 284.019 206.933C286.13 208.978 287.428 211.718 287.674 214.646C287.919 217.575 287.095 220.493 285.353 222.86L294.499 234.476C295.026 235.15 295.265 236.005 295.164 236.854C295.063 237.704 294.63 238.478 293.959 239.009C293.286 239.537 292.431 239.777 291.581 239.676C290.732 239.575 289.957 239.142 289.426 238.471L280.286 226.859C277.576 227.996 274.546 228.113 271.756 227.187C268.967 226.262 266.608 224.357 265.116 221.825C263.624 219.293 263.1 216.306 263.642 213.417C264.184 210.529 265.755 207.935 268.063 206.115L268.057 206.112ZM271.221 210.129C272.314 209.269 273.637 208.753 275.023 208.645C276.41 208.537 277.797 208.843 279.009 209.524C280.222 210.204 281.205 211.229 281.835 212.468C282.465 213.708 282.714 215.106 282.549 216.487C282.385 217.867 281.815 219.168 280.911 220.225C280.007 221.282 278.811 222.047 277.472 222.423C276.134 222.8 274.714 222.771 273.392 222.341C272.069 221.91 270.905 221.098 270.044 220.005C269.473 219.28 269.05 218.449 268.8 217.559C268.55 216.67 268.477 215.74 268.586 214.823C268.696 213.906 268.984 213.019 269.437 212.214C269.889 211.408 270.495 210.7 271.221 210.129Z" fill="#B5D3F7"/>
<path fill-rule="evenodd" clip-rule="evenodd" d="M157.885 18.2105H222.439C224.576 18.2192 226.624 19.0715 228.136 20.5818C229.648 22.0922 230.502 24.1386 230.514 26.2758V58.0558C230.506 60.1969 229.652 62.248 228.138 63.762C226.624 65.276 224.573 66.1299 222.432 66.1377H218.161V79.5022L204.776 66.1377H157.885C155.744 66.1299 153.693 65.276 152.179 63.762C150.665 62.248 149.811 60.1969 149.803 58.0558V26.2758C149.815 24.1373 150.67 22.0898 152.184 20.5792C153.698 19.0687 155.747 18.2173 157.885 18.2105Z" fill="#19B890"/>
<path d="M220.246 30.2353H160.812C160.574 30.2353 160.381 30.4284 160.381 30.6665V33.4992C160.381 33.7373 160.574 33.9303 160.812 33.9303H220.246C220.484 33.9303 220.677 33.7373 220.677 33.4992V30.6665C220.677 30.4284 220.484 30.2353 220.246 30.2353Z" fill="white"/>
<path d="M220.246 39.4718H160.812C160.574 39.4718 160.381 39.6648 160.381 39.9029V42.7357C160.381 42.9738 160.574 43.1668 160.812 43.1668H220.246C220.484 43.1668 220.677 42.9738 220.677 42.7357V39.9029C220.677 39.6648 220.484 39.4718 220.246 39.4718Z" fill="white"/>
<path d="M220.246 48.7101H160.812C160.574 48.7101 160.381 48.9031 160.381 49.1412V51.974C160.381 52.2121 160.574 52.4051 160.812 52.4051H220.246C220.484 52.4051 220.677 52.2121 220.677 51.974V49.1412C220.677 48.9031 220.484 48.7101 220.246 48.7101Z" fill="white"/>
<path fill-rule="evenodd" clip-rule="evenodd" d="M135.595 39.7975H104.526C103.497 39.8019 102.511 40.2126 101.783 40.9404C101.055 41.6681 100.645 42.6539 100.64 43.683V53.0675C100.645 54.0966 101.056 55.082 101.784 55.8097C102.511 56.5373 103.497 56.9482 104.526 56.9531H106.581V63.3827L113.022 56.9438H135.595C136.624 56.939 137.61 56.528 138.337 55.8004C139.065 55.0728 139.476 54.0873 139.481 53.0583V43.6682C139.476 42.6391 139.066 41.6533 138.338 40.9256C137.61 40.1978 136.624 39.7871 135.595 39.7827V39.7975Z" fill="#107168"/>
<path d="M108.448 51.1969C110.079 51.1969 111.401 49.8748 111.401 48.2439C111.401 46.613 110.079 45.2909 108.448 45.2909C106.817 45.2909 105.495 46.613 105.495 48.2439C105.495 49.8748 106.817 51.1969 108.448 51.1969Z" fill="white"/>
<path d="M120.379 51.1969C122.01 51.1969 123.332 49.8748 123.332 48.2439C123.332 46.613 122.01 45.2909 120.379 45.2909C118.748 45.2909 117.426 46.613 117.426 48.2439C117.426 49.8748 118.748 51.1969 120.379 51.1969Z" fill="white"/>
<path d="M132.309 51.1969C133.94 51.1969 135.262 49.8748 135.262 48.2439C135.262 46.613 133.94 45.2909 132.309 45.2909C130.678 45.2909 129.356 46.613 129.356 48.2439C129.356 49.8748 130.678 51.1969 132.309 51.1969Z" fill="white"/>
<path fill-rule="evenodd" clip-rule="evenodd" d="M291.291 84.6737H260.229C259.199 84.6781 258.214 85.0888 257.486 85.8166C256.758 86.5443 256.347 87.5301 256.343 88.5592V97.9456C256.348 98.9746 256.759 99.9601 257.487 100.688C258.214 101.415 259.2 101.826 260.229 101.831H262.282V108.257L268.723 101.826H291.296C292.325 101.821 293.311 101.41 294.038 100.682C294.766 99.9545 295.177 98.9691 295.182 97.94V88.5537C295.178 87.5245 294.767 86.5388 294.039 85.811C293.311 85.0833 292.326 84.6725 291.296 84.6681L291.291 84.6737Z" fill="#107168"/>
<path d="M264.149 96.0823C265.78 96.0823 267.102 94.7602 267.102 93.1293C267.102 91.4984 265.78 90.1763 264.149 90.1763C262.518 90.1763 261.196 91.4984 261.196 93.1293C261.196 94.7602 262.518 96.0823 264.149 96.0823Z" fill="white"/>
<path d="M276.08 96.0823C277.711 96.0823 279.033 94.7602 279.033 93.1293C279.033 91.4984 277.711 90.1763 276.08 90.1763C274.449 90.1763 273.127 91.4984 273.127 93.1293C273.127 94.7602 274.449 96.0823 276.08 96.0823Z" fill="white"/>
<path d="M288.01 96.0823C289.641 96.0823 290.963 94.7602 290.963 93.1293C290.963 91.4984 289.641 90.1763 288.01 90.1763C286.379 90.1763 285.057 91.4984 285.057 93.1293C285.057 94.7602 286.379 96.0823 288.01 96.0823Z" fill="white"/>
<path fill-rule="evenodd" clip-rule="evenodd" d="M96.5863 26.6606C96.586 26.5811 96.6015 26.5023 96.6318 26.4288C96.6621 26.3553 96.7067 26.2885 96.7629 26.2323C96.8192 26.176 96.886 26.1315 96.9595 26.1012C97.033 26.0708 97.1118 26.0554 97.1913 26.0556H101.897C102.057 26.0556 102.211 26.1194 102.324 26.2328C102.438 26.3463 102.502 26.5002 102.502 26.6606C102.501 26.821 102.437 26.9746 102.324 27.0879C102.21 27.2013 102.057 27.2652 101.897 27.2657H97.1913C97.0308 27.2657 96.8769 27.2019 96.7635 27.0885C96.65 26.975 96.5863 26.8211 96.5863 26.6606Z" fill="#B5D3F7"/>
<path fill-rule="evenodd" clip-rule="evenodd" d="M92.351 26.7642C92.3512 26.8437 92.3357 26.9225 92.3054 26.996C92.2751 27.0696 92.2305 27.1364 92.1743 27.1926C92.1181 27.2488 92.0513 27.2934 91.9777 27.3237C91.9042 27.354 91.8254 27.3695 91.7459 27.3693H87.0407C86.9612 27.3695 86.8824 27.354 86.8089 27.3237C86.7354 27.2934 86.6686 27.2488 86.6123 27.1926C86.5561 27.1364 86.5116 27.0696 86.4812 26.996C86.4509 26.9225 86.4354 26.8437 86.4357 26.7642C86.4357 26.6038 86.4994 26.4499 86.6129 26.3364C86.7264 26.2229 86.8802 26.1592 87.0407 26.1592H91.7441C91.8237 26.1589 91.9026 26.1744 91.9762 26.2047C92.0498 26.235 92.1167 26.2795 92.1731 26.3357C92.2295 26.3919 92.2742 26.4587 92.3047 26.5323C92.3353 26.6058 92.351 26.6846 92.351 26.7642Z" fill="#B5D3F7"/>
<path fill-rule="evenodd" clip-rule="evenodd" d="M94.5194 28.8255C94.5997 28.825 94.6793 28.8404 94.7536 28.8709C94.8279 28.9014 94.8954 28.9464 94.9522 29.0032C95.009 29.06 95.054 29.1275 95.0845 29.2018C95.115 29.2761 95.1305 29.3557 95.13 29.436V34.1357C95.13 34.2962 95.0662 34.4501 94.9528 34.5635C94.8393 34.677 94.6854 34.7407 94.5249 34.7407C94.4454 34.741 94.3666 34.7255 94.2931 34.6952C94.2196 34.6649 94.1528 34.6203 94.0966 34.5641C94.0403 34.5078 93.9958 34.441 93.9655 34.3675C93.9351 34.294 93.9197 34.2152 93.9199 34.1357V29.436C93.9192 29.3566 93.9341 29.2778 93.9638 29.2041C93.9936 29.1304 94.0375 29.0633 94.0932 29.0066C94.1489 28.9499 94.2151 28.9047 94.2883 28.8736C94.3614 28.8426 94.4399 28.8262 94.5194 28.8255Z" fill="#B5D3F7"/>
<path fill-rule="evenodd" clip-rule="evenodd" d="M94.4121 24.5901C94.3325 24.5904 94.2537 24.5749 94.1802 24.5446C94.1067 24.5143 94.0399 24.4697 93.9837 24.4135C93.9274 24.3572 93.8829 24.2904 93.8526 24.2169C93.8223 24.1434 93.8068 24.0646 93.807 23.9851V19.2799C93.807 19.1194 93.8708 18.9655 93.9842 18.8521C94.0977 18.7386 94.2516 18.6749 94.4121 18.6749C94.5725 18.6749 94.7264 18.7386 94.8399 18.8521C94.9533 18.9655 95.0171 19.1194 95.0171 19.2799V23.9851C95.0173 24.0646 95.0019 24.1434 94.9715 24.2169C94.9412 24.2904 94.8967 24.3572 94.8404 24.4135C94.7842 24.4697 94.7174 24.5143 94.6439 24.5446C94.5704 24.5749 94.4916 24.5904 94.4121 24.5901Z" fill="#B5D3F7"/>
<path fill-rule="evenodd" clip-rule="evenodd" d="M10.7674 104.301C10.7674 104.141 10.8312 103.987 10.9446 103.873C11.0581 103.76 11.212 103.696 11.3725 103.696H16.0777C16.1572 103.696 16.236 103.711 16.3095 103.742C16.383 103.772 16.4498 103.817 16.506 103.873C16.5623 103.929 16.6068 103.996 16.6371 104.069C16.6675 104.143 16.6829 104.222 16.6827 104.301C16.6827 104.462 16.619 104.616 16.5055 104.729C16.392 104.843 16.2381 104.906 16.0777 104.906H11.3725C11.2121 104.906 11.0585 104.842 10.9452 104.729C10.8318 104.615 10.7679 104.462 10.7674 104.301Z" fill="#B5D3F7"/>
<path fill-rule="evenodd" clip-rule="evenodd" d="M6.53406 104.412C6.53406 104.492 6.51841 104.57 6.48801 104.644C6.4576 104.717 6.41303 104.784 6.35685 104.84C6.30067 104.896 6.23397 104.941 6.16056 104.971C6.08716 105.002 6.00848 105.017 5.92903 105.017H1.22382C1.14429 105.018 1.06551 105.002 0.991989 104.972C0.918473 104.941 0.851678 104.897 0.795447 104.841C0.739216 104.784 0.694659 104.718 0.66434 104.644C0.634021 104.571 0.618536 104.492 0.618781 104.412C0.618781 104.252 0.682526 104.098 0.795992 103.984C0.909458 103.871 1.06335 103.807 1.22382 103.807H5.92903C6.08934 103.808 6.24295 103.872 6.35631 103.985C6.46967 104.098 6.53357 104.252 6.53406 104.412Z" fill="#B5D3F7"/>
<path fill-rule="evenodd" clip-rule="evenodd" d="M8.70631 106.473C8.86678 106.473 9.02067 106.537 9.13413 106.651C9.2476 106.764 9.31134 106.918 9.31134 107.078V111.784C9.31159 111.863 9.29611 111.942 9.26579 112.015C9.23547 112.089 9.19091 112.156 9.13468 112.212C9.07845 112.268 9.01165 112.313 8.93814 112.343C8.86462 112.373 8.78583 112.389 8.70631 112.389C8.62686 112.389 8.54818 112.373 8.47477 112.343C8.40137 112.312 8.33467 112.268 8.27849 112.211C8.2223 112.155 8.17774 112.089 8.14733 112.015C8.11693 111.942 8.10128 111.863 8.10128 111.784V107.078C8.10176 106.918 8.16567 106.765 8.27903 106.651C8.39239 106.538 8.546 106.474 8.70631 106.473Z" fill="#B5D3F7"/>
<path fill-rule="evenodd" clip-rule="evenodd" d="M8.59516 102.238C8.51579 102.238 8.43716 102.223 8.36376 102.193C8.29037 102.163 8.22366 102.118 8.16745 102.062C8.11124 102.006 8.06665 101.94 8.03622 101.866C8.00579 101.793 7.99012 101.714 7.99013 101.635V96.9279C7.99012 96.8486 8.00579 96.77 8.03622 96.6967C8.06665 96.6234 8.11124 96.5568 8.16745 96.5008C8.22366 96.4447 8.29037 96.4003 8.36376 96.3701C8.43716 96.3399 8.51579 96.3245 8.59516 96.3248C8.75531 96.3248 8.90892 96.3883 9.02233 96.5013C9.13575 96.6144 9.19971 96.7678 9.2002 96.9279V101.635C9.19971 101.795 9.13575 101.949 9.02233 102.062C8.90892 102.175 8.75531 102.238 8.59516 102.238Z" fill="#B5D3F7"/>
<path fill-rule="evenodd" clip-rule="evenodd" d="M250.404 53.4506C250.404 53.2903 250.468 53.1367 250.582 53.0233C250.695 52.9099 250.848 52.846 251.009 52.8455H255.714C255.874 52.8455 256.028 52.9093 256.142 53.0227C256.255 53.1362 256.319 53.2901 256.319 53.4506C256.319 53.5301 256.304 53.6089 256.273 53.6824C256.243 53.7559 256.199 53.8227 256.142 53.8789C256.086 53.9352 256.019 53.9797 255.946 54.0101C255.872 54.0404 255.794 54.0559 255.714 54.0556H251.009C250.848 54.0556 250.694 53.9919 250.581 53.8784C250.467 53.7649 250.404 53.611 250.404 53.4506Z" fill="#B5D3F7"/>
<path fill-rule="evenodd" clip-rule="evenodd" d="M246.17 53.5634C246.17 53.7237 246.106 53.8774 245.993 53.9907C245.879 54.1041 245.726 54.168 245.565 54.1685H240.86C240.7 54.1685 240.546 54.1047 240.432 53.9913C240.319 53.8778 240.255 53.7239 240.255 53.5634C240.255 53.4839 240.27 53.4051 240.301 53.3316C240.331 53.2581 240.376 53.1913 240.432 53.1351C240.488 53.0788 240.555 53.0343 240.628 53.004C240.702 52.9736 240.781 52.9582 240.86 52.9584H245.565C245.726 52.9584 245.88 53.0221 245.993 53.1356C246.107 53.2491 246.17 53.403 246.17 53.5634Z" fill="#B5D3F7"/>
<path fill-rule="evenodd" clip-rule="evenodd" d="M248.343 55.6247C248.422 55.6244 248.501 55.6399 248.574 55.6702C248.648 55.7005 248.715 55.7451 248.771 55.8013C248.827 55.8576 248.872 55.9244 248.902 55.9979C248.932 56.0714 248.948 56.1502 248.948 56.2297V60.9349C248.948 61.0954 248.884 61.2493 248.77 61.3627C248.657 61.4762 248.503 61.5399 248.343 61.5399C248.182 61.5395 248.029 61.4756 247.915 61.3622C247.802 61.2488 247.738 61.0952 247.738 60.9349V56.2297C247.738 56.0692 247.801 55.9153 247.915 55.8019C248.028 55.6884 248.182 55.6247 248.343 55.6247Z" fill="#B5D3F7"/>
<path fill-rule="evenodd" clip-rule="evenodd" d="M248.232 51.3894C248.152 51.3896 248.073 51.3741 248 51.3438C247.926 51.3135 247.86 51.2689 247.803 51.2127C247.747 51.1565 247.703 51.0897 247.672 51.0162C247.642 50.9427 247.626 50.8639 247.627 50.7843V46.0884C247.627 45.9279 247.69 45.774 247.804 45.6606C247.917 45.5471 248.071 45.4834 248.232 45.4834C248.391 45.4853 248.543 45.5498 248.655 45.663C248.768 45.7762 248.831 45.929 248.831 46.0884V50.7936C248.829 50.9515 248.765 51.1022 248.653 51.2135C248.541 51.3248 248.39 51.3879 248.232 51.3894Z" fill="#B5D3F7"/>
<path fill-rule="evenodd" clip-rule="evenodd" d="M285.956 270.999C285.956 270.838 286.02 270.684 286.134 270.571C286.247 270.457 286.401 270.393 286.562 270.393H291.267C291.427 270.393 291.581 270.457 291.695 270.571C291.808 270.684 291.872 270.838 291.872 270.999C291.872 271.078 291.857 271.157 291.826 271.23C291.796 271.304 291.751 271.371 291.695 271.427C291.639 271.483 291.572 271.528 291.499 271.558C291.425 271.588 291.346 271.604 291.267 271.604H286.562C286.482 271.604 286.403 271.588 286.33 271.558C286.256 271.528 286.189 271.483 286.133 271.427C286.077 271.371 286.032 271.304 286.002 271.23C285.972 271.157 285.956 271.078 285.956 270.999Z" fill="white"/>
<path fill-rule="evenodd" clip-rule="evenodd" d="M281.721 271.112C281.721 271.272 281.658 271.426 281.544 271.539C281.431 271.653 281.277 271.717 281.116 271.717H276.411C276.251 271.716 276.097 271.652 275.984 271.539C275.871 271.425 275.807 271.272 275.806 271.112C275.806 270.951 275.87 270.797 275.983 270.684C276.097 270.57 276.251 270.506 276.411 270.506H281.116C281.196 270.506 281.275 270.522 281.348 270.552C281.422 270.582 281.489 270.627 281.545 270.683C281.601 270.739 281.646 270.806 281.676 270.88C281.706 270.953 281.722 271.032 281.721 271.112Z" fill="white"/>
<path fill-rule="evenodd" clip-rule="evenodd" d="M283.895 273.173C283.975 273.172 284.054 273.188 284.127 273.218C284.201 273.249 284.268 273.293 284.324 273.349C284.38 273.406 284.425 273.472 284.455 273.546C284.485 273.619 284.501 273.698 284.5 273.778V278.481C284.5 278.642 284.437 278.795 284.323 278.909C284.21 279.022 284.056 279.086 283.895 279.086C283.735 279.086 283.581 279.022 283.468 278.909C283.354 278.795 283.29 278.642 283.29 278.481V273.776C283.29 273.697 283.306 273.618 283.336 273.545C283.367 273.471 283.411 273.405 283.468 273.349C283.524 273.293 283.591 273.248 283.664 273.218C283.737 273.188 283.816 273.172 283.895 273.173Z" fill="white"/>
<path fill-rule="evenodd" clip-rule="evenodd" d="M283.783 268.937C283.703 268.937 283.625 268.922 283.551 268.891C283.478 268.861 283.411 268.816 283.355 268.76C283.299 268.704 283.255 268.637 283.225 268.564C283.195 268.49 283.179 268.412 283.179 268.332V263.627C283.179 263.467 283.243 263.313 283.356 263.2C283.469 263.087 283.622 263.023 283.783 263.022C283.943 263.022 284.097 263.086 284.21 263.199C284.324 263.313 284.388 263.467 284.388 263.627V268.332C284.388 268.412 284.372 268.491 284.342 268.564C284.312 268.638 284.267 268.705 284.211 268.761C284.155 268.817 284.088 268.862 284.014 268.892C283.941 268.922 283.862 268.938 283.783 268.937Z" fill="white"/>
<path fill-rule="evenodd" clip-rule="evenodd" d="M27.9896 277.256C27.9896 277.096 28.0534 276.942 28.1668 276.828C28.2803 276.715 28.4342 276.651 28.5947 276.651H33.2999C33.4602 276.652 33.6138 276.716 33.7272 276.829C33.8405 276.942 33.9044 277.096 33.9049 277.256C33.9049 277.417 33.8412 277.571 33.7277 277.684C33.6142 277.797 33.4603 277.861 33.2999 277.861H28.5947C28.5151 277.861 28.4364 277.846 28.3628 277.816C28.2893 277.785 28.2225 277.741 28.1663 277.685C28.1101 277.628 28.0655 277.562 28.0352 277.488C28.0049 277.414 27.9894 277.336 27.9896 277.256Z" fill="#B5D3F7"/>
<path fill-rule="evenodd" clip-rule="evenodd" d="M23.7543 277.371C23.7546 277.45 23.7391 277.529 23.7087 277.603C23.6784 277.676 23.6339 277.743 23.5776 277.799C23.5214 277.855 23.4546 277.9 23.3811 277.93C23.3076 277.961 23.2288 277.976 23.1493 277.976H18.4441C18.2836 277.976 18.1297 277.912 18.0162 277.799C17.9028 277.685 17.839 277.531 17.839 277.371C17.839 277.21 17.9028 277.056 18.0162 276.943C18.1297 276.83 18.2836 276.766 18.4441 276.766H23.1493C23.2288 276.766 23.3076 276.781 23.3811 276.811C23.4546 276.842 23.5214 276.886 23.5776 276.942C23.6339 276.999 23.6784 277.066 23.7087 277.139C23.7391 277.213 23.7546 277.291 23.7543 277.371Z" fill="#B5D3F7"/>
<path fill-rule="evenodd" clip-rule="evenodd" d="M25.9285 279.43C26.089 279.43 26.2429 279.494 26.3563 279.607C26.4698 279.721 26.5336 279.875 26.5336 280.035V284.74C26.5336 284.901 26.4698 285.055 26.3563 285.168C26.2429 285.282 26.089 285.346 25.9285 285.346C25.849 285.346 25.7702 285.33 25.6967 285.3C25.6232 285.27 25.5564 285.225 25.5002 285.169C25.4439 285.113 25.3994 285.046 25.369 284.972C25.3387 284.899 25.3232 284.82 25.3235 284.74V280.035C25.3232 279.956 25.3387 279.877 25.369 279.803C25.3994 279.73 25.4439 279.663 25.5002 279.607C25.5564 279.551 25.6232 279.506 25.6967 279.476C25.7702 279.445 25.849 279.43 25.9285 279.43Z" fill="#B5D3F7"/>
<path fill-rule="evenodd" clip-rule="evenodd" d="M25.8157 275.195C25.6552 275.195 25.5013 275.131 25.3878 275.018C25.2744 274.904 25.2106 274.75 25.2106 274.59V269.885C25.2111 269.724 25.275 269.571 25.3884 269.457C25.5017 269.344 25.6553 269.28 25.8157 269.28C25.9761 269.28 26.13 269.343 26.2435 269.457C26.3569 269.57 26.4207 269.724 26.4207 269.885V274.595C26.4197 274.755 26.3555 274.908 26.2421 275.02C26.1286 275.133 25.9753 275.195 25.8157 275.195Z" fill="#B5D3F7"/>
<path d="M9.75047 198.615C10.4259 195.965 8.82535 193.27 6.17555 192.594C3.52575 191.919 0.830125 193.519 0.1547 196.169C-0.520725 198.819 1.07982 201.515 3.72962 202.19C6.37942 202.865 9.07505 201.265 9.75047 198.615Z" fill="#B5D3F7"/>
<path d="M67.4413 10.9309C68.1542 8.29091 66.5919 5.57293 63.9519 4.86011C61.3119 4.14729 58.5939 5.70957 57.8811 8.34955C57.1683 10.9895 58.7306 13.7075 61.3706 14.4203C64.0106 15.1332 66.7285 13.5709 67.4413 10.9309Z" fill="#B5D3F7"/>
<path d="M270.57 75.0894C273.304 75.0894 275.521 72.8726 275.521 70.1381C275.521 67.4035 273.304 65.1868 270.57 65.1868C267.835 65.1868 265.619 67.4035 265.619 70.1381C265.619 72.8726 267.835 75.0894 270.57 75.0894Z" fill="#B5D3F7"/>
<path d="M283.025 238.141C283.654 235.48 282.005 232.813 279.344 232.185C276.683 231.557 274.016 233.205 273.388 235.866C272.76 238.528 274.408 241.194 277.069 241.822C279.731 242.451 282.397 240.802 283.025 238.141Z" fill="#B5D3F7"/>
<path d="M13.1642 259.116C13.4656 257.269 12.2129 255.528 10.3663 255.226C8.51973 254.925 6.77841 256.178 6.47701 258.024C6.17561 259.871 7.42826 261.612 9.27487 261.914C11.1215 262.215 12.8628 260.962 13.1642 259.116Z" fill="#B5D3F7"/>
<path d="M11.9071 87.4343C13.7781 87.4343 15.2949 85.9175 15.2949 84.0465C15.2949 82.1754 13.7781 80.6587 11.9071 80.6587C10.036 80.6587 8.51925 82.1754 8.51925 84.0465C8.51925 85.9175 10.036 87.4343 11.9071 87.4343Z" fill="#B5D3F7"/>
<path d="M117.596 26.2443C119.467 26.2443 120.984 24.7275 120.984 22.8565C120.984 20.9854 119.467 19.4687 117.596 19.4687C115.725 19.4687 114.208 20.9854 114.208 22.8565C114.208 24.7275 115.725 26.2443 117.596 26.2443Z" fill="#B5D3F7"/>
<path d="M296.991 172.352C298.863 172.352 300.379 170.835 300.379 168.964C300.379 167.093 298.863 165.576 296.991 165.576C295.12 165.576 293.604 167.093 293.604 168.964C293.604 170.835 295.12 172.352 296.991 172.352Z" fill="#B5D3F7"/>
<path d="M218.265 4.06975C218.641 2.23692 217.46 0.446121 215.628 0.0698956C213.795 -0.30633 212.004 0.874491 211.628 2.70732C211.252 4.54015 212.432 6.33093 214.265 6.70716C216.098 7.08338 217.889 5.90258 218.265 4.06975Z" fill="#B5D3F7"/>
<path d="M194.778 94.3876C196.649 94.3876 198.165 92.8708 198.165 90.9997C198.165 89.1287 196.649 87.6119 194.778 87.6119C192.907 87.6119 191.39 89.1287 191.39 90.9997C191.39 92.8708 192.907 94.3876 194.778 94.3876Z" fill="#B5D3F7"/>
<path d="M177.713 193.982C180.52 193.982 182.795 191.706 182.795 188.899C182.795 186.092 180.52 183.816 177.713 183.816C174.906 183.816 172.63 186.092 172.63 188.899C172.63 191.706 174.906 193.982 177.713 193.982Z" fill="#B5D3F7"/>
<path fill-rule="evenodd" clip-rule="evenodd" d="M216.133 118.628C211.748 122.785 207.228 127.838 203.718 131.713C201.146 131.667 189.819 118.809 188.825 118.269L188.056 117.481C188.056 117.481 186.771 112.165 185.251 110.348C184.295 109.237 182.99 108.484 181.55 108.213C181.55 108.213 177.54 102.579 175.1 99.8643C172.828 97.3424 170.659 98.4322 172.351 101C173.907 103.339 176.802 107.304 176.802 107.304C176.802 107.304 174.599 107.724 174.767 109.177C174.767 109.177 172.495 109.893 173.102 111.8C173.102 111.8 171.035 112.711 172.125 114.561C173.215 116.411 173.192 116.696 174.556 117.991C175.92 119.286 177.577 121.375 180.679 121.943C181.011 122.008 181.337 122.098 181.655 122.214C185.006 127.744 194.876 144.52 205.052 144.998C214.753 145.44 227.769 125.768 229.268 124.143C231.148 122.114 226.06 109.223 216.133 118.628Z" fill="#FCA587"/>
<path fill-rule="evenodd" clip-rule="evenodd" d="M225.098 275.336C225.098 275.336 222.21 281.876 216.602 283.129C210.993 284.382 207.72 284.03 206.668 285.871C205.615 287.712 205.94 289.303 205.94 289.303C205.94 289.303 213.737 294.784 234.558 289.696C234.963 289.612 235.332 289.407 235.616 289.106C235.899 288.806 236.084 288.426 236.144 288.017C236.346 286.563 236.373 275.943 236.373 275.943L225.098 275.336Z" fill="#107168"/>
<g style="mix-blend-mode:multiply" opacity="0.5">
<path fill-rule="evenodd" clip-rule="evenodd" d="M211.922 283.952C209.115 284.372 207.38 284.618 206.667 285.867C206.456 286.226 206.285 286.607 206.157 287.003C208.759 288.269 211.608 288.947 214.501 288.992C216.059 289.007 218.157 288.97 220.522 288.837C219.738 283.057 211.922 283.952 211.922 283.952Z" fill="#493B70"/>
</g>
<path fill-rule="evenodd" clip-rule="evenodd" d="M206.157 287.003C205.91 287.742 205.836 288.528 205.94 289.299C205.94 289.299 213.737 294.78 234.558 289.692C234.963 289.608 235.332 289.403 235.615 289.103C235.899 288.802 236.084 288.422 236.144 288.014C236.173 287.754 236.209 287.244 236.233 286.552C229.215 288.587 219.281 289.037 214.501 288.992C211.608 288.948 208.759 288.269 206.157 287.003Z" fill="#022A2E"/>
<path fill-rule="evenodd" clip-rule="evenodd" d="M248.605 275.095C248.605 275.095 246.17 281.817 240.66 283.449C235.15 285.081 231.857 284.951 230.935 286.859C230.014 288.767 230.443 290.336 230.443 290.336C230.443 290.336 238.594 295.27 259.022 288.78C259.421 288.669 259.776 288.438 260.038 288.118C260.3 287.798 260.457 287.405 260.488 286.992C260.591 285.527 259.896 274.929 259.896 274.929L248.605 275.095Z" fill="#107168"/>
<g style="mix-blend-mode:multiply" opacity="0.5">
<path fill-rule="evenodd" clip-rule="evenodd" d="M236.048 284.587C233.272 285.197 231.561 285.56 230.935 286.853C230.749 287.226 230.603 287.618 230.502 288.023C233.184 289.109 236.072 289.592 238.962 289.438C240.518 289.349 242.609 289.17 244.96 288.883C243.784 283.17 236.048 284.594 236.048 284.594V284.587Z" fill="#493B70"/>
</g>
<path fill-rule="evenodd" clip-rule="evenodd" d="M230.503 288.028C230.307 288.783 230.287 289.572 230.443 290.336C230.443 290.336 238.594 295.27 259.022 288.78C259.421 288.669 259.776 288.438 260.038 288.118C260.3 287.798 260.457 287.405 260.488 286.992C260.501 286.731 260.501 286.221 260.488 285.527C253.625 288.043 243.743 289.159 238.971 289.438C236.082 289.592 233.194 289.109 230.512 288.023L230.503 288.028Z" fill="#022A2E"/>
<path fill-rule="evenodd" clip-rule="evenodd" d="M216.748 168.285L216.27 173.453C216.27 173.453 215.328 200.507 218.429 224.984C221.53 249.462 221.519 279.889 221.519 279.889C221.519 279.889 227.322 283.366 236.466 279.889C236.466 279.889 239.169 244.192 237.624 232.72C236.26 222.622 237.913 202.15 237.879 197.528L232.717 173.396L260.079 173.236C259.894 172.193 259.694 171.125 259.477 170.045L216.748 168.285Z" fill="#19B890"/>
<path style="mix-blend-mode:multiply" opacity="0.2" d="M237.879 197.528L232.717 173.396L260.079 173.236C259.894 172.193 259.692 171.125 259.478 170.045L227.605 168.733L230.75 195.143C230.784 200.258 231.045 222.385 232.416 233.555C233.639 243.605 232.197 270.46 231.546 281.201C233.228 280.941 234.878 280.501 236.466 279.889C236.466 279.889 239.169 244.192 237.624 232.72C236.26 222.622 237.915 202.15 237.879 197.528Z" fill="url(#paint0_linear_1_21)"/>
<path fill-rule="evenodd" clip-rule="evenodd" d="M234.717 197.995C234.706 197.369 234.706 197.018 234.706 197.018C234.706 197.018 240.76 243.291 243.85 256.171C246.94 269.05 245.406 279.624 245.406 279.624C245.406 279.624 250.3 284.27 260.092 279.624C260.092 279.624 262.932 247.413 260.092 231.433C257.355 215.998 264.112 202.639 258.832 173.233L231.47 173.392L234.717 197.995Z" fill="#19B890"/>
<path style="mix-blend-mode:multiply" opacity="0.2" d="M260.092 231.436C257.355 216.002 264.113 202.643 258.832 173.236L253.627 173.268C258.899 203.631 252.147 217.428 254.883 233.372C257.328 247.587 255.562 274.231 255.024 281.367C256.778 280.996 258.479 280.411 260.092 279.628C260.092 279.628 262.932 247.417 260.092 231.436Z" fill="url(#paint1_linear_1_21)"/>
<path d="M271.071 126.68C263.985 111.38 253.679 109.103 253.679 109.103C253.494 109.021 253.309 108.94 253.124 108.864C248.868 107.058 244.094 106.535 244.094 106.535L242.507 100.301L232.386 100.427L230.704 106.348C230.704 106.348 222.598 108.568 220.058 110.435H219.984C219.984 110.435 219.928 110.498 219.836 110.609C219.764 110.667 219.695 110.729 219.63 110.794C219.515 110.921 219.412 111.059 219.323 111.206C217.045 113.891 209.383 122.93 204.706 128.599C206.471 133.487 210.072 137.76 215.345 141.471C215.142 155.163 214.213 173.804 214.213 173.804C214.213 173.804 216.279 181.925 237.282 180.38C258.284 178.835 259.577 177.54 260.349 173.804C260.813 171.564 261.274 154.451 261.546 139.911C266.414 139.865 271.88 137.667 273.876 136.784C274.378 136.562 274.661 136.414 274.661 136.414C274.252 133.461 271.071 126.68 271.071 126.68Z" fill="#19B890"/>
<path fill-rule="evenodd" clip-rule="evenodd" d="M232.386 100.421L230.704 106.342C230.704 106.342 229.252 106.74 227.374 107.341C227.1 111.021 229.054 114.905 233.393 115.314C235.142 115.463 236.902 115.21 238.538 114.574C241.499 113.464 245.921 109.948 247.432 107.101C245.49 106.681 244.102 106.533 244.102 106.533L242.505 100.301L232.386 100.421Z" fill="#107168"/>
<path fill-rule="evenodd" clip-rule="evenodd" d="M232.386 100.421L230.704 106.342C230.704 106.342 228.967 111.952 233.665 112.407C238.362 112.862 243.012 108.603 244.102 106.535L242.505 100.301L232.386 100.421Z" fill="#FCA587"/>
<path fill-rule="evenodd" clip-rule="evenodd" d="M179.924 108.94C179.924 108.94 177.163 110.03 176.675 110.041C176.186 110.052 176.889 108.56 177.435 108.348C177.981 108.135 179.924 108.94 179.924 108.94Z" fill="#F39071"/>
<g style="mix-blend-mode:multiply" opacity="0.5">
<path d="M212.055 138.899C213.105 139.821 214.203 140.686 215.345 141.49V129.239C215.345 129.239 214.888 133.352 212.055 138.899Z" fill="#493B70"/>
</g>
<g style="mix-blend-mode:multiply" opacity="0.5">
<path d="M256.104 132.177C256.104 132.177 267.458 186.945 214.433 170.243L214.383 170.226C214.279 172.465 214.213 173.817 214.213 173.817C214.213 173.817 216.279 181.938 237.282 180.393C258.284 178.848 259.577 177.553 260.349 173.817C260.811 171.582 261.274 154.575 261.542 140.061L261.463 139.922L256.104 132.177Z" fill="#493B70"/>
</g>
<path d="M273.975 137.162C271.967 138.048 266.451 140.267 261.561 140.287V142.383C262.819 145.982 264.251 149.538 265.412 152.477C261.822 154.112 249.453 161.756 248.693 162.468C248.661 162.498 248.635 162.532 248.613 162.57L245.057 164.353C245.057 164.353 239.458 163.967 237.21 164.886C235.828 165.48 234.687 166.523 233.972 167.847C233.972 167.847 227.215 170.017 223.796 171.573C220.626 173.003 221.02 175.459 224.056 174.606C226.832 173.821 231.609 172.2 231.609 172.2C231.609 172.2 231.337 174.495 232.814 174.778C232.814 174.778 232.553 175.549 234.608 175.538C234.608 175.538 234.847 177.832 237.014 177.344C239.18 176.856 239.297 177.742 241.001 176.811C242.705 175.88 245.627 175.801 247.146 172.95C247.679 171.999 248.411 171.175 249.292 170.533C250.284 171.151 273.699 163.872 276.415 154.356C277.825 149.385 276.021 142.598 273.975 137.162Z" fill="#FCA587"/>
<path d="M232.386 100.421L230.821 105.942C232.138 106.971 235.411 106.818 236.013 106.779C236.47 106.749 240.568 104.355 243.114 102.669L242.507 100.301L232.386 100.421Z" fill="#F39071"/>
<path fill-rule="evenodd" clip-rule="evenodd" d="M227.575 82.655C227.575 82.655 226.173 92.8037 226.58 95.407C227.009 98.0418 228.867 104.303 230.112 105.356C231.357 106.409 234.628 106.253 235.222 106.216C235.816 106.179 242.757 102.018 243.933 100.902C245.11 99.7866 245.414 97.1592 245.414 97.1592C245.414 97.1592 246.688 97.2887 247.778 95.9658C248.868 94.6428 249.319 92.5946 249.443 91.6547C249.567 90.7147 248.922 89.5417 248.089 89.4677C247.225 89.4158 246.27 90.3354 246.27 90.3354C246.27 90.3354 245.477 91.3031 245.088 93.5271L245.643 87.7044C245.643 87.7044 243.447 82.5791 244.553 81.3413L245.689 80.1072C245.689 80.1072 243.06 81.6318 238.671 82.1813C234.314 82.705 227.588 82.655 227.588 82.655H227.575Z" fill="#FCA587"/>
<path fill-rule="evenodd" clip-rule="evenodd" d="M226.998 87.3491C226.648 86.1002 226.234 84.2536 226.373 82.4478C226.624 79.3023 227.287 75.9959 228.319 74.9191C229.353 73.8089 233.071 71.4406 239.524 71.6552C245.978 71.8699 247.48 76.0644 247.48 76.0644C247.48 76.0644 251.04 76.9895 251.336 81.1452C251.632 85.3009 251.81 94.95 244.947 99.1464C245.163 98.4986 245.317 97.832 245.408 97.1555C245.408 97.1555 246.683 97.285 247.773 95.9621C248.863 94.6392 249.314 92.5909 249.438 91.651C249.562 90.7111 248.916 89.538 248.084 89.464C247.22 89.4122 246.265 90.3317 246.265 90.3317C246.265 90.3317 245.471 91.2994 245.082 93.5234L245.638 87.7007C245.638 87.7007 243.441 82.5755 244.548 81.3376L245.684 80.1035C245.684 80.1035 243.055 81.6281 238.666 82.1776C234.308 82.7013 227.583 82.6513 227.583 82.6513C227.583 82.6513 227.29 84.7754 226.998 87.3473V87.3491Z" fill="#31271E"/>
<path fill-rule="evenodd" clip-rule="evenodd" d="M240.463 87.6526C239.833 87.2826 238.325 86.5943 236.71 87.3788C236.71 87.3788 236.155 86.7497 236.786 86.3223C237.417 85.8949 239.487 85.9393 240.167 86.0632C240.997 86.2113 241.434 88.2225 240.463 87.6526Z" fill="black"/>
<path fill-rule="evenodd" clip-rule="evenodd" d="M227.738 87.3584C228.391 87.0216 229.938 86.4333 231.5 87.3251C231.5 87.3251 232.09 86.7423 231.5 86.2649C230.91 85.7875 228.828 85.7098 228.142 85.7912C227.303 85.8856 226.75 87.8654 227.746 87.3584H227.738Z" fill="black"/>
<path fill-rule="evenodd" clip-rule="evenodd" d="M229.868 91.0497C230.621 91.0738 231.254 90.4021 231.281 89.5362C231.309 88.6703 230.726 87.9579 229.966 87.9339C229.205 87.9098 228.569 88.5926 228.543 89.4493C228.517 90.3059 229.098 91.0257 229.868 91.0497Z" fill="black"/>
<path fill-rule="evenodd" clip-rule="evenodd" d="M238.347 91.3254C239.101 91.3495 239.744 90.676 239.772 89.81C239.8 88.9441 239.2 88.2336 238.447 88.2096C237.694 88.1855 237.06 88.8683 237.034 89.7231C237.008 90.5779 237.589 91.3013 238.347 91.3254Z" fill="black"/>
<path d="M232.103 97.3239C232.074 97.3239 232.045 97.3182 232.018 97.3072C231.418 97.0852 231.05 96.7151 230.922 96.2082C230.606 94.9482 231.955 93.2922 232.375 92.8148C232.398 92.7872 232.426 92.7644 232.458 92.748C232.491 92.7315 232.526 92.7216 232.561 92.7189C232.597 92.7162 232.634 92.7207 232.668 92.7321C232.702 92.7436 232.733 92.7617 232.761 92.7856C232.788 92.8094 232.81 92.8384 232.825 92.8709C232.841 92.9034 232.85 92.9386 232.852 92.9746C232.854 93.0106 232.848 93.0466 232.836 93.0805C232.823 93.1144 232.805 93.1455 232.78 93.1719C232.04 94.0119 231.244 95.2775 231.446 96.0768C231.529 96.4062 231.777 96.643 232.205 96.8021C232.264 96.8251 232.313 96.8681 232.343 96.9235C232.374 96.979 232.384 97.0434 232.372 97.1055C232.359 97.1676 232.326 97.2235 232.277 97.2634C232.228 97.3033 232.166 97.3247 232.103 97.3239Z" fill="black"/>
<path d="M233.611 99.9439C231.522 99.8773 230.33 98.9854 230.253 98.9262C230.2 98.8812 230.167 98.8177 230.159 98.7488C230.152 98.6799 230.172 98.6109 230.214 98.556C230.256 98.5011 230.318 98.4646 230.387 98.4539C230.455 98.4433 230.525 98.4594 230.582 98.4988C230.697 98.5876 233.455 100.623 238.109 98.3027C238.141 98.2846 238.176 98.2732 238.212 98.2692C238.249 98.2652 238.286 98.2686 238.321 98.2794C238.356 98.2901 238.389 98.3079 238.417 98.3316C238.445 98.3553 238.467 98.3844 238.484 98.4173C238.5 98.4501 238.51 98.4859 238.512 98.5226C238.514 98.5592 238.508 98.5959 238.496 98.6303C238.483 98.6648 238.464 98.6963 238.439 98.723C238.413 98.7497 238.383 98.771 238.349 98.7856C236.473 99.7218 234.876 99.9846 233.611 99.9439Z" fill="black"/>
<path d="M182.649 112.085C180.945 112.472 176.777 110.235 178.684 111.858C180.592 113.48 179.878 113.244 180.627 113.893C181.376 114.542 180.899 115.597 180.116 115.558C179.334 115.519 178.514 114.515 178.061 114.208C177.607 113.9 177.174 113.571 177.174 113.571C177.174 113.571 176.856 113.386 177.061 113.662C177.548 114.284 178.1 114.852 178.708 115.355C180.558 116.785 179.173 118.115 178.275 117.729C177.141 117.24 176.573 116.456 175.596 115.764C175.119 115.412 174.823 115.468 175.256 115.832C175.689 116.197 176.22 116.672 176.765 117.138C178.379 118.524 177.345 119.359 176.345 119.068C175.346 118.778 175.176 118.228 174.584 117.706C174.189 117.324 173.834 116.901 173.527 116.445L173.585 116.944C173.884 117.313 174.21 117.659 174.562 117.978C175.925 119.285 177.583 121.363 180.684 121.931C180.941 121.982 181.194 122.048 181.443 122.129C181.393 117.196 182.649 112.085 182.649 112.085Z" fill="#F39071"/>
<path d="M273.876 136.797C271.869 137.684 266.353 139.902 261.463 139.922V142.019C261.583 142.359 261.703 142.698 261.833 143.038C273.44 138.858 273.876 136.797 273.876 136.797Z" fill="#F39071"/>
<path fill-rule="evenodd" clip-rule="evenodd" d="M21.3287 20.588H67.2152C68.7361 20.5924 70.1936 21.1978 71.2701 22.2722C72.3466 23.3466 72.9548 24.8029 72.9621 26.3238V48.9136C72.9567 50.4362 72.3495 51.8948 71.2729 52.9714C70.1963 54.048 68.7377 54.6552 67.2152 54.6606H64.1807V64.1616L54.6649 54.6606H21.3287C19.8062 54.6552 18.3476 54.048 17.271 52.9714C16.1944 51.8948 15.5872 50.4362 15.5818 48.9136V26.3201C15.5891 24.7992 16.1973 23.3429 17.2738 22.2685C18.3503 21.1941 19.8078 20.5887 21.3287 20.5843V20.588Z" fill="#028464"/>
<path d="M64.7432 29.0882H24.0727C23.8346 29.0882 23.6416 29.2812 23.6416 29.5193V31.2012C23.6416 31.4393 23.8346 31.6323 24.0727 31.6323H64.7432C64.9813 31.6323 65.1744 31.4393 65.1744 31.2012V29.5193C65.1744 29.2812 64.9813 29.0882 64.7432 29.0882Z" fill="white"/>
<path d="M64.7432 35.4494H24.0727C23.8346 35.4494 23.6416 35.6424 23.6416 35.8805V37.5624C23.6416 37.8005 23.8346 37.9935 24.0727 37.9935H64.7432C64.9813 37.9935 65.1744 37.8005 65.1744 37.5624V35.8805C65.1744 35.6424 64.9813 35.4494 64.7432 35.4494Z" fill="white"/>
<path d="M64.7432 41.8125H24.0727C23.8346 41.8125 23.6416 42.0055 23.6416 42.2436V43.9254C23.6416 44.1635 23.8346 44.3566 24.0727 44.3566H64.7432C64.9813 44.3566 65.1744 44.1635 65.1744 43.9254V42.2436C65.1744 42.0055 64.9813 41.8125 64.7432 41.8125Z" fill="white"/>
<path fill-rule="evenodd" clip-rule="evenodd" d="M21.447 146.532C22.1273 146.749 22.7878 147.024 23.4212 147.353L27.2476 145.305L27.4585 145.516L30.5336 148.593L30.7446 148.8L28.6963 152.626C29.0278 153.26 29.3027 153.921 29.5179 154.602L33.668 155.859V160.805L29.5179 162.059C29.3017 162.741 29.0268 163.403 28.6963 164.037L30.7446 167.86L30.5336 168.07L27.4585 171.149L27.2476 171.357L23.425 169.321C22.7905 169.651 22.1287 169.924 21.447 170.139L20.1888 174.289H15.2468L13.9886 170.139C13.3072 169.925 12.6464 169.65 12.0144 169.318L8.18806 171.351L7.97713 171.144L4.8983 168.065L4.69107 167.854L6.73931 164.031C6.40881 163.397 6.13394 162.735 5.91779 162.053L1.76766 160.805V155.859L5.91779 154.602C6.13294 153.921 6.40785 153.26 6.73931 152.626L4.69107 148.8L4.8983 148.593L7.97713 145.514L8.18806 145.303L12.0144 147.351C12.6479 147.022 13.3083 146.747 13.9886 146.53L15.2468 142.38H20.1888L21.447 146.532ZM17.7187 150.33C19.3014 150.331 20.8484 150.8 22.1641 151.68C23.4799 152.559 24.5053 153.809 25.1107 155.271C25.7161 156.734 25.8743 158.343 25.5653 159.895C25.2563 161.447 24.494 162.873 23.3748 163.992C22.2556 165.111 20.8297 165.873 19.2774 166.181C17.7251 166.49 16.1162 166.331 14.6541 165.726C13.192 165.12 11.9423 164.094 11.063 162.778C10.1838 161.462 9.71452 159.915 9.71452 158.333C9.71452 157.282 9.92157 156.241 10.3238 155.27C10.7261 154.299 11.3157 153.416 12.059 152.673C12.8023 151.93 13.6847 151.341 14.6558 150.939C15.6269 150.537 16.6677 150.33 17.7187 150.33Z" fill="#19B890"/>
<path d="M142.626 67.9214H59.2774C53.2419 67.9214 48.7846 73.6572 49.3897 80.6586L66.0919 272.777C66.6988 279.797 72.1497 285.514 78.1871 285.514H161.547C167.582 285.514 172.04 279.797 171.412 272.777L154.732 80.6568C154.125 73.6572 148.675 67.9214 142.626 67.9214Z" fill="#19B890"/>
<path d="M142.626 76.0922C145.093 76.0922 147.492 78.6826 147.731 81.4839L163.164 259.261C163.349 261.442 162.191 263.02 160.287 263.02H76.9531C74.4867 263.02 72.1072 260.43 71.8482 257.63L56.4041 79.8297C56.2098 77.6723 57.3773 76.0922 59.2812 76.0922H142.626Z" fill="url(#paint2_linear_1_21)"/>
<path d="M133.269 269.942H111.181C109.688 269.942 108.692 271.345 108.974 273.05C109.233 274.756 110.661 276.159 112.132 276.159H134.243C135.714 276.159 136.709 274.756 136.45 273.05C136.169 271.345 134.74 269.942 133.269 269.942Z" fill="#FFFFFD"/>
<path d="M161.547 285.512H78.1872C72.1498 285.512 66.6989 279.795 66.092 272.775L49.3897 80.6567C48.966 75.7517 51.0309 71.4628 54.3854 69.3368L50.585 71.6219C47.0806 73.7034 44.9158 78.0664 45.3488 83.1065L62.0511 275.224C62.658 282.244 68.0885 287.962 74.1462 287.962H157.484C159.372 287.968 161.216 287.39 162.763 286.308L165.858 284.431C164.533 285.143 163.051 285.515 161.547 285.512Z" fill="#028464"/>
<path style="mix-blend-mode:screen" opacity="0.42" d="M140.761 76.0052L144.599 262.954L94.2068 263.05L59.5737 77.9406L140.761 76.0052Z" fill="url(#paint3_linear_1_21)"/>
<path fill-rule="evenodd" clip-rule="evenodd" d="M111.949 95.2312H104.026C102.091 95.2361 100.236 96.0071 98.8675 97.3756C97.4989 98.7441 96.728 100.599 96.7231 102.534V106.497C96.727 108.434 97.4974 110.29 98.8659 111.66C100.234 113.03 102.09 113.802 104.026 113.808H111.949C113.884 113.801 115.738 113.03 117.106 111.662C118.474 110.294 119.245 108.44 119.252 106.505V102.534C119.246 100.599 118.475 98.7446 117.107 97.3761C115.739 96.0077 113.884 95.2366 111.949 95.2312Z" fill="url(#paint4_linear_1_21)"/>
<path d="M96.7231 102.534C96.7243 101.57 96.9171 100.615 97.2903 99.7258C97.6635 98.8364 98.2097 98.0301 98.8972 97.3536C101.014 97.7847 102.661 100.706 102.661 104.225C102.661 108.002 100.76 111.097 98.405 111.149C97.3161 109.844 96.7197 108.198 96.7194 106.498L96.7231 102.534Z" fill="#00060F"/>
<path fill-rule="evenodd" clip-rule="evenodd" d="M168.345 165.467L168.252 159.557C168.252 159.557 170.079 149.444 172.245 149.627C174.412 149.81 172.14 154.921 172.954 155.302C173.768 155.683 177.472 149.535 180.599 148.905C183.726 148.276 188.583 157.481 188.479 160.91C188.376 164.338 176.841 168.737 176.841 168.737L168.345 165.467Z" fill="#00060F"/>
<path fill-rule="evenodd" clip-rule="evenodd" d="M136.167 153.672L140.933 155.104C140.933 155.104 152.775 172.428 154.566 173.873C156.629 172.874 168.317 159.609 168.317 159.609C168.317 159.609 174.188 161.946 177.078 168.633C177.078 168.633 165.349 181.77 162.263 185.431C158.914 189.396 150.284 188.255 146.397 185.352C140.846 182.554 126.631 168.185 126.631 168.185L136.167 153.672Z" fill="url(#paint5_linear_1_21)"/>
<path fill-rule="evenodd" clip-rule="evenodd" d="M128.785 151.572C133.566 149.076 139.91 151.742 142.956 157.533C146.001 163.325 144.599 170.05 139.81 172.546C135.022 175.042 128.685 172.376 125.639 166.583C122.594 160.79 123.996 154.066 128.785 151.572Z" fill="url(#paint6_linear_1_21)"/>
<path d="M121.221 203.02H100.146C97.9213 203.024 95.7887 203.909 94.2143 205.481C92.64 207.053 91.7518 209.184 91.744 211.409V221.822C91.744 232.162 100.2 240.625 110.546 240.625H110.809C121.148 240.625 129.611 232.162 129.611 221.822V211.409C129.604 209.185 128.716 207.055 127.143 205.483C125.57 203.911 123.439 203.026 121.215 203.02H121.221Z" fill="#00060F"/>
<path d="M106.278 203.02H100.146C97.9213 203.024 95.7887 203.909 94.2143 205.481C92.64 207.053 91.7518 209.184 91.744 211.409V221.822C91.744 232.162 100.2 240.625 110.546 240.625H110.809C112.197 240.626 113.58 240.472 114.933 240.168C105.786 239.254 98.5733 231.27 98.5733 221.635V211.317C98.5733 206.876 102.007 203.227 106.272 203.018L106.278 203.02Z" fill="url(#paint7_linear_1_21)"/>
<path d="M116.782 203.02H109.54H102.126C102.126 203.02 108.835 204.076 109.518 210.51C109.518 210.591 109.533 210.667 109.54 210.741V226.935C109.543 228.924 110.335 230.832 111.741 232.239C113.148 233.647 115.055 234.44 117.045 234.445C119.033 234.438 120.937 233.645 122.342 232.239C123.747 230.832 124.538 228.926 124.542 226.938V210.262C124.542 210.262 123.844 203.971 117.067 203.057C116.971 203.057 116.882 203.035 116.782 203.02Z" fill="url(#paint8_linear_1_21)"/>
<path d="M129.143 150.941H92.2234C84.1322 150.941 77.5138 157.561 77.5138 165.637V183.881C77.5138 201.993 92.3289 216.816 110.448 216.816H110.907C129.02 216.816 143.842 201.988 143.842 183.881V165.637C143.842 157.561 137.222 150.941 129.132 150.941H129.143Z" fill="#00060F"/>
<path d="M102.968 150.941H92.2234C84.1322 150.941 77.5138 157.561 77.5138 165.637V183.881C77.5138 201.993 92.3289 216.815 110.448 216.815H110.907C113.335 216.817 115.755 216.548 118.123 216.014C102.1 214.412 89.4665 200.424 89.4665 183.546V165.474C89.4665 157.703 95.4817 151.303 102.955 150.935L102.968 150.941Z" fill="url(#paint9_linear_1_21)"/>
<path fill-rule="evenodd" clip-rule="evenodd" d="M117.559 101.478H99.9463C95.6446 101.49 91.5228 103.205 88.481 106.247C85.4393 109.288 83.7248 113.41 83.7121 117.712V126.525C83.7121 135.443 91.0151 142.759 99.9463 142.759H117.559C126.49 142.759 133.793 135.443 133.793 126.525V117.712C133.78 113.41 132.066 109.288 129.024 106.247C125.982 103.205 121.861 101.49 117.559 101.478Z" fill="url(#paint10_linear_1_21)"/>
<path d="M83.7121 117.712C83.7131 115.566 84.1409 113.442 84.9706 111.463C85.8003 109.484 87.0153 107.69 88.545 106.185C93.2521 107.154 96.9045 113.647 96.9045 121.472C96.9045 129.868 92.6785 136.747 87.4681 136.864C85.0479 133.962 83.7221 130.303 83.7214 126.525L83.7121 117.712Z" fill="url(#paint11_linear_1_21)"/>
<path fill-rule="evenodd" clip-rule="evenodd" d="M123.772 109.674H105.475C103.719 109.678 102.037 110.376 100.794 111.616C99.5516 112.856 98.8503 114.537 98.8435 116.293V124.843C98.8469 126.601 99.5466 128.286 100.789 129.529C102.032 130.772 103.717 131.472 105.475 131.476H123.772C125.528 131.469 127.209 130.768 128.45 129.525C129.69 128.282 130.387 126.599 130.39 124.843V116.293C130.385 114.539 129.685 112.859 128.445 111.619C127.206 110.379 125.526 109.68 123.772 109.674Z" fill="#00060F"/>
<path fill-rule="evenodd" clip-rule="evenodd" d="M123.496 123.799C122.863 123.801 122.244 123.615 121.717 123.265C121.19 122.915 120.778 122.416 120.535 121.832C120.291 121.248 120.226 120.605 120.348 119.984C120.47 119.363 120.773 118.792 121.22 118.343C121.666 117.895 122.236 117.589 122.856 117.464C123.477 117.339 124.12 117.401 124.705 117.642C125.29 117.883 125.791 118.292 126.144 118.818C126.496 119.343 126.685 119.962 126.686 120.595C126.685 121.442 126.349 122.254 125.752 122.854C125.154 123.455 124.343 123.794 123.496 123.799Z" fill="#CE2541"/>
<path fill-rule="evenodd" clip-rule="evenodd" d="M107.734 123.799C107.102 123.798 106.484 123.61 105.959 123.258C105.434 122.906 105.024 122.406 104.783 121.822C104.541 121.238 104.479 120.595 104.602 119.975C104.726 119.355 105.03 118.785 105.477 118.338C105.925 117.891 106.494 117.586 107.114 117.463C107.734 117.339 108.377 117.402 108.961 117.644C109.546 117.885 110.045 118.294 110.397 118.819C110.749 119.345 110.938 119.962 110.939 120.595C110.939 121.016 110.857 121.433 110.696 121.822C110.535 122.211 110.299 122.565 110.002 122.862C109.704 123.16 109.35 123.396 108.961 123.557C108.572 123.718 108.155 123.8 107.734 123.799Z" fill="#CE2541"/>
<path fill-rule="evenodd" clip-rule="evenodd" d="M87.3238 130.925C84.0803 130.925 81.44 126.669 81.44 121.468C81.44 116.267 84.0803 111.998 87.3238 111.998C90.5673 111.998 93.2095 116.254 93.2095 121.468C93.2095 126.682 90.5692 130.925 87.3238 130.925Z" fill="#2D2621"/>
<path fill-rule="evenodd" clip-rule="evenodd" d="M87.3238 130.925C84.0803 130.925 81.44 126.669 81.44 121.468C81.44 116.267 84.0803 111.998 87.3238 111.998C90.5673 111.998 93.2095 116.254 93.2095 121.468C93.2095 126.682 90.5692 130.925 87.3238 130.925Z" fill="#00060F"/>
<path fill-rule="evenodd" clip-rule="evenodd" d="M85.4865 128.258C83.516 128.258 81.9007 125.298 81.9007 121.638C81.9007 117.978 83.516 115.007 85.4865 115.007C87.4571 115.007 89.0853 117.988 89.0853 121.638C89.0853 125.289 87.47 128.258 85.4865 128.258Z" fill="url(#paint12_linear_1_21)"/>
<path fill-rule="evenodd" clip-rule="evenodd" d="M133.307 130.46C135.658 129.224 137.364 125.666 137.364 121.462C137.364 116.985 135.434 113.24 132.848 112.256C133.47 114.006 133.79 115.849 133.793 117.706V126.519C133.792 127.848 133.629 129.171 133.307 130.46Z" fill="#00060F"/>
<path fill-rule="evenodd" clip-rule="evenodd" d="M107.394 135.049C107.681 136.485 108.457 137.777 109.589 138.706C110.722 139.634 112.141 140.142 113.606 140.142C115.07 140.142 116.49 139.634 117.622 138.706C118.755 137.777 119.531 136.485 119.818 135.049H107.394Z" fill="#CE2541"/>
<path fill-rule="evenodd" clip-rule="evenodd" d="M117.796 142.759H99.7095V144.544C99.7109 144.798 99.8124 145.041 99.9918 145.22C100.171 145.4 100.414 145.501 100.668 145.503H116.837C117.091 145.501 117.334 145.4 117.513 145.22C117.693 145.041 117.794 144.798 117.796 144.544V142.759Z" fill="url(#paint13_linear_1_21)"/>
<path fill-rule="evenodd" clip-rule="evenodd" d="M115.287 148.262H102.218C101.853 148.26 101.504 148.114 101.246 147.856C100.988 147.598 100.842 147.248 100.84 146.883C100.842 146.518 100.988 146.168 101.246 145.91C101.504 145.652 101.853 145.505 102.218 145.503H115.287C115.468 145.503 115.647 145.539 115.815 145.608C115.982 145.677 116.134 145.779 116.262 145.907C116.39 146.035 116.492 146.188 116.561 146.355C116.63 146.522 116.666 146.702 116.665 146.883C116.665 147.064 116.63 147.243 116.56 147.411C116.491 147.578 116.39 147.73 116.262 147.858C116.134 147.986 115.982 148.087 115.814 148.157C115.647 148.226 115.468 148.262 115.287 148.262Z" fill="url(#paint14_linear_1_21)"/>
<path fill-rule="evenodd" clip-rule="evenodd" d="M116.353 148.262H101.155C100.784 148.269 100.428 148.412 100.155 148.663C99.8825 148.915 99.7114 149.258 99.6743 149.627C99.658 149.803 99.6789 149.981 99.7357 150.149C99.7926 150.317 99.8841 150.471 100.004 150.601C100.125 150.731 100.271 150.834 100.434 150.904C100.596 150.973 100.772 151.008 100.949 151.006H116.143C116.516 150.997 116.873 150.852 117.146 150.598C117.419 150.344 117.589 149.998 117.624 149.627C117.638 149.452 117.616 149.275 117.559 149.109C117.501 148.943 117.409 148.79 117.289 148.662C117.169 148.533 117.023 148.431 116.861 148.362C116.699 148.293 116.525 148.259 116.349 148.262H116.353Z" fill="url(#paint15_linear_1_21)"/>
<path fill-rule="evenodd" clip-rule="evenodd" d="M67.7444 203.433L71.2377 207.858C71.2377 207.858 75.7301 216.581 73.9686 217.709C72.2072 218.838 68.7028 213.722 67.8757 213.907C67.0487 214.092 70.0683 220.803 68.0608 223.101C66.0532 225.399 57.0277 221.236 55.1237 218.57C53.2198 215.903 59.4052 205.882 59.4052 205.882L67.7444 203.433Z" fill="#00060F"/>
<path d="M129.143 150.941H92.2233C89.8241 150.943 87.4618 151.532 85.3421 152.655C83.2225 153.779 81.4096 155.404 80.0615 157.389L90.1214 160.869C90.1214 160.869 93.0818 155.853 104.898 156.273C113.185 156.562 120.001 156.562 128.289 156.273C139.945 155.853 142.974 160.725 143.052 160.869C142.049 157.976 140.172 155.467 137.68 153.688C135.188 151.909 132.205 150.949 129.143 150.941Z" fill="#00060F"/>
<path d="M121.369 150.941H108.68V150.954L95.6907 150.941C95.6907 150.941 107.445 152.791 108.643 164.061C108.655 164.205 108.668 164.337 108.681 164.468V192.838C108.69 196.322 110.078 199.662 112.542 202.126C115.005 204.59 118.345 205.978 121.829 205.986C125.312 205.976 128.649 204.587 131.111 202.123C133.573 199.659 134.959 196.321 134.966 192.838V163.628C134.966 163.628 133.745 152.61 121.866 150.998C121.696 150.985 121.539 150.959 121.369 150.933V150.941Z" fill="url(#paint16_linear_1_21)"/>
<path fill-rule="evenodd" clip-rule="evenodd" d="M89.2054 168.104L88.7576 172.831C88.7576 172.831 74.7567 187.173 73.7464 189.113C72.7362 191.054 71.2375 207.855 71.2375 207.855C71.2375 207.855 65.4055 209.392 59.3958 205.886C59.3958 205.886 60.9723 189.139 61.2738 184.595C61.5754 180.051 73.8297 161.887 73.8297 161.887L89.2054 168.104Z" fill="url(#paint17_linear_1_21)"/>
<path fill-rule="evenodd" clip-rule="evenodd" d="M88.9816 153.629C84.2006 151.133 77.8431 153.799 74.8105 159.593C71.7779 165.386 73.1675 172.11 77.9559 174.604C82.7444 177.098 89.0815 174.434 92.1271 168.642C95.1726 162.851 93.7701 156.125 88.9816 153.629Z" fill="#00060F"/>
<path fill-rule="evenodd" clip-rule="evenodd" d="M85.0832 155.677C82.0228 154.088 77.9763 155.783 76.0169 159.487C74.0575 163.191 74.9789 167.486 78.0263 169.075C81.0736 170.664 85.1313 168.97 87.0925 165.265C89.0538 161.561 88.1305 157.267 85.0832 155.677Z" fill="url(#paint18_linear_1_21)"/>
<path d="M122.379 179.298C126.183 179.298 129.267 175.288 129.267 170.343C129.267 165.397 126.183 161.387 122.379 161.387C118.574 161.387 115.49 165.397 115.49 170.343C115.49 175.288 118.574 179.298 122.379 179.298Z" fill="#CE2541"/>
<defs>
<linearGradient id="paint0_linear_1_21" x1="216.137" y1="224.966" x2="235.951" y2="224.966" gradientUnits="userSpaceOnUse">
<stop stop-color="#F5586A"/>
<stop offset="1" stop-color="#B4222F"/>
</linearGradient>
<linearGradient id="paint1_linear_1_21" x1="230.268" y1="227.303" x2="260.151" y2="227.303" gradientUnits="userSpaceOnUse">
<stop stop-color="#F5586A"/>
<stop offset="1" stop-color="#B4222F"/>
</linearGradient>
<linearGradient id="paint2_linear_1_21" x1="109.784" y1="282.283" x2="109.784" y2="89.0237" gradientUnits="userSpaceOnUse">
<stop stop-color="#EEF5FB"/>
<stop offset="1" stop-color="#65FFD8"/>
</linearGradient>
<linearGradient id="paint3_linear_1_21" x1="126.683" y1="285.86" x2="100.995" y2="83.4914" gradientUnits="userSpaceOnUse">
<stop stop-color="#CEFAFF"/>
<stop offset="1"/>
</linearGradient>
<linearGradient id="paint4_linear_1_21" x1="96.7231" y1="104.516" x2="119.252" y2="104.516" gradientUnits="userSpaceOnUse">
<stop stop-color="#EEF5FB"/>
<stop offset="0.89" stop-color="#7A7A7B"/>
</linearGradient>
<linearGradient id="paint5_linear_1_21" x1="185.659" y1="170.829" x2="134.653" y2="170.829" gradientUnits="userSpaceOnUse">
<stop stop-color="#EEF5FB"/>
<stop offset="0.89" stop-color="#7A7A7B"/>
</linearGradient>
<linearGradient id="paint6_linear_1_21" x1="124.035" y1="162.059" x2="144.567" y2="162.059" gradientUnits="userSpaceOnUse">
<stop stop-color="#3074CD"/>
<stop offset="1" stop-color="#0D1C51"/>
</linearGradient>
<linearGradient id="paint7_linear_1_21" x1="91.7496" y1="221.822" x2="114.939" y2="221.822" gradientUnits="userSpaceOnUse">
<stop stop-color="#19B890"/>
<stop offset="1" stop-color="#028464"/>
</linearGradient>
<linearGradient id="paint8_linear_1_21" x1="102.126" y1="218.731" x2="124.542" y2="218.731" gradientUnits="userSpaceOnUse">
<stop stop-color="#EEF5FB"/>
<stop offset="0.89" stop-color="#7A7A7B"/>
</linearGradient>
<linearGradient id="paint9_linear_1_21" x1="77.5138" y1="183.881" x2="118.136" y2="183.881" gradientUnits="userSpaceOnUse">
<stop stop-color="#19B890"/>
<stop offset="1" stop-color="#028464"/>
</linearGradient>
<linearGradient id="paint10_linear_1_21" x1="83.7121" y1="122.117" x2="133.793" y2="122.117" gradientUnits="userSpaceOnUse">
<stop stop-color="#EEF5FB"/>
<stop offset="0.89" stop-color="#7A7A7B"/>
</linearGradient>
<linearGradient id="paint11_linear_1_21" x1="83.7121" y1="121.523" x2="96.9045" y2="121.523" gradientUnits="userSpaceOnUse">
<stop stop-color="#19B890"/>
<stop offset="1" stop-color="#028464"/>
</linearGradient>
<linearGradient id="paint12_linear_1_21" x1="81.9007" y1="121.633" x2="89.0853" y2="121.633" gradientUnits="userSpaceOnUse">
<stop stop-color="#EEF5FB"/>
<stop offset="0.89" stop-color="#7A7A7B"/>
</linearGradient>
<linearGradient id="paint13_linear_1_21" x1="99.7095" y1="144.13" x2="117.796" y2="144.13" gradientUnits="userSpaceOnUse">
<stop stop-color="#EEF5FB"/>
<stop offset="0.89" stop-color="#7A7A7B"/>
</linearGradient>
<linearGradient id="paint14_linear_1_21" x1="100.84" y1="146.883" x2="116.665" y2="146.883" gradientUnits="userSpaceOnUse">
<stop stop-color="#020E25"/>
<stop offset="1" stop-color="#0E2B51"/>
</linearGradient>
<linearGradient id="paint15_linear_1_21" x1="99.6669" y1="149.634" x2="117.627" y2="149.634" gradientUnits="userSpaceOnUse">
<stop stop-color="#EEF5FB"/>
<stop offset="0.89" stop-color="#7A7A7B"/>
</linearGradient>
<linearGradient id="paint16_linear_1_21" x1="95.6907" y1="178.463" x2="134.961" y2="178.463" gradientUnits="userSpaceOnUse">
<stop stop-color="#EEF5FB"/>
<stop offset="0.89" stop-color="#7A7A7B"/>
</linearGradient>
<linearGradient id="paint17_linear_1_21" x1="74.3034" y1="210.682" x2="74.3034" y2="161.01" gradientUnits="userSpaceOnUse">
<stop stop-color="#EEF5FB"/>
<stop offset="0.89" stop-color="#7A7A7B"/>
</linearGradient>
<linearGradient id="paint18_linear_1_21" x1="74.9937" y1="162.379" x2="88.1139" y2="162.379" gradientUnits="userSpaceOnUse">
<stop stop-color="#EEF5FB"/>
<stop offset="0.89" stop-color="#7A7A7B"/>
</linearGradient>
</defs>
</svg>
