<svg width="29" height="20" viewBox="0 0 29 20" fill="none" xmlns="http://www.w3.org/2000/svg">
<path d="M22.724 17.2732H5.45388C4.95187 17.2732 4.54492 17.6801 4.54492 18.1821V19.0911C4.54492 19.5931 4.95187 20.0001 5.45388 20.0001H22.724C23.226 20.0001 23.633 19.5931 23.633 19.0911V18.1821C23.633 17.6801 23.226 17.2732 22.724 17.2732Z" fill="#FADF7D"/>
<path d="M22.724 19.0911H5.45388C5.21303 19.0904 4.98225 18.9944 4.81194 18.8241C4.64164 18.6538 4.54564 18.423 4.54492 18.1821V19.0911C4.54564 19.3319 4.64164 19.5627 4.81194 19.733C4.98225 19.9033 5.21303 19.9993 5.45388 20H22.724C22.9649 19.9993 23.1956 19.9033 23.3659 19.733C23.5362 19.5627 23.6322 19.3319 23.633 19.0911V18.1821C23.6322 18.423 23.5362 18.6538 23.3659 18.8241C23.1956 18.9944 22.9649 19.0904 22.724 19.0911Z" fill="#FFBF40"/>
<path d="M2.81322 5.16132C2.47475 5.38277 2.0721 5.48501 1.66899 5.45188C1.26588 5.41875 0.885331 5.25213 0.587569 4.97838C0.289807 4.70464 0.09184 4.33942 0.0249981 3.94051C-0.0418438 3.5416 0.0262571 3.13179 0.218523 2.77594C0.410789 2.42008 0.716239 2.13851 1.08653 1.97579C1.45683 1.81306 1.87081 1.77847 2.26297 1.8775C2.65514 1.97652 3.00307 2.2035 3.25173 2.52251C3.50038 2.84152 3.63554 3.23435 3.63582 3.63882C3.63603 3.94097 3.56093 4.2384 3.4173 4.50423C3.27367 4.77006 3.06605 4.99589 2.81322 5.16132ZM15.0114 3.38431C14.7325 3.55089 14.4137 3.63885 14.0888 3.63885C13.7639 3.63885 13.4451 3.55089 13.1662 3.38431C12.8226 3.18191 12.555 2.8721 12.4048 2.50264C12.2545 2.13318 12.23 1.72457 12.3349 1.33978C12.4398 0.95499 12.6683 0.615373 12.9853 0.373266C13.3022 0.131159 13.69 0 14.0888 0C14.4876 0 14.8754 0.131159 15.1923 0.373266C15.5093 0.615373 15.7378 0.95499 15.8427 1.33978C15.9476 1.72457 15.923 2.13318 15.7728 2.50264C15.6226 2.8721 15.355 3.18191 15.0114 3.38431ZM26.3597 5.45673C26.0001 5.45673 25.6487 5.35011 25.3497 5.15036C25.0508 4.9506 24.8177 4.66668 24.6802 4.3345C24.5426 4.00232 24.5066 3.6368 24.5767 3.28416C24.6468 2.93152 24.82 2.6076 25.0742 2.35336C25.3285 2.09913 25.6524 1.92599 26.005 1.85584C26.3577 1.7857 26.7232 1.8217 27.0554 1.95929C27.3875 2.09688 27.6715 2.32989 27.8712 2.62884C28.071 2.9278 28.1776 3.27927 28.1776 3.63882C28.1776 4.12096 27.9861 4.58335 27.6451 4.92428C27.3042 5.2652 26.8418 5.45673 26.3597 5.45673Z" fill="#FFC608"/>
<path d="M21.3603 5.82939C21.2152 5.88443 21.0611 5.91216 20.9058 5.9112C20.7079 5.91166 20.5123 5.8682 20.3332 5.78394C20.045 5.65183 19.8118 5.42366 19.6733 5.13848C19.5349 4.85331 19.4999 4.52888 19.5743 4.22074C19.6488 3.91261 19.828 3.63993 20.0814 3.44941C20.3347 3.25889 20.6465 3.16237 20.9631 3.17639C21.2798 3.1904 21.5818 3.31407 21.8173 3.52622C22.0529 3.73838 22.2073 4.02582 22.2543 4.33933C22.3012 4.65283 22.2377 4.9729 22.0746 5.24474C21.9115 5.51657 21.659 5.72325 21.3603 5.82939ZM7.84417 5.78394C7.66505 5.8682 7.46947 5.91166 7.27153 5.9112C7.11629 5.91216 6.96221 5.88443 6.81705 5.82939C6.52028 5.72325 6.26959 5.51732 6.10785 5.2468C5.94611 4.97628 5.88337 4.65798 5.93036 4.34632C5.97734 4.03466 6.13113 3.749 6.36542 3.53818C6.59972 3.32736 6.89998 3.20448 7.21485 3.19055C7.52972 3.17662 7.83966 3.2725 8.09166 3.4618C8.34366 3.6511 8.52208 3.92206 8.59641 4.22835C8.67073 4.53465 8.63635 4.85724 8.49914 5.14099C8.36192 5.42474 8.13041 5.65201 7.84417 5.78394Z" fill="#FF9C00"/>
<path d="M11.2437 11.2649C10.6938 12.1421 9.98933 12.7283 9.08946 12.7283C8.43502 12.7283 7.63059 12.0875 6.81708 11.174V5.82938C6.96224 5.88442 7.11632 5.91216 7.27155 5.91119C7.4695 5.91165 7.66508 5.86819 7.8442 5.78394C8.21232 6.77015 9.42578 9.7288 11.2437 11.2649ZM21.3603 5.82938V11.174C20.5468 12.0875 19.7424 12.7283 19.088 12.7283C18.1881 12.7283 17.4837 12.1421 16.9337 11.2649C18.7516 9.7288 19.9651 6.77015 20.3332 5.78394C20.5123 5.86819 20.7079 5.91165 20.9059 5.91119C21.0611 5.91216 21.2152 5.88442 21.3603 5.82938Z" fill="#FFAA00"/>
<path d="M15.0296 15.8098C15.1086 15.8696 15.2037 15.904 15.3026 15.9086C15.4015 15.9133 15.4994 15.8878 15.5836 15.8357C15.6677 15.7835 15.7341 15.7071 15.7739 15.6165C15.8138 15.5259 15.8252 15.4253 15.8068 15.3281L15.5659 14.1555L16.2067 13.5283C16.2725 13.4632 16.3174 13.3801 16.3359 13.2894C16.3543 13.1988 16.3455 13.1047 16.3104 13.019C16.2754 12.9334 16.2158 12.8601 16.1391 12.8084C16.0624 12.7566 15.972 12.7288 15.8795 12.7285H14.9933L14.5297 11.6377C14.4888 11.5558 14.4259 11.4868 14.3481 11.4387C14.2702 11.3905 14.1804 11.365 14.0889 11.365C13.9973 11.365 13.9076 11.3905 13.8297 11.4387C13.7518 11.4868 13.6889 11.5558 13.648 11.6377L13.1845 12.7285H12.2982C12.2057 12.7288 12.1154 12.7566 12.0387 12.8084C11.962 12.8601 11.9023 12.9334 11.8673 13.019C11.8323 13.1047 11.8234 13.1988 11.8419 13.2894C11.8604 13.3801 11.9053 13.4632 11.971 13.5283L12.6118 14.1555L12.371 15.3281C12.3525 15.4253 12.364 15.5259 12.4038 15.6165C12.4437 15.7071 12.5101 15.7835 12.5942 15.8357C12.6783 15.8878 12.7763 15.9133 12.8752 15.9086C12.974 15.904 13.0692 15.8696 13.1481 15.8098L14.0889 15.119L15.0296 15.8098ZM21.3605 11.1741C23.133 9.19262 24.9554 5.91584 25.3645 5.16141C25.6605 5.35453 26.0063 5.45719 26.3598 5.45682L22.7239 15.4553V17.2732H5.45381V15.4553L1.81799 5.45682C2.17142 5.45719 2.5173 5.35453 2.8133 5.16141C3.22233 5.91584 5.04478 9.19262 6.81724 11.1741C7.63076 12.0876 8.43518 12.7285 9.08963 12.7285C9.98949 12.7285 10.6939 12.1422 11.2439 11.265C12.73 8.89721 13.1027 4.38425 13.1663 3.3844C13.4452 3.55098 13.764 3.63893 14.0889 3.63893C14.4137 3.63893 14.7326 3.55098 15.0115 3.3844C15.0751 4.38425 15.4478 8.89721 16.9339 11.265C17.4838 12.1422 18.1883 12.7285 19.0881 12.7285C19.7426 12.7285 20.547 12.0876 21.3605 11.1741Z" fill="#FADF7D"/>
<path d="M14.5297 11.6376L14.9933 12.7283H15.8795C15.972 12.7287 16.0623 12.7565 16.139 12.8083C16.2157 12.86 16.2754 12.9333 16.3104 13.0189C16.3454 13.1046 16.3543 13.1987 16.3358 13.2893C16.3174 13.38 16.2724 13.4631 16.2067 13.5282L15.5659 14.1554L15.8068 15.328C15.8252 15.4252 15.8137 15.5258 15.7739 15.6164C15.734 15.707 15.6677 15.7834 15.5835 15.8356C15.4994 15.8877 15.4014 15.9132 15.3026 15.9085C15.2037 15.9039 15.1085 15.8695 15.0296 15.8097L14.0888 15.1189L13.1481 15.8097C13.0692 15.8695 12.974 15.9039 12.8751 15.9085C12.7763 15.9132 12.6783 15.8877 12.5942 15.8356C12.51 15.7834 12.4437 15.707 12.4038 15.6164C12.364 15.5258 12.3525 15.4252 12.3709 15.328L12.6118 14.1554L11.971 13.5282C11.9053 13.4631 11.8603 13.38 11.8419 13.2893C11.8234 13.1987 11.8322 13.1046 11.8673 13.0189C11.9023 12.9333 11.9619 12.86 12.0387 12.8083C12.1154 12.7565 12.2057 12.7287 12.2982 12.7283H13.1844L13.648 11.6376C13.6889 11.5557 13.7518 11.4867 13.8297 11.4386C13.9075 11.3904 13.9973 11.3649 14.0888 11.3649C14.1804 11.3649 14.2702 11.3904 14.348 11.4386C14.4259 11.4867 14.4888 11.5557 14.5297 11.6376Z" fill="#D1013E"/>
<path d="M15.0115 2.47542C14.7326 2.642 14.4138 2.72996 14.0889 2.72996C13.764 2.72996 13.4452 2.642 13.1663 2.47542C12.7538 2.23409 12.4537 1.83909 12.3319 1.37695C12.2299 1.75673 12.2564 2.15961 12.4073 2.52274C12.5583 2.88586 12.8251 3.18883 13.1663 3.38438C13.4452 3.55096 13.764 3.63891 14.0889 3.63891C14.4138 3.63891 14.7326 3.55096 15.0115 3.38438C15.3527 3.18883 15.6195 2.88586 15.7705 2.52274C15.9214 2.15961 15.9479 1.75673 15.8459 1.37695C15.7241 1.83909 15.424 2.23409 15.0115 2.47542ZM27.2824 4.29333C27.0035 4.45991 26.6847 4.54787 26.3598 4.54787C26.0349 4.54787 25.7161 4.45991 25.4372 4.29333C25.0247 4.052 24.7246 3.657 24.6028 3.19486C24.5007 3.57464 24.5273 3.97752 24.6782 4.34065C24.8291 4.70377 25.096 5.00674 25.4372 5.20229C25.7161 5.36887 26.0349 5.45682 26.3598 5.45682C26.6847 5.45682 27.0035 5.36887 27.2824 5.20229C27.6236 5.00674 27.8904 4.70377 28.0414 4.34065C28.1923 3.97752 28.2188 3.57464 28.1168 3.19486C27.9949 3.657 27.6949 4.052 27.2824 4.29333ZM2.7406 4.29333C2.46169 4.45991 2.14288 4.54787 1.81801 4.54787C1.49314 4.54787 1.17433 4.45991 0.895423 4.29333C0.482899 4.052 0.182848 3.657 0.0610028 3.19486C-0.0410351 3.57464 -0.0145156 3.97752 0.136425 4.34065C0.287365 4.70377 0.55424 5.00674 0.895423 5.20229C1.17433 5.36887 1.49314 5.45682 1.81801 5.45682C2.14288 5.45682 2.46169 5.36887 2.7406 5.20229C3.08178 5.00674 3.34866 4.70377 3.4996 4.34065C3.65054 3.97752 3.67706 3.57464 3.57502 3.19486C3.45318 3.657 3.15312 4.052 2.7406 4.29333Z" fill="#FFAA00"/>
<path d="M7.84429 4.87502C7.66517 4.95928 7.46959 5.00274 7.27165 5.00228C7.11641 5.00324 6.96233 4.97551 6.81717 4.92047C6.62634 4.8545 6.45284 4.74637 6.30956 4.60411C6.16628 4.46185 6.0569 4.28913 5.98957 4.09877C5.93742 4.24282 5.90992 4.39462 5.90822 4.5478C5.90686 4.8296 5.9938 5.10475 6.15683 5.33462C6.31985 5.56448 6.55077 5.73752 6.81717 5.82942C6.96233 5.88446 7.11641 5.9122 7.27165 5.91123C7.46959 5.91169 7.66517 5.86823 7.84429 5.78398C8.15358 5.64431 8.39858 5.39281 8.53009 5.07996C8.6616 4.76712 8.66988 4.41611 8.55328 4.09741C8.49307 4.26784 8.39931 4.42446 8.27754 4.55802C8.15576 4.69158 8.00844 4.79938 7.84429 4.87502ZM21.4786 4.87502C21.2995 4.95928 21.1039 5.00274 20.906 5.00228C20.7507 5.00324 20.5966 4.97551 20.4515 4.92047C20.2607 4.8545 20.0872 4.74637 19.9439 4.60411C19.8006 4.46185 19.6912 4.28913 19.6239 4.09877C19.5717 4.24282 19.5442 4.39462 19.5425 4.5478C19.5412 4.8296 19.6281 5.10475 19.7911 5.33462C19.9542 5.56448 20.1851 5.73752 20.4515 5.82942C20.5966 5.88446 20.7507 5.9122 20.906 5.91123C21.1039 5.91169 21.2995 5.86823 21.4786 5.78398C21.7879 5.64431 22.0329 5.39281 22.1644 5.07996C22.2959 4.76712 22.3042 4.41611 22.1876 4.09741C22.1274 4.26784 22.0336 4.42446 21.9119 4.55802C21.7901 4.69158 21.6428 4.79938 21.4786 4.87502Z" fill="#DE8800"/>
<path d="M7.73239 11.2104C7.59211 11.1313 7.47546 11.0163 7.39445 10.8771C7.31344 10.738 7.27102 10.5797 7.27155 10.4187V7.7291C7.27155 7.48803 7.36732 7.25683 7.53778 7.08637C7.70824 6.91591 7.93944 6.82014 8.18051 6.82014H8.2664C8.11589 6.47881 7.9751 6.13326 7.8442 5.78394C7.66508 5.86819 7.4695 5.91165 7.27155 5.91119C7.11632 5.91216 6.96224 5.88442 6.81708 5.82938V11.174C7.63059 12.0875 8.43502 12.7283 9.08946 12.7283C9.98933 12.7283 10.6938 12.1421 11.2437 11.2649C11.1982 11.2254 11.1528 11.1813 11.1073 11.14C9.84935 12.1521 8.44092 11.609 7.73239 11.2104ZM20.9059 5.91119C20.7079 5.91165 20.5123 5.86819 20.3332 5.78394C20.2021 6.13319 20.0613 6.47872 19.911 6.82014H19.9969C20.238 6.82014 20.4692 6.91591 20.6396 7.08637C20.8101 7.25683 20.9059 7.48803 20.9059 7.7291V10.4187C20.9064 10.5797 20.864 10.738 20.783 10.8771C20.702 11.0163 20.5853 11.1313 20.445 11.2104C19.7365 11.609 18.3294 12.1489 17.0728 11.1386C17.0274 11.1804 16.9819 11.2249 16.9337 11.2649C17.4837 12.1421 18.1881 12.7283 19.088 12.7283C19.7424 12.7283 20.5468 12.0875 21.3603 11.174V5.82938C21.2152 5.88442 21.0611 5.91216 20.9059 5.91119Z" fill="#FF9C00"/>
<path d="M25.2725 6.71581C25.3219 6.61894 25.4043 6.54285 25.5047 6.50121C25.6052 6.45956 25.7172 6.45508 25.8206 6.48857L25.9665 6.5372L26.3596 5.45691C26.0062 5.45728 25.6603 5.35463 25.3643 5.1615C24.9553 5.91593 23.1329 9.19271 21.3604 11.1742C20.651 11.9709 19.9488 12.5595 19.3466 12.6972C20.1456 12.5499 22.6884 11.6942 25.2725 6.71581ZM15.0295 15.8099L14.5469 15.4554H13.6306L13.148 15.8099C13.0777 15.8624 12.9945 15.8952 12.9073 15.9046C12.82 15.9141 12.7318 15.9 12.6518 15.8638C12.5718 15.8276 12.503 15.7706 12.4526 15.6988C12.4021 15.627 12.3719 15.5429 12.3649 15.4554H8.18055C7.81895 15.4554 7.47215 15.3118 7.21646 15.0561C6.96077 14.8004 6.81712 14.4536 6.81712 14.092L3.07995 7.03304C3.04327 6.96377 3.02513 6.88619 3.02728 6.80785C3.02944 6.7295 3.05182 6.65303 3.09225 6.58589C3.13269 6.51875 3.1898 6.4632 3.25804 6.42465C3.32628 6.38609 3.40333 6.36584 3.48171 6.36586H3.49307C3.26074 5.96731 3.03348 5.56583 2.81136 5.1615C2.51588 5.35429 2.17068 5.45693 1.81787 5.45691L5.45369 15.4554V17.2733H22.7238V15.4554H15.8126C15.8057 15.5429 15.7754 15.627 15.7249 15.6988C15.6745 15.7706 15.6057 15.8276 15.5257 15.8638C15.4457 15.9 15.3575 15.9141 15.2703 15.9046C15.183 15.8952 15.0999 15.8624 15.0295 15.8099Z" fill="#FFBF40"/>
<path d="M13.598 5.39864C13.6128 5.16779 13.715 4.95128 13.8839 4.7932C14.0528 4.63513 14.2756 4.54739 14.5069 4.54786H15.115C15.0731 4.16078 15.0392 3.77288 15.0132 3.3844C14.7343 3.55098 14.4155 3.63893 14.0906 3.63893C13.7657 3.63893 13.4469 3.55098 13.168 3.3844C13.1044 4.38425 12.7317 8.89721 11.2456 11.265C10.6938 12.1422 9.9894 12.7285 9.08954 12.7285C12.7254 12.7285 13.4525 7.49287 13.598 5.39864Z" fill="#FFBF40"/>
<path d="M16.7303 12.8456C16.6618 12.6763 16.5441 12.5313 16.3925 12.4294C16.2409 12.3276 16.0622 12.2734 15.8796 12.2738H15.2937L14.9479 11.4594C14.9442 11.4509 14.9401 11.4423 14.9356 11.4335C14.8575 11.2759 14.7367 11.1434 14.5871 11.0509C14.4374 10.9584 14.2648 10.9098 14.0889 10.9104C13.9084 10.911 13.7318 10.963 13.5797 11.0602C13.4276 11.1574 13.3063 11.2959 13.23 11.4594L12.8841 12.2738H12.2983C12.1154 12.2742 11.9369 12.329 11.7852 12.4311C11.6335 12.5332 11.5157 12.6781 11.4465 12.8474C11.3774 13.0166 11.3602 13.2026 11.397 13.3817C11.4338 13.5608 11.5231 13.7249 11.6534 13.8531L12.1165 14.3076L11.9261 15.2361C11.8867 15.4218 11.9054 15.6151 11.9795 15.7899C12.0537 15.9647 12.1797 16.1124 12.3405 16.2132C12.4938 16.3117 12.672 16.3642 12.8541 16.3646C13.057 16.3646 13.2544 16.2987 13.4167 16.1769L14.0889 15.6824L14.7579 16.1742C14.9122 16.2905 15.0985 16.3565 15.2916 16.3634C15.4847 16.3702 15.6752 16.3175 15.8373 16.2123C15.998 16.1117 16.1239 15.9642 16.1981 15.7897C16.2723 15.6152 16.2912 15.4221 16.2522 15.2366L16.0613 14.3067L16.5258 13.8522C16.6564 13.7239 16.7456 13.5596 16.7821 13.3802C16.8185 13.2008 16.8005 13.0146 16.7303 12.8456ZM16.2068 13.5273L15.566 14.1545L15.8068 15.327C15.8253 15.4243 15.8138 15.5248 15.7739 15.6154C15.7341 15.706 15.6677 15.7825 15.5836 15.8346C15.4995 15.8868 15.4015 15.9122 15.3026 15.9076C15.2038 15.903 15.1086 15.8685 15.0297 15.8088L14.0889 15.1189L13.1481 15.8097C13.0692 15.8694 12.9741 15.9039 12.8752 15.9085C12.7763 15.9131 12.6784 15.8877 12.5942 15.8355C12.5101 15.7834 12.4437 15.707 12.4039 15.6163C12.364 15.5257 12.3526 15.4252 12.371 15.3279L12.6119 14.1554L11.971 13.5282C11.9053 13.4631 11.8604 13.3799 11.8419 13.2893C11.8235 13.1986 11.8323 13.1045 11.8673 13.0189C11.9024 12.9333 11.962 12.86 12.0387 12.8082C12.1154 12.7565 12.2058 12.7287 12.2983 12.7283H13.1845L13.6481 11.6376C13.6889 11.5556 13.7518 11.4867 13.8297 11.4385C13.9076 11.3904 13.9973 11.3648 14.0889 11.3648C14.1805 11.3648 14.2702 11.3904 14.3481 11.4385C14.426 11.4867 14.4889 11.5556 14.5298 11.6376L14.9933 12.7283H15.8796C15.9721 12.7287 16.0624 12.7565 16.1391 12.8082C16.2158 12.86 16.2755 12.9333 16.3105 13.0189C16.3455 13.1045 16.3544 13.1986 16.3359 13.2893C16.3174 13.3799 16.2725 13.4631 16.2068 13.5282V13.5273Z" fill="#FF9C00"/>
<path d="M21.3605 4.54775C21.6115 4.54775 21.815 4.34427 21.815 4.09327C21.815 3.84227 21.6115 3.63879 21.3605 3.63879C21.1095 3.63879 20.9061 3.84227 20.9061 4.09327C20.9061 4.34427 21.1095 4.54775 21.3605 4.54775Z" fill="#FFC608"/>
<path d="M7.72614 4.54775C7.97715 4.54775 8.18062 4.34427 8.18062 4.09327C8.18062 3.84227 7.97715 3.63879 7.72614 3.63879C7.47514 3.63879 7.27167 3.84227 7.27167 4.09327C7.27167 4.34427 7.47514 4.54775 7.72614 4.54775Z" fill="#FFC608"/>
<path d="M14.5432 1.82094C14.7942 1.82094 14.9977 1.61747 14.9977 1.36646C14.9977 1.11546 14.7942 0.911987 14.5432 0.911987C14.2922 0.911987 14.0887 1.11546 14.0887 1.36646C14.0887 1.61747 14.2922 1.82094 14.5432 1.82094Z" fill="#FFFCED"/>
<path d="M27.2687 3.63881C27.5197 3.63881 27.7232 3.43534 27.7232 3.18434C27.7232 2.93333 27.5197 2.72986 27.2687 2.72986C27.0177 2.72986 26.8143 2.93333 26.8143 3.18434C26.8143 3.43534 27.0177 3.63881 27.2687 3.63881Z" fill="#FFFCED"/>
<path d="M2.72682 3.63881C2.97782 3.63881 3.18129 3.43534 3.18129 3.18434C3.18129 2.93333 2.97782 2.72986 2.72682 2.72986C2.47582 2.72986 2.27234 2.93333 2.27234 3.18434C2.27234 3.43534 2.47582 3.63881 2.72682 3.63881Z" fill="#FFFCED"/>
</svg>
