<svg width="56" height="55" viewBox="0 0 56 55" fill="none" xmlns="http://www.w3.org/2000/svg">
<path d="M52.9222 37.3467C47.3748 50.2856 32.7315 55.8445 21.2581 54.8967C18.1255 54.6379 11.8225 54.1173 6.90118 49.4728C-2.55016 40.5534 -1.09463 21.9094 7.95306 10.9335C9.11807 9.51925 17.183 0.049246 29.7507 0.175942C38.9522 0.268853 45.4106 5.45594 46.1959 6.10199C47.1878 6.91834 49.3759 8.85827 51.348 11.9359C55.9813 19.166 56.3887 29.2605 52.9222 37.3467Z" fill="url(#paint0_linear_1_563)"/>
<path d="M3.68772 0.435284C3.58794 0.127088 3.9472 -0.125912 4.20669 0.0675703C6.84295 2.03382 13.3276 8.08185 13.232 19.95C13.112 34.8405 16.7806 39.852 20.9606 42.688C20.9606 42.688 15.5559 41.7451 11.6472 36.6812C2.05108 24.2479 5.46265 5.91249 3.68772 0.435284Z" fill="#BDD0FB"/>
<g style="mix-blend-mode:soft-light">
<path d="M6.02198 4.8166C6.50579 6.41769 6.95796 8.02761 7.35043 9.65168C7.7514 11.2734 8.10235 12.9056 8.40328 14.5482C8.69793 16.191 8.96016 17.839 9.15285 19.4959C9.35282 21.1516 9.48148 22.8141 9.60464 24.484C9.73723 26.1519 9.86137 27.8331 10.158 29.5067C10.4526 31.1763 10.9512 32.8389 11.7386 34.3604C11.9351 34.7397 12.1397 35.1166 12.3643 35.4779C12.5823 35.8434 12.816 36.1996 13.0571 36.5512C13.5415 37.2541 14.0748 37.9221 14.6528 38.5502C15.8149 39.8026 17.1671 40.8773 18.6207 41.752C18.6936 41.7973 18.7816 41.8117 18.8651 41.7921C18.9487 41.7726 19.0211 41.7206 19.0664 41.6477C19.1117 41.5748 19.1261 41.4868 19.1065 41.4032C19.087 41.3197 19.035 41.2473 18.9621 41.202C18.6144 40.9792 18.2699 40.753 17.9365 40.5119C17.7678 40.3941 17.6048 40.2692 17.4394 40.1472C17.2789 40.0191 17.1133 39.8973 16.9569 39.7643C16.3224 39.2442 15.7263 38.6789 15.1732 38.0729C14.0638 36.8676 13.1288 35.4903 12.3739 34.0379C12.004 33.3075 11.6898 32.5503 11.434 31.7726C11.1809 30.9906 10.9802 30.1926 10.8333 29.3839C10.533 27.761 10.3962 26.098 10.2517 24.4309C10.1071 22.7639 9.94583 21.0895 9.71817 19.4244C9.60608 18.5914 9.47958 17.7606 9.33867 16.9321C9.27051 16.5178 9.1941 16.1047 9.11867 15.6917C9.03919 15.2793 8.95701 14.8676 8.87216 14.4565C8.52841 12.8129 8.13437 11.1817 7.69005 9.5629C7.23689 7.94727 6.74268 6.34461 6.18679 4.76278C6.17965 4.74092 6.16412 4.7228 6.14362 4.71239C6.12312 4.70199 6.09933 4.70015 6.07747 4.70729C6.05562 4.71442 6.0375 4.72995 6.02709 4.75045C6.01668 4.77095 6.01485 4.79474 6.02198 4.8166Z" fill="white"/>
</g>
<path d="M10.8195 44.4714C10.6276 45.0366 9.92088 45.2218 9.47125 44.8295C6.98977 42.6655 0.527282 35.9117 0.922692 24.5522C1.25662 14.9593 0.526104 9.72603 0.0297296 7.37321C-0.0751631 6.87566 0.516086 6.53348 0.895979 6.87134C5.08717 10.599 17.7762 23.9971 10.8195 44.4714Z" fill="#91B3FA"/>
<g style="mix-blend-mode:soft-light">
<path d="M10.0115 44.491C9.9991 44.4995 9.98595 44.5068 9.97221 44.5128C9.91561 44.5376 9.85147 44.5389 9.7939 44.5165C9.73634 44.494 9.69004 44.4496 9.66519 44.393C9.60627 44.2594 3.81163 30.8787 3.67236 17.5204C3.6734 17.4597 3.6981 17.4018 3.7412 17.359C3.7843 17.3162 3.8424 17.2919 3.90313 17.2913C3.96387 17.2907 4.02245 17.3138 4.0664 17.3557C4.11036 17.3976 4.13622 17.455 4.13849 17.5157C4.27599 30.7776 10.0339 44.0728 10.092 44.206C10.1137 44.2555 10.1175 44.311 10.1028 44.3629C10.0881 44.4149 10.0559 44.4602 10.0115 44.491Z" fill="white"/>
</g>
<path d="M53.0671 24.3342C53.5136 14.1475 44.962 5.49889 33.9665 5.0169C22.971 4.5349 13.6954 12.4021 13.2488 22.5887C12.8023 32.7754 21.3539 41.4241 32.3494 41.9061C43.3449 42.3881 52.6205 34.5209 53.0671 24.3342Z" fill="url(#paint1_linear_1_563)"/>
<path opacity="0.26" d="M32.0819 36.904C40.7183 36.904 47.7194 30.2902 47.7194 22.1316C47.7194 13.9731 40.7183 7.35925 32.0819 7.35925C23.4456 7.35925 16.4445 13.9731 16.4445 22.1316C16.4445 30.2902 23.4456 36.904 32.0819 36.904Z" fill="#91B3FA"/>
<g opacity="0.68">
<g style="mix-blend-mode:soft-light">
<path d="M38.3312 23.5526C38.3283 25.1829 38.2691 26.8133 38.1415 28.4403C38.0097 30.0661 37.8075 31.6871 37.5164 33.2936C37.218 34.8979 36.8399 36.4935 36.2685 38.0303C35.9782 38.7964 35.6421 39.5507 35.1858 40.2429C34.9544 40.5855 34.6947 40.9166 34.3702 41.1889C34.2077 41.3277 34.0268 41.4437 33.8328 41.5334C33.634 41.6236 33.4192 41.6734 33.2009 41.6798C32.9823 41.6858 32.7649 41.6462 32.5625 41.5635C32.3644 41.4821 32.1791 41.3725 32.0125 41.238C31.6815 40.973 31.412 40.6487 31.1793 40.3065C30.7139 39.619 30.3739 38.8659 30.0808 38.1018C29.5019 36.5673 29.1221 34.9719 28.8207 33.3679C28.2315 30.1553 27.9895 26.8901 27.9596 23.6286C27.961 21.9982 28.034 20.3679 28.1576 18.7415C28.2843 17.1158 28.4703 15.4941 28.7437 13.8856C29.0213 12.279 29.3751 10.6791 29.9223 9.1365C30.201 8.36867 30.5251 7.61006 30.9759 6.91942C31.2018 6.57606 31.4643 6.2496 31.7892 5.98638C31.9519 5.85314 32.1337 5.74513 32.3286 5.66601C32.5254 5.58659 32.737 5.55003 32.9491 5.55876C33.1607 5.56663 33.3689 5.61449 33.5627 5.69979C33.7536 5.78596 33.9323 5.8967 34.0944 6.02921C34.4189 6.29065 34.6857 6.61102 34.9242 6.94554C35.3956 7.62047 35.7525 8.36395 36.0619 9.12C36.6722 10.6388 37.0859 12.2253 37.4137 13.8229C37.7312 15.4238 37.9636 17.0403 38.1098 18.6658C38.2548 20.2909 38.3247 21.9212 38.3312 23.5526ZM37.9295 23.5526C37.9338 21.9324 37.8757 20.3115 37.7429 18.6967C37.6139 17.0818 37.4186 15.4713 37.1242 13.8785C36.8297 12.2856 36.4459 10.7064 35.8702 9.19504C35.5783 8.44292 35.24 7.70395 34.791 7.03688C34.5647 6.70629 34.3109 6.39122 34.0053 6.13626C33.7034 5.88267 33.3374 5.68938 32.9446 5.67721C32.5517 5.66169 32.1773 5.84397 31.8766 6.0956C31.5735 6.35095 31.325 6.66976 31.1105 7.0082C30.6837 7.68883 30.3772 8.44213 30.116 9.20525C29.6033 10.739 29.2808 12.3332 29.0344 13.9333C28.5522 17.1392 28.4031 20.3887 28.4194 23.6288C28.4071 26.8677 28.607 30.1156 29.1499 33.3094C29.4281 34.903 29.785 36.489 30.3356 38.0062C30.6139 38.7614 30.9388 39.5047 31.3786 40.1712C31.5978 40.5032 31.8512 40.8139 32.1526 41.0612C32.4521 41.3052 32.8155 41.4816 33.1936 41.4672C33.3828 41.4589 33.5684 41.4131 33.7397 41.3325C33.9138 41.2488 34.0757 41.1417 34.2207 41.0141C34.5174 40.7587 34.7615 40.4409 34.9796 40.1081C35.4103 39.4356 35.7313 38.6911 36.0065 37.9345C36.549 36.4143 36.9032 34.8283 37.1778 33.2339C37.4524 31.6395 37.6296 30.0259 37.7498 28.4102C37.8751 26.7946 37.9305 25.1735 37.9301 23.5526H37.9295Z" fill="white"/>
</g>
<g style="mix-blend-mode:soft-light">
<path d="M46.558 23.5527C46.5444 25.6576 46.2716 27.7631 45.7059 29.7924C45.1282 31.8168 44.2568 33.7621 43.0786 35.5085C41.902 37.2506 40.4041 38.7944 38.6168 39.9142C37.7238 40.4755 36.7599 40.9151 35.7505 41.2212C34.7399 41.5257 33.6902 41.681 32.6347 41.682C30.5239 41.6864 28.4357 41.0338 26.6488 39.9215C24.8574 38.8052 23.3557 37.2616 22.1746 35.5197C20.9924 33.7736 20.1179 31.8268 19.5359 29.8011C19.2504 28.7857 19.0366 27.7515 18.896 26.7062C18.6078 24.6142 18.6089 22.4925 18.8993 20.4008C19.041 19.3559 19.256 18.3222 19.5426 17.3075C20.1272 15.2829 21.0038 13.3382 22.1873 11.5951C23.3692 9.85595 24.8709 8.31595 26.6602 7.20299C28.4449 6.09356 30.5284 5.44338 32.6347 5.4479C34.7412 5.44613 36.823 6.09926 38.6044 7.21104C40.3903 8.32616 41.8879 9.86714 43.0653 11.6065C44.245 13.3492 45.1178 15.2927 45.6994 17.3151C46.2739 19.3415 46.5466 21.448 46.558 23.5527ZM46.0974 23.5527C46.0967 22.5197 46.0301 21.4878 45.8978 20.4633C45.768 19.4383 45.5686 18.4233 45.301 17.4253C44.7601 15.4329 43.9421 13.5077 42.8121 11.7749C41.6836 10.0463 40.2408 8.50216 38.4979 7.38016C37.6248 6.82604 36.682 6.37838 35.6924 6.07706C33.7019 5.4567 31.5695 5.45821 29.5799 6.08138C28.5911 6.38427 27.6496 6.83311 26.778 7.38802C25.0383 8.51238 23.5998 10.0594 22.4763 11.7862C21.3499 13.5187 20.5361 15.4428 19.9981 17.433C19.7314 18.4299 19.5328 19.4439 19.4035 20.4678C19.1377 22.5161 19.1388 24.5903 19.4067 26.6384C19.537 27.6617 19.7366 28.675 20.0042 29.6712C20.5448 31.6601 21.3607 33.5819 22.4884 35.3115C23.6132 37.0367 25.0518 38.5791 26.7902 39.7001C27.6606 40.2536 28.6005 40.7009 29.5872 41.003C31.5721 41.6258 33.7002 41.6258 35.6851 41.003C36.6725 40.6979 37.6148 40.2623 38.4869 39.7077C40.2285 38.5903 41.6708 37.0481 42.8003 35.3231C43.9319 33.5933 44.751 31.6695 45.2949 29.6795C45.8389 27.6895 46.0952 25.6179 46.0974 23.5527Z" fill="white"/>
</g>
<g style="mix-blend-mode:soft-light">
<path d="M16.4967 16.3838C17.8811 16.3578 19.2663 16.3466 20.6502 16.3278L24.8036 16.2962C26.1881 16.2826 27.5733 16.2842 28.9571 16.2801L33.1106 16.2706L37.2639 16.2812C38.6485 16.2877 40.0335 16.2842 41.4173 16.2987L45.5708 16.3333C46.9554 16.3529 48.3405 16.3659 49.7243 16.3938C49.727 16.3938 49.7296 16.3943 49.732 16.3954C49.7345 16.3964 49.7367 16.398 49.7385 16.3999C49.7404 16.4018 49.7418 16.4041 49.7427 16.4066C49.7437 16.4091 49.7441 16.4118 49.7439 16.4144C49.7439 16.4196 49.7419 16.4246 49.7382 16.4283C49.7345 16.432 49.7295 16.4341 49.7243 16.4341C48.3399 16.4618 46.9547 16.4733 45.5708 16.4944L41.4173 16.5289C40.0329 16.5437 38.6477 16.5401 37.2639 16.5464L33.1106 16.5572L28.9571 16.5478C27.5725 16.5437 26.1875 16.545 24.8036 16.5317L20.6502 16.4999C19.2657 16.4802 17.8805 16.47 16.4967 16.4439C16.4887 16.4439 16.481 16.4407 16.4753 16.435C16.4696 16.4293 16.4664 16.4217 16.4664 16.4136C16.4664 16.4056 16.4696 16.3979 16.4753 16.3922C16.481 16.3866 16.4887 16.3834 16.4967 16.3834V16.3838Z" fill="white"/>
</g>
<g style="mix-blend-mode:soft-light">
<path d="M21.3149 9.42713C22.2971 9.40121 23.2808 9.39001 24.2637 9.37135L27.2133 9.33953C29.1791 9.31831 31.145 9.31576 33.111 9.3136C35.0769 9.31556 37.0428 9.32028 39.0086 9.34208L41.9574 9.37665C42.9395 9.39629 43.9234 9.40926 44.9064 9.43715C44.9118 9.43715 44.9169 9.43929 44.9207 9.44311C44.9246 9.44692 44.9267 9.45209 44.9267 9.45748C44.9267 9.46287 44.9246 9.46804 44.9207 9.47186C44.9169 9.47567 44.9118 9.47781 44.9064 9.47781C43.9242 9.50551 42.9403 9.5171 41.9574 9.53812L39.0086 9.57269C37.0428 9.59449 35.0769 9.5992 33.111 9.60137C31.145 9.59901 29.1791 9.59665 27.2133 9.57544L24.2645 9.54362C23.2824 9.52397 22.2987 9.51376 21.3157 9.48783C21.3081 9.48722 21.301 9.48375 21.2958 9.47813C21.2906 9.47251 21.2877 9.46513 21.2877 9.45748C21.2877 9.44983 21.2906 9.44246 21.2958 9.43684C21.301 9.43121 21.3081 9.42775 21.3157 9.42713H21.3149Z" fill="white"/>
</g>
<g style="mix-blend-mode:soft-light">
<path d="M15.0531 23.3404C16.5579 23.3145 18.0625 23.3033 19.5674 23.2845L24.0817 23.2528C25.5865 23.2393 27.0912 23.2408 28.596 23.2365L33.1103 23.2273L37.624 23.2373C39.1287 23.2438 40.6335 23.2403 42.1382 23.2548L46.6525 23.2894C48.1573 23.309 49.6621 23.322 51.1668 23.3499C51.1722 23.3499 51.1774 23.352 51.1812 23.3558C51.185 23.3596 51.1871 23.3648 51.1871 23.3702C51.1871 23.3756 51.185 23.3808 51.1812 23.3846C51.1774 23.3884 51.1722 23.3905 51.1668 23.3905C49.6621 23.4182 48.1573 23.4298 46.6525 23.4508L42.1382 23.4854C40.6335 23.5001 39.1287 23.4966 37.624 23.5029L33.1097 23.5137L28.5954 23.5043C27.0906 23.5001 25.5859 23.5015 24.0811 23.488L19.5668 23.4563C18.0619 23.4367 16.5573 23.4263 15.0525 23.4003C15.0444 23.4003 15.0367 23.3972 15.0311 23.3915C15.0254 23.3858 15.0222 23.3781 15.0222 23.3701C15.0222 23.3621 15.0254 23.3544 15.0311 23.3487C15.0367 23.343 15.0444 23.3398 15.0525 23.3398L15.0531 23.3404Z" fill="white"/>
</g>
<g style="mix-blend-mode:soft-light">
<path d="M16.4967 30.2972C17.8811 30.2713 19.2663 30.2601 20.6502 30.2412L24.8036 30.2096C26.1881 30.1961 27.5733 30.1974 28.9571 30.1933L33.1106 30.1841L37.2639 30.1947C38.6485 30.2012 40.0335 30.1976 41.4173 30.2122L45.5708 30.2467C46.9554 30.2674 48.3405 30.2793 49.7243 30.307C49.7297 30.307 49.7349 30.3092 49.7387 30.313C49.7425 30.3168 49.7446 30.322 49.7446 30.3274C49.7446 30.3328 49.7425 30.3379 49.7387 30.3418C49.7349 30.3456 49.7297 30.3477 49.7243 30.3477C48.3399 30.3756 46.9547 30.387 45.5708 30.4082L41.4173 30.4428C40.0329 30.4573 38.6477 30.4538 37.2639 30.4603L33.1106 30.4709L28.9571 30.4616C27.5725 30.4573 26.1875 30.4589 24.8036 30.4453L20.6502 30.4137C19.2657 30.3941 17.8805 30.3837 16.4967 30.3577C16.4887 30.3577 16.481 30.3545 16.4753 30.3489C16.4696 30.3432 16.4664 30.3355 16.4664 30.3275C16.4664 30.3195 16.4696 30.3118 16.4753 30.3061C16.481 30.3004 16.4887 30.2972 16.4967 30.2972Z" fill="white"/>
</g>
<g style="mix-blend-mode:soft-light">
<path d="M45.5008 37.3902H21.9098C21.8817 37.3902 21.8547 37.3791 21.8348 37.3592C21.8149 37.3393 21.8037 37.3123 21.8037 37.2842C21.8037 37.256 21.8149 37.2291 21.8348 37.2092C21.8547 37.1893 21.8817 37.1781 21.9098 37.1781H45.5008C45.529 37.1781 45.5559 37.1893 45.5758 37.2092C45.5957 37.2291 45.6069 37.256 45.6069 37.2842C45.6069 37.3123 45.5957 37.3393 45.5758 37.3592C45.5559 37.3791 45.529 37.3902 45.5008 37.3902Z" fill="white"/>
</g>
</g>
<path d="M2.83705 48.5177C2.83788 48.7564 2.93312 48.985 3.10197 49.1538C3.27082 49.3225 3.49957 49.4175 3.73826 49.4181H52.4745C52.7132 49.4176 52.9421 49.3226 53.111 49.1539C53.28 48.9852 53.3753 48.7565 53.3761 48.5177L53.7815 20.51C53.7815 20.0148 53.1981 19.048 52.1288 19.1206L4.49765 17.8873C4.19005 17.8792 3.88402 17.9337 3.59813 18.0475C3.31223 18.1613 3.05244 18.332 2.83451 18.5492C2.61658 18.7664 2.44506 19.0257 2.33035 19.3112C2.21565 19.5967 2.16015 19.9026 2.16723 20.2102L2.83705 48.5177Z" fill="url(#paint2_linear_1_563)"/>
<path d="M3.72606 47.6536C3.72673 47.8795 3.81679 48.096 3.97655 48.2558C4.13632 48.4155 4.35281 48.5056 4.57875 48.5063H51.2992C51.5252 48.5056 51.7417 48.4155 51.9014 48.2558C52.0612 48.096 52.1512 47.8795 52.1519 47.6536L52.5346 22.2279C52.4894 20.6977 51.148 20.1479 50.3346 20.1803L4.68482 18.9554C4.46857 18.9497 4.25342 18.988 4.05244 19.0681C3.85146 19.1481 3.66884 19.2681 3.51569 19.4209C3.36253 19.5737 3.24202 19.756 3.16149 19.9568C3.08095 20.1576 3.04207 20.3726 3.0472 20.5889L3.72606 47.6536Z" fill="#91B3FA"/>
<path d="M1.34298 52.2238L55.259 52.2238C55.3203 52.2238 55.37 52.1741 55.37 52.1128V49.3924C55.37 49.3311 55.3203 49.2815 55.259 49.2815L1.34298 49.2815C1.28169 49.2815 1.232 49.3311 1.232 49.3924V52.1128C1.232 52.1741 1.28169 52.2238 1.34298 52.2238Z" fill="url(#paint3_linear_1_563)"/>
<path d="M24.6044 45.1326H7.43323C7.13012 45.1326 6.83892 45.0146 6.62139 44.8035C6.40386 44.5924 6.27711 44.3049 6.26802 44.0019L5.64298 23.2375C5.63822 23.079 5.66586 22.9212 5.72419 22.7737C5.78252 22.6263 5.87032 22.4923 5.98222 22.3799C6.09413 22.2675 6.22778 22.1792 6.375 22.1202C6.52222 22.0613 6.67992 22.033 6.83844 22.0371L24.6348 22.4987C24.9387 22.5067 25.2274 22.6329 25.4394 22.8506C25.6515 23.0683 25.7702 23.3602 25.7702 23.6641V43.967C25.7702 44.1201 25.74 44.2717 25.6815 44.4131C25.6229 44.5545 25.537 44.683 25.4287 44.7913C25.3205 44.8995 25.192 44.9853 25.0505 45.0439C24.9091 45.1025 24.7575 45.1326 24.6044 45.1326Z" fill="#BDD0FB"/>
<path d="M46.871 45.1325H30.7409C30.5248 45.1325 30.3108 45.09 30.1111 45.0073C29.9115 44.9246 29.73 44.8033 29.5772 44.6505C29.4244 44.4977 29.3032 44.3163 29.2205 44.1166C29.1378 43.917 29.0952 43.703 29.0952 43.4868V24.1746C29.0952 23.7381 29.2686 23.3196 29.5772 23.0109C29.8858 22.7023 30.3044 22.5289 30.7409 22.5289H47.5002C47.7208 22.5289 47.9391 22.5733 48.1423 22.6594C48.3454 22.7455 48.5292 22.8716 48.6826 23.0301C48.8361 23.1886 48.9561 23.3764 49.0355 23.5822C49.115 23.788 49.1522 24.0077 49.145 24.2282L48.5165 43.5405C48.5026 43.9675 48.3231 44.3724 48.016 44.6696C47.7089 44.9667 47.2983 45.1327 46.871 45.1325Z" fill="#BDD0FB"/>
<g opacity="0.51">
<path d="M24.3788 26.2084H7.19484C7.10328 26.2084 7.02905 26.2826 7.02905 26.3742V27.2058C7.02905 27.2974 7.10328 27.3716 7.19484 27.3716H24.3788C24.4703 27.3716 24.5446 27.2974 24.5446 27.2058V26.3742C24.5446 26.2826 24.4703 26.2084 24.3788 26.2084Z" fill="white"/>
<path d="M24.2654 28.5726H7.08143C6.98987 28.5726 6.91565 28.6469 6.91565 28.7384V29.5701C6.91565 29.6617 6.98987 29.7359 7.08143 29.7359H24.2654C24.3569 29.7359 24.4312 29.6617 24.4312 29.5701V28.7384C24.4312 28.6469 24.3569 28.5726 24.2654 28.5726Z" fill="white"/>
<path d="M24.2286 31.2098H7.04469C6.95313 31.2098 6.87891 31.2841 6.87891 31.3756V32.2073C6.87891 32.2989 6.95313 32.3731 7.04469 32.3731H24.2286C24.3202 32.3731 24.3944 32.2989 24.3944 32.2073V31.3756C24.3944 31.2841 24.3202 31.2098 24.2286 31.2098Z" fill="white"/>
<path d="M24.1149 33.5741H6.93092C6.83936 33.5741 6.76514 33.6483 6.76514 33.7399V34.5716C6.76514 34.6631 6.83936 34.7373 6.93092 34.7373H24.1149C24.2064 34.7373 24.2806 34.6631 24.2806 34.5716V33.7399C24.2806 33.6483 24.2064 33.5741 24.1149 33.5741Z" fill="white"/>
</g>
<path opacity="0.51" d="M47.6388 26.3263H30.4548C30.3633 26.3263 30.2891 26.4005 30.2891 26.4921V27.3238C30.2891 27.4153 30.3633 27.4895 30.4548 27.4895H47.6388C47.7304 27.4895 47.8046 27.4153 47.8046 27.3238V26.4921C47.8046 26.4005 47.7304 26.3263 47.6388 26.3263Z" fill="white"/>
<path opacity="0.51" d="M47.5254 28.6907H30.3414C30.2499 28.6907 30.1757 28.7649 30.1757 28.8565V29.6881C30.1757 29.7797 30.2499 29.8539 30.3414 29.8539H47.5254C47.6169 29.8539 47.6912 29.7797 47.6912 29.6881V28.8565C47.6912 28.7649 47.6169 28.6907 47.5254 28.6907Z" fill="white"/>
<path opacity="0.51" d="M47.4886 31.3279H30.3047C30.2131 31.3279 30.1389 31.4021 30.1389 31.4937V32.3253C30.1389 32.4169 30.2131 32.4911 30.3047 32.4911H47.4886C47.5802 32.4911 47.6544 32.4169 47.6544 32.3253V31.4937C47.6544 31.4021 47.5802 31.3279 47.4886 31.3279Z" fill="white"/>
<path opacity="0.51" d="M47.3752 33.6921H30.1913C30.0997 33.6921 30.0255 33.7664 30.0255 33.8579V34.6896C30.0255 34.7812 30.0997 34.8554 30.1913 34.8554H47.3752C47.4668 34.8554 47.541 34.7812 47.541 34.6896V33.8579C47.541 33.7664 47.4668 33.6921 47.3752 33.6921Z" fill="white"/>
<g opacity="0.82">
<path d="M12.1285 23.228H6.85539C6.80332 23.228 6.76111 23.2702 6.76111 23.3223V24.6737C6.76111 24.7258 6.80332 24.768 6.85539 24.768H12.1285C12.1806 24.768 12.2228 24.7258 12.2228 24.6737V23.3223C12.2228 23.2702 12.1806 23.228 12.1285 23.228Z" fill="white"/>
<path d="M18.0055 23.2278H12.7323C12.6803 23.2278 12.6381 23.27 12.6381 23.3221V24.6735C12.6381 24.7256 12.6803 24.7678 12.7323 24.7678H18.0055C18.0575 24.7678 18.0998 24.7256 18.0998 24.6735V23.3221C18.0998 23.27 18.0575 23.2278 18.0055 23.2278Z" fill="white"/>
<path d="M23.9017 23.2278H18.6286C18.5765 23.2278 18.5343 23.27 18.5343 23.3221V24.6735C18.5343 24.7256 18.5765 24.7678 18.6286 24.7678H23.9017C23.9538 24.7678 23.996 24.7256 23.996 24.6735V23.3221C23.996 23.27 23.9538 23.2278 23.9017 23.2278Z" fill="white"/>
</g>
<g opacity="0.75">
<path d="M35.6749 23.228H30.4018C30.3497 23.228 30.3075 23.2702 30.3075 23.3223V24.6737C30.3075 24.7258 30.3497 24.768 30.4018 24.768H35.6749C35.727 24.768 35.7692 24.7258 35.7692 24.6737V23.3223C35.7692 23.2702 35.727 23.228 35.6749 23.228Z" fill="white"/>
<path d="M41.5521 23.2278H36.279C36.2269 23.2278 36.1847 23.27 36.1847 23.3221V24.6735C36.1847 24.7256 36.2269 24.7678 36.279 24.7678H41.5521C41.6042 24.7678 41.6464 24.7256 41.6464 24.6735V23.3221C41.6464 23.27 41.6042 23.2278 41.5521 23.2278Z" fill="white"/>
<path d="M47.4483 23.2278H42.1752C42.1231 23.2278 42.0809 23.27 42.0809 23.3221V24.6735C42.0809 24.7256 42.1231 24.7678 42.1752 24.7678H47.4483C47.5004 24.7678 47.5426 24.7256 47.5426 24.6735V23.3221C47.5426 23.27 47.5004 23.2278 47.4483 23.2278Z" fill="white"/>
</g>
<path d="M28.5297 53.7821H2.15845V48.504H28.5297C27.9646 48.5044 27.9646 53.7821 28.5297 53.7821Z" fill="#91B3FA"/>
<path d="M2.15835 52.4615V50.0454C2.15835 49.1941 2.67948 48.5038 3.32219 48.5038H28.4177C28.6604 48.5038 28.8933 48.4074 29.0649 48.2357C29.2366 48.0641 29.333 47.8313 29.333 47.5885C29.333 47.5148 29.3037 47.4441 29.2515 47.3919C29.1993 47.3398 29.1286 47.3105 29.0549 47.3105H1.62761C0.999035 47.3105 0 48.2994 0 49.5194V52.8928C0 54.0429 0.969374 54.975 1.56259 54.975H28.9107C29.0227 54.9749 29.1301 54.9304 29.2093 54.8512C29.2885 54.772 29.333 54.6647 29.333 54.5527C29.3331 54.4514 29.3131 54.3511 29.2744 54.2576C29.2357 54.164 29.1789 54.079 29.1073 54.0074C29.0357 53.9358 28.9507 53.8789 28.8571 53.8402C28.7636 53.8014 28.6633 53.7815 28.5621 53.7815H3.15542C2.60484 53.7821 2.15835 53.191 2.15835 52.4615Z" fill="url(#paint4_linear_1_563)"/>
<path d="M27.6159 49.6538H2.88988C2.87227 49.6538 2.85538 49.6468 2.84293 49.6343C2.83048 49.6219 2.82349 49.605 2.82349 49.5874C2.82349 49.5698 2.83048 49.5529 2.84293 49.5404C2.85538 49.528 2.87227 49.521 2.88988 49.521H27.6159C27.6335 49.521 27.6504 49.528 27.6628 49.5404C27.6753 49.5529 27.6823 49.5698 27.6823 49.5874C27.6823 49.605 27.6753 49.6219 27.6628 49.6343C27.6504 49.6468 27.6335 49.6538 27.6159 49.6538Z" fill="white"/>
<path d="M27.6159 50.4371H2.88988C2.87227 50.4371 2.85538 50.4301 2.84293 50.4177C2.83048 50.4052 2.82349 50.3883 2.82349 50.3707C2.82349 50.3531 2.83048 50.3362 2.84293 50.3238C2.85538 50.3113 2.87227 50.3043 2.88988 50.3043H27.6159C27.6335 50.3043 27.6504 50.3113 27.6628 50.3238C27.6753 50.3362 27.6823 50.3531 27.6823 50.3707C27.6823 50.3883 27.6753 50.4052 27.6628 50.4177C27.6504 50.4301 27.6335 50.4371 27.6159 50.4371Z" fill="white"/>
<path d="M27.6156 51.2206H2.88963C2.87262 51.2197 2.85662 51.2123 2.8449 51.1999C2.83319 51.1876 2.82666 51.1712 2.82666 51.1541C2.82666 51.1371 2.83319 51.1207 2.8449 51.1083C2.85662 51.096 2.87262 51.0886 2.88963 51.0876H27.6156C27.6326 51.0886 27.6487 51.096 27.6604 51.1083C27.6721 51.1207 27.6786 51.1371 27.6786 51.1541C27.6786 51.1712 27.6721 51.1876 27.6604 51.1999C27.6487 51.2123 27.6326 51.2197 27.6156 51.2206Z" fill="white"/>
<path d="M27.6159 52.004H2.88988C2.87227 52.004 2.85538 51.997 2.84293 51.9846C2.83048 51.9721 2.82349 51.9552 2.82349 51.9376C2.82349 51.92 2.83048 51.9031 2.84293 51.8907C2.85538 51.8782 2.87227 51.8712 2.88988 51.8712H27.6159C27.6335 51.8712 27.6504 51.8782 27.6628 51.8907C27.6753 51.9031 27.6823 51.92 27.6823 51.9376C27.6823 51.9552 27.6753 51.9721 27.6628 51.9846C27.6504 51.997 27.6335 52.004 27.6159 52.004Z" fill="white"/>
<path d="M27.6159 52.7873H2.88988C2.87227 52.7873 2.85538 52.7803 2.84293 52.7679C2.83048 52.7554 2.82349 52.7385 2.82349 52.7209C2.82349 52.7033 2.83048 52.6864 2.84293 52.674C2.85538 52.6615 2.87227 52.6545 2.88988 52.6545H27.6159C27.6335 52.6545 27.6504 52.6615 27.6628 52.674C27.6753 52.6864 27.6823 52.7033 27.6823 52.7209C27.6823 52.7385 27.6753 52.7554 27.6628 52.7679C27.6504 52.7803 27.6335 52.7873 27.6159 52.7873Z" fill="white"/>
<path d="M26.1764 41.1786H1.66074C1.44279 41.1786 1.26611 41.3553 1.26611 41.5732V46.8921C1.26611 47.11 1.44279 47.2867 1.66074 47.2867H26.1764C26.3943 47.2867 26.571 47.11 26.571 46.8921V41.5732C26.571 41.3553 26.3943 41.1786 26.1764 41.1786Z" fill="url(#paint5_linear_1_563)"/>
<path d="M6.9559 41.8807H4.26758C4.18904 41.8807 4.12537 41.9444 4.12537 42.023V46.4428C4.12537 46.5213 4.18904 46.585 4.26758 46.585H6.9559C7.03444 46.585 7.09811 46.5213 7.09811 46.4428V42.023C7.09811 41.9444 7.03444 41.8807 6.9559 41.8807Z" fill="#91B3FA"/>
<path d="M8.57924 41.8807H7.6081C7.56829 41.8807 7.53601 41.913 7.53601 41.9528V46.5129C7.53601 46.5527 7.56829 46.585 7.6081 46.585H8.57924C8.61906 46.585 8.65133 46.5527 8.65133 46.5129V41.9528C8.65133 41.913 8.61906 41.8807 8.57924 41.8807Z" fill="#91B3FA"/>
<path d="M14.1902 29.9578C14.1902 29.9578 14.1902 30.1827 13.4635 30.1685C13.0586 30.1609 12.3079 30.0725 11.8836 30.7058C11.6646 31.0328 11.2658 31.1821 10.8914 31.0593C9.95937 30.7559 8.39953 30.5331 7.42898 31.9279C6.68825 32.9924 7.0536 33.7219 7.59123 34.1816C7.98605 34.5192 8.06462 35.1083 7.74425 35.5173C7.43684 35.9101 7.3121 36.4798 7.8678 37.2594C9.11119 39.0076 12.3206 36.8483 12.3206 36.8483L15.3173 31.7653L14.1902 29.9578Z" fill="url(#paint6_linear_1_563)"/>
<path d="M8.1734 33.624C8.13608 33.624 8.09876 33.589 8.07519 33.5474C7.80942 33.0899 7.86658 32.4511 8.21426 31.9942C8.42247 31.7206 8.70356 31.5356 9.00567 31.4733C9.21997 31.4291 9.43919 31.4468 9.64524 31.4686C9.99292 31.5055 10.3426 31.5597 10.6849 31.6302L10.7694 31.6477C10.9692 31.6898 11.1758 31.733 11.3821 31.7336H11.3858C11.6488 31.7336 11.8788 31.6575 12.034 31.5193C12.1308 31.4328 12.2033 31.3195 12.2735 31.2099C12.3593 31.0755 12.4481 30.9366 12.5824 30.8469C12.5833 30.8463 12.5843 30.8458 12.5854 30.8456C12.5865 30.8454 12.5876 30.8454 12.5886 30.8456C12.5897 30.8458 12.5907 30.8463 12.5916 30.8469C12.5925 30.8475 12.5932 30.8483 12.5938 30.8492C12.595 30.851 12.5955 30.8532 12.5951 30.8554C12.5947 30.8575 12.5935 30.8594 12.5917 30.8606C12.4603 30.9484 12.3724 31.0859 12.2874 31.2187C12.2167 31.3293 12.1436 31.4436 12.045 31.5316C11.8879 31.6727 11.6533 31.7503 11.3862 31.7503H11.3813C11.1733 31.7503 10.9658 31.7061 10.7651 31.664L10.6808 31.6463C10.339 31.576 9.98977 31.5218 9.64288 31.4851C9.43781 31.4635 9.22017 31.4458 9.00822 31.4896C8.71004 31.5511 8.43249 31.7338 8.22663 32.0044C7.88289 32.4562 7.82631 33.0871 8.08914 33.5391C8.10878 33.5725 8.15199 33.6234 8.19285 33.6026C8.19381 33.6021 8.19487 33.6017 8.19596 33.6016C8.19705 33.6016 8.19814 33.6017 8.19919 33.602C8.20023 33.6023 8.20119 33.6029 8.20203 33.6036C8.20286 33.6043 8.20355 33.6051 8.20405 33.6061C8.20455 33.6071 8.20486 33.6081 8.20496 33.6092C8.20505 33.6102 8.20493 33.6113 8.2046 33.6124C8.20427 33.6134 8.20374 33.6143 8.20304 33.6151C8.20233 33.616 8.20147 33.6166 8.20051 33.6171C8.19218 33.6216 8.18287 33.624 8.1734 33.624Z" fill="white"/>
<path d="M8.16892 33.4064C8.16701 33.4064 8.16517 33.4057 8.1637 33.4045C8.16223 33.4033 8.16123 33.4016 8.16087 33.3998C8.1037 33.0975 8.12728 32.8158 8.22844 32.585C8.34629 32.3145 8.58083 32.1157 8.83854 32.066C8.84072 32.0657 8.84293 32.0662 8.84474 32.0674C8.84656 32.0687 8.84785 32.0706 8.84836 32.0727C8.84856 32.0738 8.84855 32.0749 8.84832 32.0759C8.84809 32.077 8.84765 32.078 8.84703 32.0789C8.84641 32.0798 8.84562 32.0805 8.8447 32.0811C8.84378 32.0817 8.84276 32.0821 8.84169 32.0823C8.58928 32.131 8.36004 32.3261 8.24356 32.5914C8.14378 32.8193 8.12079 33.0976 8.17717 33.3968C8.17737 33.3979 8.17735 33.399 8.17712 33.4C8.17689 33.4011 8.17646 33.4021 8.17584 33.403C8.17521 33.4039 8.17442 33.4047 8.17351 33.4053C8.17259 33.4058 8.17156 33.4062 8.17049 33.4064H8.16892Z" fill="white"/>
<path d="M22.408 45.9279C22.4005 45.9249 18.4205 38.9547 17.8819 38.2978C17.8373 38.2434 17.7798 38.2011 17.7145 38.175C17.6492 38.1488 17.5784 38.1396 17.5086 38.1481L16.3976 38.2805L15.0938 41.1044L17.2682 39.8378C17.0521 41.3261 19.8465 43.5377 20.8039 44.3447C20.8269 44.364 20.8457 44.3879 20.8592 44.4148C20.8726 44.4417 20.8804 44.4711 20.882 44.5012C20.8837 44.5312 20.8791 44.5613 20.8687 44.5895C20.8583 44.6177 20.8422 44.6435 20.8214 44.6652L20.4388 45.0655C21.0673 45.7022 21.7914 46.1107 22.6091 46.2999L22.408 45.9279Z" fill="url(#paint7_linear_1_563)"/>
<path d="M20.6608 44.8495C20.6608 44.8495 20.4166 44.9281 20.3339 45.1457C20.316 45.1972 20.3154 45.2531 20.3323 45.3049C20.3492 45.3567 20.3826 45.4015 20.4274 45.4325C20.8295 45.7204 22.156 46.6503 22.7673 46.8322C22.7788 46.8355 22.791 46.8357 22.8026 46.8329C22.8143 46.83 22.825 46.8242 22.8337 46.816C22.8424 46.8078 22.8489 46.7975 22.8524 46.786C22.856 46.7746 22.8565 46.7624 22.8539 46.7507C22.8225 46.6085 22.7209 46.3247 22.3937 45.9092L22.423 45.9681C22.4311 45.9844 22.4338 46.0029 22.4307 46.0209C22.4276 46.0388 22.4187 46.0553 22.4055 46.0679C22.3923 46.0804 22.3755 46.0884 22.3574 46.0906C22.3393 46.0929 22.321 46.0893 22.3051 46.0803C21.8961 45.8497 21.0625 45.3441 20.6608 44.8495Z" fill="url(#paint8_linear_1_563)"/>
<path d="M20.858 47.6388C20.8514 47.6347 20.254 46.1956 20.2473 46.1913C19.6997 42.8573 18.3638 40.002 17.9698 39.2507C17.9372 39.1886 17.8896 39.1357 17.8312 39.097C17.7729 39.0582 17.7057 39.0347 17.6358 39.0287L16.5209 38.9335L14.6711 41.4348L17.057 40.6347C16.5451 42.049 18.8333 44.7794 19.6082 45.7639C19.6268 45.7875 19.6404 45.8147 19.6481 45.8437C19.6559 45.8728 19.6575 45.9032 19.6531 45.9329C19.6486 45.9627 19.6381 45.9912 19.6221 46.0167C19.6062 46.0422 19.5852 46.0642 19.5604 46.0813L19.1047 46.3956C19.5909 47.1459 20.2179 47.692 20.9804 48.0434L20.858 47.6388Z" fill="url(#paint9_linear_1_563)"/>
<path d="M19.3644 46.2292C19.3644 46.2292 19.1091 46.2569 18.9845 46.4532C18.9566 46.4999 18.9447 46.5545 18.9508 46.6086C18.9568 46.6627 18.9805 46.7134 19.0181 46.7527C19.3534 47.1161 20.4638 48.2951 21.0262 48.5972C21.0368 48.6027 21.0487 48.6054 21.0607 48.605C21.0726 48.6046 21.0843 48.6011 21.0945 48.5948C21.1047 48.5885 21.1131 48.5797 21.1188 48.5692C21.1246 48.5587 21.1275 48.5469 21.1274 48.5349C21.1254 48.3894 21.0834 48.0908 20.8471 47.6176L20.8638 47.6816C20.8683 47.6991 20.8671 47.7176 20.8604 47.7344C20.8537 47.7512 20.8419 47.7654 20.8265 47.775C20.8112 47.7846 20.7932 47.7891 20.7752 47.7878C20.7572 47.7864 20.74 47.7794 20.7263 47.7677C20.3719 47.4587 19.6579 46.7948 19.3644 46.2292Z" fill="url(#paint10_linear_1_563)"/>
<path d="M11.3015 38.4069C11.3015 38.4069 10.293 39.907 10.2101 40.5912C10.1272 41.2753 10.4891 41.5122 11.5447 41.5994C14.6861 41.8591 16.2346 40.9176 16.2346 40.9176C16.4495 39.5475 16.6025 39.1989 18.3973 38.454C18.3973 38.454 16.1271 38.6342 15.6702 38.4568C15.2133 38.2794 11.3015 38.4069 11.3015 38.4069Z" fill="url(#paint11_linear_1_563)"/>
<path d="M14.0292 38.2083C14.0292 38.2083 15.2036 37.0899 15.7817 36.3491C15.9355 36.1516 16.0399 35.9203 16.0862 35.6743C16.1325 35.4283 16.1194 35.1748 16.0479 34.9349C15.7841 34.0456 15.315 33.1248 15.2722 32.9814C15.2066 32.7616 13.8897 32.7708 13.8897 32.7708C13.8897 32.7708 11.2982 34.4524 10.2802 37.3018L11.4236 37.6577C11.4236 37.6577 12.1003 36.5226 12.7687 35.8009C12.7687 35.8009 11.6119 37.3291 11.5705 37.9545L14.0292 38.2083Z" fill="url(#paint12_linear_1_563)"/>
<path d="M15.4312 31.753C15.4174 31.7988 15.0737 32.9383 15.0468 32.9618C15.0198 32.9854 14.2929 33.0247 13.9507 32.7908L14.6492 31.2458L15.4312 31.753Z" fill="url(#paint13_linear_1_563)"/>
<path d="M16.2669 38.6495L15.3845 37.6893L14.3652 37.9643C14.3652 37.9643 13.1771 38.1486 12.497 37.9643L11.8168 37.7803L10.2801 37.3018L10.0387 37.9838C10.009 38.068 10.0076 38.1596 10.0347 38.2446C10.0618 38.3297 10.1159 38.4036 10.1888 38.4552C10.3218 38.5497 10.4775 38.6536 10.5769 38.697C10.7793 38.7856 15.239 38.7251 15.239 38.7251L16.2669 38.6495Z" fill="url(#paint14_linear_1_563)"/>
<path d="M13.3457 39.0303H13.3549L17.4141 39.026C17.4623 39.026 17.5085 39.0068 17.5426 38.9728C17.5767 38.9387 17.5958 38.8925 17.5958 38.8443C17.5958 38.7961 17.5767 38.7499 17.5426 38.7158C17.5085 38.6817 17.4623 38.6626 17.4141 38.6626L13.3549 38.6669C13.3068 38.6657 13.2601 38.6837 13.2251 38.7169C13.1902 38.7501 13.1699 38.7958 13.1686 38.844C13.1674 38.8922 13.1854 38.9389 13.2186 38.9738C13.2518 39.0088 13.2975 39.0291 13.3457 39.0303Z" fill="url(#paint15_linear_1_563)"/>
<path d="M21.0631 35.3441H17.6826C17.5604 35.3441 17.4407 35.3788 17.3375 35.4442C17.2343 35.5096 17.1519 35.6031 17.0998 35.7136L15.537 39.0273H19.738C19.8166 39.0274 19.8933 39.0038 19.9582 38.9596C20.0232 38.9154 20.0733 38.8527 20.1022 38.7796L21.3141 35.7132C21.3303 35.6723 21.3362 35.628 21.3314 35.5843C21.3265 35.5405 21.3111 35.4986 21.2863 35.4622C21.2615 35.4258 21.2283 35.396 21.1894 35.3755C21.1505 35.3549 21.1071 35.3441 21.0631 35.3441Z" fill="url(#paint16_linear_1_563)"/>
<path d="M18.6814 37.0429C18.6082 37.27 18.6618 37.4909 18.8022 37.5358C18.9427 37.5808 19.1147 37.433 19.1879 37.2059C19.2611 36.9787 19.2075 36.7578 19.0671 36.7127C18.9266 36.6676 18.7546 36.8155 18.6814 37.0429Z" fill="#7D97F4"/>
<path d="M16.0808 30.2063C16.0808 30.2063 16.3893 30.7592 16.1837 31.6679C15.978 32.5766 15.5052 32.7013 15.1789 32.5145C14.8527 32.3277 14.419 31.9792 14.2897 31.1878C14.1605 30.3964 15.6624 29.5095 16.0808 30.2063Z" fill="url(#paint17_linear_1_563)"/>
<path d="M14.8778 31.0764C14.8778 31.0764 15.2903 29.8334 16.1605 30.4944L16.2526 30.7943C16.2526 30.7943 16.9896 30.5018 16.671 29.8395C16.3524 29.1771 15.5791 28.9163 14.8126 29.4431C14.0461 29.9699 13.6431 30.4091 13.7495 31.0304C13.856 31.6517 14.3036 31.3905 14.3036 31.3905C14.3036 31.3905 14.3476 30.9214 14.559 30.8175C14.7704 30.7136 14.8014 31.0622 14.8014 31.0622L14.8778 31.0764Z" fill="url(#paint18_linear_1_563)"/>
<path d="M14.6966 31.3515C14.6966 31.3515 14.9124 30.7145 14.5224 30.7314C14.1324 30.7483 14.352 31.3417 14.4514 31.5553L14.6966 31.3515Z" fill="url(#paint19_linear_1_563)"/>
<path d="M20.1508 19.5339C20.9666 18.5124 21.4363 17.313 21.4363 16.0302C21.4363 12.2996 17.4641 9.27539 12.5644 9.27539C7.66468 9.27539 3.6925 12.3004 3.6925 16.0302C3.6925 19.7599 7.66468 22.7857 12.5644 22.7857C14.4008 22.7857 16.1068 22.3611 17.5222 21.6335C18.4578 21.793 19.9102 22.0611 20.6767 22.2031C20.728 22.2126 20.7809 22.2084 20.83 22.1908C20.8791 22.1732 20.9226 22.1428 20.9562 22.1029C20.9897 22.0629 21.012 22.0148 21.0209 21.9634C21.0297 21.912 21.0247 21.8591 21.0065 21.8103L20.1508 19.5339Z" fill="#7D97F4"/>
<path d="M8.97773 17.4124H8.39454V16.2217H7.30201V17.4124H6.71704V14.6536H7.30201V15.7339H8.39454V14.6536H8.97773V17.4124Z" fill="white"/>
<path d="M12.5647 16.0286C12.5647 16.4853 12.4515 16.8363 12.2251 17.0814C11.9987 17.3266 11.6741 17.4493 11.2514 17.4495C10.8287 17.4495 10.5041 17.3268 10.2777 17.0814C10.0513 16.836 9.938 16.4838 9.93787 16.0248C9.93787 15.5656 10.0514 15.2149 10.2785 14.9728C10.5055 14.7306 10.8311 14.6095 11.2551 14.6094C11.679 14.6094 12.0032 14.7314 12.2278 14.9755C12.4524 15.2196 12.5647 15.5706 12.5647 16.0286ZM10.5513 16.0286C10.5513 16.3368 10.6098 16.5689 10.7267 16.7249C10.8437 16.8809 11.0185 16.9589 11.2514 16.9589C11.7181 16.9589 11.9515 16.6488 11.9515 16.0286C11.9515 15.4084 11.7193 15.0976 11.2551 15.0963C11.0224 15.0963 10.8469 15.1749 10.7287 15.332C10.6104 15.4892 10.5513 15.7214 10.5513 16.0286Z" fill="white"/>
<path d="M13.5225 17.4124V14.6536H14.1074V16.9294H15.2271V17.4126L13.5225 17.4124Z" fill="white"/>
<path d="M17.7818 17.4124L17.5816 16.7554H16.5759L16.3759 17.4122H15.7456L16.7193 14.6426H17.4345L18.4121 17.4122L17.7818 17.4124ZM17.4422 16.2643C17.2571 15.6691 17.153 15.3326 17.1298 15.2546C17.1067 15.1767 17.09 15.1151 17.0797 15.0696C17.0384 15.2307 16.9195 15.6289 16.723 16.2643H17.4422Z" fill="white"/>
<path d="M39.4708 28.6C38.689 29.5789 38.2388 30.7284 38.2388 31.9579C38.2388 35.5329 42.0457 38.4316 46.7416 38.4316C51.4374 38.4316 55.244 35.5339 55.244 31.9575C55.244 28.3811 51.4372 25.484 46.7412 25.484C44.9812 25.484 43.3461 25.891 41.9896 26.5883C41.0929 26.4353 39.701 26.1784 38.9665 26.0417C38.9173 26.0325 38.8665 26.0366 38.8194 26.0535C38.7723 26.0704 38.7305 26.0996 38.6984 26.1379C38.6662 26.1763 38.6448 26.2225 38.6364 26.2719C38.628 26.3212 38.6329 26.372 38.6505 26.4188L39.4708 28.6Z" fill="#7D97F4"/>
<path d="M42.8613 33.1375H42.3595V32.1121H41.419V33.1375H40.9155V30.7625H41.419V31.6931H42.3595V30.7625H42.8613V33.1375Z" fill="white"/>
<path d="M45.1607 33.1375H43.7932V30.7625H45.1607V31.175H44.2965V31.6965H45.1004V32.109H44.2965V32.7212H45.1607V33.1375Z" fill="white"/>
<path d="M45.9884 33.1375V30.7625H46.4918V32.7212H47.4543V33.1375H45.9884Z" fill="white"/>
<path d="M48.2002 33.1375V30.7625H48.7036V32.7212H49.6661V33.1375H48.2002Z" fill="white"/>
<path d="M52.5672 31.9465C52.5672 32.3393 52.4698 32.6415 52.2749 32.8528C52.0801 33.0642 51.8007 33.1697 51.4368 33.1695C51.073 33.1695 50.7937 33.0639 50.5988 32.8528C50.4039 32.6417 50.3065 32.3385 50.3065 31.9431C50.3065 31.5479 50.4042 31.2462 50.5996 31.0378C50.795 30.8295 51.0751 30.7252 51.4401 30.7251C51.8049 30.7251 52.084 30.8299 52.2773 31.0394C52.4706 31.2489 52.5672 31.5513 52.5672 31.9465ZM50.8343 31.9465C50.8343 32.2117 50.8847 32.4114 50.9854 32.5458C51.0861 32.6801 51.2367 32.7473 51.4372 32.7471C51.8389 32.7471 52.0398 32.4803 52.0398 31.9465C52.0398 31.4127 51.84 31.1453 51.4405 31.1441C51.2401 31.1441 51.0891 31.2115 50.9873 31.3464C50.8856 31.4813 50.8346 31.6813 50.8343 31.9465Z" fill="white"/>
<path d="M32.6938 19.1632C31.9894 18.216 31.6044 17.1339 31.6463 16.0054C31.7675 12.7237 35.4715 10.2445 39.978 10.471C44.5508 10.7008 48.2066 13.6211 48.082 16.9907C47.9575 20.3602 44.1026 22.8303 39.5331 22.5121C37.8375 22.3942 36.2845 21.9083 35.0142 21.175C34.1566 21.2581 32.8296 21.4046 32.1313 21.4826C31.926 21.5056 31.7663 21.2999 31.8462 21.1159L32.6938 19.1632Z" fill="url(#paint20_linear_1_563)"/>
<path d="M37.2143 14.4903C37.2004 14.532 37.154 14.5552 37.0845 14.5506C36.9623 14.907 36.8215 15.2567 36.6628 15.5984L36.8396 15.64C36.8303 15.6864 36.7932 15.7186 36.7144 15.728V18.6674H36.1629V16.5067C36.0663 16.6577 35.9614 16.8032 35.8486 16.9426C35.7463 16.7729 35.6348 16.609 35.5146 16.4515C35.9271 15.9694 36.3353 15.1118 36.5754 14.2908L37.2143 14.4903ZM39.9309 15.1386C39.8886 15.5213 39.8204 15.9007 39.7271 16.2743L39.3841 16.214C39.6483 16.7051 39.8752 17.3407 39.9588 17.7717L39.4257 17.9665C39.3609 17.5344 39.1336 16.8724 38.8834 16.381L39.3654 16.2095L39.2542 16.191C39.2774 16.0472 39.3006 15.8479 39.3283 15.6438H38.7587V18.0453C38.7587 18.4717 38.6659 18.6711 37.8594 18.6711C37.8212 18.4765 37.7573 18.2879 37.6693 18.1101C37.8639 18.1148 38.0633 18.1148 38.1281 18.1148C38.1884 18.1148 38.2067 18.0964 38.2067 18.0363V15.6446H37.7105C37.5622 15.9692 37.3952 16.2611 37.2098 16.4929C37.0798 16.3635 36.9387 16.2456 36.7881 16.1407C37.1311 15.7328 37.4139 15.0095 37.5669 14.3049L38.2151 14.4764C38.2012 14.5135 38.1596 14.5412 38.09 14.5367C38.0389 14.7361 37.9786 14.9353 37.9091 15.1301H39.629L39.9309 15.1386ZM38.0767 16.4134C38.0674 16.4505 38.0209 16.4737 37.9608 16.4737C37.8217 17.0162 37.5852 17.6141 37.3116 17.9897C37.1733 17.8884 37.0277 17.7975 36.8759 17.7179C37.1356 17.3839 37.3489 16.7999 37.4652 16.2576L38.0767 16.4134Z" fill="white"/>
<path d="M42.2444 15.2088L42.541 15.2784L42.5131 15.3711C42.4577 16.1591 42.3363 16.8081 42.1237 17.3275C42.3324 17.499 42.5178 17.6705 42.6345 17.8186L42.2994 18.2678C42.1974 18.1332 42.0489 17.9804 41.8774 17.8227C41.6675 18.1725 41.3766 18.4666 41.0291 18.6803C40.9548 18.5412 40.8112 18.3419 40.6951 18.2399C41.0057 18.0731 41.2606 17.8135 41.46 17.4705C41.3767 17.4008 41.2885 17.3407 41.2047 17.2756L41.1675 17.4239L40.7132 17.1882C40.8199 16.8034 40.9357 16.2796 41.0471 15.7372H40.6808V15.2232H41.1444C41.2047 14.8987 41.2602 14.5834 41.3066 14.296L41.9371 14.3608C41.9324 14.4027 41.8955 14.4304 41.8165 14.4351C41.7702 14.6761 41.7193 14.9458 41.6635 15.2232H42.1505L42.2444 15.2088ZM41.5582 15.7374C41.484 16.0851 41.4052 16.4373 41.331 16.762C41.4423 16.8313 41.5627 16.9103 41.6834 16.9938C41.8132 16.6367 41.9059 16.2147 41.9615 15.7366L41.5582 15.7374ZM45.026 16.3267V16.8551H44.0059V18.0517C44.0059 18.5106 43.8488 18.6775 42.9814 18.6683C42.9537 18.5153 42.8609 18.2741 42.7867 18.1211C42.9582 18.1258 43.1391 18.1305 43.2503 18.1305C43.4074 18.1305 43.4449 18.1305 43.4449 18.047V16.8555H42.4577V16.3271H43.4449V15.6121L43.6166 15.6213C43.7737 15.4593 43.9319 15.2459 44.0662 15.0419H42.6244V14.5274H44.4695L44.5624 14.4995L44.9934 14.7592C44.9749 14.7916 44.9285 14.8148 44.8822 14.824C44.6644 15.1485 44.3259 15.5797 44.0059 15.8847V16.3251L45.026 16.3267Z" fill="white"/>
<defs>
<linearGradient id="paint0_linear_1_563" x1="58.5151" y1="62.1614" x2="18.1878" y2="18.6333" gradientUnits="userSpaceOnUse">
<stop stop-color="#DAE3FE"/>
<stop offset="1" stop-color="#E9EFFD"/>
</linearGradient>
<linearGradient id="paint1_linear_1_563" x1="13.23" y1="23.464" x2="53.0816" y2="23.464" gradientUnits="userSpaceOnUse">
<stop stop-color="#4F52FF"/>
<stop offset="1" stop-color="#4042E2"/>
</linearGradient>
<linearGradient id="paint2_linear_1_563" x1="32.558" y1="47.2641" x2="21.0473" y2="12.7322" gradientUnits="userSpaceOnUse">
<stop stop-color="#09005D"/>
<stop offset="1" stop-color="#1A0F91"/>
</linearGradient>
<linearGradient id="paint3_linear_1_563" x1="7.66031" y1="45.7318" x2="56.1074" y2="57.5163" gradientUnits="userSpaceOnUse">
<stop stop-color="#09005D"/>
<stop offset="1" stop-color="#1A0F91"/>
</linearGradient>
<linearGradient id="paint4_linear_1_563" x1="18.3232" y1="87.2187" x2="16.3307" y2="67.0938" gradientUnits="userSpaceOnUse">
<stop stop-color="#4F52FF"/>
<stop offset="1" stop-color="#4042E2"/>
</linearGradient>
<linearGradient id="paint5_linear_1_563" x1="13.9986" y1="36.9418" x2="14.3983" y2="0.559972" gradientUnits="userSpaceOnUse">
<stop stop-color="#4F52FF"/>
<stop offset="1" stop-color="#4042E2"/>
</linearGradient>
<linearGradient id="paint6_linear_1_563" x1="16.7237" y1="30.6102" x2="7.58568" y2="35.3157" gradientUnits="userSpaceOnUse">
<stop stop-color="#09005D"/>
<stop offset="1" stop-color="#1A0F91"/>
</linearGradient>
<linearGradient id="paint7_linear_1_563" x1="23.362" y1="40.0881" x2="17.0861" y2="43.6703" gradientUnits="userSpaceOnUse">
<stop stop-color="#FEBBBA"/>
<stop offset="1" stop-color="#FF928E"/>
</linearGradient>
<linearGradient id="paint8_linear_1_563" x1="26.8046" y1="171.525" x2="26.3385" y2="159.3" gradientUnits="userSpaceOnUse">
<stop stop-color="#09005D"/>
<stop offset="1" stop-color="#1A0F91"/>
</linearGradient>
<linearGradient id="paint9_linear_1_563" x1="22.7555" y1="40.9814" x2="44.2285" y2="27.5389" gradientUnits="userSpaceOnUse">
<stop stop-color="#FEBBBA"/>
<stop offset="1" stop-color="#FF928E"/>
</linearGradient>
<linearGradient id="paint10_linear_1_563" x1="-29.5537" y1="342.747" x2="-27.5555" y2="330.723" gradientUnits="userSpaceOnUse">
<stop stop-color="#09005D"/>
<stop offset="1" stop-color="#1A0F91"/>
</linearGradient>
<linearGradient id="paint11_linear_1_563" x1="16.0688" y1="36.1774" x2="8.33875" y2="50.1511" gradientUnits="userSpaceOnUse">
<stop stop-color="#09005D"/>
<stop offset="1" stop-color="#1A0F91"/>
</linearGradient>
<linearGradient id="paint12_linear_1_563" x1="27.8762" y1="28.0092" x2="19.9071" y2="32.2925" gradientUnits="userSpaceOnUse">
<stop stop-color="#FF928E"/>
<stop offset="1" stop-color="#FE7062"/>
</linearGradient>
<linearGradient id="paint13_linear_1_563" x1="14.3384" y1="34.5348" x2="14.7647" y2="31.7988" gradientUnits="userSpaceOnUse">
<stop stop-color="#FEBBBA"/>
<stop offset="1" stop-color="#FF928E"/>
</linearGradient>
<linearGradient id="paint14_linear_1_563" x1="12.3705" y1="38.0232" x2="6.11879" y2="38.0232" gradientUnits="userSpaceOnUse">
<stop stop-color="#FEBBBA"/>
<stop offset="1" stop-color="#FF928E"/>
</linearGradient>
<linearGradient id="paint15_linear_1_563" x1="12.9031" y1="38.1296" x2="16.1289" y2="39.1896" gradientUnits="userSpaceOnUse">
<stop stop-color="#09005D"/>
<stop offset="1" stop-color="#1A0F91"/>
</linearGradient>
<linearGradient id="paint16_linear_1_563" x1="17.0835" y1="35.8383" x2="19.4039" y2="38.2909" gradientUnits="userSpaceOnUse">
<stop stop-color="#09005D"/>
<stop offset="1" stop-color="#1A0F91"/>
</linearGradient>
<linearGradient id="paint17_linear_1_563" x1="15.1186" y1="32.9126" x2="16.072" y2="26.4108" gradientUnits="userSpaceOnUse">
<stop stop-color="#FEBBBA"/>
<stop offset="1" stop-color="#FF928E"/>
</linearGradient>
<linearGradient id="paint18_linear_1_563" x1="16.668" y1="29.4395" x2="7.1231" y2="34.3544" gradientUnits="userSpaceOnUse">
<stop stop-color="#09005D"/>
<stop offset="1" stop-color="#1A0F91"/>
</linearGradient>
<linearGradient id="paint19_linear_1_563" x1="14.3419" y1="33.0382" x2="15.294" y2="26.5447" gradientUnits="userSpaceOnUse">
<stop stop-color="#FEBBBA"/>
<stop offset="1" stop-color="#FF928E"/>
</linearGradient>
<linearGradient id="paint20_linear_1_563" x1="33.6162" y1="-7.29506" x2="38.0637" y2="11.2444" gradientUnits="userSpaceOnUse">
<stop stop-color="#FF928E"/>
<stop offset="1" stop-color="#FE7062"/>
</linearGradient>
</defs>
</svg>
