<svg width="16" height="14" viewBox="0 0 16 14" fill="none" xmlns="http://www.w3.org/2000/svg">
<path d="M15.2435 2.89038L9.88654 8.24729C9.28924 8.84309 8.48002 9.17768 7.63636 9.17768C6.79271 9.17768 5.98349 8.84309 5.38618 8.24729L0.0292727 2.89038C0.0203636 2.99093 0 3.08193 0 3.18184V10.8182C0.00101045 11.6618 0.336561 12.4705 0.933049 13.067C1.52954 13.6635 2.33826 13.999 3.18182 14H12.0909C12.9345 13.999 13.7432 13.6635 14.3397 13.067C14.9362 12.4705 15.2717 11.6618 15.2727 10.8182V3.18184C15.2727 3.08193 15.2524 2.99093 15.2435 2.89038Z" fill="white" fill-opacity="0.25"/>
<path d="M8.98666 7.34745L14.7992 1.53427C14.5176 1.06738 14.1205 0.680933 13.6461 0.412192C13.1717 0.143451 12.6361 0.00148952 12.0908 0H3.18175C2.63653 0.00148952 2.10089 0.143451 1.6265 0.412192C1.1521 0.680933 0.754966 1.06738 0.473389 1.53427L6.28593 7.34745C6.64457 7.70465 7.13012 7.90521 7.6363 7.90521C8.14247 7.90521 8.62803 7.70465 8.98666 7.34745Z" fill="white" fill-opacity="0.25"/>
</svg>
