<svg width="105" height="104" viewBox="0 0 105 104" fill="none" xmlns="http://www.w3.org/2000/svg">
<path d="M97.619 9.17786C97.2871 9.17786 96.9688 9.30971 96.734 9.54442C96.4993 9.77913 96.3675 10.0975 96.3675 10.4294V39.6316C96.3675 39.9635 96.4993 40.2819 96.734 40.5166C96.9688 40.7513 97.2871 40.8832 97.619 40.8832C97.9509 40.8832 98.2693 40.7513 98.504 40.5166C98.7387 40.2819 98.8705 39.9635 98.8705 39.6316V10.4294C98.8705 10.0975 98.7387 9.77913 98.504 9.54442C98.2693 9.30971 97.9509 9.17786 97.619 9.17786ZM6.67486 9.17786C6.34294 9.17786 6.02461 9.30971 5.7899 9.54442C5.5552 9.77913 5.42334 10.0975 5.42334 10.4294V39.6316C5.42334 39.9635 5.5552 40.2819 5.7899 40.5166C6.02461 40.7513 6.34294 40.8832 6.67486 40.8832C7.00679 40.8832 7.32512 40.7513 7.55983 40.5166C7.79453 40.2819 7.92639 39.9635 7.92639 39.6316V10.4294C7.92639 10.0975 7.79453 9.77913 7.55983 9.54442C7.32512 9.30971 7.00679 9.17786 6.67486 9.17786Z" fill="#D2D2D2"/>
<path d="M97.6189 13.3496C101.305 13.3496 104.294 10.3612 104.294 6.6748C104.294 2.98841 101.305 0 97.6189 0C93.9325 0 90.9441 2.98841 90.9441 6.6748C90.9441 10.3612 93.9325 13.3496 97.6189 13.3496Z" fill="white"/>
<path d="M6.6748 13.3496C10.3612 13.3496 13.3496 10.3612 13.3496 6.6748C13.3496 2.98841 10.3612 0 6.6748 0C2.98841 0 0 2.98841 0 6.6748C0 10.3612 2.98841 13.3496 6.6748 13.3496Z" fill="white"/>
<path d="M8.44281 52.9512C8.45899 46.8927 10.1014 40.9497 13.1986 35.7427C9.83924 35.9319 6.65171 37.2896 4.18763 39.5807C0.683357 43.0691 0.533174 47.6297 0.311237 54.2361C0.0826248 61.0077 -0.066724 65.4689 3.15303 68.9749C6.28852 72.5726 10.6029 72.7945 14.723 72.5626C10.6614 66.8274 8.46827 59.9788 8.44281 52.9512ZM103.987 54.2327C103.765 47.6264 103.611 43.0658 100.11 39.5774C97.6462 37.2862 94.4587 35.9286 91.0993 35.7394C94.4517 41.3598 96.0929 47.8356 95.8221 54.3743C95.5514 60.913 93.3805 67.231 89.575 72.5551C93.7034 72.7895 97.9569 72.53 101.145 68.9674C104.321 65.4281 104.215 61.0068 103.987 54.2327Z" fill="#028464"/>
<path d="M95.8509 52.9512C95.8509 31.9848 76.2837 14.9883 52.1468 14.9883C28.0099 14.9883 8.44275 31.9848 8.44275 52.9512C8.44275 69.5648 20.7336 83.6761 37.8436 88.8232C36.6421 91.2429 34.7264 93.4505 32.185 96.4417C31.5536 97.1856 31.1757 98.1115 31.1064 99.0848C31.037 100.058 31.2797 101.028 31.7992 101.854C32.3187 102.68 33.088 103.319 33.9953 103.678C34.9026 104.037 35.9008 104.098 36.8448 103.851C45.4731 101.57 53.2837 96.904 59.3806 90.3868C80.0733 87.3915 95.8509 71.7758 95.8509 52.9512Z" fill="#19B890"/>
<path d="M52.1468 21.2458C30.5605 21.2458 15.2002 39.9912 17.4721 61.2571C17.8747 65.1491 19.7024 68.7547 22.6035 71.3801C25.5047 74.0056 29.2743 75.4654 33.1871 75.4786C42.667 75.4519 42.667 70.188 52.1468 70.188C61.6267 70.188 61.6267 75.4519 71.1066 75.4786C75.0193 75.4654 78.789 74.0056 81.6901 71.3801C84.5913 68.7547 86.419 65.1491 86.8216 61.2571C89.0935 39.9912 73.7331 21.2458 52.1468 21.2458Z" fill="white"/>
<path d="M31.8839 54.7684C34.1879 54.7684 36.0557 52.9007 36.0557 50.5967C36.0557 48.2927 34.1879 46.4249 31.8839 46.4249C29.5799 46.4249 27.7122 48.2927 27.7122 50.5967C27.7122 52.9007 29.5799 54.7684 31.8839 54.7684Z" fill="#19B890"/>
<path d="M52.1468 54.7684C54.4508 54.7684 56.3186 52.9007 56.3186 50.5967C56.3186 48.2927 54.4508 46.4249 52.1468 46.4249C49.8429 46.4249 47.9751 48.2927 47.9751 50.5967C47.9751 52.9007 49.8429 54.7684 52.1468 54.7684Z" fill="#19B890"/>
<path d="M72.41 54.7684C74.714 54.7684 76.5818 52.9007 76.5818 50.5967C76.5818 48.2927 74.714 46.4249 72.41 46.4249C70.106 46.4249 68.2383 48.2927 68.2383 50.5967C68.2383 52.9007 70.106 54.7684 72.41 54.7684Z" fill="#19B890"/>
</svg>
