<svg width="16" height="22" viewBox="0 0 16 22" fill="none" xmlns="http://www.w3.org/2000/svg">
<path d="M4.31469 16.4031L0.596703 18.5117C0.382845 18.6357 0.182742 18.7837 0 18.9532C2.24311 20.9245 5.08625 22.0041 8.02328 22C11.058 22 13.8384 20.8706 16 18.9962C15.7999 18.8173 15.5798 18.664 15.3445 18.5396L11.3632 16.47C11.111 16.3389 10.8989 16.1374 10.7507 15.888C10.6024 15.6386 10.5239 15.3513 10.5239 15.0581V13.434C10.6358 13.3015 10.7637 13.1314 10.9005 12.9304C11.4377 12.1367 11.8551 11.2622 12.1381 10.3373C12.6488 10.1735 13.025 9.68314 13.025 9.10037V7.36674C13.025 6.9854 12.8618 6.64463 12.6083 6.40605V3.89995C12.6083 3.89995 13.1035 0 8.02375 0C2.94401 0 3.43915 3.89995 3.43915 3.89995V6.40605C3.30871 6.52678 3.2042 6.67472 3.13241 6.84025C3.06063 7.00577 3.02319 7.18517 3.02254 7.36674V9.10037C3.02254 9.55701 3.25342 9.95888 3.59902 10.1911C4.01563 12.0768 5.10653 13.434 5.10653 13.434V15.018C5.10618 15.3015 5.03248 15.5797 4.89316 15.8234C4.75385 16.0671 4.55404 16.2673 4.31469 16.4031Z" fill="#F5F5F5"/>
</svg>
