<svg width="68" height="26" viewBox="0 0 68 26" fill="none" xmlns="http://www.w3.org/2000/svg">
<path d="M0 6.8C0 3.04446 3.04446 0 6.8 0H61.2C64.9555 0 68 3.04446 68 6.8V18.4571C68 22.2127 64.9555 25.2571 61.2 25.2571H6.8C3.04446 25.2571 0 22.2127 0 18.4571V6.8Z" fill="#19B890"/>
<path d="M13.7653 15.6303C13.4674 15.6303 13.1759 15.6076 12.891 15.5623C12.606 15.517 12.3373 15.449 12.0847 15.3583C11.8321 15.2612 11.6055 15.1446 11.4047 15.0086C11.3076 14.9373 11.2396 14.8564 11.2007 14.7657C11.1683 14.6751 11.1586 14.5876 11.1716 14.5034C11.191 14.4128 11.2298 14.3351 11.2881 14.2703C11.3464 14.2055 11.4176 14.1667 11.5018 14.1537C11.586 14.1343 11.6799 14.1602 11.7836 14.2314C12.075 14.4192 12.3826 14.5585 12.7064 14.6492C13.0302 14.7333 13.3832 14.7754 13.7653 14.7754C14.3157 14.7754 14.7205 14.6783 14.9796 14.484C15.2451 14.2832 15.3778 14.0242 15.3778 13.7069C15.3778 13.4478 15.2839 13.2438 15.0961 13.0949C14.9083 12.9394 14.5942 12.8164 14.1538 12.7257L13.1144 12.512C12.4992 12.3825 12.0394 12.1688 11.735 11.8709C11.4371 11.573 11.2881 11.1714 11.2881 10.6663C11.2881 10.3619 11.3496 10.0834 11.4727 9.83087C11.6022 9.5783 11.7803 9.36135 12.007 9.18001C12.2336 8.9922 12.5056 8.84973 12.823 8.75258C13.1403 8.65544 13.4868 8.60687 13.8624 8.60687C14.2639 8.60687 14.6396 8.65868 14.9893 8.7623C15.3455 8.86592 15.6628 9.02458 15.9413 9.2383C16.0255 9.29658 16.0805 9.37106 16.1064 9.46173C16.1388 9.54592 16.1453 9.63011 16.1258 9.7143C16.1129 9.79849 16.0773 9.86973 16.019 9.92801C15.9607 9.9863 15.8862 10.0219 15.7956 10.0349C15.7049 10.0413 15.6045 10.009 15.4944 9.93773C15.2418 9.76935 14.9828 9.64954 14.7173 9.5783C14.4582 9.50058 14.17 9.46173 13.8527 9.46173C13.5354 9.46173 13.2569 9.5103 13.0173 9.60744C12.7841 9.70458 12.6028 9.84058 12.4733 10.0154C12.3502 10.1903 12.2887 10.3975 12.2887 10.6372C12.2887 10.9092 12.3761 11.1261 12.551 11.288C12.7258 11.4499 13.0173 11.573 13.4253 11.6572L14.455 11.8709C15.1026 12.0069 15.5851 12.2173 15.9024 12.5023C16.2197 12.7872 16.3784 13.1661 16.3784 13.6389C16.3784 13.9432 16.3169 14.2185 16.1938 14.4646C16.0708 14.7042 15.8959 14.9114 15.6693 15.0863C15.4426 15.2612 15.1674 15.3972 14.8436 15.4943C14.5262 15.585 14.1668 15.6303 13.7653 15.6303Z" fill="white"/>
<path d="M19.4106 15.6303C19.0221 15.6303 18.695 15.5623 18.4295 15.4263C18.164 15.2903 17.9664 15.0895 17.8369 14.824C17.7074 14.5585 17.6426 14.2347 17.6426 13.8526V11.56H17.0598C16.9303 11.56 16.8299 11.5276 16.7586 11.4629C16.6874 11.3916 16.6518 11.2977 16.6518 11.1812C16.6518 11.0581 16.6874 10.9642 16.7586 10.8994C16.8299 10.8347 16.9303 10.8023 17.0598 10.8023H17.6426V9.80173C17.6426 9.63982 17.6847 9.51677 17.7689 9.43258C17.8596 9.34839 17.9826 9.3063 18.1381 9.3063C18.2935 9.3063 18.4133 9.34839 18.4975 9.43258C18.5817 9.51677 18.6238 9.63982 18.6238 9.80173V10.8023H19.7603C19.8899 10.8023 19.9902 10.8347 20.0615 10.8994C20.1327 10.9642 20.1683 11.0581 20.1683 11.1812C20.1683 11.2977 20.1327 11.3916 20.0615 11.4629C19.9902 11.5276 19.8899 11.56 19.7603 11.56H18.6238V13.7749C18.6238 14.1181 18.695 14.3772 18.8375 14.552C18.9864 14.7269 19.2261 14.8143 19.5563 14.8143C19.6729 14.8143 19.7733 14.8046 19.8575 14.7852C19.9482 14.7592 20.0226 14.7431 20.0809 14.7366C20.1522 14.7366 20.2104 14.7625 20.2558 14.8143C20.3011 14.8596 20.3238 14.9503 20.3238 15.0863C20.3238 15.1834 20.3043 15.2741 20.2655 15.3583C20.2331 15.4425 20.1716 15.4975 20.0809 15.5234C20.0032 15.5493 19.8963 15.572 19.7603 15.5914C19.6308 15.6173 19.5143 15.6303 19.4106 15.6303Z" fill="white"/>
<path d="M22.4535 15.6303C22.1232 15.6303 21.8253 15.5655 21.5598 15.436C21.3007 15.3065 21.0967 15.1316 20.9478 14.9114C20.7988 14.6912 20.7243 14.4419 20.7243 14.1634C20.7243 13.8137 20.8118 13.5385 20.9866 13.3377C21.168 13.1305 21.4626 12.9848 21.8706 12.9006C22.2851 12.8099 22.842 12.7646 23.5415 12.7646H23.998V13.3669H23.5512C23.0849 13.3669 22.7158 13.3895 22.4438 13.4349C22.1718 13.4802 21.9775 13.5579 21.8609 13.668C21.7508 13.7716 21.6958 13.9173 21.6958 14.1052C21.6958 14.3512 21.78 14.552 21.9483 14.7074C22.1167 14.8564 22.3499 14.9309 22.6478 14.9309C22.8874 14.9309 23.0979 14.8758 23.2792 14.7657C23.4605 14.6492 23.603 14.4937 23.7066 14.2994C23.8167 14.1052 23.8718 13.8817 23.8718 13.6292V12.512C23.8718 12.1429 23.794 11.8773 23.6386 11.7154C23.4832 11.5535 23.2274 11.4726 22.8712 11.4726C22.664 11.4726 22.447 11.4985 22.2203 11.5503C22.0001 11.6021 21.7702 11.6895 21.5306 11.8126C21.4205 11.8644 21.3266 11.8806 21.2489 11.8612C21.1712 11.8417 21.1097 11.7996 21.0643 11.7349C21.019 11.6636 20.9931 11.5892 20.9866 11.5114C20.9866 11.4272 21.006 11.3463 21.0449 11.2686C21.0902 11.1909 21.1647 11.1326 21.2683 11.0937C21.5533 10.9577 21.835 10.8606 22.1135 10.8023C22.392 10.744 22.6542 10.7149 22.9003 10.7149C23.3342 10.7149 23.6904 10.7829 23.9689 10.9189C24.2539 11.0549 24.4643 11.2621 24.6003 11.5406C24.7363 11.8191 24.8043 12.1785 24.8043 12.6189V15.1154C24.8043 15.2709 24.7655 15.3939 24.6878 15.4846C24.61 15.5688 24.4967 15.6109 24.3478 15.6109C24.2053 15.6109 24.092 15.5688 24.0078 15.4846C23.9236 15.3939 23.8815 15.2709 23.8815 15.1154V14.484H23.9689C23.9171 14.7236 23.82 14.9309 23.6775 15.1057C23.5415 15.2741 23.3699 15.4036 23.1626 15.4943C22.9554 15.585 22.719 15.6303 22.4535 15.6303Z" fill="white"/>
<path d="M26.6511 15.6109C26.4892 15.6109 26.3662 15.5688 26.282 15.4846C26.1978 15.3939 26.1557 15.2709 26.1557 15.1154V11.2297C26.1557 11.0678 26.1978 10.9448 26.282 10.8606C26.3662 10.7764 26.4827 10.7343 26.6317 10.7343C26.7871 10.7343 26.9037 10.7764 26.9814 10.8606C27.0656 10.9448 27.1077 11.0678 27.1077 11.2297V11.9389H27.0105C27.1142 11.5503 27.3052 11.2556 27.5837 11.0549C27.8622 10.8541 28.2183 10.7375 28.6523 10.7052C28.7688 10.6987 28.8595 10.7278 28.9243 10.7926C28.9955 10.8573 29.0343 10.9577 29.0408 11.0937C29.0538 11.2297 29.0246 11.3398 28.9534 11.424C28.8822 11.5017 28.7721 11.5471 28.6231 11.56L28.4385 11.5794C28.0176 11.6183 27.697 11.7511 27.4768 11.9777C27.2566 12.2044 27.1465 12.5152 27.1465 12.9103V15.1154C27.1465 15.2709 27.1044 15.3939 27.0203 15.4846C26.9425 15.5688 26.8195 15.6109 26.6511 15.6109Z" fill="white"/>
<path d="M32.0658 15.6303C31.6772 15.6303 31.3501 15.5623 31.0846 15.4263C30.8191 15.2903 30.6216 15.0895 30.492 14.824C30.3625 14.5585 30.2978 14.2347 30.2978 13.8526V11.56H29.7149C29.5854 11.56 29.485 11.5276 29.4138 11.4629C29.3425 11.3916 29.3069 11.2977 29.3069 11.1812C29.3069 11.0581 29.3425 10.9642 29.4138 10.8994C29.485 10.8347 29.5854 10.8023 29.7149 10.8023H30.2978V9.80173C30.2978 9.63982 30.3399 9.51677 30.424 9.43258C30.5147 9.34839 30.6378 9.3063 30.7932 9.3063C30.9486 9.3063 31.0684 9.34839 31.1526 9.43258C31.2368 9.51677 31.2789 9.63982 31.2789 9.80173V10.8023H32.4155C32.545 10.8023 32.6454 10.8347 32.7166 10.8994C32.7879 10.9642 32.8235 11.0581 32.8235 11.1812C32.8235 11.2977 32.7879 11.3916 32.7166 11.4629C32.6454 11.5276 32.545 11.56 32.4155 11.56H31.2789V13.7749C31.2789 14.1181 31.3501 14.3772 31.4926 14.552C31.6416 14.7269 31.8812 14.8143 32.2115 14.8143C32.328 14.8143 32.4284 14.8046 32.5126 14.7852C32.6033 14.7592 32.6778 14.7431 32.736 14.7366C32.8073 14.7366 32.8656 14.7625 32.9109 14.8143C32.9562 14.8596 32.9789 14.9503 32.9789 15.0863C32.9789 15.1834 32.9595 15.2741 32.9206 15.3583C32.8882 15.4425 32.8267 15.4975 32.736 15.5234C32.6583 15.5493 32.5515 15.572 32.4155 15.5914C32.2859 15.6173 32.1694 15.6303 32.0658 15.6303Z" fill="white"/>
<path d="M39.3311 15.6303C38.6382 15.6303 38.0456 15.4878 37.5534 15.2029C37.0612 14.9179 36.6824 14.5132 36.4168 13.9886C36.1578 13.4575 36.0283 12.8326 36.0283 12.1137C36.0283 11.5762 36.1028 11.0937 36.2517 10.6663C36.4007 10.2324 36.6144 9.86325 36.8928 9.55887C37.1778 9.24801 37.5243 9.01163 37.9323 8.84973C38.3467 8.68782 38.813 8.60687 39.3311 8.60687C39.7132 8.60687 40.0791 8.65868 40.4288 8.7623C40.785 8.86592 41.0927 9.01487 41.3517 9.20916C41.4618 9.28039 41.533 9.36782 41.5654 9.47144C41.6043 9.56858 41.6107 9.66249 41.5848 9.75316C41.5654 9.84382 41.5233 9.92154 41.4586 9.9863C41.3938 10.0446 41.3096 10.077 41.206 10.0834C41.1088 10.0899 41.002 10.0543 40.8854 9.97658C40.6717 9.81468 40.4353 9.69487 40.1763 9.61716C39.9172 9.53944 39.6452 9.50058 39.3603 9.50058C38.8681 9.50058 38.4536 9.6042 38.1168 9.81144C37.7801 10.0122 37.5243 10.3069 37.3494 10.6954C37.1746 11.084 37.0871 11.5568 37.0871 12.1137C37.0871 12.6707 37.1746 13.1467 37.3494 13.5417C37.5243 13.9303 37.7801 14.2282 38.1168 14.4354C38.4536 14.6362 38.8681 14.7366 39.3603 14.7366C39.6452 14.7366 39.9172 14.6977 40.1763 14.62C40.4418 14.5358 40.6911 14.4128 40.9243 14.2509C41.0408 14.1796 41.1445 14.1472 41.2351 14.1537C41.3323 14.1602 41.4132 14.1926 41.478 14.2509C41.5427 14.3092 41.5848 14.3836 41.6043 14.4743C41.6302 14.5585 41.6269 14.6492 41.5946 14.7463C41.5687 14.837 41.5071 14.9147 41.41 14.9794C41.1445 15.1932 40.8304 15.3551 40.4677 15.4652C40.105 15.5752 39.7262 15.6303 39.3311 15.6303Z" fill="white"/>
<path d="M43.205 15.6109C43.0496 15.6109 42.9298 15.5688 42.8456 15.4846C42.7614 15.3939 42.7193 15.2709 42.7193 15.1154V9.12173C42.7193 8.95982 42.7614 8.83677 42.8456 8.75258C42.9298 8.66839 43.0496 8.6263 43.205 8.6263C43.3604 8.6263 43.4802 8.66839 43.5644 8.75258C43.6551 8.83677 43.7004 8.95982 43.7004 9.12173V11.8126H43.5644C43.7069 11.4499 43.9303 11.1779 44.2347 10.9966C44.5391 10.8088 44.8888 10.7149 45.2839 10.7149C45.6595 10.7149 45.9703 10.7861 46.2164 10.9286C46.469 11.0646 46.6568 11.2751 46.7799 11.56C46.9029 11.8385 46.9644 12.1914 46.9644 12.6189V15.1154C46.9644 15.2709 46.9223 15.3939 46.8381 15.4846C46.754 15.5688 46.6341 15.6109 46.4787 15.6109C46.3168 15.6109 46.1938 15.5688 46.1096 15.4846C46.0254 15.3939 45.9833 15.2709 45.9833 15.1154V12.6772C45.9833 12.2692 45.9023 11.9712 45.7404 11.7834C45.585 11.5956 45.3389 11.5017 45.0021 11.5017C44.6071 11.5017 44.2898 11.6248 44.0501 11.8709C43.817 12.117 43.7004 12.4472 43.7004 12.8617V15.1154C43.7004 15.4457 43.5353 15.6109 43.205 15.6109Z" fill="white"/>
<path d="M49.8318 15.6303C49.5015 15.6303 49.2036 15.5655 48.9381 15.436C48.679 15.3065 48.4751 15.1316 48.3261 14.9114C48.1771 14.6912 48.1027 14.4419 48.1027 14.1634C48.1027 13.8137 48.1901 13.5385 48.365 13.3377C48.5463 13.1305 48.841 12.9848 49.249 12.9006C49.6634 12.8099 50.2204 12.7646 50.9198 12.7646H51.3764V13.3669H50.9295C50.4632 13.3669 50.0941 13.3895 49.8221 13.4349C49.5501 13.4802 49.3558 13.5579 49.2392 13.668C49.1291 13.7716 49.0741 13.9173 49.0741 14.1052C49.0741 14.3512 49.1583 14.552 49.3267 14.7074C49.4951 14.8564 49.7282 14.9309 50.0261 14.9309C50.2657 14.9309 50.4762 14.8758 50.6575 14.7657C50.8389 14.6492 50.9813 14.4937 51.085 14.2994C51.1951 14.1052 51.2501 13.8817 51.2501 13.6292V12.512C51.2501 12.1429 51.1724 11.8773 51.017 11.7154C50.8615 11.5535 50.6057 11.4726 50.2495 11.4726C50.0423 11.4726 49.8253 11.4985 49.5987 11.5503C49.3785 11.6021 49.1486 11.6895 48.909 11.8126C48.7989 11.8644 48.705 11.8806 48.6272 11.8612C48.5495 11.8417 48.488 11.7996 48.4427 11.7349C48.3973 11.6636 48.3714 11.5892 48.365 11.5114C48.365 11.4272 48.3844 11.3463 48.4232 11.2686C48.4686 11.1909 48.543 11.1326 48.6467 11.0937C48.9316 10.9577 49.2133 10.8606 49.4918 10.8023C49.7703 10.744 50.0326 10.7149 50.2787 10.7149C50.7126 10.7149 51.0688 10.7829 51.3472 10.9189C51.6322 11.0549 51.8427 11.2621 51.9787 11.5406C52.1147 11.8191 52.1827 12.1785 52.1827 12.6189V15.1154C52.1827 15.2709 52.1438 15.3939 52.0661 15.4846C51.9884 15.5688 51.875 15.6109 51.7261 15.6109C51.5836 15.6109 51.4703 15.5688 51.3861 15.4846C51.3019 15.3939 51.2598 15.2709 51.2598 15.1154V14.484H51.3472C51.2954 14.7236 51.1983 14.9309 51.0558 15.1057C50.9198 15.2741 50.7482 15.4036 50.541 15.4943C50.3337 15.585 50.0973 15.6303 49.8318 15.6303Z" fill="white"/>
<path d="M55.5546 15.6303C55.166 15.6303 54.839 15.5623 54.5734 15.4263C54.3079 15.2903 54.1104 15.0895 53.9809 14.824C53.8513 14.5585 53.7866 14.2347 53.7866 13.8526V11.56H53.2037C53.0742 11.56 52.9738 11.5276 52.9026 11.4629C52.8314 11.3916 52.7957 11.2977 52.7957 11.1812C52.7957 11.0581 52.8314 10.9642 52.9026 10.8994C52.9738 10.8347 53.0742 10.8023 53.2037 10.8023H53.7866V9.80173C53.7866 9.63982 53.8287 9.51677 53.9129 9.43258C54.0035 9.34839 54.1266 9.3063 54.282 9.3063C54.4374 9.3063 54.5573 9.34839 54.6414 9.43258C54.7256 9.51677 54.7677 9.63982 54.7677 9.80173V10.8023H55.9043C56.0338 10.8023 56.1342 10.8347 56.2054 10.8994C56.2767 10.9642 56.3123 11.0581 56.3123 11.1812C56.3123 11.2977 56.2767 11.3916 56.2054 11.4629C56.1342 11.5276 56.0338 11.56 55.9043 11.56H54.7677V13.7749C54.7677 14.1181 54.839 14.3772 54.9814 14.552C55.1304 14.7269 55.37 14.8143 55.7003 14.8143C55.8169 14.8143 55.9173 14.8046 56.0014 14.7852C56.0921 14.7592 56.1666 14.7431 56.2249 14.7366C56.2961 14.7366 56.3544 14.7625 56.3997 14.8143C56.4451 14.8596 56.4677 14.9503 56.4677 15.0863C56.4677 15.1834 56.4483 15.2741 56.4094 15.3583C56.3771 15.4425 56.3155 15.4975 56.2249 15.5234C56.1472 15.5493 56.0403 15.572 55.9043 15.5914C55.7748 15.6173 55.6582 15.6303 55.5546 15.6303Z" fill="white"/>
</svg>
