<svg width="16" height="14" viewBox="0 0 16 14" fill="none" xmlns="http://www.w3.org/2000/svg">
<path d="M14.8157 5.34926C14.2411 4.40827 13.5162 3.56775 12.6699 2.86103L14.4522 1.07874C14.6964 0.825869 14.6894 0.422911 14.4365 0.17869C14.1899 -0.0595634 13.7988 -0.0595634 13.5521 0.17869L11.6139 2.11948C10.4123 1.40581 9.03872 1.03385 7.64126 1.04374C3.70045 1.04374 1.45475 3.74139 0.466855 5.34929C-0.155618 6.3561 -0.155618 7.62825 0.466855 8.6351C1.04149 9.57608 1.76634 10.4166 2.61263 11.1233L0.830337 12.9056C0.577463 13.1498 0.570451 13.5528 0.814672 13.8057C1.05889 14.0585 1.46188 14.0655 1.71472 13.8213C1.72004 13.8162 1.72526 13.811 1.73039 13.8057L3.67309 11.863C4.87313 12.5765 6.24512 12.9491 7.64126 12.9406C11.5821 12.9406 13.8278 10.243 14.8157 8.63507C15.4382 7.62825 15.4382 6.3561 14.8157 5.34926ZM3.82207 6.99218C3.81846 4.88638 5.52258 3.17639 7.62837 3.17278C8.42513 3.17141 9.2023 3.41968 9.8507 3.88271L8.92645 4.80696C8.53845 4.57296 8.09438 4.44826 7.64129 4.44604C6.2351 4.44604 5.09515 5.58599 5.09515 6.99218C5.09737 7.44527 5.22207 7.88934 5.45607 8.27734L4.53182 9.20159C4.07029 8.55732 3.8221 7.7847 3.82207 6.99218ZM7.64129 10.8114C6.84876 10.8114 6.07614 10.5632 5.43187 10.1016L6.35612 9.17739C6.74413 9.41139 7.18819 9.53609 7.64129 9.53831C9.04747 9.53831 10.1874 8.39836 10.1874 6.99218C10.1852 6.53908 10.0605 6.09502 9.82651 5.70701L10.7508 4.78276C11.9745 6.49645 11.5773 8.87774 9.86362 10.1015C9.21521 10.5645 8.43805 10.8128 7.64129 10.8114Z" fill="white" fill-opacity="0.25"/>
</svg>
