<svg width="21" height="20" viewBox="0 0 21 20" fill="none" xmlns="http://www.w3.org/2000/svg">
<path d="M17.6129 3.47395C17.4514 3.32997 17.2409 3.25329 17.0246 3.25964C16.8083 3.266 16.6027 3.35492 16.4499 3.50814C16.2971 3.66136 16.2087 3.86726 16.203 4.08357C16.1973 4.29988 16.2745 4.51018 16.419 4.67129C17.8299 6.08581 18.6222 8.00215 18.6222 10C18.6222 11.9979 17.8299 13.9143 16.419 15.3288C16.333 15.4054 16.2635 15.4988 16.2149 15.6032C16.1662 15.7076 16.1394 15.8209 16.136 15.936C16.1326 16.0512 16.1528 16.1658 16.1952 16.2729C16.2376 16.3799 16.3015 16.4772 16.3828 16.5588C16.4642 16.6404 16.5613 16.7045 16.6682 16.7472C16.7752 16.79 16.8898 16.8104 17.0049 16.8074C17.1201 16.8043 17.2334 16.7778 17.3379 16.7294C17.4425 16.6811 17.536 16.6119 17.6129 16.5261C19.3413 14.794 20.312 12.447 20.312 10C20.312 7.55309 19.3413 5.20606 17.6129 3.47395Z" fill="#F5F5F5"/>
<path d="M15.3207 6.01423C15.2426 5.93336 15.1491 5.86885 15.0458 5.82447C14.9425 5.78009 14.8314 5.75673 14.719 5.75575C14.6065 5.75478 14.495 5.7762 14.391 5.81878C14.2869 5.86135 14.1924 5.92423 14.1129 6.00374C14.0334 6.08324 13.9705 6.17779 13.9279 6.28185C13.8853 6.38592 13.8639 6.49742 13.8649 6.60985C13.8659 6.72229 13.8892 6.8334 13.9336 6.93671C13.978 7.04002 14.0425 7.13346 14.1234 7.21157C14.8614 7.95188 15.2759 8.95462 15.2759 10C15.2759 11.0454 14.8614 12.0481 14.1234 12.7884C14.0425 12.8665 13.978 12.96 13.9336 13.0633C13.8892 13.1666 13.8659 13.2777 13.8649 13.3901C13.8639 13.5026 13.8853 13.6141 13.9279 13.7181C13.9705 13.8222 14.0334 13.9168 14.1129 13.9963C14.1924 14.0758 14.2869 14.1386 14.391 14.1812C14.495 14.2238 14.6065 14.2452 14.719 14.2442C14.8314 14.2433 14.9425 14.2199 15.0458 14.1755C15.1491 14.1312 15.2426 14.0666 15.3207 13.9858C16.3761 12.9278 16.9687 11.4944 16.9687 10C16.9687 8.50562 16.3761 7.07223 15.3207 6.01423ZM11.7016 0.0139861C9.12868 0.496923 6.83965 1.94988 5.30758 4.07258H4.23387C3.11139 4.07392 2.03527 4.52042 1.24156 5.31414C0.447844 6.10785 0.00134456 7.18397 0 8.30645L0 11.6935C0.00134456 12.816 0.447844 13.8922 1.24156 14.6859C2.03527 15.4796 3.11139 15.9261 4.23387 15.9274H5.30843C6.84005 18.0502 9.12885 19.5032 11.7016 19.986C11.8237 20.0085 11.9492 20.0038 12.0693 19.9724C12.1894 19.9409 12.3011 19.8835 12.3966 19.8041C12.492 19.7246 12.5688 19.6252 12.6215 19.5128C12.6742 19.4004 12.7016 19.2778 12.7016 19.1536V0.846366C12.7016 0.722218 12.6742 0.599601 12.6215 0.487202C12.5688 0.374803 12.492 0.27537 12.3966 0.195948C12.3011 0.116526 12.1894 0.0590572 12.0693 0.0276122C11.9492 -0.00383285 11.8237 -0.00848471 11.7016 0.0139861Z" fill="#F5F5F5"/>
</svg>
