<svg width="22" height="22" viewBox="0 0 22 22" fill="none" xmlns="http://www.w3.org/2000/svg">
<path d="M7.72609 17.248L4.44394 19.0383C4.25516 19.1435 4.07851 19.2692 3.91719 19.4131C5.89735 21.0868 8.4072 22.0035 10.9999 22C13.6789 22 16.1334 21.0411 18.0416 19.4496C17.8649 19.2977 17.6706 19.1675 17.4629 19.0619L13.9483 17.3048C13.7257 17.1935 13.5385 17.0224 13.4076 16.8107C13.2767 16.5989 13.2074 16.3549 13.2074 16.106V14.7271C13.3062 14.6146 13.4191 14.4702 13.5399 14.2996C14.0141 13.6256 14.3825 12.8832 14.6324 12.0979C15.0832 11.9588 15.4153 11.5425 15.4153 11.0477V9.57579C15.4153 9.25202 15.2712 8.9627 15.0475 8.76013V6.63236C15.0475 6.63236 15.4846 3.32116 11.0003 3.32116C6.51609 3.32116 6.95318 6.63236 6.95318 6.63236V8.76013C6.83803 8.86263 6.74577 8.98824 6.6824 9.12878C6.61904 9.26932 6.58599 9.42163 6.58541 9.57579V11.0477C6.58541 11.4354 6.78922 11.7766 7.09432 11.9738C7.46209 13.5748 8.4251 14.7271 8.4251 14.7271V16.072C8.42479 16.3127 8.35974 16.5489 8.23675 16.7558C8.11376 16.9627 7.93738 17.1327 7.72609 17.248Z" fill="white"/>
<path d="M11.188 0.00163803C5.11393 -0.102135 0.105412 4.73785 0.00163911 10.8119C-0.0573042 14.2559 1.47771 17.3513 3.92178 19.4097C4.08159 19.2673 4.25656 19.1429 4.44355 19.0386L7.7257 17.2484C7.93709 17.133 8.11352 16.9629 8.23645 16.7558C8.35938 16.5487 8.42427 16.3124 8.4243 16.0716V14.7267C8.4243 14.7267 7.46087 13.5744 7.09351 11.9733C6.93803 11.8738 6.80999 11.7369 6.72108 11.5751C6.63218 11.4134 6.58526 11.2319 6.58461 11.0473V9.57535C6.58461 9.25158 6.72864 8.96226 6.95238 8.75969V6.63192C6.95238 6.63192 6.51528 3.32072 10.9995 3.32072C15.4838 3.32072 15.0467 6.63192 15.0467 6.63192V8.75969C15.2709 8.96226 15.4145 9.25158 15.4145 9.57535V11.0473C15.4145 11.5421 15.0824 11.9584 14.6316 12.0975C14.3817 12.8827 14.0133 13.6252 13.5391 14.2991C13.4183 14.4697 13.3054 14.6142 13.2066 14.7267V16.1056C13.2066 16.6133 13.4934 17.0777 13.9475 17.3044L17.4621 19.0615C17.6691 19.1671 17.8628 19.2969 18.0391 19.4483C20.4093 17.4717 21.9406 14.5162 21.9974 11.188C22.102 5.11393 17.2625 0.105411 11.188 0.00163803Z" fill="#14424E"/>
</svg>
