<svg width="62" height="55" viewBox="0 0 62 55" fill="none" xmlns="http://www.w3.org/2000/svg">
<path d="M51.7484 54.2744C61.7616 47.9149 52.3116 43.8017 57.5862 32.8769C64.5927 18.3639 63.3338 0.018701 39.8383 3.37013e-05C24.3714 -0.0123057 3.35038 3.36017 0.68285 16.1204C-3.30373 35.1851 11.4656 54.2744 11.4656 54.2744H51.7484Z" fill="url(#paint0_linear_1_440)"/>
<g style="mix-blend-mode:screen">
<path d="M42.4761 23.8804C42.9573 23.6372 43.5295 23.4955 44.1381 23.4876C44.7027 22.4604 46.0191 21.7768 47.5148 21.7768C48.4127 21.7768 49.2639 22.0311 49.9203 22.4674C50.6508 21.1914 52.3286 20.2997 54.2295 20.2997C55.4782 20.2997 56.6627 20.6763 57.5407 21.3437C57.6663 21.3284 57.7932 21.3205 57.9204 21.3205C59.2808 21.3205 60.3875 22.1665 60.3875 23.2063C60.3856 23.4457 60.3286 23.6797 60.223 23.882L42.4761 23.8804Z" fill="#7A7A7A"/>
</g>
<g style="mix-blend-mode:screen">
<path d="M23.7668 6.45364C24.2136 6.27363 24.6907 6.18063 25.1725 6.17964C25.6502 5.46269 26.7636 4.98431 28.0289 4.98431C28.7882 4.98431 29.5084 5.1618 30.0633 5.46649C30.6812 4.57584 32.1003 3.95349 33.7085 3.95349C34.7646 3.95349 35.7651 4.21642 36.5089 4.6812C36.6152 4.67076 36.7228 4.66538 36.8304 4.66538C37.9808 4.66538 38.9186 5.25577 38.9186 5.98158C38.9169 6.14856 38.8688 6.31177 38.7797 6.45301L23.7668 6.45364Z" fill="#7A7A7A"/>
</g>
<g style="mix-blend-mode:screen">
<path d="M7.84742 31.0446C8.20013 30.8016 8.61978 30.6601 9.06616 30.6522C9.4801 29.6258 10.4455 28.9405 11.5425 28.9405C12.2009 28.9405 12.825 29.1948 13.3065 29.631C13.8422 28.3556 15.0726 27.4642 16.4666 27.4642C17.3824 27.4642 18.2509 27.8416 18.8947 28.5076C18.987 28.4925 19.0798 28.4849 19.1732 28.4846C20.1708 28.4846 20.9824 29.3303 20.9824 30.3714C20.9811 30.6106 20.9393 30.8445 20.8618 31.0465L7.84742 31.0446Z" fill="#7A7A7A"/>
</g>
<g style="mix-blend-mode:screen">
<path d="M47.2524 42.9865C47.499 42.9006 47.7623 42.8561 48.0281 42.8556C48.2916 42.5136 48.9057 42.2851 49.6038 42.2851C50.0229 42.2851 50.4201 42.3699 50.7264 42.5152C51.0674 42.09 51.8503 41.7933 52.7373 41.7933C53.3202 41.7933 53.873 41.9191 54.2827 42.1412C54.3415 42.1361 54.4006 42.1335 54.4597 42.1335C55.0946 42.1335 55.6111 42.4155 55.6111 42.7623C55.6102 42.842 55.5837 42.92 55.5344 42.9874L47.2524 42.9865Z" fill="#7A7A7A"/>
</g>
<path d="M59.9503 55L6.18472 55C5.78404 55 5.45923 54.6752 5.45923 54.2745C5.45923 53.8738 5.78404 53.549 6.18472 53.549L59.9503 53.549C60.351 53.549 60.6758 53.8738 60.6758 54.2745C60.6758 54.6752 60.351 55 59.9503 55Z" fill="#565C82"/>
<path d="M29.2963 27.124C29.2963 27.124 29.6178 29.1284 30.4401 29.4818C30.9896 29.7181 31.425 30.5208 33.8312 30.4228L33.9429 31.9579C33.9429 31.9579 29.2963 32.2914 28.2456 31.8336C26.7721 31.1916 29.2963 27.124 29.2963 27.124Z" fill="#FFE354"/>
<path d="M21.3953 34.2476C21.2433 34.2833 21.0858 34.2887 20.9318 34.2634C20.7777 34.2382 20.6302 34.1829 20.4975 34.1006C20.3648 34.0183 20.2497 33.9107 20.1586 33.784C20.0676 33.6572 20.0024 33.5137 19.9668 33.3617L18.8388 28.5475C18.7669 28.2406 18.8198 27.9176 18.9859 27.6498C19.1521 27.3819 19.4178 27.1909 19.7247 27.1189C20.0316 27.0471 20.3545 27.1001 20.6224 27.2662C20.8902 27.4323 21.0812 27.698 21.1532 28.0048L22.2812 32.8188C22.3169 32.9708 22.3222 33.1283 22.297 33.2824C22.2718 33.4364 22.2165 33.584 22.1342 33.7167C22.0519 33.8494 21.9443 33.9646 21.8175 34.0557C21.6908 34.1468 21.5473 34.212 21.3953 34.2476Z" fill="#288397"/>
<path d="M21.3953 34.2476C21.2433 34.2833 21.0858 34.2887 20.9318 34.2634C20.7777 34.2382 20.6302 34.1829 20.4975 34.1006C20.3648 34.0183 20.2497 33.9107 20.1586 33.784C20.0676 33.6572 20.0024 33.5137 19.9668 33.3617L18.8388 28.5475C18.7669 28.2406 18.8198 27.9176 18.9859 27.6498C19.1521 27.3819 19.4178 27.1909 19.7247 27.1189C20.0316 27.0471 20.3545 27.1001 20.6224 27.2662C20.8902 27.4323 21.0812 27.698 21.1532 28.0048L22.2812 32.8188C22.3169 32.9708 22.3222 33.1283 22.297 33.2824C22.2718 33.4364 22.2165 33.584 22.1342 33.7167C22.0519 33.8494 21.9443 33.9646 21.8175 34.0557C21.6908 34.1468 21.5473 34.212 21.3953 34.2476Z" fill="#288397"/>
<path d="M21.3953 34.2476C21.2433 34.2833 21.0858 34.2887 20.9318 34.2634C20.7777 34.2382 20.6302 34.1829 20.4975 34.1006C20.3648 34.0183 20.2497 33.9107 20.1586 33.784C20.0676 33.6572 20.0024 33.5137 19.9668 33.3617L18.8388 28.5475C18.7669 28.2406 18.8198 27.9176 18.9859 27.6498C19.1521 27.3819 19.4178 27.1909 19.7247 27.1189C20.0316 27.0471 20.3545 27.1001 20.6224 27.2662C20.8902 27.4323 21.0812 27.698 21.1532 28.0048L22.2812 32.8188C22.3169 32.9708 22.3222 33.1283 22.297 33.2824C22.2718 33.4364 22.2165 33.584 22.1342 33.7167C22.0519 33.8494 21.9443 33.9646 21.8175 34.0557C21.6908 34.1468 21.5473 34.212 21.3953 34.2476Z" fill="white"/>
<path d="M22.2815 32.8192L21.1535 28.0053C21.1148 27.8396 21.041 27.6842 20.9369 27.5496C20.8329 27.4149 20.7012 27.3042 20.5506 27.225C20.4001 27.1458 20.2343 27.0998 20.0644 27.0902C19.8946 27.0807 19.7246 27.1078 19.5662 27.1697C19.8513 27.1437 20.1361 27.2216 20.3683 27.3891C20.6005 27.5565 20.7644 27.8022 20.8298 28.0809L21.9578 32.8951C22.023 33.174 21.9853 33.467 21.8516 33.7203C21.7179 33.9736 21.4972 34.17 21.2301 34.2734C21.4 34.2592 21.5649 34.2084 21.7134 34.1245C21.8618 34.0406 21.9904 33.9256 22.0903 33.7873C22.1901 33.6491 22.2589 33.4909 22.2918 33.3235C22.3248 33.1562 22.3211 32.9837 22.2811 32.8179L22.2815 32.8192Z" fill="#C6D4D6"/>
<path d="M19.8353 32.877L19.3117 32.6831L18.5504 29.4346L18.9428 29.0676L19.8353 32.877Z" fill="#0A2126"/>
<path d="M17.611 40.6948C16.8299 39.509 19.0443 36.4552 19.219 34.9225C19.4256 33.1083 19.225 32.2477 19.2231 32.2392L19.5876 32.1497C19.5967 32.1864 19.8075 33.0729 19.592 34.9656C19.3705 36.8956 16.3274 40.8154 18.7444 40.7724C21.4825 40.7217 23.0157 40.7724 23.0325 40.7724L23.0198 41.1476C23.0046 41.1476 21.4783 41.0973 18.7513 41.1476C18.3122 41.1558 17.8537 41.0625 17.611 40.6948Z" fill="#0A2126"/>
<path d="M30.325 41.8294H22.8382L22.4443 40.891H30.7651L30.325 41.8294Z" fill="#0A2126"/>
<path d="M27.5489 44.9681H25.7413V41.3603H27.5489V44.9681Z" fill="#0A2126"/>
<path d="M27.0982 50.891H26.1918V44.9402H27.0982V50.891Z" fill="#EDF7F9"/>
<path d="M27.3082 52.3369H25.9734V51.1966V50.2791H27.3082V52.3369Z" fill="#0A2126"/>
<path d="M21.0519 53.6993L25.9734 51.1967V52.3369L22.4443 53.6993V53.9496H21.0519V53.6993Z" fill="#0A2126"/>
<path d="M32.2292 53.6989V53.9495H30.8368V53.6989L27.309 52.3369V51.1969L32.2292 53.6989Z" fill="#0A2126"/>
<path d="M27.3088 53.9495V54.1435H25.8613V53.9495H26.192V51.1969H27.0981L27.0032 53.9495H27.3088Z" fill="#0A2126"/>
<path opacity="0.39" d="M27.098 51.1969L27.0031 53.9495H26.6459L26.3437 51.1969H27.098Z" fill="#9CAAAD"/>
<path opacity="0.39" d="M32.2292 53.6989V53.7065L27.309 51.7819V51.1969L32.2292 53.6989Z" fill="#9CAAAD"/>
<path d="M30.7904 40.8911H22.1674C21.9389 40.8911 21.7198 40.8003 21.5582 40.6387C21.3966 40.4771 21.3059 40.258 21.3059 40.0295C21.3059 39.801 21.3966 39.5819 21.5582 39.4203C21.7198 39.2587 21.9389 39.168 22.1674 39.168H30.7904C31.0189 39.168 31.2381 39.2587 31.3996 39.4203C31.5612 39.5819 31.652 39.801 31.652 40.0295C31.652 40.258 31.5612 40.4771 31.3996 40.6387C31.2381 40.8003 31.0189 40.8911 30.7904 40.8911Z" fill="white"/>
<path d="M30.7712 39.168H22.1675C22.0497 39.1681 21.9332 39.1925 21.8253 39.2397C21.7174 39.2869 21.6204 39.3559 21.5404 39.4423C21.6495 39.4404 28.029 39.4423 30.1739 39.4423C30.9285 39.4423 31.3151 40.3424 30.801 40.8911C31.0251 40.8885 31.2394 40.7986 31.3983 40.6405C31.5572 40.4824 31.6481 40.2685 31.6517 40.0444C31.1708 40.0536 30.7744 39.6508 30.7712 39.168Z" fill="#C6D4D6"/>
<path d="M29.7785 35.3665C29.7785 35.3665 38.0262 36.0337 38.0262 38.4769C38.0262 40.4886 34.314 48.6126 33.6284 51.7386C33.5018 52.3205 34.2729 53.1732 34.2352 53.2681C34.0558 53.7174 33.0933 53.0782 33.0933 53.0782L32.352 50.8318C32.352 50.8318 35.1879 40.2892 34.3247 39.4261C33.4616 38.563 25.1325 36.7792 25.1325 36.7792L29.7785 35.3665Z" fill="#E76A53"/>
<g style="mix-blend-mode:multiply" opacity="0.68">
<path d="M35.6946 38.5323C35.0156 36.4963 28.802 36.0609 28.802 36.0609L26.1442 36.4722L25.1318 36.7804C25.1318 36.7804 33.4605 38.5639 34.324 39.4274C34.8644 39.9681 33.9544 44.3046 33.1986 47.4711C34.4218 43.9202 36.0778 39.6824 35.6946 38.5323Z" fill="#FF7F4C"/>
</g>
<path d="M32.4017 50.7983C32.4017 50.7983 32.2248 50.6835 31.9786 51.0515C31.7325 51.4194 31.8388 53.4978 31.8388 53.4978L32.2283 53.5842C32.2283 53.5842 32.24 52.0601 32.3301 52.0772C32.4203 52.0943 32.5735 53.6763 32.7826 53.7781C32.9917 53.88 34.4225 54.2489 34.6908 54.0657C34.9591 53.8826 34.2345 53.2672 34.2345 53.2672C34.2345 53.2672 33.4878 53.227 33.4119 53.1137C33.336 53.0004 32.4017 50.7983 32.4017 50.7983Z" fill="#09434C"/>
<path d="M22.2186 36.8504C22.2186 36.8504 21.9692 37.9894 22.6596 38.6804C23.35 39.3714 31.0362 39.0044 31.4139 40.0305C32.0856 41.8535 30.3167 50.798 30.3167 50.798L31.0805 53.0286C31.0805 53.0286 32.1246 53.7322 32.2195 53.4684C32.266 53.3418 31.4867 52.3445 31.5778 51.5466C31.9176 48.5706 35.8343 40.0751 35.2654 38.3691C34.5867 36.3331 28.3731 35.8977 28.3731 35.8977L22.2186 36.8504Z" fill="#FFA283"/>
<path d="M22.2187 37.229C22.2187 37.229 21.9754 38.368 22.4317 38.8252C22.8879 39.2824 31.4141 40.0307 31.4141 40.0307C31.4141 40.0307 31.1294 38.63 32.7911 38.0108C34.4528 37.3916 36.1708 37.1844 37.4781 37.4511C37.4781 37.4511 37.2216 36.619 34.7458 35.8979C32.27 35.1769 29.5446 35.1443 29.5446 35.1443L22.2187 37.229Z" fill="#0001E4"/>
<path d="M24.9616 15.3453C25.2217 15.3997 27.5687 15.4263 27.5687 17.1333C27.5687 18.8402 27.5348 19.5192 27.9759 20.2656C28.4169 21.0119 27.6823 22.8236 27.1324 22.8284C26.5825 22.8331 26.5369 24.8118 26.5369 24.8118C26.5369 24.8118 23.3616 26.2356 22.4795 25.8639C22.258 25.7705 22.0087 25.7534 21.7571 25.7806C20.1983 25.9483 19.1054 24.1885 20.1033 22.979C20.1454 22.9277 20.1907 22.8777 20.2397 22.8287C21.5898 21.4789 21.4275 21.5881 21.4275 20.0612C21.4275 18.5343 21.6989 18.9753 22.345 18.059C22.9911 17.1428 23.3679 15.0109 24.9616 15.3453Z" fill="#160862"/>
<path d="M26.9295 22.8521C27.4041 23.3267 30.2517 25.8521 29.6758 27.4113C28.4004 30.874 30.6212 34.8121 30.6212 35.3551C30.6212 35.898 23.8425 37.7302 22.3494 37.7302C20.8563 37.7302 24.1449 32.9615 23.5343 31.3327C22.9236 29.7039 22.1105 23.1729 22.6209 22.6635C22.96 22.3247 26.8343 22.7572 26.9295 22.8521Z" fill="#FCC332"/>
<g style="mix-blend-mode:multiply" opacity="0.29">
<path d="M23.5343 31.3328L23.5229 31.3011L29.2961 32.8771C29.2961 32.8771 28.1422 35.2972 22.5478 35.2972C23.1189 33.8668 23.851 32.1776 23.5343 31.3328Z" fill="#A5375C"/>
</g>
<path d="M25.8047 19.7676L26.0651 22.8568C26.0651 22.8568 27.8116 26.54 26.976 26.8456C26.1404 27.1513 24.231 22.9983 24.231 22.9983V19.0433L25.8047 19.7676Z" fill="#FFA283"/>
<g style="mix-blend-mode:multiply" opacity="0.68">
<path d="M24.2309 19.0439V21.0448C24.7504 21.832 25.4857 22.3829 26.0261 22.3968L25.8046 19.7675L24.2309 19.0439Z" fill="#FF7F4C"/>
</g>
<path d="M25.8048 16.1935C25.8048 16.1935 26.7224 15.7863 27.0264 17.6173C27.3305 19.4483 27.0748 21.3979 26.1699 21.5336C25.265 21.6693 23.5992 20.2142 23.5992 18.7031C23.5992 17.4059 25.0806 16.0005 25.8048 16.1935Z" fill="#FFA283"/>
<path d="M30.372 50.6423C30.372 50.6423 30.1784 50.5157 29.9091 50.9204C29.6399 51.3251 29.756 53.5977 29.756 53.5977L30.1822 53.6926C30.1822 53.6926 30.1952 52.0249 30.2939 52.0436C30.3926 52.0623 30.56 53.7939 30.7887 53.9053C31.0175 54.0166 32.5836 54.4203 32.8769 54.2217C33.1702 54.023 32.3773 53.3478 32.3773 53.3478C32.3773 53.3478 31.5607 53.3038 31.4759 53.1798C31.3911 53.0557 30.372 50.6423 30.372 50.6423Z" fill="#09434C"/>
<path d="M33.5223 30.6019C33.5223 30.6019 33.5932 30.4215 33.8324 30.4215C34.0716 30.4215 34.2981 30.474 34.6034 30.5117C34.9087 30.5493 36.3379 31.72 35.5883 31.9567H33.5223C33.5223 31.9567 33.0952 31.0303 33.5223 30.6019Z" fill="#E76A53"/>
<path d="M29.1011 31.228C29.1011 31.228 30.2271 31.2046 30.6887 30.8625C31.1503 30.5205 31.4829 30.3136 32.1271 30.4772C32.7712 30.6408 32.9161 30.7426 33.0813 30.9518C33.2465 31.1609 33.6255 31.8351 33.3284 31.9959C33.0313 32.1566 30.7469 32.2408 30.6647 32.2031C30.5824 32.1655 28.7489 32.4831 28.7489 32.4831L29.1011 31.228Z" fill="#FFA283"/>
<path d="M21.8143 32.2809C23.1852 34.2179 27.6262 33.221 29.2974 32.877C29.2974 32.877 29.1638 31.9253 29.2686 31.1172C29.3002 30.8793 25.2216 31.0245 24.6252 30.6803C24.0288 30.3361 22.7287 22.8397 22.7287 22.8397C22.7287 22.8397 21.8304 23.2194 21.4141 24.5318C20.5772 27.1737 20.7281 30.7471 21.8143 32.2809Z" fill="#FFE354"/>
<path d="M21.0143 25.7221C20.6376 25.607 20.3078 25.3741 20.0733 25.0577C19.5889 24.4078 19.5858 23.4928 20.2397 22.8385C21.5898 21.4887 21.4275 21.5979 21.4275 20.071C21.4275 18.5441 21.274 18.1846 21.9188 17.2684C22.5637 16.3521 23.3679 15.0197 24.9622 15.3542C24.9828 15.3586 25.0167 15.3627 25.061 15.3675C25.0926 15.3754 26.7983 15.382 26.4866 16.3483C26.4866 16.3483 26.0728 16.1442 25.788 16.5935C25.2571 17.4304 25.2451 17.6964 24.6341 17.9679C24.0232 18.2394 24.2595 19.2911 24.2595 19.9868C24.2595 20.5196 24.1842 21.0512 24.1982 21.5843C24.2143 22.1911 25.3742 26.4144 21.9562 25.7901C21.6423 25.7322 21.3278 25.8145 21.0143 25.7221Z" fill="#003C8E"/>
<path d="M50.9662 31.958H30.6018C30.3325 31.958 30.0742 32.0649 29.8838 32.2553C29.6934 32.4457 29.5864 32.704 29.5864 32.9733V33.5668H50.9662V31.9576V31.958Z" fill="white"/>
<path d="M39.8843 33.5668H49.6188V54.0011H39.8843V33.5668Z" fill="#002F69"/>
<path d="M39.8843 54.0011V35.8818H41.1027C44.4334 35.8818 47.1335 38.5819 47.1335 41.9126V54.0011H39.8843Z" fill="#002799"/>
<path d="M33.0144 29.7317L43.3757 29.4831L45.3864 23.5592L35.169 23.3839L33.0144 29.7317Z" fill="#003F8C"/>
<path d="M43.3757 29.4834L33.0147 29.7318L33.1944 29.2018C34.5103 29.1313 37.2942 28.85 39.8494 27.7366C42.0765 26.7662 43.7117 24.8859 44.6061 23.5463L45.3864 23.5596L43.3757 29.4834Z" fill="#002F69"/>
<path d="M39.176 26.6029C40.178 27.5885 40.8953 29.153 40.7605 31.209L42.2662 30.9843C41.8549 28.6402 40.6431 27.0563 39.3684 26.264L39.176 26.6029Z" fill="#0064B8"/>
<path d="M37.4455 31.8833H43.2915V30.8116H38.5171C38.2329 30.8116 37.9603 30.9245 37.7593 31.1255C37.5584 31.3265 37.4455 31.5991 37.4455 31.8833Z" fill="#003F8C"/>
<path d="M37.7981 31.8833H43.6442V30.8116H38.8698C38.729 30.8116 38.5897 30.8393 38.4596 30.8931C38.3296 30.947 38.2114 31.0259 38.1119 31.1254C38.0124 31.2249 37.9335 31.3431 37.8796 31.4731C37.8258 31.6032 37.7981 31.7425 37.7981 31.8833Z" fill="#002F69"/>
<path d="M40.1799 7.03041V11.5381C40.1799 11.6906 40.2405 11.8369 40.3484 11.9448C40.4563 12.0527 40.6026 12.1133 40.7551 12.1133H51.5223L54.4857 14.4749L54.1449 12.1133C54.2205 12.1133 54.2953 12.0985 54.3652 12.0696C54.435 12.0407 54.4984 11.9983 54.5519 11.9449C54.6053 11.8915 54.6477 11.8281 54.6766 11.7583C54.7056 11.6885 54.7205 11.6136 54.7205 11.5381V7.03041C54.7205 6.95484 54.7056 6.88002 54.6766 6.81021C54.6477 6.7404 54.6053 6.67698 54.5519 6.62356C54.4984 6.57015 54.435 6.52778 54.3652 6.49889C54.2953 6.47001 54.2205 6.45516 54.1449 6.4552H40.7551C40.6026 6.4552 40.4563 6.5158 40.3484 6.62367C40.2405 6.73155 40.1799 6.87785 40.1799 7.03041Z" fill="white"/>
<path d="M41.8513 8.16248H48.8493C48.9351 8.16248 49.0175 8.12838 49.0782 8.06768C49.1389 8.00698 49.173 7.92465 49.173 7.83881C49.173 7.75296 49.1389 7.67064 49.0782 7.60994C49.0175 7.54924 48.9351 7.51514 48.8493 7.51514H41.8513C41.7654 7.51514 41.6831 7.54924 41.6224 7.60994C41.5617 7.67064 41.5276 7.75296 41.5276 7.83881C41.5276 7.92465 41.5617 8.00698 41.6224 8.06768C41.6831 8.12838 41.7654 8.16248 41.8513 8.16248Z" fill="#B0F3FF"/>
<path d="M41.8513 9.13318H48.8493C48.9351 9.13318 49.0175 9.09908 49.0782 9.03838C49.1389 8.97768 49.173 8.89536 49.173 8.80951C49.173 8.72367 49.1389 8.64134 49.0782 8.58064C49.0175 8.51994 48.9351 8.48584 48.8493 8.48584H41.8513C41.7654 8.48584 41.6831 8.51994 41.6224 8.58064C41.5617 8.64134 41.5276 8.72367 41.5276 8.80951C41.5276 8.89536 41.5617 8.97768 41.6224 9.03838C41.6831 9.09908 41.7654 9.13318 41.8513 9.13318Z" fill="#B0F3FF"/>
<path d="M44.227 10.189H48.7739C48.8597 10.189 48.942 10.1549 49.0027 10.0942C49.0634 10.0335 49.0975 9.95119 49.0975 9.86535C49.0975 9.77956 49.0633 9.69731 49.0026 9.63668C48.9419 9.57605 48.8597 9.54199 48.7739 9.54199H44.227C44.1412 9.54199 44.0589 9.57605 43.9982 9.63668C43.9375 9.69731 43.9034 9.77956 43.9033 9.86535C43.9033 9.95119 43.9374 10.0335 43.9981 10.0942C44.0588 10.1549 44.1411 10.189 44.227 10.189Z" fill="#B0F3FF"/>
<path d="M51.6933 11.2173C50.6246 11.1875 49.7825 10.297 49.8124 9.22834C49.8422 8.1597 50.7327 7.31759 51.8014 7.34744C52.87 7.37729 53.7121 8.2678 53.6823 9.33644C53.6524 10.4051 52.7619 11.2472 51.6933 11.2173Z" fill="#B0F3FF"/>
<path d="M51.7483 10.9426C52.0764 10.9426 52.3972 10.8453 52.6701 10.663C52.9429 10.4807 53.1556 10.2216 53.2812 9.91838C53.4068 9.61521 53.4396 9.2816 53.3756 8.95975C53.3116 8.63791 53.1535 8.34227 52.9215 8.11023C52.6895 7.87819 52.3938 7.72017 52.072 7.65615C51.7501 7.59213 51.4165 7.62499 51.1134 7.75057C50.8102 7.87614 50.5511 8.0888 50.3687 8.36165C50.1864 8.6345 50.0891 8.95529 50.0891 9.28344C50.0896 9.72333 50.2646 10.1451 50.5756 10.4561C50.8867 10.7671 51.3084 10.9421 51.7483 10.9426Z" fill="white"/>
<path d="M51.2222 8.67564C51.2222 8.98539 51.4576 9.23629 51.7484 9.23629C52.0391 9.23629 52.2745 8.98539 52.2745 8.67564C52.2745 8.36589 52.0388 8.11499 51.7484 8.11499C51.4579 8.11499 51.2222 8.36494 51.2222 8.67564Z" fill="#009AF3"/>
<path d="M51.7485 9.51379C51.9135 9.51388 52.0717 9.57948 52.1883 9.69619C52.305 9.81289 52.3705 9.97114 52.3705 10.1361V10.6205C52.1756 10.7112 51.9632 10.7582 51.7483 10.7582C51.5333 10.7582 51.321 10.7112 51.1261 10.6205V10.1361C51.1261 9.97109 51.1917 9.81279 51.3084 9.69608C51.4251 9.57936 51.5834 9.51379 51.7485 9.51379Z" fill="#009AF3"/>
<path d="M51.7483 9.42174C51.6973 9.42178 51.6464 9.42719 51.5965 9.43788V9.30847C51.6959 9.33505 51.8005 9.33505 51.8999 9.30847V9.43851C51.8501 9.4276 51.7993 9.42198 51.7483 9.42174Z" fill="#009AF3"/>
<path d="M47.109 14.0981V18.6074C47.109 18.7599 47.0484 18.9062 46.9405 19.0141C46.8327 19.122 46.6864 19.1826 46.5338 19.1826H35.7659L32.8026 21.5441L33.1433 19.1826C33.0678 19.1826 32.9929 19.1678 32.9231 19.1389C32.8533 19.11 32.7899 19.0676 32.7364 19.0142C32.683 18.9608 32.6406 18.8974 32.6116 18.8276C32.5827 18.7578 32.5678 18.6829 32.5678 18.6074V14.0981C32.5678 14.0225 32.5827 13.9477 32.6116 13.8779C32.6406 13.808 32.6829 13.7446 32.7364 13.6911C32.7898 13.6377 32.8533 13.5953 32.9231 13.5664C32.9929 13.5375 33.0678 13.5226 33.1433 13.5226H46.5332C46.6088 13.5225 46.6836 13.5374 46.7535 13.5663C46.8234 13.5952 46.8869 13.6376 46.9403 13.691C46.9938 13.7445 47.0362 13.8079 47.0652 13.8778C47.0941 13.9476 47.109 14.0225 47.109 14.0981Z" fill="white"/>
<path d="M34.1785 15.2314H41.1781C41.2205 15.2314 41.2625 15.2231 41.3018 15.2069C41.341 15.1907 41.3766 15.1669 41.4066 15.137C41.4367 15.107 41.4605 15.0714 41.4768 15.0322C41.493 14.9931 41.5014 14.9511 41.5015 14.9086C41.5015 14.8661 41.4932 14.8241 41.4769 14.7848C41.4607 14.7455 41.4369 14.7098 41.4069 14.6798C41.3768 14.6497 41.3412 14.6259 41.3019 14.6096C41.2627 14.5933 41.2206 14.585 41.1781 14.585H34.1785C34.136 14.585 34.0939 14.5933 34.0547 14.6096C34.0154 14.6259 33.9798 14.6497 33.9497 14.6798C33.9197 14.7098 33.8959 14.7455 33.8797 14.7848C33.8634 14.8241 33.8551 14.8661 33.8552 14.9086C33.8552 14.9511 33.8636 14.9931 33.8799 15.0322C33.8961 15.0714 33.92 15.107 33.95 15.137C33.98 15.1669 34.0157 15.1907 34.0549 15.2069C34.0941 15.2231 34.1361 15.2314 34.1785 15.2314Z" fill="#FE978E"/>
<path d="M34.1785 16.2024H41.1781C41.2206 16.2024 41.2627 16.194 41.3019 16.1778C41.3412 16.1615 41.3768 16.1376 41.4069 16.1076C41.4369 16.0775 41.4607 16.0418 41.4769 16.0026C41.4932 15.9633 41.5015 15.9212 41.5015 15.8787C41.5015 15.8362 41.4932 15.7942 41.4769 15.7549C41.4607 15.7156 41.4369 15.6799 41.4069 15.6499C41.3768 15.6198 41.3412 15.596 41.3019 15.5797C41.2627 15.5634 41.2206 15.5551 41.1781 15.5551H34.1785C34.136 15.5551 34.0939 15.5634 34.0547 15.5797C34.0154 15.596 33.9798 15.6198 33.9497 15.6499C33.9197 15.6799 33.8959 15.7156 33.8797 15.7549C33.8634 15.7942 33.8551 15.8362 33.8552 15.8787C33.8551 15.9212 33.8634 15.9633 33.8797 16.0026C33.8959 16.0418 33.9197 16.0775 33.9497 16.1076C33.9798 16.1376 34.0154 16.1615 34.0547 16.1778C34.0939 16.194 34.136 16.2024 34.1785 16.2024Z" fill="#FE978E"/>
<path d="M37.8388 17.2583H41.1014C41.144 17.2582 41.1861 17.2498 41.2254 17.2335C41.2647 17.2171 41.3004 17.1932 41.3304 17.163C41.3605 17.1329 41.3843 17.0971 41.4005 17.0577C41.4167 17.0184 41.4249 16.9762 41.4248 16.9337C41.4248 16.8479 41.3907 16.7656 41.3301 16.7049C41.2695 16.6442 41.1872 16.6101 41.1014 16.61H37.8388C37.7532 16.6103 37.6712 16.6446 37.6107 16.7052C37.5503 16.7659 37.5164 16.848 37.5164 16.9337C37.5161 17.0194 37.5499 17.1018 37.6104 17.1627C37.6709 17.2236 37.753 17.2579 37.8388 17.2583Z" fill="#FE978E"/>
<path d="M42.1416 16.2891C42.1289 16.6771 42.2331 17.06 42.4408 17.388C42.6485 17.7161 42.95 17.974 43.3062 18.1285C43.6624 18.283 44.0568 18.3267 44.4382 18.2541C44.8196 18.1815 45.1703 17.9959 45.4449 17.7214C45.7194 17.4469 45.9051 17.0962 45.9778 16.7148C46.0504 16.3334 46.0067 15.939 45.8523 15.5828C45.6979 15.2266 45.44 14.925 45.112 14.7173C44.784 14.5095 44.4011 14.4052 44.0131 14.4179C43.5219 14.434 43.0552 14.6363 42.7077 14.9838C42.3602 15.3313 42.1578 15.7979 42.1416 16.2891Z" fill="#FE978E"/>
<path d="M44.0756 18.0118C43.1592 18.0118 42.4164 17.269 42.4164 16.3527C42.4164 15.4363 43.1592 14.6935 44.0756 14.6935C44.9919 14.6935 45.7347 15.4363 45.7347 16.3527C45.7347 17.269 44.9919 18.0118 44.0756 18.0118Z" fill="white"/>
<path d="M44.0754 16.3047C43.7848 16.3047 43.5492 16.0536 43.5492 15.744C43.5492 15.4344 43.7848 15.1833 44.0754 15.1833C44.366 15.1833 44.6016 15.4344 44.6016 15.744C44.6016 16.0536 44.366 16.3047 44.0754 16.3047Z" fill="#C25076"/>
<path d="M44.0754 16.583C44.2405 16.583 44.3988 16.6486 44.5155 16.7653C44.6322 16.882 44.6978 17.0403 44.6978 17.2054V17.6898C44.5029 17.7804 44.2905 17.8274 44.0756 17.8274C43.8606 17.8274 43.6483 17.7804 43.4534 17.6898V17.2054C43.4534 17.0404 43.5189 16.8821 43.6355 16.7654C43.7522 16.6487 43.9104 16.5831 44.0754 16.583Z" fill="#C25076"/>
<path d="M44.0754 16.4906C44.0245 16.4906 43.9737 16.4961 43.9239 16.5067V16.3767C44.0233 16.4033 44.1279 16.4033 44.2273 16.3767V16.5071C44.1774 16.4963 44.1265 16.4908 44.0754 16.4906Z" fill="#C25076"/>
<defs>
<linearGradient id="paint0_linear_1_440" x1="61.3203" y1="27.1373" x2="7.36959" y2="27.1373" gradientUnits="userSpaceOnUse">
<stop stop-color="#4FD0FF"/>
<stop offset="1" stop-color="#8CEBFF"/>
</linearGradient>
</defs>
</svg>
