<svg width="18" height="21" viewBox="0 0 18 21" fill="none" xmlns="http://www.w3.org/2000/svg">
<path d="M16.1052 6.37341H13.5215C12.4767 6.37341 11.6266 5.52337 11.6266 4.47855V1.89422C11.6266 0.846342 10.7785 0 9.73243 0H7.06234C6.0059 0 5.16748 0.857317 5.16748 1.89486V13.5214C5.16748 14.5778 6.0248 15.4163 7.06234 15.4163H16.1052C17.164 15.4163 18.0001 14.5563 18.0001 13.5214V8.26832C18.0001 7.22345 17.15 6.37341 16.1052 6.37341ZM14.0233 8.68855L11.4396 12.5641C11.2117 12.9192 10.664 12.9191 10.4361 12.5641L9.14423 10.6263C8.95945 10.3492 9.03435 9.97479 9.31147 9.79006C9.58854 9.60529 9.96295 9.68019 10.1477 9.9573L10.9378 11.1424L13.0197 8.01954C13.2045 7.74243 13.5789 7.66757 13.856 7.85226C14.1332 8.03703 14.208 8.41148 14.0233 8.68855Z" fill="#19B890"/>
<path d="M1.37762 16.1051V5.23999C0.59375 5.46307 0 6.17984 0 7.06225V18.6888C0 19.7336 0.85004 20.5837 1.89486 20.5837H10.9378C11.8032 20.5837 12.5345 20.0002 12.7603 19.206H4.47855C2.7687 19.2061 1.37762 17.815 1.37762 16.1051Z" fill="#19B890"/>
<path d="M3.96132 13.5214V2.65633C3.17745 2.87945 2.58374 3.5963 2.58374 4.47859V16.1051C2.58374 17.15 3.43378 18 4.4786 18H13.5215C14.387 18 15.1183 17.4165 15.344 16.6224H7.06229C5.35244 16.6224 3.96132 15.2313 3.96132 13.5214ZM12.8327 4.47859C12.8327 4.85838 13.1417 5.16738 13.5215 5.16738H16.1051C16.6707 5.16669 17.2255 5.32163 17.7089 5.61523C17.5244 5.17807 17.2557 4.77629 16.9101 4.43071L13.5694 1.09C13.2239 0.744504 12.8223 0.475831 12.3853 0.291382C12.6786 0.774519 12.8334 1.32904 12.8327 1.89425V4.47859H12.8327Z" fill="#19B890"/>
</svg>
