<svg width="112" height="103" viewBox="0 0 112 103" fill="none" xmlns="http://www.w3.org/2000/svg">
<path d="M55.9999 102.106C86.9278 102.106 112 101.424 112 100.583C112 99.7424 86.9278 99.0607 55.9999 99.0607C25.072 99.0607 0 99.7424 0 100.583C0 101.424 25.072 102.106 55.9999 102.106Z" fill="#D8DFEA" fill-opacity="0.16"/>
<path d="M90.7606 25.757L75.2741 41.392L79.1648 63.6436C79.2256 64.0012 79.1846 64.3688 79.0464 64.7043C78.9082 65.0398 78.6785 65.3296 78.3834 65.5407C78.0884 65.7518 77.7399 65.8757 77.3777 65.8981C77.0156 65.9206 76.6545 65.8407 76.3356 65.6677L56.5332 54.94L36.7308 65.6677C36.412 65.8407 36.0508 65.9206 35.6887 65.8981C35.3266 65.8757 34.9781 65.7518 34.683 65.5407C34.3879 65.3296 34.1582 65.0398 34.02 64.7043C33.8818 64.3688 33.8408 64.0012 33.9016 63.6436L37.7969 41.3965L22.3103 25.757C22.0589 25.5025 21.8831 25.1831 21.8026 24.8344C21.722 24.4858 21.7399 24.1217 21.8541 23.7826C21.9684 23.4435 22.1746 23.1429 22.4497 22.9141C22.7248 22.6853 23.0581 22.5375 23.4123 22.487L44.9599 19.4284L54.8262 1.02937C54.9904 0.71866 55.2362 0.458617 55.5372 0.277234C55.8382 0.0958517 56.1829 0 56.5343 0C56.8858 0 57.2305 0.0958517 57.5315 0.277234C57.8325 0.458617 58.0783 0.71866 58.2425 1.02937L68.1088 19.4284L89.6586 22.487C90.0129 22.5375 90.3461 22.6853 90.6212 22.9141C90.8963 23.1429 91.1025 23.4435 91.2168 23.7826C91.3311 24.1217 91.3489 24.4858 91.2684 24.8344C91.1878 25.1831 91.0121 25.5025 90.7606 25.757Z" fill="#19B890"/>
<path d="M90.7605 25.7571L75.2717 41.3921L79.1647 63.6436C79.2261 64.0012 79.1855 64.3688 79.0477 64.7045C78.9099 65.0401 78.6803 65.3301 78.3853 65.5413C78.0903 65.7525 77.7418 65.8764 77.3797 65.8988C77.0175 65.9211 76.6564 65.841 76.3377 65.6677L56.5331 54.94L36.7307 65.6677C36.4118 65.8407 36.0507 65.9206 35.6885 65.8981C35.3264 65.8757 34.9779 65.7518 34.6829 65.5407C34.3878 65.3296 34.158 65.0398 34.0199 64.7043C33.8817 64.3689 33.8406 64.0013 33.9014 63.6436L35.2733 55.8036C42.695 55.4528 69.5525 51.9601 72.0039 19.9794L89.6562 22.487C90.0106 22.5372 90.3441 22.6848 90.6196 22.9134C90.895 23.142 91.1015 23.4427 91.216 23.7818C91.3305 24.1209 91.3485 24.4852 91.2681 24.834C91.1877 25.1828 91.0119 25.5023 90.7605 25.7571Z" fill="#04A67D"/>
<path d="M55.9997 4.0745L46.6822 21.457L35.2235 23.3011L48.9424 25.739C49.4316 25.8262 49.9333 25.8144 50.4178 25.7041C50.9023 25.5939 51.3597 25.3876 51.763 25.0973C52.1663 24.807 52.5072 24.4388 52.7656 24.0144C53.024 23.5899 53.1946 23.118 53.2672 22.6264L55.9997 4.0745Z" fill="#24D0A5"/>
<path d="M108.869 76.5326L102.415 83.4168L107.909 92.2171C109.054 94.0545 107.135 96.2045 104.889 95.6288C100.987 94.6145 95.3349 93.0335 88.0841 91.9494L87.4094 91.8482C86.0601 91.6571 84.6499 91.4817 83.1858 91.331C81.3619 91.1443 79.9788 89.8039 79.9788 88.2454V81.5321L94.7299 69.8823C95.67 70.042 96.5673 70.2039 97.4287 70.3659C101.927 71.216 105.372 72.1178 107.693 72.797C109.443 73.3255 110.05 75.2709 108.869 76.5326Z" fill="#FADF7D"/>
<path d="M97.4243 70.3659V86.5586L87.405 91.8392C86.0557 91.6481 84.6455 91.4727 83.1814 91.322C81.3575 91.1353 79.9744 89.7949 79.9744 88.2364V81.5321L94.7255 69.8823C95.6656 70.042 96.5629 70.2039 97.4243 70.3659Z" fill="#CAB053"/>
<path d="M79.9744 81.532V88.2453C79.9843 88.695 80.0978 89.1363 80.3061 89.535C80.5144 89.9336 80.8118 90.2788 81.1753 90.5437L94.7255 84.8201C91.6916 82.065 86.4852 80.484 82.3965 79.6204L79.9744 81.532Z" fill="#FADF7D"/>
<path d="M94.7255 84.82L91.7119 86.093C88.145 84.3792 82.5585 83.6551 79.9744 83.3942V81.5275L82.3965 79.6159C86.4852 80.484 91.6916 82.065 94.7255 84.82Z" fill="#CAB053"/>
<path d="M3.13051 76.5326L9.58512 83.4168L4.09083 92.2171C2.94609 94.0545 4.86448 96.2045 7.11123 95.6288C11.0132 94.6145 16.6649 93.0335 23.9157 91.9494L24.5904 91.8482C25.9398 91.6571 27.3499 91.4817 28.814 91.331C30.6379 91.1443 32.0211 89.8039 32.0211 88.2454V81.5321L17.2677 69.8823C16.3291 70.0413 15.4295 70.2024 14.5689 70.3659C10.0709 71.216 6.62544 72.1178 4.30448 72.797C2.55702 73.3255 1.94979 75.2709 3.13051 76.5326Z" fill="#FADF7D"/>
<path d="M14.5756 70.3659V86.5586L24.5949 91.8392C25.9443 91.6481 27.3544 91.4727 28.8185 91.322C30.6424 91.1353 32.0256 89.7949 32.0256 88.2364V81.5321L17.2722 69.8823C16.3336 70.0413 15.4347 70.2024 14.5756 70.3659Z" fill="#CAB053"/>
<path d="M32.0255 81.532V88.2453C32.0156 88.695 31.9021 89.1363 31.6938 89.535C31.4855 89.9336 31.188 90.2788 30.8245 90.5437L17.2721 84.8201C20.3082 82.065 25.5146 80.484 29.6033 79.6204L32.0255 81.532Z" fill="#FADF7D"/>
<path d="M17.2721 84.8201L20.288 86.0931C23.8549 84.3793 29.4414 83.6552 32.0255 83.3943V81.5276L29.6033 79.6115C25.5146 80.4841 20.3082 82.0651 17.2721 84.8201Z" fill="#CAB053"/>
<path d="M94.7253 63.5536V84.8201C94.7253 84.8201 84.1551 80.1467 55.9999 80.1467C27.8448 80.1467 17.2745 84.8201 17.2745 84.8201V63.5536C17.2745 62.2312 18.2483 61.055 19.7259 60.6164C24.2667 59.267 35.4464 56.7931 55.9999 56.7931C76.5535 56.7931 87.7332 59.2805 92.2739 60.6164C93.7515 61.055 94.7253 62.2312 94.7253 63.5536Z" fill="#FADF7D"/>
<path d="M19.5888 64.1698V78.5049C19.5888 78.5049 24.9301 64.4734 36.2921 60.0069C36.2921 60.0069 27.6424 60.4927 20.5109 62.8856C20.2417 62.9755 20.0076 63.148 19.8421 63.3786C19.6765 63.6091 19.5879 63.886 19.5888 64.1698Z" fill="#FFEFB7"/>
<path d="M29.2031 40.0292L22.9194 46.3736L24.4937 55.401C24.5189 55.5465 24.5026 55.6961 24.4467 55.8326C24.3907 55.9692 24.2974 56.0873 24.1774 56.1732C24.0574 56.2592 23.9156 56.3095 23.7683 56.3185C23.6209 56.3276 23.4741 56.2948 23.3445 56.2242L15.3156 51.8656L7.27992 56.2219C7.1505 56.2929 7.00364 56.3259 6.85629 56.3169C6.70894 56.308 6.56712 56.2576 6.44719 56.1716C6.32726 56.0855 6.23412 55.9673 6.17851 55.8305C6.12291 55.6938 6.1071 55.5441 6.13293 55.3988L7.70723 46.3713L1.42804 40.0292C1.32568 39.9256 1.25415 39.7956 1.22143 39.6538C1.18871 39.5119 1.1961 39.3637 1.24278 39.2258C1.28945 39.0879 1.37356 38.9656 1.48572 38.8728C1.59787 38.7799 1.73364 38.7201 1.87784 38.7L10.6219 37.4586L14.6184 29.9874C14.6851 29.8613 14.785 29.7557 14.9072 29.6821C15.0295 29.6084 15.1695 29.5695 15.3122 29.5695C15.4549 29.5695 15.5949 29.6084 15.7172 29.6821C15.8394 29.7557 15.9393 29.8613 16.006 29.9874L20.016 37.4518L28.7601 38.6933C28.9051 38.7135 29.0415 38.7739 29.154 38.8676C29.2665 38.9613 29.3505 39.0846 29.3966 39.2236C29.4427 39.3625 29.449 39.5116 29.4148 39.654C29.3806 39.7963 29.3073 39.9263 29.2031 40.0292Z" fill="#19B890"/>
<path d="M29.2034 40.0292L22.9197 46.3736L24.494 55.4011C24.5198 55.5464 24.504 55.6961 24.4484 55.8328C24.3928 55.9696 24.2997 56.0878 24.1798 56.1739C24.0598 56.2599 23.918 56.3103 23.7707 56.3192C23.6233 56.3281 23.4764 56.2952 23.347 56.2242L15.3159 51.8656L7.28022 56.2219C7.1508 56.2929 7.00394 56.3259 6.85659 56.317C6.70924 56.3081 6.56742 56.2577 6.44749 56.1716C6.32756 56.0855 6.23442 55.9673 6.17881 55.8306C6.1232 55.6938 6.1074 55.5441 6.13323 55.3988L6.68873 52.2165C9.70463 52.0748 20.5988 50.6579 21.5928 37.6812L28.7558 38.6978C28.9008 38.7172 29.0374 38.7767 29.1502 38.8698C29.263 38.9628 29.3475 39.0856 29.3941 39.2242C29.4407 39.3628 29.4475 39.5117 29.4138 39.6539C29.3801 39.7962 29.3072 39.9262 29.2034 40.0292Z" fill="#04A67D"/>
<path d="M15.0995 31.2243L11.319 38.2772L6.66807 39.0261L12.2343 40.0156C12.4328 40.0509 12.6364 40.0459 12.833 40.0011C13.0295 39.9562 13.2151 39.8724 13.3787 39.7546C13.5423 39.6367 13.6805 39.4872 13.7853 39.3149C13.89 39.1427 13.9592 38.9512 13.9885 38.7517L15.0995 31.2243Z" fill="#24D0A5"/>
<path d="M110.572 40.0292L104.286 46.3668L105.86 55.3943C105.886 55.5396 105.87 55.6893 105.815 55.826C105.759 55.9628 105.666 56.081 105.546 56.1671C105.426 56.2531 105.284 56.3035 105.137 56.3124C104.99 56.3214 104.843 56.2884 104.713 56.2174L96.6844 51.8656L88.6487 56.2219C88.5191 56.2926 88.3722 56.3253 88.2249 56.3163C88.0776 56.3073 87.9358 56.2569 87.8158 56.171C87.6958 56.085 87.6025 55.967 87.5465 55.8304C87.4906 55.6938 87.4743 55.5442 87.4995 55.3988L89.0738 46.3713L82.7968 40.0292C82.6945 39.9256 82.6229 39.7956 82.5902 39.6538C82.5575 39.5119 82.5649 39.3637 82.6116 39.2258C82.6582 39.0879 82.7424 38.9656 82.8545 38.8728C82.9667 38.7799 83.1024 38.7201 83.2466 38.7L91.984 37.4518L95.9849 29.9874C96.0517 29.8613 96.1515 29.7557 96.2738 29.6821C96.396 29.6084 96.536 29.5695 96.6787 29.5695C96.8215 29.5695 96.9615 29.6084 97.0837 29.6821C97.206 29.7557 97.3058 29.8613 97.3726 29.9874L101.376 37.4518L110.12 38.6933C110.266 38.7121 110.403 38.7714 110.517 38.8646C110.63 38.9577 110.716 39.0809 110.763 39.2201C110.81 39.3593 110.817 39.509 110.783 39.652C110.75 39.795 110.676 39.9257 110.572 40.0292Z" fill="#19B890"/>
<path d="M110.57 40.0292L104.286 46.3669L105.86 55.3943C105.886 55.5397 105.87 55.6893 105.815 55.8261C105.759 55.9628 105.666 56.081 105.546 56.1671C105.426 56.2532 105.284 56.3036 105.137 56.3125C104.99 56.3214 104.843 56.2884 104.713 56.2174L96.6844 51.8656L88.6488 56.2219C88.5192 56.2926 88.3723 56.3253 88.225 56.3163C88.0777 56.3073 87.9359 56.2569 87.8159 56.171C87.6959 56.0851 87.6025 55.967 87.5466 55.8304C87.4906 55.6938 87.4743 55.5442 87.4995 55.3988L88.0573 52.2165C91.0709 52.0748 101.965 50.6579 102.961 37.6812L110.122 38.6978C110.267 38.7172 110.404 38.7767 110.516 38.8698C110.629 38.9628 110.714 39.0856 110.76 39.2242C110.807 39.3628 110.814 39.5117 110.78 39.6539C110.746 39.7962 110.674 39.9262 110.57 40.0292Z" fill="#04A67D"/>
<path d="M96.4661 31.2243L92.6855 38.2772L88.0369 39.0261L93.6009 40.0156C93.7994 40.0509 94.0029 40.0459 94.1995 40.0011C94.3961 39.9562 94.5816 39.8724 94.7452 39.7546C94.9088 39.6367 95.0471 39.4872 95.1518 39.3149C95.2566 39.1427 95.3257 38.9512 95.3551 38.7517L96.4661 31.2243Z" fill="#24D0A5"/>
</svg>
