<svg width="75" height="74" viewBox="0 0 75 74" fill="none" xmlns="http://www.w3.org/2000/svg">
<path d="M69.4597 6.5304C69.2235 6.5304 68.997 6.62422 68.83 6.79122C68.663 6.95822 68.5692 7.18473 68.5692 7.4209V28.1994C68.5692 28.4356 68.663 28.6621 68.83 28.8291C68.997 28.9961 69.2235 29.0899 69.4597 29.0899C69.6959 29.0899 69.9224 28.9961 70.0894 28.8291C70.2564 28.6621 70.3502 28.4356 70.3502 28.1994V7.4209C70.3502 7.18473 70.2564 6.95822 70.0894 6.79122C69.9224 6.62422 69.6959 6.5304 69.4597 6.5304ZM4.74946 6.5304C4.51328 6.5304 4.28677 6.62422 4.11977 6.79122C3.95277 6.95822 3.85895 7.18473 3.85895 7.4209V28.1994C3.85895 28.4356 3.95277 28.6621 4.11977 28.8291C4.28677 28.9961 4.51328 29.0899 4.74946 29.0899C4.98563 29.0899 5.21214 28.9961 5.37914 28.8291C5.54614 28.6621 5.63996 28.4356 5.63996 28.1994V7.4209C5.63996 7.18473 5.54614 6.95822 5.37914 6.79122C5.21214 6.62422 4.98563 6.5304 4.74946 6.5304Z" fill="#D2D2D2"/>
<path d="M69.4595 9.49875C72.0825 9.49875 74.2089 7.37238 74.2089 4.74938C74.2089 2.12637 72.0825 0 69.4595 0C66.8365 0 64.7101 2.12637 64.7101 4.74938C64.7101 7.37238 66.8365 9.49875 69.4595 9.49875Z" fill="white"/>
<path d="M4.74938 9.49875C7.37238 9.49875 9.49875 7.37238 9.49875 4.74938C9.49875 2.12637 7.37238 0 4.74938 0C2.12637 0 0 2.12637 0 4.74938C0 7.37238 2.12637 9.49875 4.74938 9.49875Z" fill="white"/>
<path d="M6.00718 37.6768C6.01869 33.366 7.18735 29.1373 9.39111 25.4323C7.0008 25.5669 4.73275 26.533 2.97946 28.1632C0.486033 30.6453 0.379172 33.8904 0.221255 38.591C0.0585888 43.4093 -0.0476786 46.5837 2.2433 49.0783C4.47432 51.6382 7.5442 51.7961 10.4758 51.6311C7.5858 47.5503 6.0253 42.6772 6.00718 37.6768ZM73.9904 38.5887C73.8324 33.888 73.7232 30.643 71.2322 28.1608C69.4789 26.5306 67.2108 25.5646 64.8205 25.4299C67.2058 29.4291 68.3736 34.0369 68.1809 38.6894C67.9883 43.3419 66.4436 47.8374 63.7359 51.6257C66.6733 51.7925 69.6999 51.6079 71.9683 49.0729C74.2284 46.5546 74.153 43.4087 73.9904 38.5887Z" fill="#028464"/>
<path d="M68.2017 37.6767C68.2017 22.7584 54.2789 10.6647 37.1046 10.6647C19.9302 10.6647 6.00745 22.7584 6.00745 37.6767C6.00745 49.4979 14.7528 59.5387 26.9273 63.2011C26.0724 64.9227 24.7093 66.4936 22.901 68.6219C22.4517 69.1513 22.1828 69.81 22.1335 70.5026C22.0841 71.1952 22.2568 71.8854 22.6264 72.4732C22.9961 73.0609 23.5435 73.5155 24.1891 73.7709C24.8347 74.0264 25.5449 74.0694 26.2166 73.8937C32.3559 72.2712 37.9135 68.9508 42.2517 64.3136C56.9754 62.1823 68.2017 51.0712 68.2017 37.6767Z" fill="#19B890"/>
<path d="M37.1043 15.1173C21.7448 15.1173 10.8153 28.4553 12.4318 43.5868C12.7183 46.3561 14.0188 48.9217 16.0831 50.7898C18.1474 52.6579 20.8296 53.6966 23.6137 53.706C30.359 53.687 30.359 49.9415 37.1043 49.9415C43.8496 49.9415 43.8496 53.687 50.5949 53.706C53.3789 53.6966 56.0612 52.6579 58.1254 50.7898C60.1897 48.9217 61.4902 46.3561 61.7767 43.5868C63.3932 28.4553 52.4637 15.1173 37.1043 15.1173Z" fill="white"/>
<path d="M22.6868 38.9698C24.3262 38.9698 25.6552 37.6408 25.6552 36.0014C25.6552 34.3621 24.3262 33.0331 22.6868 33.0331C21.0474 33.0331 19.7184 34.3621 19.7184 36.0014C19.7184 37.6408 21.0474 38.9698 22.6868 38.9698Z" fill="#19B890"/>
<path d="M37.1048 38.9698C38.7442 38.9698 40.0731 37.6408 40.0731 36.0014C40.0731 34.3621 38.7442 33.0331 37.1048 33.0331C35.4654 33.0331 34.1364 34.3621 34.1364 36.0014C34.1364 37.6408 35.4654 38.9698 37.1048 38.9698Z" fill="#19B890"/>
<path d="M51.5229 38.9698C53.1622 38.9698 54.4912 37.6408 54.4912 36.0014C54.4912 34.3621 53.1622 33.0331 51.5229 33.0331C49.8835 33.0331 48.5545 34.3621 48.5545 36.0014C48.5545 37.6408 49.8835 38.9698 51.5229 38.9698Z" fill="#19B890"/>
</svg>
